<svg xmlns="http://www.w3.org/2000/svg" xmlns:xlink="http://www.w3.org/1999/xlink" viewBox="0 0 187.26 187.26"><defs><clipPath id="clip-path"><circle cx="93.68" cy="93.68" r="34.05" style="fill:none"/></clipPath></defs><title>dollar_funds_green</title><g id="Layer_2" data-name="Layer 2"><g id="Layer_1-2" data-name="Layer 1"><g id="Layer_1-2-2" data-name="Layer 1-2"><g id="CW-Colours"><circle cx="93.68" cy="93.68" r="34.05" style="fill:#cdf2ca"/><path d="M124.86,75.51a36,36,0,0,0-31.16-18v36Z" style="fill:#e9ffea"/><path d="M127.49,68.85a34,34,0,0,0-29.44-17v34Z" style="fill:#58cc58"/><g style="clip-path:url(#clip-path)"><path d="M93.68,187.26a93.63,93.63,0,1,1,93.58-93.68v.1A93.71,93.71,0,0,1,93.68,187.26Zm0-186.06a92.46,92.46,0,1,0,92.45,92.45h0A92.6,92.6,0,0,0,93.68,1.2Z" style="fill:#58cc58"/><rect x="93.1" y="93.68" width="1.16" height="93.05" style="fill:#58cc58"/><rect x="133.37" y="70.42" width="1.16" height="93.05" transform="translate(-34.3 174.48) rotate(-60)" style="fill:#58cc58"/><rect x="52.79" y="23.88" width="1.16" height="93.05" transform="translate(-34.29 81.43) rotate(-60)" style="fill:#58cc58"/><rect x="6.85" y="116.38" width="93.05" height="1.16" transform="translate(-51.29 42.3) rotate(-29.97)" style="fill:#58cc58"/><path d="M74.93,96.08l-8.18-.28L66.89,92l8.18.28Zm-7.16-1.27L74,95V93.17L67.79,93Z" style="fill:#58cc58"/></g><path d="M82.26,79.44a4.63,4.63,0,1,1,4.62-4.62A4.62,4.62,0,0,1,82.26,79.44Zm0-8A3.4,3.4,0,1,0,85.56,75v-.09A3.39,3.39,0,0,0,82.26,71.49Z" style="fill:#58cc58"/><path d="M105.23,66.87a4.26,4.26,0,1,1,4.26-4.26A4.25,4.25,0,0,1,105.23,66.87Zm0-6.2a1.94,1.94,0,1,0,2,1.94A2,2,0,0,0,105.23,60.67Z" style="fill:#fff"/><path d="M102.78,116.33a5.13,5.13,0,1,1,5.13-5.13A5.13,5.13,0,0,1,102.78,116.33Zm0-8a2.82,2.82,0,1,0,2.82,2.82,2.82,2.82,0,0,0-2.82-2.82Z" style="fill:#fff"/></g></g></g></g></svg>