<svg id="Layer_1" data-name="Layer 1" xmlns="http://www.w3.org/2000/svg" viewBox="0 0 800 800"><defs><style>.cls-1{fill:none}.cls-2{fill:#e1f6ff}.cls-3{fill:#bce5f7}.cls-5{fill:#fff}</style><clipPath id="clip-path"><rect class="cls-1" width="800" height="800" rx="45"/></clipPath><pattern id="b" data-name="b" width="36.88" height="21.29" patternTransform="matrix(-3.28 12.22 12.22 3.28 -3686.44 -1898.44)" patternUnits="userSpaceOnUse"><path class="cls-1" d="M0 0h36.88v21.29H0z"/><path class="cls-1" d="M0 21.29h36.88V0H0z"/><path class="cls-1" d="M0 21.29h36.88V0H0z"/><path class="cls-2" d="M0 0h.75L0 .43zm4.85 0L0 2.8v-.87L3.35 0zm4.09 0L0 5.16V4.3L7.45 0zM13 0L0 7.53v-.87L11.54 0zm4.1 0L0 9.9V9l15.64-9zm4.1 0L0 12.26v-.86L19.74 0zm4.09 0L0 14.63v-.87L23.83 0zm4.1 0L0 17v-.86L27.93 0zm4.1 0L0 19.36v-.87L32 0zm3.35 0v.43L.75 21.29H0v-.43L36.13 0zm0 2.8l-32 18.49H3.35L36.88 1.93zm0 2.36L8.94 21.29H7.45l29.43-17zm0 2.37L13 21.29h-1.5L36.88 6.66zm0 2.37l-19.7 11.39h-1.5L36.88 9zm0 2.36l-15.64 9h-1.5l17.18-9.86zm0 2.37l-11.51 6.66h-1.5l13.05-7.53zm0 2.36l-7.45 4.3h-1.5l9-5.16zm0 2.37l-3.35 1.93H32l4.85-2.8zm0 1.93h-.75l.75-.43z"/></pattern><pattern id="c" data-name="c" width="22.24" height="24.72" patternTransform="matrix(6.63 0 0 5.61 -460.25 -455.83)" patternUnits="userSpaceOnUse"><path class="cls-1" d="M0 0h22.24v24.72H0z"/><path class="cls-1" d="M0 24.72h22.24V0H0z"/><path class="cls-1" d="M0 24.72h22.24V0H0z"/><path class="cls-2" d="M16.68 24.72H27.8V0H16.68z"/><path class="cls-3" d="M16.68.35v.31-.31zm0 23.71v.31-.31zM27.8 22.2v.49a6.9 6.9 0 0 1-1.11 1 2.3 2.3 0 0 0 1.1.32v.31a2.87 2.87 0 0 1-1.39-.43 2.47 2.47 0 0 1-2.78 0 2.47 2.47 0 0 1-2.78 0 2.81 2.81 0 0 1-1.39.43h-.05A3.25 3.25 0 0 1 18 24a2.6 2.6 0 0 1-1.3.39v-.31a2.16 2.16 0 0 0 1-.27 3.46 3.46 0 0 1-1-1.06v-.55a15.19 15.19 0 0 0 1.21-1.86c-.21-.38-.33-.65-.35-.7L16.68 18v-.67L17.89 15l-1.21-2.32V12l1.21-2.31-1.21-2.3v-.67l.86-1.65c0-.05.15-.31.35-.7a15.88 15.88 0 0 0-1.21-1.85V2a4.07 4.07 0 0 1 .75-.8l.34-.2a2.33 2.33 0 0 0-1.09-.34V.35a2.6 2.6 0 0 1 1.4.44 2.72 2.72 0 0 1 1.39-.44 2.75 2.75 0 0 1 1.4.41 2.44 2.44 0 0 1 2.75 0 2.44 2.44 0 0 1 2.78 0 2.67 2.67 0 0 1 1.39-.41v.31a2.3 2.3 0 0 0-1.1.32 6 6 0 0 1 1.1 1v.49a15.19 15.19 0 0 0-1.21 1.86c.21.39.33.66.35.7l.86 1.65v.67l-1.21 2.36L27.79 12v.66L26.58 15l1.21 2.32V18l-.86 1.65s-.15.31-.35.69a14.47 14.47 0 0 0 1.21 1.86zm-1.39-6.86l-1.22 2.32 1 1.85s.09.2.25.5c.15-.29.24-.48.24-.49l1-1.86zM20.85 10l-1.22 2.32 1.22 2.32 1.21-2.32zm1.39 2l1.21-2.32-1.21-2.29L21 9.71zM21 15l1.22 2.32L23.45 15l-1.21-2.32zm2.61-.33l1.21-2.32L23.63 10l-1.22 2.32zm.17.33L25 17.33 26.23 15 25 12.69zM25 12l1.21-2.32L25 7.39l-1.2 2.32zm.86-7s.14-.31.35-.69A14.58 14.58 0 0 0 25 2.51a14 14 0 0 0-1.21 1.85 6.88 6.88 0 0 1 .34.72L25 6.72zm-2.25-.38l-.25.51-1 1.85 1.22 2.32 1.21-2.32-1-1.84s-.01-.14-.16-.45zm-.17-.33a13.62 13.62 0 0 0-1.2-1.88A14.09 14.09 0 0 0 21 4.38c.21.38.33.65.35.7l.87 1.64.86-1.65c0-.05.15-.32.36-.71zm-2.61.35c-.16.29-.24.48-.25.49l-1 1.85L20.8 9.3l1.21-2.32-1-1.84s-.1-.21-.25-.5zm-.18-.33a14.58 14.58 0 0 0-1.21-1.87 14.18 14.18 0 0 0-1.22 1.86c.21.39.33.66.35.7l.87 1.65L20.3 5s.15-.31.35-.69zm-1.21 3l-1.2 2.4L19.46 12l1.21-2.32zm0 5.3L18.24 15l1.22 2.32L20.67 15zm0 5.31l-.87 1.65a7.43 7.43 0 0 1-.35.69 13.54 13.54 0 0 0 1.22 1.86 13.81 13.81 0 0 0 1.21-1.86c-.21-.38-.33-.65-.35-.7zm1.39 2c.15-.29.24-.48.24-.49l1-1.86-1.21-2.32-1.22 2.32 1 1.85s.05.29.21.58zm.17.33a13.54 13.54 0 0 0 1.22 1.86 14.47 14.47 0 0 0 1.21-1.86c-.21-.38-.33-.65-.35-.7L22.24 18l-.87 1.65a7.43 7.43 0 0 1-.37.69zm2.63-.25c.15-.29.24-.48.24-.49l1-1.86-1.21-2.31-1.22 2.31 1 1.85s.09.2.25.5zm.17.33A13.54 13.54 0 0 0 25 22.2a13.81 13.81 0 0 0 1.21-1.86c-.21-.38-.33-.65-.35-.7L25 18l-.87 1.65s-.13.35-.33.69zM26.41 10l-1.22 2.32 1.21 2.32 1.22-2.32zm0-5.33a7.5 7.5 0 0 0-.25.49l-1 1.85 1.24 2.36 1.22-2.32-1-1.84a4.74 4.74 0 0 0-.25-.5zm-1.19-2.4a13.07 13.07 0 0 1 1.18 1.78 14.15 14.15 0 0 1 1.19-1.78 6 6 0 0 0-1.19-1.12 6.27 6.27 0 0 0-1.18 1.12zM23.91 1A6.43 6.43 0 0 1 25 2a6 6 0 0 1 1.1-1 2.05 2.05 0 0 0-2.19 0zm-1.44 1.23A13.2 13.2 0 0 1 23.64 4a12.22 12.22 0 0 1 1.17-1.76 6.27 6.27 0 0 0-1.18-1.12 6 6 0 0 0-1.16 1.11zM21.16 1a6.34 6.34 0 0 1 1.1 1 6.91 6.91 0 0 1 1.08-1 2.06 2.06 0 0 0-2.18 0zm-.29.18a6.17 6.17 0 0 0-1.21 1.13 14.15 14.15 0 0 1 1.19 1.78 12.15 12.15 0 0 1 1.21-1.81 6.2 6.2 0 0 0-1.19-1.14zM18.36 1a7.74 7.74 0 0 1 1.1 1 6.49 6.49 0 0 1 1.11-1 2.29 2.29 0 0 0-1.11-.34 2.34 2.34 0 0 0-1.1.32zm-.29 3.07a13.07 13.07 0 0 1 1.18-1.78 5.75 5.75 0 0 0-1.19-1.12c-.15.1-.3.2-.44.31a3.51 3.51 0 0 0-.74.8 14.26 14.26 0 0 1 1.19 1.77zm0 5.32l1.21-2.32-1-1.84s-.1-.21-.25-.5a7.5 7.5 0 0 0-.25.49l-1 1.85zm0 5.31l1.21-2.32L18.07 10l-1.22 2.32zm0 5.33c.15-.29.24-.48.24-.49l1-1.86-1.21-2.32-1.22 2.32 1 1.85a4.74 4.74 0 0 0 .19.47zm1.18 2.44a13.07 13.07 0 0 1-1.18-1.78 13.41 13.41 0 0 1-1.2 1.8A3.33 3.33 0 0 0 18 23.63a5.94 5.94 0 0 0 1.25-1.18zm1.31 1.29a6.45 6.45 0 0 1-1.1-1 6.47 6.47 0 0 1-1.18 1.1 3 3 0 0 0 1.17.27 2.3 2.3 0 0 0 1.11-.32zM22 22.45a13.07 13.07 0 0 1-1.18-1.78 14.15 14.15 0 0 1-1.19 1.78 5.91 5.91 0 0 0 1.18 1.11A5.71 5.71 0 0 0 22 22.45zm1.31 1.29a6.45 6.45 0 0 1-1.1-1 6.9 6.9 0 0 1-1.11 1 2.05 2.05 0 0 0 2.21 0zm1.47-1.29a13.07 13.07 0 0 1-1.18-1.78 14.15 14.15 0 0 1-1.19 1.78 6 6 0 0 0 1.19 1.11 5.91 5.91 0 0 0 1.21-1.11zm1.31 1.29a6.45 6.45 0 0 1-1.1-1 6.9 6.9 0 0 1-1.11 1 2.05 2.05 0 0 0 2.24 0zm1.47-1.29a14.15 14.15 0 0 1-1.19-1.78 13.07 13.07 0 0 1-1.18 1.78 5.91 5.91 0 0 0 1.18 1.11 5.71 5.71 0 0 0 1.22-1.11z"/><path class="cls-2" d="M5.56 24.72h11.12V0H5.56z"/><path class="cls-3" d="M5.56.35v.31-.31zm0 23.71v.31-.31zM16.68 22.2v.49a6.9 6.9 0 0 1-1.11 1 2.3 2.3 0 0 0 1.11.32v.31a2.81 2.81 0 0 1-1.39-.43 2.87 2.87 0 0 1-1.39.43 2.81 2.81 0 0 1-1.39-.43 2.87 2.87 0 0 1-1.39.43 2.81 2.81 0 0 1-1.39-.43 2.87 2.87 0 0 1-1.39.43h-.05A3.25 3.25 0 0 1 6.86 24a2.6 2.6 0 0 1-1.3.39v-.31a2.24 2.24 0 0 0 1-.26 3.84 3.84 0 0 1-1-1.06v-.56a14.1 14.1 0 0 0 1.21-1.86c-.2-.38-.33-.65-.35-.7L5.56 18v-.67L6.78 15l-1.22-2.31V12l1.22-2.29-1.22-2.32v-.67l.87-1.65c0-.05.14-.31.34-.69a14.1 14.1 0 0 0-1.21-1.86V2a4.07 4.07 0 0 1 .75-.8l.34-.2A2.2 2.2 0 0 0 5.56.66V.35A2.69 2.69 0 0 1 7 .79 2.75 2.75 0 0 1 8.35.35a2.75 2.75 0 0 1 1.4.41 2.48 2.48 0 0 1 2.76 0A2.62 2.62 0 0 1 13.9.35a2.67 2.67 0 0 1 1.39.43 2.62 2.62 0 0 1 1.39-.43v.31a2.23 2.23 0 0 0-1.1.32 6.75 6.75 0 0 1 1.1 1v.49a13.16 13.16 0 0 0-1.21 1.86l.35.7.86 1.65v.67l-1.22 2.36L16.68 12v.66L15.46 15l1.22 2.32V18l-.87 1.65s-.14.31-.34.69a12.61 12.61 0 0 0 1.21 1.86zm-1.39-6.86l-1.22 2.32 1 1.85s.09.2.25.5c.15-.29.24-.48.24-.49l1-1.86zM9.73 10l-1.22 2.36 1.22 2.32 1.21-2.32zm1.39 2l1.22-2.32-1.22-2.29L9.9 9.71zM9.9 15l1.22 2.32L12.33 15l-1.21-2.32zm2.61-.33l1.21-2.32L12.51 10l-1.22 2.32zm.17.33l1.22 2.32L15.11 15l-1.21-2.31zm1.22-3l1.21-2.32-1.21-2.29-1.22 2.32zm.86-7s.15-.31.35-.69a14.58 14.58 0 0 0-1.21-1.8 15.08 15.08 0 0 0-1.21 1.85 6.88 6.88 0 0 1 .34.72l.87 1.64zm-2.25-.38c-.15.3-.24.5-.25.51l-1 1.85 1.22 2.32 1.21-2.32-1-1.84s-.03-.14-.18-.45zm-.17-.33a13.62 13.62 0 0 0-1.2-1.88A14.09 14.09 0 0 0 9.9 4.38c.21.38.33.65.35.7l.87 1.64.88-1.65c0-.05.15-.32.36-.71zm-2.61.35c-.16.29-.24.48-.25.49l-1 1.85 1.25 2.39 1.21-2.32L10 5.21s-.1-.21-.25-.5zm-.18-.33a13.58 13.58 0 0 0-1.21-1.8 13.16 13.16 0 0 0-1.21 1.86l.35.7.86 1.65.86-1.65s.15-.31.35-.69zm-1.21 3l-1.22 2.4L8.34 12l1.21-2.29zm0 5.3L7.12 15l1.22 2.32L9.55 15zm0 5.31l-.87 1.65c-.11.24-.22.47-.34.69a13.48 13.48 0 0 0 1.21 1.94 12.9 12.9 0 0 0 1.21-1.86c-.21-.38-.33-.65-.35-.7zm1.39 2c.15-.29.24-.48.24-.49l1-1.86-1.24-2.23-1.22 2.32 1 1.85s.06.2.22.49zm.17.33a13.54 13.54 0 0 0 1.22 1.86 13.48 13.48 0 0 0 1.21-1.86c-.21-.38-.33-.65-.35-.7L11.12 18l-.87 1.65s-.14.35-.35.69zm2.61-.25c.15-.29.24-.48.24-.49l1-1.86-1.21-2.31-1.22 2.31 1 1.85s.09.2.25.5zm.18.33a12.61 12.61 0 0 0 1.21 1.87 13.81 13.81 0 0 0 1.21-1.86c-.21-.38-.33-.65-.35-.7L13.9 18l-.9 1.65s-.11.35-.31.69zM15.29 10l-1.22 2.32 1.22 2.32 1.21-2.32zm0-5.33a7.5 7.5 0 0 0-.25.49l-1 1.85 1.22 2.32 1.24-2.28-1-1.84s-.06-.21-.21-.5zm-1.19-2.4a14.15 14.15 0 0 1 1.19 1.78 13.07 13.07 0 0 1 1.18-1.78 6.27 6.27 0 0 0-1.18-1.12 6 6 0 0 0-1.19 1.12zM12.8 1a6.75 6.75 0 0 1 1.1 1A6 6 0 0 1 15 1a2.05 2.05 0 0 0-2.2 0zm-1.45 1.23A13.2 13.2 0 0 1 12.52 4a13.12 13.12 0 0 1 1.17-1.76 6.27 6.27 0 0 0-1.18-1.12 6.27 6.27 0 0 0-1.16 1.11zM10.05 1a7.14 7.14 0 0 1 1.1 1 6.43 6.43 0 0 1 1.07-1 2.23 2.23 0 0 0-1.1-.32 2.21 2.21 0 0 0-1.07.32zm-.3.18a6.17 6.17 0 0 0-1.21 1.09 14.15 14.15 0 0 1 1.19 1.78 13 13 0 0 1 1.21-1.81 6.2 6.2 0 0 0-1.19-1.1zM7.24 1a7.74 7.74 0 0 1 1.1 1 6.2 6.2 0 0 1 1.12-1A2.36 2.36 0 0 0 8.34.66a2.34 2.34 0 0 0-1.1.34zM7 4.05a14.08 14.08 0 0 1 1.13-1.78 5.75 5.75 0 0 0-1.19-1.12c-.15.1-.3.2-.44.31a4 4 0 0 0-.74.8A14.26 14.26 0 0 1 7 4.05zm0 5.32l1.16-2.32-1-1.84-.16-.5a7.5 7.5 0 0 0-.25.49l-1 1.85zm0 5.31l1.21-2.32L7 10l-1.27 2.36zM7 20c.15-.29.24-.48.24-.49l1-1.86L7 15.34l-1.27 2.32 1 1.85A4.74 4.74 0 0 0 7 20zm1.18 2.44A14.08 14.08 0 0 1 7 20.67a13.41 13.41 0 0 1-1.2 1.8 3.33 3.33 0 0 0 1.11 1.16 5.94 5.94 0 0 0 1.22-1.18zm1.31 1.29a6.45 6.45 0 0 1-1.1-1 6.42 6.42 0 0 1-1.17 1.1 2.9 2.9 0 0 0 1.16.27 2.3 2.3 0 0 0 1.11-.32zm1.47-1.29a14.08 14.08 0 0 1-1.18-1.78 14.15 14.15 0 0 1-1.19 1.78 6 6 0 0 0 1.19 1.11 5.91 5.91 0 0 0 1.13-1.1zm1.31 1.29a6.45 6.45 0 0 1-1.1-1 7.28 7.28 0 0 1-1.1 1 2.05 2.05 0 0 0 2.2 0zm1.47-1.29a14.08 14.08 0 0 1-1.18-1.78 14.15 14.15 0 0 1-1.19 1.78 6 6 0 0 0 1.19 1.11 5.91 5.91 0 0 0 1.13-1.1zm1.26 1.3a6.45 6.45 0 0 1-1.1-1 7.28 7.28 0 0 1-1.1 1 2.05 2.05 0 0 0 2.2 0zm1.47-1.29a13.07 13.07 0 0 1-1.18-1.78 14.15 14.15 0 0 1-1.19 1.78 6 6 0 0 0 1.19 1.11 5.91 5.91 0 0 0 1.18-1.11z"/><path class="cls-2" d="M-5.56 24.72H5.56V0H-5.56z"/><path class="cls-3" d="M5.56 22.2v.49a7.28 7.28 0 0 1-1.1 1 2.23 2.23 0 0 0 1.1.32v.31a2.81 2.81 0 0 1-1.39-.43 2.67 2.67 0 0 1-1.39.43 2.65 2.65 0 0 1-1.39-.43 2.65 2.65 0 0 1-1.39.48 2.65 2.65 0 0 1-1.39-.43 2.65 2.65 0 0 1-1.39.43h-.05A3.18 3.18 0 0 1-4.25 24a2.67 2.67 0 0 1-1.31.39v-.31a2.32 2.32 0 0 0 1-.26 3.88 3.88 0 0 1-1-1.06v-.56a14.1 14.1 0 0 0 1.21-1.86c-.2-.38-.33-.65-.35-.7L-5.56 18v-.67L-4.34 15l-1.22-2.32V12l1.22-2.32-1.22-2.29v-.67l.87-1.65c0-.05.14-.31.34-.69a14.1 14.1 0 0 0-1.21-1.86V2a4.12 4.12 0 0 1 .76-.8 3.29 3.29 0 0 1 .33-.2A2.2 2.2 0 0 0-5.56.66V.35a2.69 2.69 0 0 1 1.4.44A2.78 2.78 0 0 1-2.77.35a2.82 2.82 0 0 1 1.41.41A2.61 2.61 0 0 1 0 .35a2.65 2.65 0 0 1 1.39.43A2.65 2.65 0 0 1 2.78.35a2.65 2.65 0 0 1 1.39.43A2.62 2.62 0 0 1 5.56.35v.31a2.23 2.23 0 0 0-1.1.34 6.75 6.75 0 0 1 1.1 1v.49a14.1 14.1 0 0 0-1.21 1.88l.35.7.86 1.65v.67L4.34 9.71 5.56 12v.66L4.34 15l1.22 2.32V18l-.87 1.65c-.11.24-.22.47-.34.69a12.9 12.9 0 0 0 1.21 1.86zm-1.39-6.86L3 17.66l1 1.85s.09.2.25.5c.15-.29.24-.48.24-.49l1-1.86zM-1.39 10l-1.22 2.32 1.22 2.32 1.22-2.32zM0 12l1.22-2.29L0 7.39l-1.22 2.32zm-1.22 3L0 17.33 1.22 15 0 12.69zm2.61-.33l1.22-2.32L1.39 10 .17 12.36zm.17.33l1.22 2.32L4 15l-1.22-2.31zm1.22-3L4 9.71 2.78 7.39 1.56 9.71zm.87-7s.14-.31.34-.69a13.58 13.58 0 0 0-1.21-1.8 13.93 13.93 0 0 0-1.2 1.85c.2.39.32.67.34.72l.86 1.64zM1.4 4.69c-.16.3-.25.5-.26.51l-1 1.85 1.25 2.32 1.22-2.32-1-1.84S1.55 5 1.4 4.69zm-.18-.33A12 12 0 0 0 0 2.48a14 14 0 0 0-1.23 1.9c.2.38.33.65.35.7L0 6.72l.87-1.65c0-.05.14-.32.35-.71zm-2.61.35c-.15.29-.24.48-.24.49l-1 1.85 1.22 2.32 1.24-2.32-1-1.84s-.1-.21-.25-.5zm-.18-.33a13.58 13.58 0 0 0-1.21-1.87A14.1 14.1 0 0 0-4 4.37c.2.39.33.66.35.7l.86 1.65.87-1.65s.14-.31.34-.69zm-1.21 3L-4 9.71-2.78 12l1.22-2.32zm0 5.3L-4 15l1.21 2.32L-1.56 15zm0 5.31l-.87 1.65s-.14.31-.34.69a13.48 13.48 0 0 0 1.21 1.87 12.9 12.9 0 0 0 1.21-1.86c-.2-.38-.33-.65-.35-.7zm1.39 2l.25-.49 1-1.86-1.22-2.32-1.22 2.32 1 1.85s.04.22.19.51zm.18.33A13.48 13.48 0 0 0 0 22.2a13.48 13.48 0 0 0 1.21-1.86c-.2-.38-.33-.65-.35-.7L0 18l-.87 1.65s-.14.31-.34.69zm2.6-.32l.25-.49 1-1.86-1.25-2.3-1.22 2.31 1 1.85.25.5zm.18.33a13.48 13.48 0 0 0 1.21 1.87A12.9 12.9 0 0 0 4 20.34c-.2-.38-.33-.65-.35-.7L2.78 18l-.87 1.65s-.14.31-.34.69zM4.17 10L3 12.36l1.22 2.32 1.22-2.32zm0-5.33a7.5 7.5 0 0 0-.25.49L3 7.05l1.17 2.32 1.22-2.32-1-1.84s-.07-.21-.22-.5zM3 2.27a14.15 14.15 0 0 1 1.17 1.78 13.14 13.14 0 0 1 1.19-1.78 6.64 6.64 0 0 0-1.19-1.12A6.64 6.64 0 0 0 3 2.27zM1.68 1a6.75 6.75 0 0 1 1.1 1 6.75 6.75 0 0 1 1.1-1 2.23 2.23 0 0 0-1.1-.34 2.23 2.23 0 0 0-1.1.34zM.23 2.24A12.52 12.52 0 0 1 1.4 4a13.18 13.18 0 0 1 1.18-1.73 6.25 6.25 0 0 0-1.19-1.11A5.93 5.93 0 0 0 .23 2.24zM-1.07 1A6.34 6.34 0 0 1 0 2a7.31 7.31 0 0 1 1.1-1A2.23 2.23 0 0 0 0 .66 2.21 2.21 0 0 0-1.07 1zm-.3.18a5.85 5.85 0 0 0-1.2 1.13 14.08 14.08 0 0 1 1.18 1.74A13 13 0 0 1-.18 2.24a5.66 5.66 0 0 0-1.19-1.1zM-3.88 1a6.8 6.8 0 0 1 1.1 1 6.55 6.55 0 0 1 1.12-1A2.33 2.33 0 0 0-2.78.66a2.38 2.38 0 0 0-1.1.34zm-.29 3.07A14.15 14.15 0 0 1-3 2.27a6.3 6.3 0 0 0-1.17-1.12c-.16.1-.3.2-.45.31a4 4 0 0 0-.74.8 14.26 14.26 0 0 1 1.19 1.79zm0 5.32l1.22-2.32-1-1.84a4.74 4.74 0 0 0-.25-.5c-.08.16-.17.32-.24.49l-1 1.85zm0 5.31l1.22-2.32L-4.17 10l-1.21 2.32zm0 5.33l.25-.49 1-1.86-1.22-2.32-1.21 2.32 1 1.85s.03.19.18.47zM-3 22.45a14.15 14.15 0 0 1-1.19-1.78 13.41 13.41 0 0 1-1.2 1.8 3.33 3.33 0 0 0 1.11 1.16A6.24 6.24 0 0 0-3 22.45zm1.3 1.29a7.24 7.24 0 0 1-1.1-1 6.72 6.72 0 0 1-1.17 1.09 2.9 2.9 0 0 0 1.16.27 2.27 2.27 0 0 0 1.11-.32zm1.5-1.29a13.14 13.14 0 0 1-1.19-1.78 14.08 14.08 0 0 1-1.18 1.78 5.91 5.91 0 0 0 1.18 1.11A6.25 6.25 0 0 0-.2 22.45zm1.3 1.29a7.28 7.28 0 0 1-1.1-1 7.28 7.28 0 0 1-1.1 1 2.23 2.23 0 0 0 1.1.32 2.23 2.23 0 0 0 1.1-.32zm1.48-1.29a13.14 13.14 0 0 1-1.19-1.78A13.14 13.14 0 0 1 .2 22.45a6.25 6.25 0 0 0 1.19 1.11 6.25 6.25 0 0 0 1.19-1.11zm1.3 1.29a7.28 7.28 0 0 1-1.1-1 7.28 7.28 0 0 1-1.1 1 2.23 2.23 0 0 0 1.1.32 2.23 2.23 0 0 0 1.1-.32zm1.48-1.29a13.14 13.14 0 0 1-1.19-1.78A13.14 13.14 0 0 1 3 22.45a6.25 6.25 0 0 0 1.19 1.11 6.25 6.25 0 0 0 1.17-1.11z"/></pattern><clipPath id="clip-path-2"><circle class="cls-1" cx="370.99" cy="349.12" r="93.98"/></clipPath></defs><g clip-path="url(#clip-path)"><path class="cls-5" d="M145 307.08h707.83v893.31H145z"/><path d="M194 1151.39V356.08h609.83v795.31z" fill="url(#b)"/><path d="M834.83 325.08v857.31H163V325.08h671.83m18-18H145v893.31h707.83z" fill="#74d2fb"/><path d="M310.08 600l-22.24-34.1-37.33 18.83 56-208.85L366 391.12 310.08 600zm112.35 0l22.23-34.1L482 584.71l-56-208.85-59.56 15.26 56 208.86z" fill="#5ac8fa"/><circle cx="370.99" cy="349.12" r="93.98" fill="#fcfcfc"/><circle class="cls-5" cx="370.99" cy="349.12" r="93.98"/><path class="cls-5" d="M366.25 192.58l18.27 39.75 29.65-32.16 5.09 43.45 38.15-21.42-8.59 42.9 42.89-8.59-21.42 38.14 43.45 5.09-32.16 29.65 39.75 18.27-39.75 18.26 32.16 29.66-43.45 5.09 21.42 38.14-42.89-8.59 8.59 42.9-38.15-21.43-5.09 43.46L384.52 463l-18.27 39.76L348 463l-29.66 32.17-5.09-43.46-38.15 21.41 8.59-42.9-42.9 8.59 21.43-38.14-43.45-5.09 32.16-29.66-39.75-18.26 39.75-18.27-32.16-29.65 43.45-5.09-21.43-38.14 42.9 8.59-8.59-42.9 38.14 21.42 5.09-43.45L348 232.33l18.26-39.75z"/><circle cx="370.99" cy="349.12" r="93.98" fill="url(#c)"/><path class="cls-3" d="M556.57 633.8h243.07v25.32H556.57zm40.61 55.2h202.46v25.32H597.18z"/></g><g clip-path="url(#clip-path-2)"><path d="M232.07 353.77c12.34-17.95 49-44.35 99.51-15.83 37.92 21.41 49.93 14.2 62.65 6.56 1.73-1 3.89-2.53 6.18-4.11 18-12.45 55.57-38.37 110.19 9.11l-29.08 23.12c-13.51-11.74-25-17.3-34.21-16.54-7.49.63-14.4 5.4-21.72 10.46-2.75 1.9-5.6 3.86-8.54 5.63-28.13 16.89-57.14 22.34-107.27-6-12.54-7.09-23.38-8.59-32.19-4.46a27.76 27.76 0 0 0-9 6.8z" stroke="#e6faff" stroke-miterlimit="10" stroke-width="10" fill="none"/></g></svg>