<svg id="Layer_1" data-name="Layer 1" xmlns="http://www.w3.org/2000/svg" viewBox="0 0 800 800"><defs><style>.cls-1{fill:none}.cls-4{fill:#9fa87d}.cls-5{fill:#e8e8d9}</style><clipPath id="clip-path"><rect class="cls-1" width="800" height="800" rx="45"/></clipPath><pattern id="b" data-name="b" width="36.88" height="21.29" patternTransform="translate(-21.65 -106.59)" patternUnits="userSpaceOnUse"><path class="cls-1" d="M0 0h36.88v21.29H0z"/><path class="cls-1" d="M0 21.29h36.88V0H0z"/><path class="cls-1" d="M0 21.29h36.88V0H0z"/><path d="M.75 0l36.13 20.86v-1.5L3.35 0zm4.1 0l32 18.49V17L7.44 0zM13 0l23.88 13.76v-1.5L15.64 0zM0 1.93l33.53 19.36h2.6L0 .43zM0 4.3l29.43 17H32L0 2.8zM8.94 0l27.94 16.13v-1.5L11.54 0zM0 9l21.24 12.29h2.59L0 7.53zm0-2.34l25.33 14.63h2.6L0 5.16zm0 14.2l.75.43h2.6L0 19.36zm0-7.1l13 7.53h2.6L0 12.26zm0 2.37l8.94 5.16h2.6L0 14.63zm0-4.73l17.14 9.89h2.6L0 9.9zM17.14 0l19.74 11.4V9.9L19.74 0zM0 18.49l4.85 2.8h2.6L0 17zM25.33 0l11.55 6.66v-1.5L27.93 0zm-4.09 0l15.64 9V7.53L23.83 0zm8.19 0l7.45 4.3V2.8L32 0zm6.7 0h-2.6l3.35 1.93V.43z" fill="#fffae6"/><path d="M36.88 0h-.75l.75.43zM32 0l4.85 2.8v-.87L33.53 0zm-4.1 0l9 5.16V4.3L29.43 0zm-4.1 0l13.08 7.53v-.87L25.33 0zm-4.06 0l17.14 9.9V9L21.24 0zm-4.1 0l21.24 12.26v-.86L17.14 0zm-4.1 0l25.34 14.63v-.87L13 0zm-4.1 0l29.44 17v-.86L8.94 0zM3.35 0l33.53 19.36v-.87L4.85 0zM0 0v.43l36.13 20.86h.75v-.43L.75 0zm0 2.8l32 18.49h1.5L0 1.93zm0 2.36l27.93 16.13h1.5L0 4.3zm0 2.37l23.83 13.76h1.5L0 6.66zM0 9.9l19.74 11.39h1.5L0 9zm0 2.36l15.64 9h1.5L0 11.4zm0 2.37l11.54 6.66H13L0 13.76zM0 17l7.45 4.3h1.49L0 16.13zm0 2.37l3.35 1.93h1.5L0 18.49zm0 1.93h.75L0 20.86z" fill="#fff5cc"/></pattern><pattern id="c" data-name="c" width="22.24" height="24.72" patternTransform="matrix(0 -8.24 8.24 0 75.67 4189.09)" patternUnits="userSpaceOnUse"><path class="cls-1" d="M0 0h22.24v24.72H0z"/><path class="cls-1" d="M0 24.72h22.24V0H0z"/><path class="cls-1" d="M0 24.72h22.24V0H0z"/><path class="cls-4" d="M16.68.35v.31-.31zm0 23.71v.31-.31zM27.8 22.2v.49a6.9 6.9 0 0 1-1.11 1 2.3 2.3 0 0 0 1.1.32v.31a2.67 2.67 0 0 1-1.39-.43 2.47 2.47 0 0 1-2.78 0 2.47 2.47 0 0 1-2.78 0 2.62 2.62 0 0 1-1.39.43h-.05A3.25 3.25 0 0 1 18 24a2.6 2.6 0 0 1-1.3.39v-.31a2.28 2.28 0 0 0 1-.26 3.7 3.7 0 0 1-1-1.06v-.56a15.19 15.19 0 0 0 1.21-1.86c-.21-.38-.33-.65-.35-.7L16.68 18v-.67L17.89 15l-1.21-2.32V12l1.21-2.32-1.21-2.29v-.67l.86-1.65s.15-.31.35-.69a15.19 15.19 0 0 0-1.21-1.86V2a4.37 4.37 0 0 1 .75-.8l.34-.2a2.23 2.23 0 0 0-1.09-.34V.35a2.69 2.69 0 0 1 1.4.44 2.72 2.72 0 0 1 1.39-.44 2.67 2.67 0 0 1 1.4.42 2.42 2.42 0 0 1 2.75 0 2.44 2.44 0 0 1 2.78 0 2.67 2.67 0 0 1 1.39-.42v.31a2.3 2.3 0 0 0-1.1.32 6.08 6.08 0 0 1 1.1 1v.49a13.81 13.81 0 0 0-1.21 1.86c.21.38.33.65.35.7l.86 1.64v.67l-1.21 2.37L27.79 12v.66L26.58 15l1.21 2.32V18l-.86 1.65c-.11.24-.23.47-.35.69a14.47 14.47 0 0 0 1.21 1.86zm-1.39-6.86l-1.22 2.33 1 1.84a4.74 4.74 0 0 0 .25.5c.15-.29.24-.48.24-.49l1-1.85zM20.85 10l-1.22 2.32 1.22 2.32 1.21-2.32zm1.39 2l1.21-2.32-1.21-2.29L21 9.71zM21 15l1.22 2.32L23.45 15l-1.21-2.32zm2.61-.33l1.21-2.32L23.63 10l-1.22 2.32zm.17.33L25 17.33 26.23 15 25 12.69zM25 12l1.21-2.32L25 7.39l-1.2 2.32zm.86-7s.14-.31.35-.69A14.58 14.58 0 0 0 25 2.51a14 14 0 0 0-1.21 1.85 6.88 6.88 0 0 1 .34.72L25 6.72zm-2.25-.38c-.15.3-.24.5-.25.51l-1 1.85 1.22 2.32 1.21-2.32-1-1.84s-.01-.14-.16-.45zm-.17-.33a13.62 13.62 0 0 0-1.2-1.88A14.09 14.09 0 0 0 21 4.38c.21.38.33.65.35.7l.87 1.64.86-1.65s.17-.32.38-.71zm-2.61.35c-.16.29-.24.48-.25.49l-1 1.85L20.8 9.3l1.21-2.32-1-1.84s-.1-.21-.25-.5zm-.18-.33a14.58 14.58 0 0 0-1.21-1.87 13.16 13.16 0 0 0-1.21 1.86l.35.7.86 1.65L20.3 5s.17-.24.37-.62zm-1.21 3l-1.2 2.4L19.46 12l1.21-2.32zm0 5.3L18.24 15l1.22 2.32L20.67 15zm0 5.31l-.87 1.65s-.14.31-.34.69a12.11 12.11 0 0 0 1.21 1.86 13.81 13.81 0 0 0 1.21-1.86c-.21-.38-.33-.65-.35-.7zm1.39 2c.15-.29.24-.48.24-.49l1-1.85-1.21-2.32-1.22 2.32 1 1.84a4.74 4.74 0 0 0 .21.58zm.17.33a13.54 13.54 0 0 0 1.22 1.86 13.81 13.81 0 0 0 1.21-1.86c-.21-.38-.33-.65-.35-.7L22.24 18l-.87 1.65a7.43 7.43 0 0 1-.37.69zm2.63-.25c.15-.29.24-.48.24-.49l1-1.85-1.21-2.32-1.22 2.32 1 1.84a4.74 4.74 0 0 0 .25.5zm.17.33a14.28 14.28 0 0 0 1.2 1.88 15.19 15.19 0 0 0 1.21-1.86c-.21-.39-.33-.66-.35-.7L25 18l-.87 1.65s-.14.31-.35.69zM26.41 10l-1.22 2.32 1.21 2.32 1.22-2.32zm0-5.33a7.5 7.5 0 0 0-.25.49l-1 1.85 1.24 2.36 1.22-2.32-1-1.84a4.74 4.74 0 0 0-.25-.5zm-1.19-2.4a13.07 13.07 0 0 1 1.18 1.78 14.15 14.15 0 0 1 1.19-1.78 6 6 0 0 0-1.19-1.12 6.27 6.27 0 0 0-1.18 1.12zM23.91 1A6.84 6.84 0 0 1 25 2a6.39 6.39 0 0 1 1.1-1 2.05 2.05 0 0 0-2.19 0zm-1.44 1.24A12.52 12.52 0 0 1 23.64 4a12.22 12.22 0 0 1 1.17-1.76 6.27 6.27 0 0 0-1.18-1.12 6 6 0 0 0-1.16 1.08zm-.73-.8a6.76 6.76 0 0 1 .52.55 6.91 6.91 0 0 1 1.08-1 2 2 0 0 0-2.17 0 6.57 6.57 0 0 1 .57.48m-.87-.3a6.17 6.17 0 0 0-1.21 1.13 14.15 14.15 0 0 1 1.19 1.78 12.68 12.68 0 0 1 1.21-1.81 6.2 6.2 0 0 0-1.19-1.1zM18.36 1a7.74 7.74 0 0 1 1.1 1 6.57 6.57 0 0 1 1.12-1 2.11 2.11 0 0 0-2.22 0zm-.29 3.07a14.08 14.08 0 0 1 1.18-1.78 5.75 5.75 0 0 0-1.19-1.12c-.15.1-.3.2-.44.31a3.75 3.75 0 0 0-.74.8 14.26 14.26 0 0 1 1.19 1.79zm0 5.32l1.21-2.32-1-1.84s-.1-.21-.25-.5a7.5 7.5 0 0 0-.25.49l-1 1.85zm0 5.31l1.21-2.32L18.07 10l-1.22 2.32zm0 5.33c.15-.29.24-.48.24-.49l1-1.85-1.21-2.32-1.22 2.32 1 1.84a4.74 4.74 0 0 0 .19.47zm1.18 2.44a13.07 13.07 0 0 1-1.18-1.78 13.41 13.41 0 0 1-1.2 1.8A3.33 3.33 0 0 0 18 23.63a5.94 5.94 0 0 0 1.25-1.18zm1.31 1.29a6.45 6.45 0 0 1-1.1-1 6.47 6.47 0 0 1-1.18 1.1 3 3 0 0 0 1.17.27 2.3 2.3 0 0 0 1.11-.32zM22 22.45a13.07 13.07 0 0 1-1.18-1.78 14.15 14.15 0 0 1-1.19 1.78 5.91 5.91 0 0 0 1.18 1.11A5.71 5.71 0 0 0 22 22.45zm1.31 1.29a6.45 6.45 0 0 1-1.1-1 6.9 6.9 0 0 1-1.11 1 2.05 2.05 0 0 0 2.21 0zm1.47-1.29a13.07 13.07 0 0 1-1.18-1.78 14.15 14.15 0 0 1-1.19 1.78 5.71 5.71 0 0 0 1.19 1.11 5.91 5.91 0 0 0 1.21-1.11zm1.31 1.29a6.45 6.45 0 0 1-1.1-1 6.9 6.9 0 0 1-1.11 1 2.05 2.05 0 0 0 2.24 0zm1.47-1.29a14.15 14.15 0 0 1-1.19-1.78 13.07 13.07 0 0 1-1.18 1.78 5.91 5.91 0 0 0 1.18 1.11 5.71 5.71 0 0 0 1.22-1.11zM5.56.35v.31-.31zm0 23.71v.31-.31zM16.68 22.2v.49a6.9 6.9 0 0 1-1.11 1 2.3 2.3 0 0 0 1.11.32v.31a2.62 2.62 0 0 1-1.39-.43 2.67 2.67 0 0 1-1.39.43 2.62 2.62 0 0 1-1.39-.43 2.67 2.67 0 0 1-1.39.43 2.62 2.62 0 0 1-1.39-.43 2.67 2.67 0 0 1-1.39.43h-.05A3.25 3.25 0 0 1 6.86 24a2.6 2.6 0 0 1-1.3.39v-.31a2.24 2.24 0 0 0 1-.26 3.84 3.84 0 0 1-1-1.06v-.56a14.1 14.1 0 0 0 1.21-1.86c-.2-.38-.33-.65-.35-.7L5.56 18v-.67L6.78 15l-1.22-2.31V12l1.22-2.29-1.22-2.32v-.67l.87-1.65s.14-.31.34-.69a14.1 14.1 0 0 0-1.21-1.86V2a4.37 4.37 0 0 1 .75-.8l.34-.2A2.2 2.2 0 0 0 5.56.66V.35A2.69 2.69 0 0 1 7 .79 2.75 2.75 0 0 1 8.35.35a2.67 2.67 0 0 1 1.4.42 2.66 2.66 0 0 1 1.37-.42 2.67 2.67 0 0 1 1.39.43A2.62 2.62 0 0 1 13.9.35a2.67 2.67 0 0 1 1.39.43 2.62 2.62 0 0 1 1.39-.43v.31a2.23 2.23 0 0 0-1.1.32 6.82 6.82 0 0 1 1.1 1v.49a12.11 12.11 0 0 0-1.21 1.86c.2.38.33.65.35.7l.86 1.64v.67l-1.22 2.37L16.68 12v.66L15.46 15l1.22 2.32V18l-.87 1.65s-.14.31-.34.69a12.61 12.61 0 0 0 1.21 1.86zm-1.39-6.86l-1.22 2.32 1 1.85a4.74 4.74 0 0 0 .25.5c.15-.29.24-.48.24-.49l1-1.86zM9.73 10l-1.22 2.36 1.22 2.32 1.21-2.32zm1.39 2l1.22-2.32-1.22-2.29L9.9 9.71zM9.9 15l1.22 2.32L12.33 15l-1.21-2.32zm2.61-.33l1.21-2.32L12.51 10l-1.22 2.32zm.17.33l1.22 2.32L15.11 15l-1.21-2.31zm1.22-3l1.21-2.32-1.21-2.29-1.22 2.32zm.86-7s.15-.31.35-.69a14.58 14.58 0 0 0-1.21-1.8 15.08 15.08 0 0 0-1.21 1.85 6.88 6.88 0 0 1 .34.72l.87 1.64zm-2.25-.38c-.15.3-.24.5-.25.51l-1 1.85 1.22 2.32 1.21-2.32-1-1.84s-.03-.14-.18-.45zm-.17-.33a13.62 13.62 0 0 0-1.2-1.88A15.12 15.12 0 0 0 9.9 4.38c.21.38.33.65.35.7l.87 1.64.88-1.65s.13-.32.34-.71zm-2.61.35c-.16.29-.24.48-.25.49l-1 1.85 1.25 2.39 1.21-2.32L10 5.21s-.1-.21-.25-.5zm-.18-.33a13.58 13.58 0 0 0-1.21-1.8 13.16 13.16 0 0 0-1.21 1.86l.35.7.86 1.65.86-1.65s.15-.31.35-.69zm-1.21 3l-1.22 2.4L8.34 12l1.21-2.29zm0 5.3L7.12 15l1.22 2.32L9.55 15zm0 5.31l-.87 1.65s-.14.31-.34.69a12.9 12.9 0 0 0 1.21 1.94 12.9 12.9 0 0 0 1.21-1.86c-.21-.38-.33-.65-.35-.7zm1.39 2c.15-.29.24-.48.24-.49l1-1.85-1.24-2.23-1.22 2.32 1 1.84a4.74 4.74 0 0 0 .22.49zm.17.33a13.54 13.54 0 0 0 1.22 1.86 12.9 12.9 0 0 0 1.21-1.86c-.21-.38-.33-.65-.35-.7L11.12 18l-.87 1.65s-.14.35-.35.69zm2.61-.25c.15-.29.24-.48.24-.49l1-1.85-1.21-2.32-1.22 2.32 1 1.84a4.74 4.74 0 0 0 .19.5zm.18.33a13.26 13.26 0 0 0 1.21 1.87 15.19 15.19 0 0 0 1.21-1.86c-.21-.39-.33-.66-.35-.7L13.9 18l-.9 1.65a7.43 7.43 0 0 1-.35.69zM15.29 10l-1.22 2.32 1.22 2.32 1.21-2.32zm0-5.33a7.5 7.5 0 0 0-.25.49l-1 1.85 1.22 2.32 1.24-2.28-1-1.84s-.06-.21-.21-.5zm-1.19-2.4a14.15 14.15 0 0 1 1.19 1.78 13.07 13.07 0 0 1 1.18-1.78 6.27 6.27 0 0 0-1.18-1.12 6 6 0 0 0-1.19 1.12zM12.8 1a6.82 6.82 0 0 1 1.1 1A6.08 6.08 0 0 1 15 1a2.05 2.05 0 0 0-2.2 0zm-1.45 1.24A12.52 12.52 0 0 1 12.52 4a13.12 13.12 0 0 1 1.17-1.76 5.91 5.91 0 0 0-1.18-1.11 5.66 5.66 0 0 0-1.16 1.08zm-.73-.8a6.76 6.76 0 0 1 .52.55 6.91 6.91 0 0 1 1.08-1 2.26 2.26 0 0 0-1.1-.32 2.21 2.21 0 0 0-1.07.3 6.57 6.57 0 0 1 .57.48m-.87-.3a6.17 6.17 0 0 0-1.21 1.12 14.15 14.15 0 0 1 1.19 1.78 13.59 13.59 0 0 1 1.21-1.81 6.2 6.2 0 0 0-1.19-1.1zM7.24 1a7.28 7.28 0 0 1 1.1 1 6.25 6.25 0 0 1 1.12-1A2.36 2.36 0 0 0 8.34.66a2.34 2.34 0 0 0-1.1.34zM7 4.05a14.08 14.08 0 0 1 1.13-1.78 5.75 5.75 0 0 0-1.19-1.12c-.15.1-.3.2-.44.31a4 4 0 0 0-.74.8A14.26 14.26 0 0 1 7 4.05zm0 5.32l1.16-2.32-1-1.84-.16-.5a7.5 7.5 0 0 0-.25.49l-1 1.85zm0 5.31l1.21-2.32L7 10l-1.27 2.36zM7 20c.15-.29.24-.48.24-.49l1-1.85L7 15.35l-1.27 2.32 1 1.84A4.74 4.74 0 0 0 7 20zm1.18 2.44A14.08 14.08 0 0 1 7 20.67a13.41 13.41 0 0 1-1.2 1.8 3.33 3.33 0 0 0 1.11 1.16 6.24 6.24 0 0 0 1.28-1.18zm1.31 1.29a6.45 6.45 0 0 1-1.1-1 6.42 6.42 0 0 1-1.17 1.1 2.9 2.9 0 0 0 1.16.27 2.3 2.3 0 0 0 1.11-.32zm1.47-1.29a14.08 14.08 0 0 1-1.18-1.78 14.15 14.15 0 0 1-1.19 1.78 6 6 0 0 0 1.19 1.11 5.91 5.91 0 0 0 1.18-1.11zm1.31 1.29a6.45 6.45 0 0 1-1.1-1 7.28 7.28 0 0 1-1.1 1 2.05 2.05 0 0 0 2.2 0zm1.47-1.29a14.08 14.08 0 0 1-1.18-1.78 14.15 14.15 0 0 1-1.19 1.78 6 6 0 0 0 1.19 1.11 5.91 5.91 0 0 0 1.13-1.1zm1.26 1.3a6.45 6.45 0 0 1-1.1-1 7.28 7.28 0 0 1-1.1 1 2.05 2.05 0 0 0 2.2 0zm1.47-1.29a13.07 13.07 0 0 1-1.18-1.78 14.15 14.15 0 0 1-1.19 1.78 6 6 0 0 0 1.19 1.11 5.91 5.91 0 0 0 1.18-1.11zM5.56 22.2v.49a7.28 7.28 0 0 1-1.1 1 2.23 2.23 0 0 0 1.1.32v.31a2.62 2.62 0 0 1-1.39-.43 2.67 2.67 0 0 1-1.39.43 2.65 2.65 0 0 1-1.39-.43 2.65 2.65 0 0 1-1.39.48 2.65 2.65 0 0 1-1.39-.43 2.65 2.65 0 0 1-1.39.43h-.05A3.18 3.18 0 0 1-4.25 24a2.67 2.67 0 0 1-1.31.39v-.31a2.32 2.32 0 0 0 1-.26 3.88 3.88 0 0 1-1-1.06v-.56a14.1 14.1 0 0 0 1.21-1.86c-.2-.38-.33-.65-.35-.7L-5.56 18v-.67L-4.34 15l-1.22-2.32V12l1.22-2.32-1.22-2.29v-.67l.87-1.65s.14-.31.34-.69a14.1 14.1 0 0 0-1.21-1.86V2a4.43 4.43 0 0 1 .76-.8 3.29 3.29 0 0 1 .33-.2A2.2 2.2 0 0 0-5.56.66V.35a2.69 2.69 0 0 1 1.4.44A2.78 2.78 0 0 1-2.77.35a2.73 2.73 0 0 1 1.41.42A2.62 2.62 0 0 1 0 .35a2.65 2.65 0 0 1 1.39.43A2.65 2.65 0 0 1 2.78.35a2.65 2.65 0 0 1 1.39.43A2.62 2.62 0 0 1 5.56.35v.31a2.23 2.23 0 0 0-1.1.34 6.75 6.75 0 0 1 1.1 1v.49a14.1 14.1 0 0 0-1.21 1.88l.35.7.86 1.65v.67L4.34 9.71 5.56 12v.66L4.34 15l1.22 2.32V18l-.87 1.65s-.14.31-.34.69a13.48 13.48 0 0 0 1.21 1.86zm-1.39-6.86L3 17.67l1 1.84a4.74 4.74 0 0 0 .25.5c.15-.29.24-.48.24-.49l1-1.85zM-1.39 10l-1.22 2.32 1.22 2.32 1.22-2.32zM0 12l1.22-2.29L0 7.39l-1.22 2.32zm-1.22 3L0 17.33 1.22 15 0 12.69zm2.61-.33l1.22-2.32L1.39 10 .17 12.36zm.17.33l1.22 2.32L4 15l-1.22-2.31zm1.22-3L4 9.71 2.78 7.39 1.56 9.71zm.87-7A6.93 6.93 0 0 1 4 4.38a13.58 13.58 0 0 0-1.22-1.87 13.93 13.93 0 0 0-1.2 1.85c.2.39.32.67.34.72l.86 1.64zM1.4 4.69c-.16.3-.25.5-.26.51l-1 1.85 1.25 2.32 1.22-2.32-1-1.84S1.55 5 1.4 4.69zm-.18-.33A12 12 0 0 0 0 2.48a14 14 0 0 0-1.23 1.9c.2.38.33.65.35.7L0 6.72l.87-1.65s.13-.32.35-.71zm-2.61.35c-.15.29-.24.48-.24.49l-1 1.85 1.21 2.32 1.25-2.32-1-1.84s-.1-.21-.25-.5zm-.18-.33a13.58 13.58 0 0 0-1.21-1.87A14.1 14.1 0 0 0-4 4.37c.2.39.33.66.35.7l.86 1.65.87-1.65s.15-.31.35-.69zm-1.21 3L-4 9.71-2.78 12l1.22-2.32zm0 5.3L-4 15l1.21 2.32L-1.56 15zm0 5.31l-.87 1.65s-.14.31-.34.69a12.9 12.9 0 0 0 1.21 1.87 12.9 12.9 0 0 0 1.21-1.86c-.2-.38-.33-.65-.35-.7zm1.39 2l.25-.49 1-1.85-1.22-2.32-1.22 2.32 1 1.84s.04.23.19.51zm.18.33A13.48 13.48 0 0 0 0 22.2a12.9 12.9 0 0 0 1.21-1.86c-.2-.38-.33-.65-.35-.7L0 18l-.87 1.65a6.93 6.93 0 0 1-.34.69zm2.6-.32l.25-.49 1-1.85-1.25-2.31-1.22 2.32 1 1.84s.07.21.22.49zm.18.33a13.58 13.58 0 0 0 1.21 1.87A14.1 14.1 0 0 0 4 20.35c-.2-.39-.33-.66-.35-.7L2.78 18l-.87 1.65s-.14.31-.34.69zM4.17 10L3 12.36l1.22 2.32 1.22-2.32zm0-5.33a7.5 7.5 0 0 0-.25.49L3 7.05l1.17 2.32 1.22-2.32-1-1.84s-.07-.21-.22-.5zM3 2.27a14.15 14.15 0 0 1 1.17 1.78 13.14 13.14 0 0 1 1.19-1.78 6.64 6.64 0 0 0-1.19-1.12A6.64 6.64 0 0 0 3 2.27zM1.68 1a7.21 7.21 0 0 1 1.1 1 7.21 7.21 0 0 1 1.1-1 2.23 2.23 0 0 0-1.1-.34 2.23 2.23 0 0 0-1.1.34zM.23 2.24A12.52 12.52 0 0 1 1.4 4a13.12 13.12 0 0 1 1.17-1.73 6.27 6.27 0 0 0-1.18-1.12A6.61 6.61 0 0 0 .23 2.23zm-.73-.8A6.88 6.88 0 0 1 0 2a6.84 6.84 0 0 1 1.1-1A2.23 2.23 0 0 0 0 .66 2.21 2.21 0 0 0-1.07 1a6.57 6.57 0 0 1 .57.48m-.87-.3a6.17 6.17 0 0 0-1.21 1.09 13.14 13.14 0 0 1 1.19 1.78A13.59 13.59 0 0 1-.18 2.24a5.66 5.66 0 0 0-1.19-1.1zM-3.88 1a6.45 6.45 0 0 1 1.1 1 6.61 6.61 0 0 1 1.12-1A2.33 2.33 0 0 0-2.78.66a2.38 2.38 0 0 0-1.1.34zm-.29 3.07A14.15 14.15 0 0 1-3 2.27a6.3 6.3 0 0 0-1.17-1.12c-.16.1-.3.2-.45.31a4 4 0 0 0-.74.8 14.26 14.26 0 0 1 1.19 1.79zm0 5.32l1.22-2.32-1-1.84a4.74 4.74 0 0 0-.25-.5 4.44 4.44 0 0 0-.24.49l-1 1.85zm0 5.31l1.22-2.32L-4.17 10l-1.21 2.32zm0 5.33l.25-.49 1-1.85-1.22-2.32-1.22 2.32 1 1.84s.04.19.19.47zM-3 22.45a13.14 13.14 0 0 1-1.19-1.78 13.41 13.41 0 0 1-1.2 1.8 3.33 3.33 0 0 0 1.11 1.16A6.24 6.24 0 0 0-3 22.45zm1.3 1.29a6.45 6.45 0 0 1-1.1-1 6.42 6.42 0 0 1-1.17 1.1 2.9 2.9 0 0 0 1.16.27 2.27 2.27 0 0 0 1.11-.32zm1.5-1.29a13.14 13.14 0 0 1-1.19-1.78 14.08 14.08 0 0 1-1.18 1.78 5.91 5.91 0 0 0 1.18 1.11A6.25 6.25 0 0 0-.2 22.45zm1.3 1.29a7.28 7.28 0 0 1-1.1-1 7.28 7.28 0 0 1-1.1 1 2.23 2.23 0 0 0 1.1.32 2.23 2.23 0 0 0 1.1-.32zm1.48-1.29a13.14 13.14 0 0 1-1.19-1.78A13.14 13.14 0 0 1 .2 22.45a6.25 6.25 0 0 0 1.19 1.11 6.25 6.25 0 0 0 1.19-1.11zm1.3 1.29a7.28 7.28 0 0 1-1.1-1 7.28 7.28 0 0 1-1.1 1 2.23 2.23 0 0 0 1.1.32 2.23 2.23 0 0 0 1.1-.32zm1.48-1.29a13.14 13.14 0 0 1-1.19-1.78A13.14 13.14 0 0 1 3 22.45a6.25 6.25 0 0 0 1.19 1.11 6.25 6.25 0 0 0 1.17-1.11z"/></pattern><pattern id="d" data-name="d" width="22.24" height="24.72" patternTransform="matrix(0 -8.24 8.24 0 75.67 4189.09)" patternUnits="userSpaceOnUse"><path class="cls-1" d="M0 0h22.24v24.72H0z"/><path class="cls-1" d="M0 24.72h22.24V0H0z"/><path class="cls-1" d="M0 24.72h22.24V0H0z"/><path class="cls-5" d="M16.68.35v.31-.31zm0 23.71v.31-.31zM27.8 22.2v.49a6.9 6.9 0 0 1-1.11 1 2.3 2.3 0 0 0 1.1.32v.31a2.67 2.67 0 0 1-1.39-.43 2.47 2.47 0 0 1-2.78 0 2.47 2.47 0 0 1-2.78 0 2.62 2.62 0 0 1-1.39.43h-.05A3.25 3.25 0 0 1 18 24a2.6 2.6 0 0 1-1.3.39v-.31a2.28 2.28 0 0 0 1-.26 3.7 3.7 0 0 1-1-1.06v-.56a15.19 15.19 0 0 0 1.21-1.86c-.21-.38-.33-.65-.35-.7L16.68 18v-.67L17.89 15l-1.21-2.32V12l1.21-2.32-1.21-2.29v-.67l.86-1.65s.15-.31.35-.69a15.19 15.19 0 0 0-1.21-1.86V2a4.37 4.37 0 0 1 .75-.8l.34-.2a2.23 2.23 0 0 0-1.09-.34V.35a2.69 2.69 0 0 1 1.4.44 2.72 2.72 0 0 1 1.39-.44 2.67 2.67 0 0 1 1.4.42 2.42 2.42 0 0 1 2.75 0 2.44 2.44 0 0 1 2.78 0 2.67 2.67 0 0 1 1.39-.42v.31a2.3 2.3 0 0 0-1.1.32 6.08 6.08 0 0 1 1.1 1v.49a13.81 13.81 0 0 0-1.21 1.86c.21.38.33.65.35.7l.86 1.64v.67l-1.21 2.37L27.79 12v.66L26.58 15l1.21 2.32V18l-.86 1.65s-.15.31-.35.69a14.47 14.47 0 0 0 1.21 1.86zm-1.39-6.86l-1.22 2.33 1 1.84a4.74 4.74 0 0 0 .25.5c.15-.29.24-.48.24-.49l1-1.85zM20.85 10l-1.22 2.32 1.22 2.32 1.21-2.32zm1.39 2l1.21-2.32-1.21-2.29L21 9.71zM21 15l1.22 2.32L23.45 15l-1.21-2.32zm2.61-.33l1.21-2.32L23.63 10l-1.22 2.32zm.17.33L25 17.33 26.23 15 25 12.69zM25 12l1.21-2.32L25 7.39l-1.2 2.32zm.86-7s.14-.31.35-.69A14.58 14.58 0 0 0 25 2.51a14 14 0 0 0-1.21 1.85 6.88 6.88 0 0 1 .34.72L25 6.72zm-2.25-.38c-.09.17-.17.34-.25.51l-1 1.85 1.22 2.32 1.21-2.32-1-1.84s-.01-.14-.16-.45zm-.17-.33a13.62 13.62 0 0 0-1.2-1.88A14.09 14.09 0 0 0 21 4.38c.21.38.33.65.35.7l.87 1.64.86-1.65s.17-.32.38-.71zm-2.61.35c-.16.29-.24.48-.25.49l-1 1.85L20.8 9.3l1.21-2.32-1-1.84s-.1-.21-.25-.5zm-.18-.33a14.58 14.58 0 0 0-1.21-1.87 13.16 13.16 0 0 0-1.21 1.86l.35.7.86 1.65L20.3 5s.17-.24.37-.62zm-1.21 3l-1.2 2.4L19.46 12l1.21-2.32zm0 5.3L18.24 15l1.22 2.32L20.67 15zm0 5.31l-.87 1.65s-.14.31-.34.69a12.11 12.11 0 0 0 1.21 1.86 13.81 13.81 0 0 0 1.21-1.86c-.21-.38-.33-.65-.35-.7zm1.39 2c.15-.29.24-.48.24-.49l1-1.85-1.21-2.32-1.22 2.32 1 1.84a4.74 4.74 0 0 0 .21.58zm.17.33a13.54 13.54 0 0 0 1.22 1.86 13.81 13.81 0 0 0 1.21-1.86c-.21-.38-.33-.65-.35-.7L22.24 18l-.87 1.65s-.14.35-.37.69zm2.63-.25c.15-.29.24-.48.24-.49l1-1.85-1.21-2.32-1.22 2.32 1 1.84a4.74 4.74 0 0 0 .25.5zm.17.33a14.28 14.28 0 0 0 1.2 1.88 15.19 15.19 0 0 0 1.21-1.86c-.21-.39-.33-.66-.35-.7L25 18l-.87 1.65a7.43 7.43 0 0 1-.35.69zM26.41 10l-1.22 2.32 1.21 2.32 1.22-2.32zm0-5.33a7.5 7.5 0 0 0-.25.49l-1 1.85 1.24 2.36 1.22-2.32-1-1.84a4.74 4.74 0 0 0-.25-.5zm-1.19-2.4a13.07 13.07 0 0 1 1.18 1.78 14.15 14.15 0 0 1 1.19-1.78 6 6 0 0 0-1.19-1.12 6.27 6.27 0 0 0-1.18 1.12zM23.91 1A6.84 6.84 0 0 1 25 2a6.39 6.39 0 0 1 1.1-1 2.05 2.05 0 0 0-2.19 0zm-1.44 1.24A12.52 12.52 0 0 1 23.64 4a13.12 13.12 0 0 1 1.17-1.76 5.91 5.91 0 0 0-1.18-1.11 5.42 5.42 0 0 0-1.16 1.08zm-.73-.8a6.76 6.76 0 0 1 .52.55 6.91 6.91 0 0 1 1.08-1 2 2 0 0 0-2.17 0 6.57 6.57 0 0 1 .57.48m-.87-.3a6.17 6.17 0 0 0-1.21 1.13 14.15 14.15 0 0 1 1.19 1.78 12.15 12.15 0 0 1 1.21-1.81 6.2 6.2 0 0 0-1.19-1.1zM18.36 1a7.74 7.74 0 0 1 1.1 1 6.57 6.57 0 0 1 1.12-1 2.11 2.11 0 0 0-2.22 0zm-.29 3.07a14.08 14.08 0 0 1 1.18-1.78 5.75 5.75 0 0 0-1.19-1.12c-.15.1-.3.2-.44.31a3.75 3.75 0 0 0-.74.8 14.26 14.26 0 0 1 1.19 1.79zm0 5.32l1.21-2.32-1-1.84s-.1-.21-.25-.5a7.5 7.5 0 0 0-.25.49l-1 1.85zm0 5.31l1.21-2.32L18.07 10l-1.22 2.32zm0 5.33c.15-.29.24-.48.24-.49l1-1.85-1.21-2.32-1.22 2.32 1 1.84a4.74 4.74 0 0 0 .19.47zm1.18 2.44a13.07 13.07 0 0 1-1.18-1.78 13.41 13.41 0 0 1-1.2 1.8A3.33 3.33 0 0 0 18 23.63a5.94 5.94 0 0 0 1.25-1.18zm1.31 1.29a6.45 6.45 0 0 1-1.1-1 6.47 6.47 0 0 1-1.18 1.1 3 3 0 0 0 1.17.27 2.3 2.3 0 0 0 1.11-.32zM22 22.45a13.07 13.07 0 0 1-1.18-1.78 14.15 14.15 0 0 1-1.19 1.78 5.91 5.91 0 0 0 1.18 1.11A5.71 5.71 0 0 0 22 22.45zm1.31 1.29a6.45 6.45 0 0 1-1.1-1 6.9 6.9 0 0 1-1.11 1 2.05 2.05 0 0 0 2.21 0zm1.47-1.29a13.07 13.07 0 0 1-1.18-1.78 14.15 14.15 0 0 1-1.19 1.78 6 6 0 0 0 1.19 1.11 5.91 5.91 0 0 0 1.21-1.11zm1.31 1.29a6.45 6.45 0 0 1-1.1-1 6.9 6.9 0 0 1-1.11 1 2.05 2.05 0 0 0 2.24 0zm1.47-1.29a14.15 14.15 0 0 1-1.19-1.78 13.07 13.07 0 0 1-1.18 1.78 5.91 5.91 0 0 0 1.18 1.11 5.71 5.71 0 0 0 1.22-1.11zM5.56.35v.31-.31zm0 23.71v.31-.31zM16.68 22.2v.49a6.9 6.9 0 0 1-1.11 1 2.3 2.3 0 0 0 1.11.32v.31a2.62 2.62 0 0 1-1.39-.43 2.67 2.67 0 0 1-1.39.43 2.62 2.62 0 0 1-1.39-.43 2.67 2.67 0 0 1-1.39.43 2.62 2.62 0 0 1-1.39-.43 2.67 2.67 0 0 1-1.39.43h-.05A3.25 3.25 0 0 1 6.86 24a2.6 2.6 0 0 1-1.3.39v-.31a2.24 2.24 0 0 0 1-.26 3.84 3.84 0 0 1-1-1.06v-.56a14.1 14.1 0 0 0 1.21-1.86c-.2-.38-.33-.65-.35-.7L5.56 18v-.67L6.78 15l-1.22-2.31V12l1.22-2.29-1.22-2.32v-.67l.87-1.65s.14-.31.34-.69a14.1 14.1 0 0 0-1.21-1.86V2a4.37 4.37 0 0 1 .75-.8l.34-.2A2.2 2.2 0 0 0 5.56.66V.35A2.69 2.69 0 0 1 7 .79 2.75 2.75 0 0 1 8.35.35a2.67 2.67 0 0 1 1.4.42 2.66 2.66 0 0 1 1.37-.42 2.67 2.67 0 0 1 1.39.43A2.62 2.62 0 0 1 13.9.35a2.67 2.67 0 0 1 1.39.43 2.62 2.62 0 0 1 1.39-.43v.31a2.23 2.23 0 0 0-1.1.32 6.82 6.82 0 0 1 1.1 1v.49a12.11 12.11 0 0 0-1.21 1.86c.2.38.33.65.35.7l.86 1.64v.67l-1.22 2.37L16.68 12v.66L15.46 15l1.22 2.32V18l-.87 1.65s-.14.31-.34.69a12.61 12.61 0 0 0 1.21 1.86zm-1.39-6.86l-1.22 2.32 1 1.85a4.74 4.74 0 0 0 .25.5c.15-.29.24-.48.24-.49l1-1.86zM9.73 10l-1.22 2.36 1.22 2.32 1.21-2.32zm1.39 2l1.22-2.32-1.22-2.29L9.9 9.71zM9.9 15l1.22 2.32L12.33 15l-1.21-2.32zm2.61-.33l1.21-2.32L12.51 10l-1.22 2.32zm.17.33l1.22 2.32L15.11 15l-1.21-2.31zm1.22-3l1.21-2.32-1.21-2.29-1.22 2.32zm.86-7s.15-.31.35-.69a14.58 14.58 0 0 0-1.21-1.8 15.08 15.08 0 0 0-1.21 1.85 6.88 6.88 0 0 1 .34.72l.87 1.64zm-2.25-.38c-.15.3-.24.5-.25.51l-1 1.85 1.22 2.32 1.21-2.32-1-1.84s-.03-.14-.18-.45zm-.17-.33a13.62 13.62 0 0 0-1.2-1.88A15.12 15.12 0 0 0 9.9 4.38c.21.38.33.65.35.7l.87 1.64.88-1.65s.13-.32.34-.71zm-2.61.35c-.16.29-.24.48-.25.49l-1 1.85 1.25 2.39 1.21-2.32L10 5.21s-.1-.21-.25-.5zm-.18-.33a13.58 13.58 0 0 0-1.21-1.8 13.16 13.16 0 0 0-1.21 1.86l.35.7.86 1.65.86-1.65s.15-.31.35-.69zm-1.21 3l-1.22 2.4L8.34 12l1.21-2.29zm0 5.3L7.12 15l1.22 2.32L9.55 15zm0 5.31l-.87 1.65s-.14.31-.34.69a12.9 12.9 0 0 0 1.21 1.94 12.9 12.9 0 0 0 1.21-1.86c-.21-.38-.33-.65-.35-.7zm1.39 2c.15-.29.24-.48.24-.49l1-1.85-1.24-2.23-1.22 2.32 1 1.84a4.74 4.74 0 0 0 .22.49zm.17.33a13.54 13.54 0 0 0 1.22 1.86 12.9 12.9 0 0 0 1.21-1.86c-.21-.38-.33-.65-.35-.7L11.12 18l-.87 1.65s-.14.35-.35.69zm2.61-.25c.15-.29.24-.48.24-.49l1-1.85-1.21-2.32-1.22 2.32 1 1.84a4.74 4.74 0 0 0 .19.5zm.18.33a13.26 13.26 0 0 0 1.21 1.87 15.19 15.19 0 0 0 1.21-1.86c-.21-.39-.33-.66-.35-.7L13.9 18l-.9 1.65s-.14.31-.35.69zM15.29 10l-1.22 2.32 1.22 2.32 1.21-2.32zm0-5.33a7.5 7.5 0 0 0-.25.49l-1 1.85 1.22 2.32 1.24-2.28-1-1.84s-.06-.21-.21-.5zm-1.19-2.4a14.15 14.15 0 0 1 1.19 1.78 13.07 13.07 0 0 1 1.18-1.78 6.27 6.27 0 0 0-1.18-1.12 6 6 0 0 0-1.19 1.12zM12.8 1a6.82 6.82 0 0 1 1.1 1A6.08 6.08 0 0 1 15 1a2.05 2.05 0 0 0-2.2 0zm-1.45 1.24A12.52 12.52 0 0 1 12.52 4a13.12 13.12 0 0 1 1.17-1.76 5.91 5.91 0 0 0-1.18-1.11 5.66 5.66 0 0 0-1.16 1.08zm-.73-.8a6.76 6.76 0 0 1 .52.55 6.91 6.91 0 0 1 1.08-1 2.26 2.26 0 0 0-1.1-.32 2.21 2.21 0 0 0-1.07.3 6.57 6.57 0 0 1 .57.48m-.87-.3a6.17 6.17 0 0 0-1.21 1.12 14.15 14.15 0 0 1 1.19 1.78 13.59 13.59 0 0 1 1.21-1.81 5.66 5.66 0 0 0-1.19-1.1zM7.24 1a7.28 7.28 0 0 1 1.1 1 6.25 6.25 0 0 1 1.12-1A2.36 2.36 0 0 0 8.34.66a2.34 2.34 0 0 0-1.1.34zM7 4.05a14.08 14.08 0 0 1 1.13-1.78 5.75 5.75 0 0 0-1.19-1.12c-.15.1-.3.2-.44.31a4 4 0 0 0-.74.8A14.26 14.26 0 0 1 7 4.05zm0 5.32l1.16-2.32-1-1.84-.16-.5a7.5 7.5 0 0 0-.25.49l-1 1.85zm0 5.31l1.21-2.32L7 10l-1.27 2.36zM7 20c.15-.29.24-.48.24-.49l1-1.85L7 15.35l-1.27 2.32 1 1.84A4.74 4.74 0 0 0 7 20zm1.18 2.44A14.08 14.08 0 0 1 7 20.67a13.41 13.41 0 0 1-1.2 1.8 3.33 3.33 0 0 0 1.11 1.16 6.24 6.24 0 0 0 1.28-1.18zm1.31 1.29a6.45 6.45 0 0 1-1.1-1 6.42 6.42 0 0 1-1.17 1.1 2.9 2.9 0 0 0 1.16.27 2.3 2.3 0 0 0 1.11-.32zm1.47-1.29a14.08 14.08 0 0 1-1.18-1.78 14.15 14.15 0 0 1-1.19 1.78 6 6 0 0 0 1.19 1.11 5.91 5.91 0 0 0 1.18-1.11zm1.31 1.29a6.45 6.45 0 0 1-1.1-1 7.28 7.28 0 0 1-1.1 1 2.05 2.05 0 0 0 2.2 0zm1.47-1.29a14.08 14.08 0 0 1-1.18-1.78 14.15 14.15 0 0 1-1.19 1.78 6 6 0 0 0 1.19 1.11 5.91 5.91 0 0 0 1.13-1.1zm1.26 1.3a6.45 6.45 0 0 1-1.1-1 7.28 7.28 0 0 1-1.1 1 2.05 2.05 0 0 0 2.2 0zm1.47-1.29a13.07 13.07 0 0 1-1.18-1.78 14.15 14.15 0 0 1-1.19 1.78 6 6 0 0 0 1.19 1.11 5.91 5.91 0 0 0 1.18-1.11zM5.56 22.2v.49a7.28 7.28 0 0 1-1.1 1 2.23 2.23 0 0 0 1.1.32v.31a2.62 2.62 0 0 1-1.39-.43 2.67 2.67 0 0 1-1.39.43 2.65 2.65 0 0 1-1.39-.43 2.65 2.65 0 0 1-1.39.48 2.65 2.65 0 0 1-1.39-.43 2.65 2.65 0 0 1-1.39.43h-.05A3.18 3.18 0 0 1-4.25 24a2.67 2.67 0 0 1-1.31.39v-.31a2.32 2.32 0 0 0 1-.26 3.88 3.88 0 0 1-1-1.06v-.56a14.1 14.1 0 0 0 1.21-1.86c-.2-.38-.33-.65-.35-.7L-5.56 18v-.67L-4.34 15l-1.22-2.32V12l1.22-2.32-1.22-2.29v-.67l.87-1.65s.14-.31.34-.69a14.1 14.1 0 0 0-1.21-1.86V2a4.43 4.43 0 0 1 .76-.8c.11-.09.23-.16.33-.23A2.2 2.2 0 0 0-5.56.66V.35a2.69 2.69 0 0 1 1.4.44A2.78 2.78 0 0 1-2.77.35a2.73 2.73 0 0 1 1.41.42A2.62 2.62 0 0 1 0 .35a2.65 2.65 0 0 1 1.39.43A2.65 2.65 0 0 1 2.78.35a2.65 2.65 0 0 1 1.39.43A2.62 2.62 0 0 1 5.56.35v.31a2.23 2.23 0 0 0-1.1.34 6.75 6.75 0 0 1 1.1 1v.49a14.1 14.1 0 0 0-1.21 1.88l.35.7.86 1.65v.67L4.34 9.71 5.56 12v.66L4.34 15l1.22 2.32V18l-.87 1.65s-.14.31-.34.69a13.48 13.48 0 0 0 1.21 1.86zm-1.39-6.86L3 17.67l1 1.84a4.74 4.74 0 0 0 .25.5c.15-.29.24-.48.24-.49l1-1.85zM-1.39 10l-1.22 2.32 1.22 2.32 1.22-2.32zM0 12l1.22-2.29L0 7.39l-1.22 2.32zm-1.22 3L0 17.33 1.22 15 0 12.69zm2.61-.33l1.22-2.32L1.39 10 .17 12.36zm.17.33l1.22 2.32L4 15l-1.22-2.31zm1.22-3L4 9.71 2.78 7.39 1.56 9.71zm.87-7s.14-.31.34-.69a13.58 13.58 0 0 0-1.21-1.8 13.93 13.93 0 0 0-1.2 1.85c.2.39.32.67.34.72l.86 1.64zM1.4 4.69c-.16.3-.25.5-.26.51l-1 1.85 1.25 2.32 1.22-2.32-1-1.84S1.55 5 1.4 4.69zm-.18-.33A12 12 0 0 0 0 2.48a14 14 0 0 0-1.23 1.9c.2.38.33.65.35.7L0 6.72l.87-1.65s.13-.32.35-.71zm-2.61.35c-.15.29-.24.48-.24.49l-1 1.85 1.21 2.32 1.25-2.32-1-1.84s-.1-.21-.25-.5zm-.18-.33a13.58 13.58 0 0 0-1.21-1.87A14.1 14.1 0 0 0-4 4.37c.2.39.33.66.35.7l.86 1.65.87-1.65s.15-.31.35-.69zm-1.21 3L-4 9.71-2.78 12l1.22-2.32zm0 5.3L-4 15l1.21 2.32L-1.56 15zm0 5.31l-.87 1.65s-.14.31-.34.69a12.9 12.9 0 0 0 1.21 1.87 12.9 12.9 0 0 0 1.21-1.86c-.2-.38-.33-.65-.35-.7zm1.39 2l.25-.49 1-1.85-1.22-2.32-1.22 2.32 1 1.84s.04.23.19.51zm.18.33A13.48 13.48 0 0 0 0 22.2a12.9 12.9 0 0 0 1.21-1.86c-.2-.38-.33-.65-.35-.7L0 18l-.87 1.65c-.11.24-.22.47-.34.69zm2.6-.32l.25-.49 1-1.85-1.25-2.31-1.22 2.32 1 1.84s.07.21.22.49zm.18.33a13.58 13.58 0 0 0 1.21 1.87A14.1 14.1 0 0 0 4 20.35c-.2-.39-.33-.66-.35-.7L2.78 18l-.87 1.65s-.14.31-.34.69zM4.17 10L3 12.36l1.22 2.32 1.22-2.32zm0-5.33a7.5 7.5 0 0 0-.25.49L3 7.05l1.17 2.32 1.22-2.32-1-1.84s-.07-.21-.22-.5zM3 2.27a14.15 14.15 0 0 1 1.17 1.78 13.14 13.14 0 0 1 1.19-1.78 6.64 6.64 0 0 0-1.19-1.12A6.64 6.64 0 0 0 3 2.27zM1.68 1a7.21 7.21 0 0 1 1.1 1 7.21 7.21 0 0 1 1.1-1 2.23 2.23 0 0 0-1.1-.34 2.23 2.23 0 0 0-1.1.34zM.23 2.24A12.52 12.52 0 0 1 1.4 4a13.12 13.12 0 0 1 1.17-1.73 6.27 6.27 0 0 0-1.18-1.12A6.61 6.61 0 0 0 .23 2.23zm-.73-.8A6.88 6.88 0 0 1 0 2a6.84 6.84 0 0 1 1.1-1A2.23 2.23 0 0 0 0 .66 2.21 2.21 0 0 0-1.07 1a6.57 6.57 0 0 1 .57.48m-.87-.3a6.17 6.17 0 0 0-1.21 1.09 13.14 13.14 0 0 1 1.19 1.78A13.59 13.59 0 0 1-.18 2.24a5.66 5.66 0 0 0-1.19-1.1zM-3.88 1a6.45 6.45 0 0 1 1.1 1 6.61 6.61 0 0 1 1.12-1A2.33 2.33 0 0 0-2.78.66a2.38 2.38 0 0 0-1.1.34zm-.29 3.07A14.15 14.15 0 0 1-3 2.27a6.3 6.3 0 0 0-1.17-1.12c-.16.1-.3.2-.45.31a4 4 0 0 0-.74.8 14.26 14.26 0 0 1 1.19 1.79zm0 5.32l1.22-2.32-1-1.84a4.74 4.74 0 0 0-.25-.5 4.44 4.44 0 0 0-.24.49l-1 1.85zm0 5.31l1.22-2.32L-4.17 10l-1.21 2.32zm0 5.33l.25-.49 1-1.85-1.22-2.32-1.22 2.32 1 1.84s.04.19.19.47zM-3 22.45a13.14 13.14 0 0 1-1.19-1.78 13.41 13.41 0 0 1-1.2 1.8 3.33 3.33 0 0 0 1.11 1.16A6.24 6.24 0 0 0-3 22.45zm1.3 1.29a6.45 6.45 0 0 1-1.1-1 6.42 6.42 0 0 1-1.17 1.1 2.9 2.9 0 0 0 1.16.27 2.27 2.27 0 0 0 1.11-.32zm1.5-1.29a13.14 13.14 0 0 1-1.19-1.78 14.08 14.08 0 0 1-1.18 1.78 5.91 5.91 0 0 0 1.18 1.11A6.25 6.25 0 0 0-.2 22.45zm1.3 1.29a7.28 7.28 0 0 1-1.1-1 7.28 7.28 0 0 1-1.1 1 2.23 2.23 0 0 0 1.1.32 2.23 2.23 0 0 0 1.1-.32zm1.48-1.29a13.14 13.14 0 0 1-1.19-1.78A13.14 13.14 0 0 1 .2 22.45a6.25 6.25 0 0 0 1.19 1.11 6.25 6.25 0 0 0 1.19-1.11zm1.3 1.29a7.28 7.28 0 0 1-1.1-1 7.28 7.28 0 0 1-1.1 1 2.23 2.23 0 0 0 1.1.32 2.23 2.23 0 0 0 1.1-.32zm1.48-1.29a13.14 13.14 0 0 1-1.19-1.78A14.08 14.08 0 0 1 3 22.45a5.91 5.91 0 0 0 1.18 1.11 6.25 6.25 0 0 0 1.19-1.11z"/></pattern><clipPath id="clip-path-2"><path class="cls-1" d="M600 253.45c100.68.65 437.81 71.77 451.32 451.27 0 0-140-81.59-301.22.38 0 0 34.78-323.88-150.1-451.65"/></clipPath><clipPath id="clip-path-3"><path class="cls-1" d="M750.73 585.89C743.38 480.15 712 330.84 600 253.45c-109.08 75.38-141.69 219-150.1 324.13-5.85 73.06 0 127.52 0 127.52l12.15-5.66a328.1 328.1 0 0 1 275.83-.23l12.24 5.66c.07-.71.3-3 .6-6.77a787 787 0 0 0 0-112.21z"/></clipPath><clipPath id="clip-path-4"><path class="cls-1" d="M600 253.45c-100.68.65-437.81 71.77-451.32 451.27 0 0 140.05-81.59 301.22.38 0 0-34.79-323.88 150.1-451.65"/></clipPath></defs><path d="M77.53 300.13l56.22 64.69m31.66-139.36l54.74 63m-58.54 20.5l51.16 58.8m36.73-133.5l49.67 57.07" stroke-miterlimit="10" stroke-width="10" stroke="#e8e8d9" fill="none"/><g clip-path="url(#clip-path)"><path d="M605.26 188.59c-.16-1.88-2.89-6.3-6.19-6.3s-6 4.42-6.19 6.3l-8.34 97.63h29.06z" fill="#cad1a6"/><path d="M604.6 280.31a9.29 9.29 0 0 0-10.46 0c-3.61 2.37-5.87 7-5.87 12.05v651.31a34.72 34.72 0 0 1-69.44.1v-47.52a11.11 11.11 0 0 0-22.21 0v47.42a56.93 56.93 0 1 0 113.85 0V292.36c0-5-2.25-9.68-5.87-12.06z" fill="#879166"/><path d="M600 253.45c-100.68.65-437.81 71.77-451.32 451.27 0 0 140.05-81.59 301.22.38 0 0-34.79-323.88 150.1-451.65" fill="url(#b)"/><path class="cls-4" d="M600 253.45c100.68.65 437.81 71.77 451.32 451.27 0 0-140-81.59-301.22.38 0 0 34.78-323.88-150.1-451.65"/><path d="M750.73 585.89C743.38 480.15 712 330.84 600 253.45c-109.08 75.38-141.69 219-150.1 324.13-5.85 73.06 0 127.52 0 127.52l12.15-5.66a328.1 328.1 0 0 1 275.83-.23l12.24 5.66c.07-.71.3-3 .6-6.77a787 787 0 0 0 0-112.21z" fill="#c8cfa4"/><path d="M750.73 585.89C743.38 480.15 712 330.84 600 253.45c-109.08 75.38-141.69 219-150.1 324.13-5.85 73.06 0 127.52 0 127.52l12.15-5.66a328.1 328.1 0 0 1 275.83-.23l12.24 5.66c.07-.71.3-3 .6-6.77a787 787 0 0 0 0-112.21z" fill="url(#c)"/><path d="M600 253.45c-100.68.65-437.81 71.77-451.32 451.27 0 0 140.05-81.59 301.22.38 0 0-34.79-323.88 150.1-451.65" fill="url(#d)"/><g clip-path="url(#clip-path-2)"><path d="M897.89 668.87s23.72-352-297.88-415.42" stroke="#879166" stroke-miterlimit="10" stroke-width="10" fill="none"/></g><g clip-path="url(#clip-path-3)"><path d="M600 675.2V241.36" stroke="#9fa87d" stroke-miterlimit="10" stroke-width="10" fill="none"/></g><g clip-path="url(#clip-path-4)"><path d="M302.12 668.87S278.4 316.85 600 253.45l16.68-2.29" stroke="#fffae6" stroke-miterlimit="10" stroke-width="10" fill="none"/></g></g></svg>