<svg id="Layer_1" data-name="Layer 1" xmlns="http://www.w3.org/2000/svg" viewBox="0 0 800 802.5"><defs><style>.cls-1{fill:none}.cls-2{fill:#ffe6eb}.cls-3{fill:#ef7c84}.cls-7{fill:#f4c9d2}.cls-10{fill:#fff}.cls-11{fill:url(#b)}.cls-12{fill:url(#c)}</style><clipPath id="clip-path"><rect class="cls-1" width="800" height="802.5" rx="45"/></clipPath><pattern id="b" data-name="b" width="36.9" height="36.9" patternTransform="rotate(-118 -44669.858 -4178.33) scale(5.9)" patternUnits="userSpaceOnUse"><path class="cls-1" d="M0 0h36.9v36.9H0z"/><path class="cls-1" d="M0 36.9h36.9V0H0z"/><path class="cls-1" d="M0 36.9h36.9V0H0z"/><path class="cls-1" d="M0 36.9h36.9V0H0z"/><path class="cls-1" d="M0 36.9h36.9V0H0z"/><path class="cls-2" d="M0 36.9h36.9v-.8H0zM0 .1h36.9v-.8H0zm0 2.1h36.9v-.8H0zm0 2.2h36.9v-.7H0zm0 2.2h36.9v-.8H0zm0 2.1h36.9V8H0zm0 2.2h36.9v-.8H0zm0 2.2h36.9v-.8H0zm0 2.1h36.9v-.8H0zm0 2.2h36.9v-.8H0zm0 2.2h36.9v-.8H0zm0 2.1h36.9v-.8H0zm0 2.2h36.9v-.8H0zm0 2.2h36.9v-.8H0zm0 2.1h36.9v-.8H0zm0 2.2h36.9v-.8H0zm0 2.2h36.9v-.7H0zm0 2.2h36.9V34H0z"/><path class="cls-2" d="M0 36.9h36.9v-.8H0z"/></pattern><pattern id="c" data-name="c" width="36.9" height="36.9" patternTransform="scale(5.9 -5.9) rotate(62 -3829.445 8103.638)" patternUnits="userSpaceOnUse"><path class="cls-1" d="M0 0h36.9v36.9H0z"/><path class="cls-1" d="M0 36.9h36.9V0H0z"/><path class="cls-1" d="M0 36.9h36.9V0H0z"/><path class="cls-1" d="M0 36.9h36.9V0H0z"/><path class="cls-1" d="M0 36.9h36.9V0H0z"/><path class="cls-3" d="M0 36.9h36.9v-.8H0zM0 .1h36.9v-.8H0zm0 2.1h36.9v-.8H0zm0 2.2h36.9v-.7H0zm0 2.2h36.9v-.8H0zm0 2.1h36.9V8H0zm0 2.2h36.9v-.8H0zm0 2.2h36.9v-.8H0zm0 2.1h36.9v-.8H0zm0 2.2h36.9v-.8H0zm0 2.2h36.9v-.8H0zm0 2.1h36.9v-.8H0zm0 2.2h36.9v-.8H0zm0 2.2h36.9v-.8H0zm0 2.1h36.9v-.8H0zm0 2.2h36.9v-.8H0zm0 2.2h36.9v-.7H0zm0 2.2h36.9V34H0z"/><path class="cls-3" d="M0 36.9h36.9v-.8H0z"/></pattern><pattern id="d" data-name="d" width="36.9" height="21.3" patternTransform="rotate(158.77 -80424.76 -118047.344) scale(12.65)" patternUnits="userSpaceOnUse"><path class="cls-1" d="M0 0h36.9v21.3H0z"/><path class="cls-1" d="M0 21.3h36.9V0H0z"/><path class="cls-1" d="M0 21.3h36.9V0H0z"/><path class="cls-1" d="M0 21.3h36.9V0H0z"/><path class="cls-1" d="M0 21.3h36.9V0H0z"/><path d="M36.1 0L0 20.9v-1.5L33.5 0zM32 0L0 18.5V17L29.4 0zm-8.2 0L0 13.8v-1.5L21.2 0zm13.1 1.9L3.3 21.3H.8L36.9.4zm0 2.4l-29.5 17H4.8L36.9 2.8zm-9-4.3L0 16.1v-1.5L25.3 0zm9 9L15.6 21.3H13L36.9 7.5zm0-2.3L11.5 21.3H8.9l28-16.1zm0 14.2l-.8.4h-2.6l3.4-1.9zm0-7.1l-13.1 7.5h-2.6l15.7-9zm0 2.3l-9 5.2h-2.6l11.6-6.7zm0-4.7l-17.2 9.9h-2.6L36.9 9.9zM19.7 0L0 11.4V9.9L17.1 0zm17.2 18.5L32 21.3h-2.6l7.5-4.3zM11.5 0L0 6.7V5.2L8.9 0zm4.1 0L0 9V7.5L13 0zM7.4 0L0 4.3V2.8L4.8 0zM.8 0h2.5L0 1.9V.4z" fill="#fcfcfc"/><path d="M0 0h.8L0 .4zm4.8 0L0 2.8v-.9L3.3 0zm4.1 0L0 5.2v-.9L7.4 0zM13 0L0 7.5v-.8L11.5 0zm4.1 0L0 9.9V9l15.6-9zm4.1 0L0 12.3v-.9L19.7 0zm4.1 0L0 14.6v-.8L23.8 0zm4.1 0L0 17v-.9L27.9 0zm4.1 0L0 19.4v-.9L32 0zm3.4 0v.4L.8 21.3H0v-.4L36.1 0zm0 2.8L4.8 21.3H3.3L36.9 1.9zm0 2.4l-28 16.1H7.4l29.5-17zm0 2.3L13 21.3h-1.5L36.9 6.7zm0 2.4L17.1 21.3h-1.5L36.9 9zm0 2.4l-15.7 9h-1.5l17.2-9.9zm0 2.3l-11.6 6.7h-1.5l13.1-7.5zm0 2.4l-7.5 4.3h-1.5l9-5.2zm0 2.4l-3.4 1.9H32l4.9-2.8zm0 1.9h-.8l.8-.4z" fill="#f7f7f7"/></pattern><pattern id="e" data-name="e" width="36.9" height="36.9" patternTransform="rotate(-118 -44601.829 -4175.026) scale(5.9)" patternUnits="userSpaceOnUse"><path class="cls-1" d="M0 0h36.9v36.9H0z"/><path class="cls-1" d="M0 36.9h36.9V0H0z"/><path class="cls-1" d="M0 36.9h36.9V0H0z"/><path class="cls-1" d="M0 36.9h36.9V0H0z"/><path class="cls-1" d="M0 36.9h36.9V0H0z"/><path class="cls-2" d="M0 36.9h36.9v-.8H0zM0 .1h36.9v-.8H0zm0 2.1h36.9v-.8H0zm0 2.2h36.9v-.7H0zm0 2.2h36.9v-.8H0zm0 2.1h36.9V8H0zm0 2.2h36.9v-.8H0zm0 2.2h36.9v-.8H0zm0 2.1h36.9v-.8H0zm0 2.2h36.9v-.8H0zm0 2.2h36.9v-.8H0zm0 2.1h36.9v-.8H0zm0 2.2h36.9v-.8H0zm0 2.2h36.9v-.8H0zm0 2.1h36.9v-.8H0zm0 2.2h36.9v-.8H0zm0 2.2h36.9v-.7H0zm0 2.2h36.9V34H0z"/><path class="cls-2" d="M0 36.9h36.9v-.8H0z"/></pattern></defs><g clip-path="url(#clip-path)"><path class="cls-7" d="M713 274.2a22.66 22.66 0 0 0-20.3 0l-56.8 28.4a61.9 61.9 0 0 1-7.5 3.2 79.33 79.33 0 0 1-26.8 4.9h-97.2a77.18 77.18 0 0 1-26.1-4.6 84.49 84.49 0 0 1-8.2-3.5l-56.8-28.4a22.66 22.66 0 0 0-20.3 0l-56.8 28.4a76.67 76.67 0 0 1-68.6 0l-47-23.5a22.65 22.65 0 0 0-30.4 30.4l23.5 47a77.64 77.64 0 0 1 7.9 29.9c.1 1.5.1 2.9.1 4.4a86.19 86.19 0 0 1-.5 8.8 78.18 78.18 0 0 1-7.5 25.5L185.2 482a22.66 22.66 0 0 0 0 20.3l28.4 56.8a76.43 76.43 0 0 1 7.8 27.7q.3 3.3.3 6.6c0 1.5 0 2.9-.1 4.4s-.2 2.9-.4 4.4a78.18 78.18 0 0 1-7.5 25.5l-28.4 56.8a22.66 22.66 0 0 0 0 20.3l28.4 56.8a77.64 77.64 0 0 1 7.9 29.9c.1 1.5.1 2.9.1 4.4 0 2.17-.11 4.4-.29 6.6H800V310.68a76.71 76.71 0 0 1-30-8z"/><path d="M581.1 179.36l108.75 80.93m-261.94 4l116.62-87" stroke="#ffd7e1" stroke-miterlimit="10" stroke-width="10" fill="none"/><circle cx="561.4" cy="167.1" r="19.7" fill="#fff0f4" stroke="#ffd7e1" stroke-miterlimit="10" stroke-width="10"/><path class="cls-1" d="M478.1 306.4a74 74 0 0 1-8.2-3.5l-56.8-28.4a22.66 22.66 0 0 0-20.3 0L336 302.9a76.67 76.67 0 0 1-68.6 0l-47-23.5a22.65 22.65 0 0 0-30.4 30.4l23.5 47a77.64 77.64 0 0 1 7.9 29.9c.1 1.5.1 2.9.1 4.4a86.19 86.19 0 0 1-.5 8.8 75.84 75.84 0 0 1-7.5 25.5l-28.4 56.8a22.66 22.66 0 0 0 0 20.3l28.4 56.8a77 77 0 0 1 7.8 27.7q.3 3.3.3 6.6c0 1.5 0 2.9-.1 4.4s-.2 2.9-.4 4.4a75.84 75.84 0 0 1-7.5 25.5l-28.4 56.8a22.66 22.66 0 0 0 0 20.3l28.4 56.8a77.64 77.64 0 0 1 7.9 29.9c.1 1.5.1 2.9.1 4.4 0 2.1-.1 4.3-.3 6.4h282.9V311a77.42 77.42 0 0 1-26.1-4.6z"/><path class="cls-3" d="M221.6 796.1c0-1.5 0-2.9-.1-4.4a77.64 77.64 0 0 0-7.9-29.9L185.2 705a22.66 22.66 0 0 1 0-20.3l28.4-56.8a75.84 75.84 0 0 0 7.5-25.5c.2-1.5.3-2.9.4-4.4s.1-2.9.1-4.4q0-3.3-.3-6.6a77 77 0 0 0-7.8-27.7l-28.4-56.8a22.66 22.66 0 0 1 0-20.3l28.4-56.8a75.84 75.84 0 0 0 7.5-25.5 86.19 86.19 0 0 0 .5-8.8c0-1.5 0-2.9-.1-4.4a77.64 77.64 0 0 0-7.9-29.9l-23.5-47a22.65 22.65 0 0 1 30.4-30.4l47 23.5a76.67 76.67 0 0 0 68.6 0l56.8-28.4a22.66 22.66 0 0 1 20.3 0l56.8 28.4a74 74 0 0 0 8.2 3.5 77.42 77.42 0 0 0 26.1 4.6l.2-.3h97.2a76.69 76.69 0 0 0 26.8-4.9 81.2 81.2 0 0 0 7.5-3.2l56.8-28.4a22.66 22.66 0 0 1 20.3 0l56.8 28.4a76.58 76.58 0 0 0 30.2 8v-27a48.2 48.2 0 0 1-18-5.1L725.1 250a49.56 49.56 0 0 0-44.4 0l-56.8 28.4a50.27 50.27 0 0 1-22.2 5.2h-97.2a50.27 50.27 0 0 1-22.2-5.2L425.4 250a49.56 49.56 0 0 0-44.4 0l-56.8 28.4a49.56 49.56 0 0 1-44.4 0l-47-23.5a49.64 49.64 0 0 0-66.6 66.6l23.5 47a49.56 49.56 0 0 1 0 44.4l-28.4 56.8a49.56 49.56 0 0 0 0 44.4l28.4 56.8a49.56 49.56 0 0 1 0 44.4l-28.4 56.8a49.56 49.56 0 0 0 0 44.4l28.4 56.8a49.44 49.44 0 0 1 4.7 29.2h26.9c.2-2.1.3-4.3.3-6.4z"/><path class="cls-10" d="M267.7 362.6h473.4v439.9H267.7z"/><path class="cls-3" d="M261.9 362.6H800v439.9H261.9z"/><path class="cls-7" d="M707 310.7a77.22 77.22 0 0 1-34.3-8.1 76.89 76.89 0 0 0 34.3 8.1zm-439.4-8.1a77.22 77.22 0 0 0 34.3 8.1 76.89 76.89 0 0 1-34.3-8.1l-47-23.5a22.15 22.15 0 0 0-10.1-2.4 22.15 22.15 0 0 1 10.1 2.4zm-77.5 6.9a23 23 0 0 1-2.4-10.3 23 23 0 0 0 2.4 10.3l23.5 47a77.64 77.64 0 0 1 7.9 29.9 77.64 77.64 0 0 0-7.9-29.9zm597.2 288.3c.1 1.5.2 2.9.4 4.4a32.56 32.56 0 0 1-.4-4.4zm-602.1-95.6a22.15 22.15 0 0 1-2.4-10.1 24.88 24.88 0 0 0 2.4 10.1l28.4 56.8a76.43 76.43 0 0 1 7.8 27.7 77 77 0 0 0-7.8-27.7zm0 202.6a22.15 22.15 0 0 1-2.4-10.1 25.24 25.24 0 0 0 2.4 10.1l28.4 56.8a77.64 77.64 0 0 1 7.9 29.9 77.64 77.64 0 0 0-7.9-29.9zm319.2-394.1a77.42 77.42 0 0 1-26.1-4.6 77.42 77.42 0 0 0 26.1 4.6z"/><path class="cls-3" d="M213.7 425.1a75.84 75.84 0 0 0 7.5-25.5 78.18 78.18 0 0 1-7.5 25.5L185.2 482a22.15 22.15 0 0 0-2.4 10.1 22.15 22.15 0 0 1 2.4-10.1z"/><path class="cls-11" d="M213.7 425.1a75.84 75.84 0 0 0 7.5-25.5 78.18 78.18 0 0 1-7.5 25.5L185.2 482a22.15 22.15 0 0 0-2.4 10.1 22.15 22.15 0 0 1 2.4-10.1z"/><path class="cls-12" d="M213.7 425.1a75.84 75.84 0 0 0 7.5-25.5 78.18 78.18 0 0 1-7.5 25.5L185.2 482a22.15 22.15 0 0 0-2.4 10.1 22.15 22.15 0 0 1 2.4-10.1z"/><path class="cls-3" d="M478.3 306.1a84.49 84.49 0 0 1-8.2-3.5l-56.8-28.4 56.8 28.4a84.49 84.49 0 0 0 8.2 3.5z"/><path class="cls-11" d="M478.3 306.1a84.49 84.49 0 0 1-8.2-3.5l-56.8-28.4 56.8 28.4a84.49 84.49 0 0 0 8.2 3.5z"/><path class="cls-12" d="M478.3 306.1a84.49 84.49 0 0 1-8.2-3.5l-56.8-28.4 56.8 28.4a84.49 84.49 0 0 0 8.2 3.5z"/><path class="cls-3" d="M221.2 602.2c.2-1.5.3-2.9.4-4.4-.1 1.5-.2 2.9-.4 4.4z"/><path class="cls-11" d="M221.2 602.2c.2-1.5.3-2.9.4-4.4-.1 1.5-.2 2.9-.4 4.4z"/><path class="cls-12" d="M221.2 602.2c.2-1.5.3-2.9.4-4.4-.1 1.5-.2 2.9-.4 4.4z"/><path class="cls-3" d="M213.7 627.7a75.84 75.84 0 0 0 7.5-25.5 79 79 0 0 1-7.5 25.5l-28.4 56.8a22.15 22.15 0 0 0-2.4 10.1 22.15 22.15 0 0 1 2.4-10.1z"/><path class="cls-11" d="M213.7 627.7a75.84 75.84 0 0 0 7.5-25.5 79 79 0 0 1-7.5 25.5l-28.4 56.8a22.15 22.15 0 0 0-2.4 10.1 22.15 22.15 0 0 1 2.4-10.1z"/><path class="cls-12" d="M213.7 627.7a75.84 75.84 0 0 0 7.5-25.5 79 79 0 0 1-7.5 25.5l-28.4 56.8a22.15 22.15 0 0 0-2.4 10.1 22.15 22.15 0 0 1 2.4-10.1z"/><path class="cls-3" d="M336.2 302.6a77.22 77.22 0 0 1-34.3 8.1 77.22 77.22 0 0 0 34.3-8.1z"/><path class="cls-11" d="M336.2 302.6a77.22 77.22 0 0 1-34.3 8.1 77.22 77.22 0 0 0 34.3-8.1z"/><path class="cls-12" d="M336.2 302.6a77.22 77.22 0 0 1-34.3 8.1 77.22 77.22 0 0 0 34.3-8.1z"/><path class="cls-12" d="M800 757.5V310.7a76.15 76.15 0 0 1-30-8l-57-28.5a22.66 22.66 0 0 0-20.3 0l-56.8 28.4a61.9 61.9 0 0 1-7.5 3.2 79.33 79.33 0 0 1-26.8 4.9h-97.2a77.18 77.18 0 0 1-26.1-4.6 84.49 84.49 0 0 1-8.2-3.5l-56.8-28.4a22.66 22.66 0 0 0-20.3 0l-56.8 28.4a76.67 76.67 0 0 1-68.6 0l-47-23.5a22.65 22.65 0 0 0-30.4 30.4l23.5 47a77.64 77.64 0 0 1 7.9 29.9c.1 1.5.1 2.9.1 4.4a86.19 86.19 0 0 1-.5 8.8 78.18 78.18 0 0 1-7.5 25.5L185.2 482a22.66 22.66 0 0 0 0 20.3l28.4 56.8a76.43 76.43 0 0 1 7.8 27.7q.3 3.3.3 6.6c0 1.5 0 2.9-.1 4.4s-.2 2.9-.4 4.4a78.18 78.18 0 0 1-7.5 25.5l-28.4 56.8a22.66 22.66 0 0 0 0 20.3l28.4 56.8a77.64 77.64 0 0 1 7.9 29.9c.1 1.5.1 2.9.1 4.4q0 3.3-.3 6.6H755a44.94 44.94 0 0 0 45-44.88z"/><path class="cls-10" d="M275.9 376.6H800v425.9H275.9z"/><path d="M275.9 376.6H800v425.9H275.9z" fill="url(#d)"/><path d="M601.6 310.7a76.69 76.69 0 0 0 26.8-4.9 81.2 81.2 0 0 0 7.5-3.2l56.8-28.4a22.66 22.66 0 0 1 20.3 0l56.8 28.4a76.75 76.75 0 0 0 30.2 8v-27a49.84 49.84 0 0 1-18-5.05L725.1 250a49.56 49.56 0 0 0-44.4 0l-56.8 28.4a50.27 50.27 0 0 1-22.2 5.2h-97.2a50.27 50.27 0 0 1-22.2-5.2L425.4 250a49.56 49.56 0 0 0-44.4 0l-56.8 28.4a49.56 49.56 0 0 1-44.4 0l-47-23.5a49.64 49.64 0 0 0-66.6 66.6l23.5 47a49.56 49.56 0 0 1 0 44.4l-28.4 56.8a49.56 49.56 0 0 0 0 44.4l28.4 56.8a49.56 49.56 0 0 1 0 44.4l-28.4 56.8a49.56 49.56 0 0 0 0 44.4l28.4 56.8a49.59 49.59 0 0 1 4.73 29.2h26.89c.17-2.14.28-4.29.28-6.4 0-1.5 0-2.9-.1-4.4a77.64 77.64 0 0 0-7.9-29.9L185.2 705a22.66 22.66 0 0 1 0-20.3l28.4-56.8a75.84 75.84 0 0 0 7.5-25.5c.2-1.5.3-2.9.4-4.4s.1-2.9.1-4.4q0-3.3-.3-6.6a77 77 0 0 0-7.8-27.7l-28.4-56.8a22.66 22.66 0 0 1 0-20.3l28.4-56.8a75.84 75.84 0 0 0 7.5-25.5 86.19 86.19 0 0 0 .5-8.8c0-1.5 0-2.9-.1-4.4a77.64 77.64 0 0 0-7.9-29.9l-23.5-47a22.65 22.65 0 0 1 30.4-30.4l47 23.5a76.67 76.67 0 0 0 68.6 0l56.8-28.4a22.66 22.66 0 0 1 20.3 0l56.8 28.4a74 74 0 0 0 8.2 3.5 77.42 77.42 0 0 0 26.1 4.6z" fill="url(#e)"/><path class="cls-3" d="M795.1 554.3v-.8a110.65 110.65 0 0 0-221.3 0 110.65 110.65 0 0 0-221.3 0s-11.35 136.57 194.73 249h52.95C797.44 695 795.68 565.42 795.1 554.3z"/></g></svg>