<svg xmlns="http://www.w3.org/2000/svg" xmlns:xlink="http://www.w3.org/1999/xlink" viewBox="0 0 140.962 140.962"><defs><clipPath id="a"><rect width="36.876" height="36.876" fill="none"/></clipPath><pattern id="b" width="36.876" height="36.876" patternTransform="translate(20.869 31.898) scale(1.068)" patternUnits="userSpaceOnUse" viewBox="0 0 36.876 36.876"><rect width="36.876" height="36.876" fill="none"/><rect width="36.876" height="36.876" fill="#fffae6"/><g clip-path="url(#a)"><rect x="-0.375" width="0.75" height="36.876" fill="#fff5cc"/><rect x="1.794" width="0.75" height="36.876" fill="#fff5cc"/><rect x="3.963" width="0.75" height="36.876" fill="#fff5cc"/><rect x="6.133" width="0.75" height="36.876" fill="#fff5cc"/><rect x="8.302" width="0.75" height="36.876" fill="#fff5cc"/><rect x="10.471" width="0.75" height="36.876" fill="#fff5cc"/><rect x="12.64" width="0.75" height="36.876" fill="#fff5cc"/><rect x="14.809" width="0.75" height="36.876" fill="#fff5cc"/><rect x="16.978" width="0.75" height="36.876" fill="#fff5cc"/><rect x="19.147" width="0.75" height="36.876" fill="#fff5cc"/><rect x="21.317" width="0.75" height="36.876" fill="#fff5cc"/><rect x="23.486" width="0.75" height="36.876" fill="#fff5cc"/><rect x="25.655" width="0.75" height="36.876" fill="#fff5cc"/><rect x="27.824" width="0.75" height="36.876" fill="#fff5cc"/><rect x="29.994" width="0.75" height="36.876" fill="#fff5cc"/><rect x="32.163" width="0.75" height="36.876" fill="#fff5cc"/><rect x="34.332" width="0.75" height="36.876" fill="#fff5cc"/><rect x="36.501" width="0.75" height="36.876" fill="#fff5cc"/></g></pattern></defs><title>Halal Savings</title><g style="isolation:isolate"><g style="mix-blend-mode:multiply"><polygon points="107.192 85.687 122.398 70.481 107.192 55.275 107.192 33.77 85.687 33.77 70.481 18.564 55.274 33.77 33.77 33.77 33.77 55.275 18.563 70.481 33.77 85.687 33.77 107.192 55.274 107.192 70.481 122.398 85.687 107.192 107.192 107.192 107.192 85.687" fill="#0066f5"/></g><circle cx="70.481" cy="70.481" r="39.102" fill="none" stroke="#003783" stroke-miterlimit="10" stroke-width="2.5"/><polygon points="95.47 80.831 105.82 70.481 95.47 60.13 95.47 45.492 80.831 45.492 70.481 35.141 60.13 45.492 45.492 45.492 45.492 60.13 35.141 70.481 45.492 80.831 45.492 95.47 60.13 95.47 70.481 105.82 80.831 95.47 95.47 95.47 95.47 80.831" fill="url(#b)"/><polyline points="59.294 70.994 66.028 78.301 81.667 62.661" fill="none" stroke="#003783" stroke-miterlimit="10" stroke-width="5"/></g></svg>