<svg id="Layer_1" data-name="Layer 1" xmlns="http://www.w3.org/2000/svg" viewBox="0 0 801 800"><defs><style>.cls-1,.cls-12{fill:none}.cls-2{fill:#cdf2ca}.cls-3{fill:#bee8ba}.cls-4{fill:#c184ce}.cls-5{fill:#f5edff}.cls-6{fill:#fcfcfc}.cls-7{fill:#f7f7f7}.cls-8{fill:#ecfbec}.cls-9{clip-path:url(#clip-path)}.cls-10{fill:#ded9f3}.cls-12{stroke:#ecfbec;stroke-miterlimit:10;stroke-width:10px}.cls-16{fill:url(#e)}.cls-17{fill:#58cc58}.cls-22{fill:url(#i)}.cls-23{fill:url(#j)}</style><clipPath id="clip-path"><path class="cls-1" d="M0 0h36.88v36.88H0z"/></clipPath><pattern id="b" data-name="b" width="22.24" height="24.72" patternTransform="matrix(8.27 0 0 8.27 -757.27 -366.05)" patternUnits="userSpaceOnUse"><path class="cls-1" d="M0 0h22.24v24.72H0z"/><path class="cls-1" d="M0 24.72h22.24V0H0z"/><path class="cls-1" d="M0 24.72h22.24V0H0z"/><path class="cls-2" d="M16.68 24.72H27.8V0H16.68zm0-24.37v.31-.31zm0 23.71v.31-.31z"/><path class="cls-3" d="M27.8 22.2v.49a6.9 6.9 0 0 1-1.11 1 2.3 2.3 0 0 0 1.1.32v.31a2.87 2.87 0 0 1-1.39-.43 2.47 2.47 0 0 1-2.78 0 2.47 2.47 0 0 1-2.78 0 2.81 2.81 0 0 1-1.39.43h-.05A3.25 3.25 0 0 1 18 24a2.6 2.6 0 0 1-1.3.39v-.31a2.13 2.13 0 0 0 1-.27 3.46 3.46 0 0 1-1-1.06v-.55a15.19 15.19 0 0 0 1.21-1.86c-.21-.38-.33-.65-.35-.7L16.68 18v-.67L17.89 15l-1.21-2.32V12l1.21-2.31-1.21-2.3v-.67l.86-1.65c0-.05.15-.31.35-.7a15.88 15.88 0 0 0-1.21-1.85V2a4.07 4.07 0 0 1 .75-.8l.34-.2a2.33 2.33 0 0 0-1.09-.34V.35a2.6 2.6 0 0 1 1.4.44 2.72 2.72 0 0 1 1.39-.44 2.75 2.75 0 0 1 1.4.41 2.46 2.46 0 0 1 2.76 0 2.44 2.44 0 0 1 2.78 0A2.62 2.62 0 0 1 27.8.35v.31a2.3 2.3 0 0 0-1.11.34 6 6 0 0 1 1.1 1v.49a15.19 15.19 0 0 0-1.21 1.86c.21.39.33.66.35.7l.86 1.65v.67l-1.21 2.34L27.79 12v.67L26.58 15l1.21 2.32V18l-.86 1.65c-.11.23-.23.46-.35.69a14.47 14.47 0 0 0 1.21 1.86zm-1.39-6.86l-1.22 2.32 1 1.85s.09.2.25.5c.15-.29.24-.48.24-.49l1-1.86zM20.85 10l-1.22 2.32 1.22 2.32 1.21-2.32zm1.39 2l1.21-2.32-1.21-2.29L21 9.71zM21 15l1.22 2.32L23.45 15l-1.21-2.32zm2.61-.33l1.21-2.32L23.63 10l-1.22 2.32zm.17.33L25 17.33 26.23 15 25 12.69zM25 12l1.21-2.32L25 7.39l-1.2 2.32zm.86-7c0-.05.14-.31.35-.69A14.58 14.58 0 0 0 25 2.51a14 14 0 0 0-1.21 1.85 6.88 6.88 0 0 1 .34.72L25 6.72zm-2.25-.38l-.25.51-1 1.85 1.22 2.32 1.21-2.32-1-1.84s-.01-.14-.16-.45zm-.17-.33a13.62 13.62 0 0 0-1.2-1.88A14.09 14.09 0 0 0 21 4.38c.21.38.33.65.35.7l.87 1.64.86-1.65c0-.05.15-.32.36-.71zm-2.61.35c-.16.29-.24.48-.25.49l-1 1.85L20.8 9.3l1.21-2.32-1-1.84s-.1-.21-.25-.5zm-.18-.33a14.58 14.58 0 0 0-1.21-1.87 14.18 14.18 0 0 0-1.22 1.86c.21.39.33.66.35.7l.87 1.65L20.3 5c.04 0 .17-.24.37-.62zm-1.21 3l-1.2 2.4L19.46 12l1.21-2.32zm0 5.3L18.24 15l1.22 2.32L20.67 15zm0 5.31l-.87 1.65s-.14.31-.35.69a13.54 13.54 0 0 0 1.22 1.86 14.47 14.47 0 0 0 1.21-1.86c-.21-.38-.33-.65-.35-.7zm1.39 2c.15-.29.24-.48.24-.49l1-1.86-1.21-2.32-1.22 2.32 1 1.85s.05.29.21.58zm.17.33a13.54 13.54 0 0 0 1.22 1.86 13.81 13.81 0 0 0 1.21-1.86c-.21-.38-.33-.65-.35-.7L22.24 18l-.87 1.65s-.14.31-.35.69zm2.63-.25c.15-.29.24-.48.24-.49l1-1.86-1.21-2.32-1.22 2.32 1 1.85s.09.2.25.5zm.17.33A13.54 13.54 0 0 0 25 22.2a13.81 13.81 0 0 0 1.21-1.86c-.21-.38-.33-.65-.35-.7L25 18l-.87 1.65s-.13.35-.33.69zM26.41 10l-1.22 2.32 1.21 2.32 1.22-2.32zm0-5.33a7.5 7.5 0 0 0-.25.49l-1 1.85 1.24 2.36 1.22-2.32-1-1.84a4.74 4.74 0 0 0-.25-.5zm-1.19-2.4a13.07 13.07 0 0 1 1.18 1.78 14.15 14.15 0 0 1 1.19-1.78 5.45 5.45 0 0 0-1.19-1.11 5.91 5.91 0 0 0-1.18 1.11zM23.91 1A6.43 6.43 0 0 1 25 2a6 6 0 0 1 1.1-1 2.05 2.05 0 0 0-2.19 0zm-1.44 1.23A13.2 13.2 0 0 1 23.64 4a13.12 13.12 0 0 1 1.17-1.76 6 6 0 0 0-1.18-1.12 6 6 0 0 0-1.16 1.11zM21.17 1a6.65 6.65 0 0 1 1.09 1 6.47 6.47 0 0 1 1.08-1 2 2 0 0 0-2.17 0zm-.3.18a6.17 6.17 0 0 0-1.21 1.13 14.15 14.15 0 0 1 1.19 1.78 12.15 12.15 0 0 1 1.21-1.81 6.2 6.2 0 0 0-1.19-1.14zM18.36 1a7.74 7.74 0 0 1 1.1 1 6.2 6.2 0 0 1 1.12-1 2.36 2.36 0 0 0-1.12-.34 2.23 2.23 0 0 0-1.1.32zm-.29 3.07a14.08 14.08 0 0 1 1.18-1.78 5.75 5.75 0 0 0-1.19-1.12c-.15.1-.3.2-.44.31a3.75 3.75 0 0 0-.74.8 13.57 13.57 0 0 1 1.19 1.79zm0 5.32l1.21-2.32-1-1.84s-.1-.21-.25-.5a7.5 7.5 0 0 0-.25.49l-1 1.85zm0 5.31l1.21-2.32L18.07 10l-1.22 2.32zm0 5.33c.15-.29.24-.48.24-.49l1-1.86-1.21-2.32-1.22 2.32 1 1.85a4.74 4.74 0 0 0 .19.47zm1.18 2.44a13.07 13.07 0 0 1-1.18-1.78 13.41 13.41 0 0 1-1.2 1.8A3.33 3.33 0 0 0 18 23.63a5.94 5.94 0 0 0 1.25-1.18zm1.31 1.29a6.8 6.8 0 0 1-1.1-1 6.79 6.79 0 0 1-1.18 1.09 3 3 0 0 0 1.17.27 2.3 2.3 0 0 0 1.11-.32zM22 22.45a13.07 13.07 0 0 1-1.18-1.78 14.15 14.15 0 0 1-1.19 1.78 5.91 5.91 0 0 0 1.18 1.11A5.71 5.71 0 0 0 22 22.45zm1.31 1.29a6.45 6.45 0 0 1-1.1-1 6.9 6.9 0 0 1-1.11 1 2.05 2.05 0 0 0 2.21 0zm1.47-1.29a13.07 13.07 0 0 1-1.18-1.78 14.15 14.15 0 0 1-1.19 1.78 6 6 0 0 0 1.19 1.11 5.91 5.91 0 0 0 1.21-1.11zm1.31 1.29a6.45 6.45 0 0 1-1.1-1 6.9 6.9 0 0 1-1.11 1 2.05 2.05 0 0 0 2.24 0zm1.47-1.29a14.15 14.15 0 0 1-1.19-1.78 13.07 13.07 0 0 1-1.18 1.78 5.91 5.91 0 0 0 1.18 1.11 5.71 5.71 0 0 0 1.22-1.11z"/><path class="cls-2" d="M5.56 24.72h11.12V0H5.56zM5.56.35v.31-.31zm0 23.71v.31-.31z"/><path class="cls-3" d="M16.68 22.2v.49a6.9 6.9 0 0 1-1.11 1 2.3 2.3 0 0 0 1.11.32v.31a2.81 2.81 0 0 1-1.39-.43 2.87 2.87 0 0 1-1.39.43 2.81 2.81 0 0 1-1.39-.43 2.87 2.87 0 0 1-1.39.43 2.81 2.81 0 0 1-1.39-.43 2.87 2.87 0 0 1-1.39.43h-.05A3.25 3.25 0 0 1 6.86 24a2.6 2.6 0 0 1-1.3.39v-.31a2.13 2.13 0 0 0 1-.27 3.58 3.58 0 0 1-1-1.06v-.55a14.1 14.1 0 0 0 1.21-1.86c-.2-.38-.33-.65-.35-.7L5.56 18v-.67L6.78 15l-1.22-2.31V12l1.22-2.29-1.22-2.32v-.67l.87-1.65c0-.05.14-.31.34-.69a14.1 14.1 0 0 0-1.21-1.86V2a4.07 4.07 0 0 1 .75-.8l.34-.2A2.2 2.2 0 0 0 5.56.66V.35A2.69 2.69 0 0 1 7 .79 2.75 2.75 0 0 1 8.35.35a2.75 2.75 0 0 1 1.4.41 2.48 2.48 0 0 1 2.76 0A2.62 2.62 0 0 1 13.9.35a2.67 2.67 0 0 1 1.39.43 2.62 2.62 0 0 1 1.39-.43v.31a2.23 2.23 0 0 0-1.1.32 6.75 6.75 0 0 1 1.1 1v.49a13.16 13.16 0 0 0-1.21 1.86l.35.7.86 1.65v.67l-1.22 2.36L16.68 12v.66L15.46 15l1.22 2.32V18l-.87 1.65c-.11.23-.22.47-.34.69a12.61 12.61 0 0 0 1.21 1.86zm-1.39-6.86l-1.22 2.32 1 1.85s.09.2.25.5c.15-.29.24-.48.24-.49l1-1.86zM9.73 10l-1.22 2.36 1.22 2.32 1.21-2.32zm1.39 2l1.22-2.32-1.22-2.29L9.9 9.71zM9.9 15l1.22 2.32L12.33 15l-1.21-2.32zm2.61-.33l1.21-2.32L12.51 10l-1.22 2.32zm.17.33l1.22 2.32L15.11 15l-1.21-2.31zm1.22-3l1.21-2.32-1.21-2.29-1.22 2.32zm.86-7c0-.05.15-.31.35-.69a14.58 14.58 0 0 0-1.21-1.8 15.08 15.08 0 0 0-1.21 1.85 6.88 6.88 0 0 1 .34.72l.87 1.64zm-2.25-.38c-.15.3-.24.5-.25.51l-1 1.85 1.22 2.32 1.21-2.32-1-1.84s-.03-.14-.18-.45zm-.17-.33a13.62 13.62 0 0 0-1.2-1.88A14.09 14.09 0 0 0 9.9 4.38c.21.38.33.65.35.7l.87 1.64.88-1.65c0-.07.13-.32.34-.71zm-2.61.35c-.16.29-.24.48-.25.49l-1 1.85 1.25 2.39 1.21-2.32L10 5.21s-.1-.21-.25-.5zm-.18-.33a13.58 13.58 0 0 0-1.21-1.8 13.16 13.16 0 0 0-1.21 1.86l.35.7.86 1.65.86-1.65c.02-.07.15-.31.35-.69zm-1.21 3l-1.22 2.4L8.34 12l1.21-2.29zm0 5.3L7.12 15l1.22 2.32L9.55 15zm0 5.31l-.87 1.65c-.11.23-.22.47-.34.69a13.48 13.48 0 0 0 1.21 1.94 13.48 13.48 0 0 0 1.21-1.86c-.2-.38-.33-.65-.35-.7zm1.39 2c.15-.29.24-.48.24-.49l1-1.86-1.24-2.23-1.22 2.32 1 1.85s.06.2.22.49zm.17.33a13.54 13.54 0 0 0 1.22 1.86 12.9 12.9 0 0 0 1.21-1.86c-.21-.38-.33-.65-.35-.7L11.12 18l-.87 1.65s-.14.31-.35.69zm2.61-.25c.15-.29.24-.48.24-.49l1-1.86-1.21-2.32-1.22 2.32 1 1.85s.03.21.19.5zm.18.33a12.61 12.61 0 0 0 1.21 1.87 13.81 13.81 0 0 0 1.21-1.86c-.21-.38-.33-.65-.35-.7L13.9 18l-.9 1.65s-.11.35-.31.69zM15.29 10l-1.22 2.32 1.22 2.32 1.21-2.32zm0-5.33a7.5 7.5 0 0 0-.25.49l-1 1.85 1.22 2.32 1.24-2.28-1-1.84s-.06-.21-.21-.5zm-1.19-2.4a14.15 14.15 0 0 1 1.19 1.78 13.07 13.07 0 0 1 1.18-1.78 5.64 5.64 0 0 0-1.18-1.11 5.71 5.71 0 0 0-1.19 1.11zM12.8 1a6.75 6.75 0 0 1 1.1 1A6 6 0 0 1 15 1a2.05 2.05 0 0 0-2.2 0zm-1.45 1.23A13.2 13.2 0 0 1 12.52 4a13.12 13.12 0 0 1 1.17-1.76 6 6 0 0 0-1.18-1.12 6.27 6.27 0 0 0-1.16 1.11zM10.05 1a7.14 7.14 0 0 1 1.1 1 6.43 6.43 0 0 1 1.07-1 2.23 2.23 0 0 0-1.1-.32 2.21 2.21 0 0 0-1.07.32zm-.3.18a6.17 6.17 0 0 0-1.21 1.09 14.15 14.15 0 0 1 1.19 1.78 13 13 0 0 1 1.21-1.81 6.2 6.2 0 0 0-1.19-1.1zM7.24 1a7.74 7.74 0 0 1 1.1 1 6.2 6.2 0 0 1 1.12-1A2.36 2.36 0 0 0 8.34.66a2.23 2.23 0 0 0-1.1.34zM7 4.05a14.08 14.08 0 0 1 1.13-1.78 5.75 5.75 0 0 0-1.19-1.12c-.15.1-.3.2-.44.31a4 4 0 0 0-.74.8A14.26 14.26 0 0 1 7 4.05zm0 5.32l1.16-2.32-1-1.84-.16-.5a7.5 7.5 0 0 0-.25.49l-1 1.85zm0 5.31l1.21-2.32L7 10l-1.27 2.36zM7 20c.15-.29.24-.48.24-.49l1-1.86L7 15.34l-1.27 2.32 1 1.85A4.74 4.74 0 0 0 7 20zm1.18 2.44A14.08 14.08 0 0 1 7 20.67a13.41 13.41 0 0 1-1.2 1.8 3.33 3.33 0 0 0 1.11 1.16 6.24 6.24 0 0 0 1.28-1.18zm1.31 1.29a6.8 6.8 0 0 1-1.1-1 6.72 6.72 0 0 1-1.17 1.09 2.9 2.9 0 0 0 1.16.27 2.3 2.3 0 0 0 1.11-.32zm1.47-1.29a14.08 14.08 0 0 1-1.18-1.78 14.15 14.15 0 0 1-1.19 1.78 6 6 0 0 0 1.19 1.11 5.91 5.91 0 0 0 1.13-1.1zm1.31 1.29a6.45 6.45 0 0 1-1.1-1 7.28 7.28 0 0 1-1.1 1 2.05 2.05 0 0 0 2.2 0zm1.47-1.29a14.08 14.08 0 0 1-1.18-1.78 14.15 14.15 0 0 1-1.19 1.78 6 6 0 0 0 1.19 1.11 5.91 5.91 0 0 0 1.13-1.1zm1.26 1.3a6.45 6.45 0 0 1-1.1-1 7.28 7.28 0 0 1-1.1 1 2.05 2.05 0 0 0 2.2 0zm1.47-1.29a13.07 13.07 0 0 1-1.18-1.78 14.15 14.15 0 0 1-1.19 1.78 6 6 0 0 0 1.19 1.11 5.91 5.91 0 0 0 1.18-1.11z"/><path class="cls-2" d="M-5.56 24.72H5.56V0H-5.56z"/><path class="cls-3" d="M5.56 22.2v.49a7.28 7.28 0 0 1-1.1 1 2.23 2.23 0 0 0 1.1.32v.31a2.81 2.81 0 0 1-1.39-.43 2.67 2.67 0 0 1-1.39.43 2.65 2.65 0 0 1-1.39-.43 2.65 2.65 0 0 1-1.39.48 2.65 2.65 0 0 1-1.39-.43 2.65 2.65 0 0 1-1.39.43h-.05A3.18 3.18 0 0 1-4.25 24a2.67 2.67 0 0 1-1.31.39v-.31a2.2 2.2 0 0 0 1-.27 3.61 3.61 0 0 1-1-1.06v-.55a14.1 14.1 0 0 0 1.21-1.86c-.2-.38-.33-.65-.35-.7L-5.56 18v-.67L-4.34 15l-1.22-2.32V12l1.22-2.31-1.22-2.3v-.67l.87-1.65c0-.05.14-.31.34-.7a14.69 14.69 0 0 0-1.21-1.85V2a4.12 4.12 0 0 1 .76-.8c.11-.09.22-.16.33-.24a2.29 2.29 0 0 0-1.09-.3V.35a2.6 2.6 0 0 1 1.4.44A2.78 2.78 0 0 1-2.77.35a2.82 2.82 0 0 1 1.41.41A2.61 2.61 0 0 1 0 .35a2.65 2.65 0 0 1 1.39.43A2.65 2.65 0 0 1 2.78.35a2.65 2.65 0 0 1 1.39.43A2.62 2.62 0 0 1 5.56.35v.31a2.23 2.23 0 0 0-1.1.34 6.75 6.75 0 0 1 1.1 1v.49a14.1 14.1 0 0 0-1.21 1.88l.35.7.86 1.65v.67L4.34 9.71 5.56 12v.66L4.34 15l1.22 2.32V18l-.87 1.65s-.14.31-.34.69a13.48 13.48 0 0 0 1.21 1.86zm-1.39-6.86L3 17.66l1 1.85s.09.2.25.5c.15-.29.24-.48.24-.49l1-1.86zM-1.39 10l-1.22 2.32 1.22 2.32 1.22-2.32zM0 12l1.22-2.29L0 7.39l-1.22 2.32zm-1.22 3L0 17.33 1.22 15 0 12.69zm2.61-.33l1.22-2.32L1.39 10 .17 12.36zm.17.33l1.22 2.32L4 15l-1.22-2.31zm1.22-3L4 9.71 2.78 7.39 1.56 9.71zm.87-7A6.93 6.93 0 0 1 4 4.38a13.58 13.58 0 0 0-1.22-1.87 13.93 13.93 0 0 0-1.2 1.85c.2.39.32.67.34.72l.86 1.64zM1.4 4.69c-.16.3-.25.5-.26.51l-1 1.85 1.25 2.32 1.22-2.32-1-1.84S1.55 5 1.4 4.69zm-.18-.33A12 12 0 0 0 0 2.48a14 14 0 0 0-1.23 1.9c.2.38.33.65.35.7L0 6.72l.87-1.65c0-.05.14-.32.35-.71zm-2.61.35c-.15.29-.24.48-.24.49l-1 1.85 1.21 2.32 1.25-2.32-1-1.84s-.1-.21-.25-.5zm-.18-.33a13.58 13.58 0 0 0-1.21-1.87A14.1 14.1 0 0 0-4 4.37c.2.39.33.66.35.7l.86 1.65.87-1.65c.03-.07.15-.31.35-.69zm-1.21 3L-4 9.71-2.78 12l1.22-2.32zm0 5.3L-4 15l1.21 2.32L-1.56 15zm0 5.31l-.87 1.65s-.14.31-.34.69a13.48 13.48 0 0 0 1.21 1.87 13.48 13.48 0 0 0 1.21-1.86c-.2-.38-.33-.65-.35-.7zm1.39 2l.25-.49 1-1.86-1.22-2.32-1.22 2.32 1 1.85s.04.22.19.51zm.18.33A14.21 14.21 0 0 0 0 22.21a14.1 14.1 0 0 0 1.21-1.86c-.2-.39-.33-.66-.35-.7L0 18l-.87 1.65s-.14.31-.34.69zm2.6-.32l.25-.49 1-1.86-1.25-2.31-1.22 2.32 1 1.85s.07.2.22.49zm.18.33a13.48 13.48 0 0 0 1.21 1.87A12.9 12.9 0 0 0 4 20.34c-.2-.38-.33-.65-.35-.7L2.78 18l-.87 1.65s-.14.31-.34.69zM4.17 10L3 12.36l1.22 2.32 1.22-2.32zm0-5.33a7.5 7.5 0 0 0-.25.49L3 7.05l1.17 2.32 1.22-2.32-1-1.84s-.07-.21-.22-.5zM3 2.27a14.15 14.15 0 0 1 1.17 1.78 13.14 13.14 0 0 1 1.19-1.78 6 6 0 0 0-1.19-1.11A6.25 6.25 0 0 0 3 2.27zM1.68 1a6.75 6.75 0 0 1 1.1 1 6.75 6.75 0 0 1 1.1-1 2.23 2.23 0 0 0-1.1-.34 2.23 2.23 0 0 0-1.1.34zM.23 2.24A12.52 12.52 0 0 1 1.4 4a13.12 13.12 0 0 1 1.17-1.73 5.64 5.64 0 0 0-1.18-1.11A5.93 5.93 0 0 0 .23 2.24zM-1.07 1A7.14 7.14 0 0 1 0 2a7.31 7.31 0 0 1 1.1-1A2.23 2.23 0 0 0 0 .66 2.21 2.21 0 0 0-1.07 1zm-.3.18a6.17 6.17 0 0 0-1.21 1.09 14.15 14.15 0 0 1 1.19 1.78A13 13 0 0 1-.18 2.24a5.66 5.66 0 0 0-1.19-1.1zM-3.88 1a7.24 7.24 0 0 1 1.1 1 6.55 6.55 0 0 1 1.12-1A2.33 2.33 0 0 0-2.78.66a2.38 2.38 0 0 0-1.1.34zm-.29 3.07A13.14 13.14 0 0 1-3 2.27a6.3 6.3 0 0 0-1.17-1.12 5.09 5.09 0 0 0-.45.31 4 4 0 0 0-.74.8 13.57 13.57 0 0 1 1.19 1.79zm0 5.32l1.22-2.32-1-1.84S-4 5-4.17 4.71a4.44 4.44 0 0 0-.24.49l-1 1.85zm0 5.31l1.22-2.32L-4.17 10l-1.22 2.32zm0 5.33c.15-.29.24-.48.24-.49l1-1.86-1.21-2.32-1.22 2.32 1 1.85s.03.19.19.47zM-3 22.45a13.14 13.14 0 0 1-1.19-1.78 13.41 13.41 0 0 1-1.2 1.8 3.33 3.33 0 0 0 1.11 1.16A6.24 6.24 0 0 0-3 22.45zm1.3 1.29a7.24 7.24 0 0 1-1.1-1 6.72 6.72 0 0 1-1.17 1.09 2.9 2.9 0 0 0 1.16.27 2.27 2.27 0 0 0 1.11-.32zm1.5-1.29a13.14 13.14 0 0 1-1.19-1.78 14.08 14.08 0 0 1-1.18 1.78 5.91 5.91 0 0 0 1.18 1.11A6.25 6.25 0 0 0-.2 22.45zm1.3 1.29a7.28 7.28 0 0 1-1.1-1 7.28 7.28 0 0 1-1.1 1 2.23 2.23 0 0 0 1.1.32 2.23 2.23 0 0 0 1.1-.32zm1.48-1.29a13.14 13.14 0 0 1-1.19-1.78A13.14 13.14 0 0 1 .2 22.45a6.25 6.25 0 0 0 1.19 1.11 6.25 6.25 0 0 0 1.19-1.11zm1.3 1.29a7.28 7.28 0 0 1-1.1-1 7.28 7.28 0 0 1-1.1 1 2.23 2.23 0 0 0 1.1.32 2.23 2.23 0 0 0 1.1-.32zm1.48-1.29a13.14 13.14 0 0 1-1.19-1.78A13.14 13.14 0 0 1 3 22.45a6.25 6.25 0 0 0 1.19 1.11 6.25 6.25 0 0 0 1.19-1.11z"/></pattern><clipPath id="clip-path-3"><rect class="cls-1" width="800" height="800" rx="45"/></clipPath><pattern id="d" data-name="d" width="36.88" height="36.88" patternTransform="matrix(2.71 -4.4 -4.4 -2.71 1874.35 1694.03)" patternUnits="userSpaceOnUse"><path class="cls-1" d="M0 0h36.88v36.88H0z"/><path class="cls-1" d="M0 36.88h36.88V0H0z"/><path class="cls-1" d="M0 36.88h36.88V0H0z"/><path class="cls-4" d="M0 36.88h36.88v-.75H0z"/><path class="cls-5" d="M0 36.13h36.88V0H0z"/><path class="cls-4" d="M0 0h36.88v-.75H0zm0 2.17h36.88v-.75H0zm0 2.17h36.88v-.75H0zm0 2.17h36.88v-.75H0zm0 2.17h36.88v-.75H0zm0 2.17h36.88v-.75H0zM0 13h36.88v-.75H0zm0 2.17h36.88v-.75H0zm0 2.17h36.88v-.74H0zm0 2.17h36.88v-.75H0zm0 2.17h36.88v-.75H0zm0 2.17h36.88v-.75H0zM0 26h36.88v-.75H0zm0 2.2h36.88v-.75H0zm0 2.17h36.88v-.75H0zm0 2.17h36.88v-.75H0zm0 2.17h36.88V34H0zm0 2.17h36.88v-.75H0z"/></pattern><pattern id="e" data-name="e" width="36.88" height="21.29" patternTransform="scale(12.65 -12.65) rotate(29.97 697.105 32.402)" patternUnits="userSpaceOnUse"><path class="cls-1" d="M0 0h36.88v21.29H0z"/><path class="cls-1" d="M0 21.29h36.88V0H0z"/><path class="cls-1" d="M0 21.29h36.88V0H0z"/><path class="cls-6" d="M36.13 0L0 20.86v-1.5L33.53 0zM32 0L0 18.49V17L29.43 0zm-8.2 0L0 13.76v-1.5L21.24 0zm13.08 1.93L3.35 21.29H.75L36.88.43zm0 2.37l-29.43 17h-2.6l32-18.49zm-9-4.3L0 16.13v-1.5L25.33 0zm9 9L15.64 21.29H13L36.88 7.53zm0-2.37L11.54 21.29h-2.6L36.88 5.16zm0 14.2l-.75.43h-2.6l3.35-1.93zm0-7.1l-13.05 7.56h-2.59l15.64-9zm0 2.37l-9 5.16h-2.6l11.55-6.66zm0-4.73l-17.14 9.92h-2.6L36.88 9.9zM19.74 0L0 11.4V9.9L17.14 0zm17.14 18.49L32 21.29h-2.6L36.88 17zM11.54 0L0 6.66v-1.5L8.94 0zm4.1 0L0 9V7.53L13 0zM7.45 0L0 4.3V2.8L4.85 0zM.75 0h2.6L0 1.93V.43z"/><path class="cls-7" d="M0 0h.75L0 .43zm4.85 0L0 2.8v-.87L3.35 0zm4.09 0L0 5.16V4.3L7.45 0zM13 0L0 7.53v-.87L11.54 0zm4.1 0L0 9.9V9l15.64-9zm4.1 0L0 12.26v-.86L19.74 0zm4.09 0L0 14.63v-.87L23.83 0zm4.1 0L0 17v-.86L27.93 0zm4.1 0L0 19.36v-.87L32 0zm3.35 0v.43L.75 21.29H0v-.43L36.13 0zm0 2.8l-32 18.49H3.35L36.88 1.93zm0 2.36L8.94 21.29H7.45l29.43-17zm0 2.37L13 21.29h-1.5L36.88 6.66zm0 2.37l-19.7 11.39h-1.5L36.88 9zm0 2.36l-15.64 9h-1.5l17.18-9.86zm0 2.37l-11.51 6.66h-1.5l13.05-7.53zm0 2.36l-7.45 4.3h-1.5l9-5.16zm0 2.37l-3.35 1.93H32l4.85-2.8zm0 1.93h-.75l.75-.43z"/></pattern><pattern id="f" data-name="f" width="36.88" height="36.88" patternTransform="matrix(-.01 -5.17 -5.17 .01 2847.6 494.59)" patternUnits="userSpaceOnUse"><path class="cls-1" d="M0 0h36.88v36.88H0z"/><path class="cls-1" d="M0 36.88h36.88V0H0z"/><path class="cls-1" d="M0 36.88h36.88V0H0z"/><path class="cls-8" d="M0 36.88h36.88V0H0z"/><g class="cls-9"><path class="cls-2" d="M-.38 36.88h.76V0h-.76zm2.17 0h.75V0h-.75zm2.17 0h.75V0H4zm2.17 0h.75V0h-.75zm2.17 0h.75V0H8.3zm2.17 0h.75V0h-.75zm2.17 0h.75V0h-.75zm2.17 0h.75V0h-.75zm2.17 0h.75V0H17zm2.17 0h.75V0h-.75zm2.17 0h.75V0h-.75zm2.17 0h.75V0h-.75zm2.17 0h.75V0h-.75zm2.16 0h.75V0h-.75zm2.17 0h.75V0H30zm2.17 0h.75V0h-.75zm2.17 0h.75V0h-.75zm2.17 0h.75V0h-.75z"/></g></pattern><pattern id="g" data-name="g" width="36.88" height="36.88" patternTransform="matrix(.01 -7.45 -7.45 -.01 3244.9 38.67)" patternUnits="userSpaceOnUse"><path class="cls-1" d="M0 0h36.88v36.88H0z"/><path class="cls-1" d="M0 36.88h36.88V0H0z"/><path class="cls-1" d="M0 36.88h36.88V0H0z"/><path class="cls-10" d="M0 36.88h36.88v-.75H0z"/><path class="cls-5" d="M0 36.13h36.88V0H0z"/><path class="cls-10" d="M0 0h36.88v-.75H0zm0 2.17h36.88v-.75H0zm0 2.17h36.88v-.75H0zm0 2.17h36.88v-.75H0zm0 2.17h36.88v-.75H0zm0 2.17h36.88v-.75H0zM0 13h36.88v-.75H0zm0 2.17h36.88v-.75H0zm0 2.17h36.88v-.74H0zm0 2.17h36.88v-.75H0zm0 2.17h36.88v-.75H0zm0 2.17h36.88v-.75H0zM0 26h36.88v-.75H0zm0 2.2h36.88v-.75H0zm0 2.17h36.88v-.75H0zm0 2.17h36.88v-.75H0zm0 2.17h36.88V34H0zm0 2.17h36.88v-.75H0z"/></pattern><pattern id="h" data-name="h" width="36.88" height="36.88" patternTransform="matrix(5.17 -.01 -.01 -5.17 -1023.13 2873.58)" patternUnits="userSpaceOnUse"><path class="cls-1" d="M0 0h36.88v36.88H0z"/><path class="cls-1" d="M0 36.88h36.88V0H0z"/><path class="cls-1" d="M0 36.88h36.88V0H0z"/><path class="cls-8" d="M0 36.88h36.88V0H0z"/><g class="cls-9"><path class="cls-2" d="M-.38 36.88h.76V0h-.76zm2.17 0h.75V0h-.75zm2.17 0h.75V0H4zm2.17 0h.75V0h-.75zm2.17 0h.75V0H8.3zm2.17 0h.75V0h-.75zm2.17 0h.75V0h-.75zm2.17 0h.75V0h-.75zm2.17 0h.75V0H17zm2.17 0h.75V0h-.75zm2.17 0h.75V0h-.75zm2.17 0h.75V0h-.75zm2.17 0h.75V0h-.75zm2.16 0h.75V0h-.75zm2.17 0h.75V0H30zm2.17 0h.75V0h-.75zm2.17 0h.75V0h-.75zm2.17 0h.75V0h-.75z"/></g></pattern><pattern id="i" data-name="i" width="36.88" height="21.29" patternTransform="rotate(151.56 417.964 2337.957) scale(12.65)" patternUnits="userSpaceOnUse"><path class="cls-1" d="M0 0h36.88v21.29H0z"/><path class="cls-1" d="M0 21.29h36.88V0H0z"/><path class="cls-1" d="M0 21.29h36.88V0H0z"/><path class="cls-8" d="M36.13 0L0 20.86v-1.5L33.53 0zM32 0L0 18.49V17L29.43 0zm-8.2 0L0 13.76v-1.5L21.24 0zm13.08 1.93L3.35 21.29H.75L36.88.43zm0 2.37l-29.43 17h-2.6l32-18.49zm-9-4.3L0 16.13v-1.5L25.33 0zm9 9L15.64 21.29H13L36.88 7.53zm0-2.37L11.54 21.29h-2.6L36.88 5.16zm0 14.2l-.75.43h-2.6l3.35-1.93zm0-7.1l-13.05 7.56h-2.59l15.64-9zm0 2.37l-9 5.16h-2.6l11.55-6.66zm0-4.73l-17.14 9.92h-2.6L36.88 9.9zM19.74 0L0 11.4V9.9L17.14 0zm17.14 18.49L32 21.29h-2.6L36.88 17zM11.54 0L0 6.66v-1.5L8.94 0zm4.1 0L0 9V7.53L13 0zM7.45 0L0 4.3V2.8L4.85 0zM.75 0h2.6L0 1.93V.43z"/><path class="cls-2" d="M0 0h.75L0 .43zm4.85 0L0 2.8v-.87L3.35 0zm4.09 0L0 5.16V4.3L7.45 0zM13 0L0 7.53v-.87L11.54 0zm4.1 0L0 9.9V9l15.64-9zm4.1 0L0 12.26v-.86L19.74 0zm4.09 0L0 14.63v-.87L23.83 0zm4.1 0L0 17v-.86L27.93 0zm4.1 0L0 19.36v-.87L32 0zm3.35 0v.43L.75 21.29H0v-.43L36.13 0zm0 2.8l-32 18.49H3.35L36.88 1.93zm0 2.36L8.94 21.29H7.45l29.43-17zm0 2.37L13 21.29h-1.5L36.88 6.66zm0 2.37l-19.7 11.39h-1.5L36.88 9zm0 2.36l-15.64 9h-1.5l17.18-9.86zm0 2.37l-11.51 6.66h-1.5l13.05-7.53zm0 2.36l-7.45 4.3h-1.5l9-5.16zm0 2.37l-3.35 1.93H32l4.85-2.8zm0 1.93h-.75l.75-.43z"/></pattern><pattern id="j" data-name="j" width="36.88" height="21.29" patternTransform="matrix(11.79 4.58 4.58 -11.79 -2107.22 3152.22)" patternUnits="userSpaceOnUse"><path class="cls-1" d="M0 0h36.88v21.29H0z"/><path class="cls-1" d="M0 21.29h36.88V0H0z"/><path class="cls-1" d="M0 21.29h36.88V0H0z"/><path class="cls-6" d="M36.13 0L0 20.86v-1.5L33.53 0zM32 0L0 18.49V17L29.43 0zm-8.2 0L0 13.76v-1.5L21.24 0zm13.08 1.93L3.35 21.29H.75L36.88.43zm0 2.37l-29.43 17h-2.6l32-18.49zm-9-4.3L0 16.13v-1.5L25.33 0zm9 9L15.64 21.29H13L36.88 7.53zm0-2.37L11.54 21.29h-2.6L36.88 5.16zm0 14.2l-.75.43h-2.6l3.35-1.93zm0-7.1l-13.05 7.56h-2.59l15.64-9zm0 2.37l-9 5.16h-2.6l11.55-6.66zm0-4.73l-17.14 9.92h-2.6L36.88 9.9zM19.74 0L0 11.4V9.9L17.14 0zm17.14 18.49L32 21.29h-2.6L36.88 17zM11.54 0L0 6.66v-1.5L8.94 0zm4.1 0L0 9V7.53L13 0zM7.45 0L0 4.3V2.8L4.85 0zM.75 0h2.6L0 1.93V.43z"/><path class="cls-7" d="M0 0h.75L0 .43zm4.85 0L0 2.8v-.87L3.35 0zm4.09 0L0 5.16V4.3L7.45 0zM13 0L0 7.53v-.87L11.54 0zm4.1 0L0 9.9V9l15.64-9zm4.1 0L0 12.26v-.86L19.74 0zm4.09 0L0 14.63v-.87L23.83 0zm4.1 0L0 17v-.86L27.93 0zm4.1 0L0 19.36v-.87L32 0zm3.35 0v.43L.75 21.29H0v-.43L36.13 0zm0 2.8l-32 18.49H3.35L36.88 1.93zm0 2.36L8.94 21.29H7.45l29.43-17zm0 2.37L13 21.29h-1.5L36.88 6.66zm0 2.37l-19.7 11.39h-1.5L36.88 9zm0 2.36l-15.64 9h-1.5l17.18-9.86zm0 2.37l-11.51 6.66h-1.5l13.05-7.53zm0 2.36l-7.45 4.3h-1.5l9-5.16zm0 2.37l-3.35 1.93H32l4.85-2.8zm0 1.93h-.75l.75-.43z"/></pattern></defs><path d="M170.75 618.87l11.08 12.3 32 11.08 73.85 1.23 59.07-14.77c59.08-14.77-1.23-44.3-1.23-44.3l2.48-24.62 39.39-17.23 19.69-23.79-1.23-29 7.38-50.55 38.16-30.77 3.69-24.62-6.15-16-22.16 6.15-16-14.77 9.85-11.07 17.23-4.92v-18.51l-6.15-13.53-13.54 8.61L396 293.94l-3.69-13.81-13.54-14.47-12.32 7.34-16 1.23-4.93-10.53 14.77-28.85-20.92-17.23-33.23-12.31-16 3.69-12.31 13.54-23.38 9.85-13.54-17.23-18.46-1.24-20.93 4.93-2.46 8.61-6.15 7.39c-6.16 7.38-8.62-.62-8.62-.62L170.75 225c-13.54-9.23-7.38-16-7.38-16l-12.31 2.46-20.92 19.7-13.54 22.17-13.54 26.94-12.12 14.91v12.3L73.52 321l-16 8.62-5.77 12.3 5.77 14.77-5.77 27.08-21.3 16 21.3 60.31h13.16l8.54 3.31 8.61 16-24.46 12.94 6.08 18.23-9.85 16c-9.85 16 18.46 8.84 18.46 8.84l16-5.15 9.85 22.15-13.54 7.39-11.08 12.31 12.31 16 12.31 9.84 18.46-12.3 13.54 12.3-13.54 18.46v16l13.54 9.85z" fill="url(#b)"/><path class="cls-12" d="M227.6 688.64V410.48L186 373.64"/><g clip-path="url(#clip-path-3)"><path class="cls-2" d="M1130.18 873h-916.4V549.28L398.56 249h731.62v624z"/><path d="M764.37 249L539.26 614.83h182.9L947.28 249zm-365.81 0L173.45 614.83h182.9L581.46 249z" fill="#ffeef2"/><path d="M398.56 249L173.45 614.83h919.89L1318.46 249z" fill="url(#d)"/><path class="cls-16" d="M398.56 249l-85.42 108.64H1233L1318.45 249z"/><path class="cls-17" d="M1243.42 371L1233 357.64H313.14L323.52 371z"/><path class="cls-16" d="M323.52 371L238.1 479.57H1158L1243.42 371z"/><path class="cls-17" d="M1168.38 492.89L1158 479.57H238.1l10.38 13.32z"/><path class="cls-16" d="M248.48 492.89l-85.42 108.62H1083l85.42-108.62z"/><path class="cls-17" d="M1093.34 614.83L1083 601.51H163.06l10.39 13.32z"/><path class="cls-16" d="M590.52 249L505.1 357.64H1425L1510.42 249z"/><path class="cls-17" d="M1435.38 371L1425 357.64H505.1L515.48 371z"/><path class="cls-16" d="M515.48 371l-85.42 108.57H1350L1435.38 371z"/><path class="cls-17" d="M1360.34 492.89L1350 479.57H430.06l10.39 13.32z"/><path class="cls-16" d="M440.45 492.89L355 601.51h919.9l85.42-108.62z"/><path class="cls-17" d="M1285.3 614.83l-10.38-13.32H355l10.39 13.32z"/><path d="M173.45 614.83v16.25l40.37 40.37h942.42v-56.62z" fill="url(#f)"/><path d="M507.45 757.34H763.8V873H507.45z" fill="#fbfbfb"/><path class="cls-17" d="M507.45 757.27h38.16V873h-38.16z"/><path d="M1115 614.83H592.62v16.25L633 671.46h441.67l40.33-40.38z" fill="url(#g)"/><path d="M859.94 614.83H409.71v16.25l40.38 40.38h369.48l40.37-40.38z" fill="url(#h)"/><path class="cls-3" d="M819.57 671.46H450.09V873h57.37V757.27H763.8V873h57.37V671.46z"/><path class="cls-22" d="M818.09 249l225.11 365.83H859.94L634.83 249z"/><path class="cls-22" d="M409.71 614.83h450.23L634.83 249z"/><path class="cls-23" d="M816.75 249l85.42 108.62H721.94L636.52 249z"/><path class="cls-17" d="M711.55 371l10.39-13.32h180.23L891.79 371z"/><path class="cls-23" d="M891.79 371l85.42 108.61H797L711.55 371z"/><path class="cls-17" d="M786.59 492.89L797 479.57h180.21l-10.38 13.32z"/><path class="cls-23" d="M966.83 492.89l85.42 108.62H872l-85.41-108.62z"/></g><path class="cls-12" d="M227.6 463.71l-27.54-27.54-24.54 2.27-47.52-47.5H99.32m76.2 47.5l-23 23m23.16-188.35L227.6 325v85.47m0-30.33l45.86-46h21.91"/></svg>