<?xml version="1.0" encoding="utf-8" standalone="no"?><svg xmlns:android="http://schemas.android.com/apk/res/android" height="502.92" width="2724.91" xmlns="http://www.w3.org/2000/svg">
    <path d="M251.46,0L110.53,0l-0.27,0.49L90.81,35.92L251.46,35.92c119,0 215.53,96.5 215.53,215.54S370.49,467 251.46,467 35.92,370.49 35.92,251.46a215.08,215.08 0,0 1,10.45 -66.32L87.52,185.14A176.85,176.85 0,1 0,251.46 74.63L69.57,74.63L49.86,110.54h201.6a140.9,140.9 0,1 1,-124.35 74.59h46.62a102.18,102.18 0,1 0,77.73 -35.92L28.62,149.21L8.9,185.14h0A251.89,251.89 0,0 0,0 251.46C0,390.33 112.58,502.92 251.46,502.92S502.92,390.33 502.92,251.46 390.33,0 251.46,0ZM251.46,185.14a66.32,66.32 0,1 1,-66.32 66.32A66.32,66.32 0,0 1,251.46 185.14Z" fill="#0066f5" fill-opacity="1.0"/>
    <path d="M613.45,256.77c0,-69.86 46.87,-118.94 117.16,-118.94 43.33,0 78.7,19 97.27,50.85l-40.67,28.74c-12.83,-20.35 -32.28,-30.07 -55.27,-30.07 -38,0 -63.22,27 -63.22,69.42 0,42 25.2,69.41 63.22,69.41 23,0 42.44,-10.17 55.27,-30.51l40.67,28.74c-18.57,32.28 -53.94,50.85 -97.27,50.85C660.32,375.26 613.45,326.18 613.45,256.77Z" fill="#0066f5" fill-opacity="1.0"/>
    <path d="M835.52,256.77c0,-65.44 46.43,-118.94 118.5,-118.94 72.51,0 118.49,53.5 118.49,118.94 0,65 -46,118.49 -118.49,118.49C882,375.26 835.52,321.76 835.52,256.77ZM1017.24,256.77c0,-41.12 -24.32,-69.86 -63.22,-69.86s-63.23,28.74 -63.23,69.86c0,40.67 24.32,69.41 63.23,69.41S1017.24,297.44 1017.24,256.77Z" fill="#0066f5" fill-opacity="1.0"/>
    <path d="M1426.57,144l-69,225.05h-58.26l-48.77,-158.73 -49.2,158.73H1143L1074.4,144h53.52l46.61,162.26L1224.59,144h51.79l50.07,162.26L1372.62,144Z" fill="#0066f5" fill-opacity="1.0"/>
    <path d="M2184.51,144l-69.06,225.05h-58.26l-48.77,-158.73 -49.2,158.73H1901l-68.62,-225h53.52l46.61,162.26L1982.52,144h51.79l50.07,162.26L2130.56,144Z" fill="#0066f5" fill-opacity="1.0"/>
    <path d="M1588,143.14v50.4a165.45,165.45 0,0 0,-24.76 -2.21c-39.35,0 -60.13,19.9 -60.13,66.76v111H1449.2V144h53V181.6c11.06,-26.08 35.37,-41.56 66.32,-41.56A55.91,55.91 0,0 1,1588 143.14Z" fill="#0066f5" fill-opacity="1.0"/>
    <path d="M1811.79,144v202.5c0,75.61 -42,117.16 -116.29,117.16 -38.46,0 -73.83,-11.49 -95.06,-31.39l24.32,-39.35c19,15 43.77,22.55 67.65,22.55 41.56,0 66.32,-23.43 66.32,-69V327.06c-12.82,24.76 -40.23,39.79 -73.4,39.79 -47.75,0 -77.81,-30.06 -77.81,-84.89V144h53.94V268.26c0,34.49 14.15,49.52 42.44,49.52 32.72,0 54.39,-19.89 54.39,-52.62V144Z" fill="#0066f5" fill-opacity="1.0"/>
    <path d="M2198.7,72.84c0,-19.46 13.71,-33.61 34.49,-33.61 20.33,0 34,14.15 34,33.61s-13.71,33.6 -34,33.6C2212.41,106.44 2198.7,92.29 2198.7,72.84ZM2206.22,144.02h53.94L2260.16,369.07h-53.94Z" fill="#0066f5" fill-opacity="1.0"/>
    <path d="M2287.3,332.37l29.18,-34.05c17.68,19.46 45.1,30.95 73.84,30.95 25.64,0 39.79,-9.72 39.79,-23.87 0,-11.94 -8.85,-19.45 -31.39,-24.76l-36.7,-8.4c-46.87,-11.05 -66.76,-32.72 -66.76,-63.67 0,-41.56 34.48,-70.74 92.85,-70.74 39.79,0 72.95,13.7 92.4,35.82l-28.74,34.92c-19.45,-16.8 -41.56,-24.76 -65,-24.76 -25.2,0 -37.58,9.29 -37.58,23 0,10.61 7.51,17.24 31.39,22.54l38.91,9.29c47.3,10.61 64.55,32.27 64.55,63.22 0,44.66 -34.49,73.4 -94.17,73.4C2345.22,375.26 2307.64,358.46 2287.3,332.37Z" fill="#0066f5" fill-opacity="1.0"/>
    <path d="M2723.59,272.68H2556c5.75,36.26 29.62,55.71 66.32,55.71 25.2,0 46.42,-9.28 62.78,-28.3l32.28,31.84c-21.22,27.41 -55.27,43.33 -96.83,43.33 -71.63,0 -119.38,-46.87 -119.38,-117.61 0,-69.86 46,-119.82 114.08,-119.82 65.43,0 109.64,45.54 109.64,114.07A169.93,169.93 0,0 1,2723.59 272.68ZM2556,236H2671c-2.65,-33.17 -23,-51.29 -55.26,-51.29C2582.55,184.7 2561.77,203.71 2556,236Z" fill="#0066f5" fill-opacity="1.0"/>
</svg>