<?xml version="1.0" encoding="utf-8" standalone="no"?>
<svg xmlns:android="http://schemas.android.com/apk/res/android" height="43.0" width="50.0" xmlns="http://www.w3.org/2000/svg">
    <g>
        <clip-path android:pathData="M0.7028,0.5315l48.4262,-0.3964l0.3411,41.669l-48.4262,0.3964z" />
        <path android:fillAlpha="0.6" android:strokeAlpha="0.6" d="M3.6333,14.8629L4.1674,15.1597L7.0739,16.7756L11.9045,19.4632L14.4146,20.8592L29.8485,29.4443L30.8044,28.8788L31.0093,28.76L31.2028,28.6524L33.0639,27.5943L34.333,26.8644L35.0044,26.463L38.6354,24.3976L38.9598,24.2109C41.2703,22.8814 43.1656,23.9144 43.1927,26.5186C43.1296,27.9389 42.7221,29.3244 42.0037,30.5615C41.2852,31.7986 40.2764,32.8521 39.0598,33.6353C37.8248,34.3426 36.7101,34.3684 35.9397,33.8505L35.8075,33.7679L35.675,33.6463C35.6404,33.6131 35.6001,33.58 35.5655,33.5412C35.5309,33.5025 35.4904,33.447 35.45,33.3972C35.4095,33.3473 35.3807,33.3197 35.3518,33.2753L35.276,33.103C35.2756,33.0528 35.2181,33.0143 35.1948,32.9643C35.1715,32.9143 35.1423,32.8308 35.1132,32.7697C35.0953,32.7166 35.0738,32.6646 35.049,32.6141C35.0484,32.5416 35.0078,32.4639 34.99,32.3915C34.9723,32.3191 34.9548,32.2802 34.9429,32.219C34.9309,32.1577 34.9414,32.035 34.9006,31.9405C34.8598,31.846 34.8998,31.8457 34.8993,31.7899C34.8892,31.634 34.8879,31.4776 34.8955,31.3215C34.8944,31.1876 34.8933,31.0482 34.8922,30.9144C34.9675,29.7918 35.2777,28.696 35.8035,27.6945L33.897,28.7865C33.7339,29.2381 33.6001,29.6993 33.4966,30.1673C33.3352,30.8428 33.2526,31.5338 33.2505,32.2273C33.2509,32.2775 33.2512,32.3221 33.2517,32.3723C33.3057,34.084 33.9559,35.2833 34.9954,35.8492C35.0644,35.8877 35.1389,35.915 35.2135,35.9478C35.277,35.9786 35.3421,36.0059 35.4086,36.0299C35.4869,36.0593 35.5674,36.0829 35.6493,36.1004L35.8556,36.1545C35.9414,36.1538 36.0329,36.1531 36.1189,36.1858C36.2049,36.2186 36.2618,36.1847 36.3361,36.184C36.4314,36.1888 36.5269,36.188 36.622,36.1817C36.6963,36.1866 36.7708,36.186 36.845,36.1799C36.9448,36.1696 37.0439,36.1539 37.1419,36.1328L37.3761,36.0975C37.4847,36.0966 37.5985,36.0343 37.7069,36.0055L37.9351,35.9423L38.3055,35.7887L38.5107,35.7089C38.7044,35.6181 38.898,35.5161 39.08,35.4031C42.267,33.5756 44.8212,29.1879 44.7804,25.5966C44.7791,25.3823 44.7659,25.1684 44.7408,24.9555C44.7403,24.8886 44.7397,24.8217 44.7392,24.7548C44.7386,24.6879 44.7027,24.4874 44.6788,24.3593C44.6548,24.2312 44.6376,24.2202 44.6141,24.1479C44.5907,24.037 44.5612,23.9274 44.5257,23.8196C44.5251,23.7471 44.4731,23.6862 44.444,23.6139C44.4148,23.5416 44.3738,23.4248 44.3273,23.336C44.2809,23.2471 44.2519,23.2083 44.2171,23.1473C44.1823,23.0862 44.1301,22.9863 44.078,22.9086C44.0369,22.8508 43.9925,22.7953 43.9451,22.7424C43.8931,22.6759 43.8468,22.6038 43.7891,22.5429C43.7401,22.4921 43.6882,22.4441 43.6335,22.3991C43.5762,22.3396 43.5146,22.2842 43.4492,22.2333C43.3974,22.1892 43.3342,22.1562 43.2767,22.1121C42.2073,21.3958 40.6696,21.4363 38.968,22.415L37.0728,23.5013L34.5802,24.9327L32.742,25.9907L32.281,26.2566L30.6989,27.1619L16.029,19.0056L13.7774,17.7525L11.3132,16.3839L7.1948,14.092L4.409,12.5421L3.3278,13.1644L1.9561,13.9397L3.6333,14.8629Z" fill="#0066f3" fill-opacity="1.0" />
        <path android:fillAlpha="0.6" android:strokeAlpha="0.6" d="M46.2273,16.5612C46.078,16.4843 45.9288,16.4093 45.7795,16.3362C45.7404,16.3174 45.7002,16.301 45.659,16.287C45.5328,16.2378 45.4066,16.1886 45.2748,16.1507L45.1544,16.1126C44.9867,16.0646 44.8165,16.025 44.6446,15.9941L44.5931,15.9945C44.4304,15.9646 44.266,15.9436 44.1009,15.9316L43.9751,15.9327C43.8036,15.9341 43.6263,15.9355 43.4491,15.937L43.4148,15.9372C43.2147,15.9389 43.0146,15.9405 42.8091,15.9812L42.7233,15.9819C42.5404,15.9834 42.3578,16.0295 42.1522,16.0647L42.055,16.0655C41.8381,16.1119 41.627,16.1638 41.4045,16.227C40.5149,16.493 39.6617,16.8633 38.8634,17.3297L36.7919,18.5179L35.8416,19.0833L33.0985,20.6506L32.8915,21.2101L32.3325,22.7651L33.6128,22.0128L33.9998,21.7921L37.3462,19.8741L38.2964,19.3086L38.9111,18.9578C39.4215,18.6621 39.957,18.4095 40.5116,18.203C42.3415,17.5355 43.9774,17.6169 45.2353,18.3149C45.4256,18.4212 45.6063,18.5429 45.7758,18.6786L45.8044,18.6783C45.9767,18.8159 46.1384,18.9655 46.2883,19.1261C46.4436,19.3012 46.5865,19.4863 46.716,19.6803C46.8524,19.881 46.9744,20.0905 47.0813,20.3075C47.1861,20.5353 47.2853,20.7743 47.3731,21.0246C47.4619,21.2873 47.5347,21.5548 47.5912,21.8259C47.6535,22.1204 47.6998,22.4179 47.73,22.7171C47.7326,23.0294 47.781,23.358 47.7895,23.6982C47.7917,24.4024 47.7382,25.1058 47.6295,25.802C47.4545,26.9073 47.1685,27.9931 46.7755,29.0437C45.3155,32.9931 42.4246,36.7701 39.0726,38.6882C38.9189,38.7787 38.771,38.8635 38.6172,38.9373L38.4521,39.0223L38.1673,39.1585L37.9906,39.2324L37.7228,39.3462C37.6654,39.3723 37.6064,39.3951 37.5461,39.4145L37.2896,39.5114L37.09,39.5744L36.8619,39.6432L36.6622,39.695L36.4397,39.7526L36.2398,39.7877L36.0286,39.8285L35.8342,39.8301L35.6227,39.8318L35.434,39.8334L35.2282,39.8351L34.8451,39.8382L34.6622,39.8397L34.4735,39.8412L34.2962,39.8427L34.1133,39.8442L33.9414,39.8066L33.7638,39.7634L33.656,39.8591L33.484,39.8047L33.3234,39.7391L33.157,39.6735L33.0077,39.5967L32.847,39.5199C31.5834,38.822 30.6919,37.4852 30.3509,35.6364C30.2567,35.0988 30.2082,34.5545 30.206,34.0091C30.2039,33.7526 30.2018,33.4905 30.1996,33.2284C30.2457,32.4427 30.3579,31.6621 30.535,30.8944C30.5345,30.8331 30.534,30.7717 30.5736,30.71L32.281,29.7424C32.1956,30.0257 32.1236,30.3107 32.065,30.5974C31.9878,30.9439 31.9277,31.2901 31.8848,31.6363C31.8162,32.1225 31.7839,32.613 31.7882,33.1038C31.7956,33.3648 31.8169,33.6252 31.8517,33.8841C31.8524,33.9622 31.853,34.0346 31.8879,34.1124C31.8893,34.2797 31.9307,34.4523 31.9663,34.6137C32.002,34.7752 32.0193,34.7918 32.0429,34.8864C32.0665,34.981 32.108,35.1591 32.1548,35.287C32.2016,35.4149 32.2249,35.4649 32.2599,35.5539C32.295,35.6428 32.3533,35.7873 32.4057,35.8984C32.4581,36.0096 32.4985,36.0594 32.5449,36.1427C32.5913,36.226 32.6552,36.3426 32.7131,36.4313C32.771,36.5201 32.8286,36.5754 32.8807,36.6475C32.9327,36.7195 33.0079,36.8193 33.0828,36.8968C33.1425,36.9614 33.2081,37.0206 33.2787,37.0736C33.3493,37.1479 33.4243,37.218 33.5034,37.2837C33.5725,37.3389 33.6529,37.3829 33.7219,37.4325C35.0672,38.3306 36.9937,38.2813 39.1278,37.0592C43.1115,34.7623 46.3312,29.2481 46.277,24.7312C46.2588,22.5005 45.4282,20.9234 44.1072,20.198C44.0182,20.1504 43.9262,20.1083 43.8317,20.072C43.7522,20.0299 43.6698,19.9933 43.585,19.9625C43.4932,19.9298 43.3844,19.9084 43.287,19.8813C43.2009,19.8519 43.1128,19.8284 43.0234,19.8109C42.9154,19.793 42.8065,19.7808 42.6972,19.7746L42.4225,19.7433C42.3081,19.7443 42.1881,19.7453 42.068,19.7462L41.7821,19.7486C41.6621,19.7496 41.5309,19.7897 41.4052,19.8074L41.1141,19.86C40.9771,19.889 40.8402,19.9348 40.7033,19.9749C40.5664,20.0151 40.515,20.0211 40.4124,20.0554C40.3097,20.0897 40.1274,20.1693 39.9849,20.2262L39.9392,20.2266C39.8537,20.2607 39.7739,20.2893 39.6942,20.329C39.4492,20.4425 39.1987,20.5673 38.9483,20.7087L35.602,22.6323L33.8946,23.6056L31.493,24.986L31.4203,25.1874L30.7041,27.1006L32.2862,26.1953L32.7472,25.9294L34.5854,24.8715L37.0667,23.4513L38.9561,22.3651C40.6634,21.3862 42.1954,21.3458 43.2648,22.0621L43.4431,22.1833C43.5064,22.233 43.564,22.2939 43.6217,22.3492C43.6763,22.3941 43.7282,22.4421 43.7772,22.4929C43.8349,22.5538 43.8812,22.6259 43.9332,22.6924L44.0718,22.8586L44.2053,23.0973C44.2475,23.157 44.2843,23.2201 44.3155,23.286C44.3592,23.3766 44.3982,23.4694 44.4321,23.5639C44.4327,23.6364 44.4904,23.7029 44.5138,23.7696C44.5493,23.8774 44.5789,23.987 44.6023,24.0979C44.6029,24.1704 44.6492,24.237 44.6669,24.3093C44.6846,24.3817 44.7091,24.5711 44.7273,24.7048C44.7456,24.8385 44.7284,24.8386 44.729,24.9056C44.7538,25.1184 44.767,25.3324 44.7685,25.5466C44.7979,29.138 42.2551,33.5256 39.0681,35.3531C38.8689,35.4663 38.6754,35.5683 38.4989,35.6589L38.2937,35.7387L37.9233,35.8923L37.6951,35.9555C37.5865,35.9564 37.4727,36.0243 37.3642,36.0475L37.1358,36.0828C37.0358,36.1035 36.9348,36.1192 36.8331,36.1299C36.759,36.136 36.6844,36.1366 36.6101,36.1317C36.515,36.138 36.4195,36.1388 36.3243,36.1341C36.25,36.1347 36.1813,36.1352 36.107,36.1358C36.0327,36.1365 35.9298,36.1373 35.8437,36.1045L35.6375,36.0505C35.5574,36.0511 35.4713,36.0128 35.3968,35.9855L35.2077,35.9424C35.1331,35.9096 35.0586,35.8823 34.9897,35.8438C33.9674,35.2945 33.3228,34.0784 33.2459,32.3669C33.2427,32.3186 33.2423,32.2702 33.2447,32.2219C33.2469,31.5284 33.3294,30.8373 33.4908,30.1619C33.5943,29.6939 33.7281,29.2327 33.8912,28.7811L35.8035,27.6947C35.2622,28.6967 34.9384,29.7967 34.8522,30.926C34.8533,31.0654 34.8544,31.1992 34.8555,31.3331C34.848,31.4892 34.8493,31.6456 34.8594,31.8015C34.8598,31.8573 34.8602,31.9019 34.8606,31.9521C34.861,32.0023 34.8622,32.1417 34.9029,32.2306C34.9437,32.3195 34.9381,32.3419 34.9501,32.4031C34.962,32.4644 34.9856,32.5534 35.0091,32.6257C35.0339,32.6762 35.0553,32.7282 35.0732,32.7813C35.0738,32.8483 35.1258,32.9148 35.1549,32.9759C35.184,33.037 35.2128,33.0702 35.2361,33.1146L35.3347,33.2867C35.3636,33.3311 35.3982,33.3643 35.4329,33.4086C35.4675,33.4529 35.508,33.5084 35.5484,33.5527C35.584,33.5905 35.6225,33.6256 35.6636,33.6577L35.7904,33.7793C35.8323,33.8101 35.8765,33.8377 35.9226,33.8619C36.6987,34.3798 37.8078,34.354 39.0484,33.6411C40.2746,32.8626 41.2931,31.8105 42.0197,30.5719C42.7464,29.3333 43.1602,27.9438 43.227,26.5185C43.2057,23.9197 41.3046,22.8812 38.9941,24.2108L38.6697,24.3974L35.0044,26.4631L34.3328,26.8478L33.0639,27.5944L31.203,28.6693L31.0094,28.7768L30.8046,28.8956L29.8486,29.4611L29.5353,30.3003L29.0653,31.5645C29.0049,31.8662 28.9559,32.1677 28.9126,32.4637C28.801,33.2028 28.7441,33.9488 28.7422,34.6959C28.7425,34.7349 28.7428,34.7684 28.7431,34.8074C28.7463,35.2034 28.7495,35.5826 28.8096,35.9502C28.8465,36.2982 28.9028,36.6441 28.9782,36.9861L29.0671,37.3647C29.1201,37.5538 29.1731,37.743 29.2374,37.921C29.3385,38.2327 29.4613,38.5373 29.6051,38.8326C29.6051,38.8326 29.6051,38.8326 29.6054,38.8605C29.6577,38.966 29.7213,39.0547 29.7736,39.1547L29.8722,39.3268C29.9244,39.4156 29.9709,39.51 30.0288,39.5932C30.177,39.8163 30.3431,40.0275 30.5257,40.2249L30.6639,40.352C30.711,40.4009 30.761,40.4471 30.8137,40.4902C30.9022,40.5825 30.9965,40.6693 31.096,40.7501C31.096,40.7501 31.096,40.7501 31.1246,40.7498L31.2626,40.8491C31.2927,40.8761 31.3255,40.9001 31.3604,40.9208C31.4812,41.0035 31.6019,41.0805 31.734,41.1575C33.6239,42.224 36.2299,42.0633 39.1039,40.4168C44.7949,37.1523 49.3393,29.3183 49.2526,22.9221C49.2265,19.7323 48.0647,17.4998 46.1637,16.4669L46.2273,16.5612ZM38.9905,25.8727C39.2777,25.6589 39.6225,25.5313 39.9828,25.5055C40.3431,25.4798 40.7032,25.5571 41.0191,25.7279C41.0191,25.7279 41.0766,25.7609 41.0996,25.783L41.186,25.8604C41.2096,25.884 41.2346,25.9061 41.2609,25.9267L41.3361,26.0264L41.3939,26.104C41.4191,26.1398 41.4423,26.1768 41.4634,26.215C41.4637,26.2485 41.4982,26.2761 41.5099,26.3039C41.5327,26.3487 41.5522,26.3952 41.5682,26.4428C41.5684,26.4707 41.5972,26.4983 41.6089,26.5317C41.6261,26.5846 41.6399,26.6385 41.6503,26.6931L41.6796,26.7877C41.6833,26.849 41.6838,26.9104 41.6812,26.9717L41.6819,27.0665C41.6827,27.1613 41.6835,27.2617 41.6844,27.3677C41.6424,28.2878 41.3779,29.1853 40.9125,29.9868C40.447,30.7883 39.7938,31.4711 39.0062,31.9795L38.7272,32.1268L38.6472,32.1274L38.4534,32.2071L38.3563,32.2079L38.1908,32.2539L38.0936,32.2547L37.9452,32.2838L37.7051,32.2857L37.6022,32.2866C37.5603,32.2896 37.5183,32.29 37.4764,32.2876L37.3849,32.2884L37.2646,32.2559L37.1785,32.2175L37.0751,32.1682C36.7958,31.9817 36.5725,31.7258 36.4284,31.427C36.2842,31.1282 36.2244,30.7973 36.255,30.4683C36.3064,29.5461 36.5811,28.6489 37.0566,27.85C37.5321,27.0512 38.1948,26.3736 38.9905,25.8727Z" fill="#003781" fill-opacity="1.0" />
        <path android:fillAlpha="0.6" android:strokeAlpha="0.6" d="M3.6126,9.5425L2.8237,11.6571L4.409,12.542L7.1891,14.0864L11.3132,16.3783L13.7773,17.7524L16.0289,18.9999L30.6989,27.1618L31.4094,25.2486L31.4878,25.0472L17.2831,17.1492L15.1119,15.94L12.9292,14.7254L6.6741,11.2463L6.3582,11.0704L3.6126,9.5425Z" fill="#509afa" fill-opacity="1.0" />
        <path android:fillAlpha="0.6" android:strokeAlpha="0.6" d="M19.221,12.9061L33.127,20.6392L35.8702,19.0719L36.8204,18.5064L38.8919,17.3183C39.6893,16.8581 40.5406,16.4935 41.4275,16.2323C41.6499,16.1691 41.8611,16.1172 42.078,16.0708C42.1084,16.0732 42.139,16.0729 42.1694,16.07C42.3521,16.0351 42.5348,16.0057 42.7405,15.9873L42.8263,15.9866C43.0321,15.9849 43.232,15.9498 43.432,15.9426L43.4663,15.9423C43.6436,15.9409 43.8208,15.9394 43.9923,15.938L44.1181,15.937C44.2832,15.9493 44.4475,15.9703 44.6103,15.9999L44.6618,15.9995C44.8337,16.0304 45.0039,16.0699 45.1717,16.118L45.292,16.156C45.4239,16.194 45.55,16.2432 45.6762,16.2923L45.7967,16.3359C45.9516,16.4072 46.1009,16.4785 46.2444,16.5554L18.3694,1.0674C16.4796,0.0176 13.8795,0.1895 11.0054,1.8304L5.2519,5.14L16.8028,11.5539L19.221,12.9061Z" fill="#0066f3" fill-opacity="1.0" />
        <path android:fillAlpha="0.6" android:strokeAlpha="0.6" d="M37.2301,32.228L37.3161,32.2664L37.4365,32.2988L37.5279,32.2981C37.5699,32.3005 37.6119,32.3001 37.6537,32.2971L37.7566,32.2962L37.9968,32.2943C38.0462,32.2988 38.096,32.2984 38.1454,32.293L38.2426,32.2922L38.4081,32.2463L38.5053,32.2455L38.699,32.1658L38.7791,32.1652L39.058,32.0179C39.8456,31.5095 40.4988,30.8267 40.9643,30.0251C41.4297,29.2236 41.6942,28.3261 41.7362,27.406C41.7353,27.3001 41.7345,27.1997 41.7337,27.1049L41.733,27.0101C41.7384,26.9488 41.7379,26.8872 41.7315,26.826C41.734,26.7945 41.7337,26.7628 41.7307,26.7312C41.7203,26.6767 41.7065,26.6228 41.6893,26.5698C41.6891,26.5364 41.6888,26.5085 41.6486,26.4809C41.6326,26.4333 41.6131,26.3869 41.5903,26.342C41.5771,26.3113 41.5616,26.2816 41.5438,26.2531C41.5227,26.2149 41.4995,26.1779 41.4743,26.1422L41.4165,26.0646L41.3413,25.9648L41.186,25.8545L41.0996,25.7772C41.0715,25.7607 41.0446,25.7423 41.0191,25.722C40.7027,25.552 40.3423,25.4757 39.982,25.5024C39.6217,25.5292 39.2772,25.6578 38.9906,25.8725C38.2025,26.3809 37.5487,27.0636 37.0823,27.8651C36.6159,28.6665 36.3502,29.564 36.3067,30.4844C36.2772,30.8126 36.3369,31.1426 36.4799,31.4411C36.6229,31.7395 36.844,31.9959 37.1211,32.1843L37.2301,32.2336" fill="#0066f3" fill-opacity="1.0" />
        <path android:fillAlpha="0.6" android:strokeAlpha="0.6" d="M1.1845,16.0596L3.9071,17.5766L9.3868,20.6214L12.632,22.4241L29.0597,31.5643L29.5296,30.3001L29.8485,29.4442L14.4146,20.8591L11.9045,19.4631L7.0739,16.7755L4.1675,15.1596L3.6333,14.8628L1.9733,13.9394L1.1845,16.0596Z" fill="#509afa" fill-opacity="1.0" />
        <path android:fillAlpha="0.6" android:strokeAlpha="0.6" d="M5.2519,5.1398L4.4573,7.26L6.0484,8.1449L13.8141,12.4649L16.1806,13.7785L18.4092,15.0151L32.3382,22.7647L32.9201,21.2095L33.127,20.639L19.221,12.9059L16.7971,11.5593L5.2519,5.1398Z" fill="#509afa" fill-opacity="1.0" />
    </g>
</svg>