<svg xmlns="http://www.w3.org/2000/svg" xmlns:xlink="http://www.w3.org/1999/xlink" viewBox="0 0 140.962 140.962"><defs><clipPath id="a"><rect width="36.876" height="36.876" fill="none"/></clipPath><pattern id="b" width="36.876" height="36.876" patternTransform="translate(270.731 -13.16) rotate(-135) scale(1.048)" patternUnits="userSpaceOnUse" viewBox="0 0 36.876 36.876"><rect width="36.876" height="36.876" fill="none"/><rect width="36.876" height="36.876" fill="#ffe8d9"/><g clip-path="url(#a)"><rect x="-0.375" width="0.75" height="36.876" fill="#fce0c0"/><rect x="1.794" width="0.75" height="36.876" fill="#fce0c0"/><rect x="3.963" width="0.75" height="36.876" fill="#fce0c0"/><rect x="6.133" width="0.75" height="36.876" fill="#fce0c0"/><rect x="8.302" width="0.75" height="36.876" fill="#fce0c0"/><rect x="10.471" width="0.75" height="36.876" fill="#fce0c0"/><rect x="12.64" width="0.75" height="36.876" fill="#fce0c0"/><rect x="14.809" width="0.75" height="36.876" fill="#fce0c0"/><rect x="16.978" width="0.75" height="36.876" fill="#fce0c0"/><rect x="19.147" width="0.75" height="36.876" fill="#fce0c0"/><rect x="21.317" width="0.75" height="36.876" fill="#fce0c0"/><rect x="23.486" width="0.75" height="36.876" fill="#fce0c0"/><rect x="25.655" width="0.75" height="36.876" fill="#fce0c0"/><rect x="27.824" width="0.75" height="36.876" fill="#fce0c0"/><rect x="29.994" width="0.75" height="36.876" fill="#fce0c0"/><rect x="32.163" width="0.75" height="36.876" fill="#fce0c0"/><rect x="34.332" width="0.75" height="36.876" fill="#fce0c0"/><rect x="36.501" width="0.75" height="36.876" fill="#fce0c0"/></g></pattern></defs><title>Life Goals 2</title><path d="M70.481,28.143l-.076,0a42.473,42.473,0,1,0,42.55,42.472h0c0-10.989-23.726-3.815-30.574-11.356C74.61,50.7,82.949,28.143,70.481,28.143Z" fill="#0066f5"/><path d="M103.737,70.617h-1.31A31.946,31.946,0,1,1,70.405,38.673V36.052a34.566,34.566,0,1,0,34.643,34.565h-1.311Z" fill="#003783"/><path d="M49.226,70.617a21.276,21.276,0,0,1,21.179-21.25V46.744A23.874,23.874,0,1,0,94.356,70.617H91.735a21.255,21.255,0,0,1-42.509,0Z" fill="#003783"/><path d="M60.131,70.617A10.359,10.359,0,0,1,70.405,60.271V57.65A12.969,12.969,0,1,0,83.452,70.617H80.831a10.35,10.35,0,0,1-20.7,0Z" fill="#003783"/><path d="M70.481,28.143l-.076,0V70.617h42.55A42.474,42.474,0,0,0,70.481,28.143Z" fill="url(#b)"/><path d="M70.405,48.056A22.563,22.563,0,0,1,92.968,70.619" fill="none" stroke="#0066f5" stroke-miterlimit="10" stroke-width="2.5"/><path d="M92.968,70.619A22.563,22.563,0,1,1,70.405,48.056" fill="none" stroke="#003783" stroke-miterlimit="10" stroke-width="2.5"/><path d="M103.662,70.619A33.257,33.257,0,1,1,70.405,37.363" fill="none" stroke="#003783" stroke-miterlimit="10" stroke-width="2.5"/><path d="M70.405,37.363a33.257,33.257,0,0,1,33.257,33.256" fill="none" stroke="#0066f5" stroke-miterlimit="10" stroke-width="2.5"/><path d="M82.064,70.619A11.659,11.659,0,1,1,70.405,58.96" fill="none" stroke="#003783" stroke-miterlimit="10" stroke-width="2.5"/><path d="M70.405,58.96A11.659,11.659,0,0,1,82.064,70.619" fill="none" stroke="#0066f5" stroke-miterlimit="10" stroke-width="2.5"/><polyline points="54.406 71.054 70.405 71.054 70.405 87.053" fill="none" stroke="#fff" stroke-miterlimit="10" stroke-width="2.621"/><line x1="70.405" y1="71.054" x2="31.233" y2="107.789" fill="none" stroke="#fff" stroke-miterlimit="10" stroke-width="2.621"/></svg>