<svg xmlns="http://www.w3.org/2000/svg" xmlns:xlink="http://www.w3.org/1999/xlink" viewBox="0 0 184.06 184.06"><defs><clipPath id="clip-path"><circle cx="92.07" cy="92.07" r="33.46" style="fill:none"/></clipPath></defs><title>naira_funds_blue</title><g id="Layer_2" data-name="Layer 2"><g id="Layer_1-2" data-name="Layer 1"><g id="Layer_1-2-2" data-name="Layer 1-2"><g id="CW-Colours"><circle cx="92.07" cy="92.07" r="33.46" style="fill:#74d2fb"/><path d="M122.72,74.22A35.36,35.36,0,0,0,92.1,56.5V91.87Z" style="fill:#eff8ff"/><path d="M125.31,67.67A33.38,33.38,0,0,0,96.37,50.93V84.39Z" style="fill:#0066f5"/><g style="clip-path:url(#clip-path)"><path d="M92.07,184.06a92,92,0,1,1,92-92.08v.09A92.14,92.14,0,0,1,92.07,184.06Zm0-182.88a90.87,90.87,0,1,0,90.87,90.87h0A91,91,0,0,0,92.07,1.18Z" style="fill:#0066f5"/><rect x="91.51" y="92.07" width="1.14" height="91.46" style="fill:#0066f5"/><rect x="131.09" y="69.21" width="1.14" height="91.46" transform="translate(-33.72 171.49) rotate(-60)" style="fill:#0066f5"/><rect x="51.88" y="23.49" width="1.14" height="91.46" transform="translate(-33.72 80.03) rotate(-60)" style="fill:#0066f5"/><rect x="6.73" y="114.39" width="91.46" height="1.14" transform="translate(-50.41 41.58) rotate(-29.97)" style="fill:#0066f5"/><path d="M73.65,94.44l-8-.28.13-3.72,8.05.27Zm-7-1.25,6.13.2V91.57l-6.11-.2Z" style="fill:#0066f5"/></g><path d="M80.85,78.08a4.55,4.55,0,1,1,4.54-4.54A4.54,4.54,0,0,1,80.85,78.08Zm0-7.82a3.34,3.34,0,1,0,3.25,3.43V73.6A3.34,3.34,0,0,0,80.85,70.26Z" style="fill:#0066f5"/><path d="M103.43,65.72a4.18,4.18,0,1,1,4.18-4.18A4.18,4.18,0,0,1,103.43,65.72Zm0-6.09a1.91,1.91,0,1,0,1.91,1.91A1.94,1.94,0,0,0,103.43,59.63Z" style="fill:#fff"/><path d="M101,114.34a5,5,0,1,1,5-5A5,5,0,0,1,101,114.34Zm0-7.82a2.77,2.77,0,1,0,2.78,2.77,2.77,2.77,0,0,0-2.78-2.77Z" style="fill:#fff"/></g></g></g></g></svg>