<svg xmlns="http://www.w3.org/2000/svg" viewBox="0 0 140.962 140.962"><defs><clipPath id="a"><path fill="none" d="M0 36.876V0h36.876v36.876H0z"/></clipPath><pattern id="b" width="36.876" height="36.876" patternTransform="translate(-37.34 23.836) scale(1.407)" patternUnits="userSpaceOnUse"><path fill="none" d="M0 0h36.876v36.876H0z"/><path fill="#ecfbec" d="M0 36.876V0h36.876v36.876H0z"/><g clip-path="url(#a)" fill="#cdf2ca"><path d="M0-.375h36.876v.75H0zM0 1.794h36.876v.75H0zM0 3.963h36.876v.75H0zM0 6.133h36.876v.75H0zM0 8.302h36.876v.75H0zM0 10.471h36.876v.75H0zM0 12.64h36.876v.75H0zM0 14.809h36.876v.75H0zM0 16.978h36.876v.75H0zM0 19.148h36.876v.75H0zM0 21.317h36.876v.75H0zM0 23.486h36.876v.75H0zM0 25.655h36.876v.75H0zM0 27.825h36.876v.75H0zM0 29.994h36.876v.75H0zM0 32.163h36.876v.75H0zM0 34.332h36.876v.75H0zM0 36.501h36.876v.75H0z"/></g></pattern></defs><g style="isolation:isolate"><path fill="url(#b)" style="mix-blend-mode:multiply" d="M25.296 60.695V118.087h74.733V60.695H25.296z"/><path fill="#0066f5" d="M25.296 48.973h74.733v11.722H25.296z"/><path d="M46.826 89.391a5.676 5.676 0 1 1 0-11.352h6.112a5.676 5.676 0 0 1 0 11.352" fill="none" stroke="#0066f5" stroke-miterlimit="10" stroke-width="5"/><path d="M46.826 100.743a5.676 5.676 0 0 1 0-11.352h6.112a5.676 5.676 0 0 1 0 11.352z" fill="none" stroke="#0066f5" stroke-miterlimit="10" stroke-width="5"/><path fill="none" stroke="#003783" stroke-miterlimit="10" stroke-width="5" style="mix-blend-mode:multiply" d="M43.469 48.973v6.361M81.856 48.973v6.361"/><g style="mix-blend-mode:multiply" fill="none" stroke="#0066f5" stroke-miterlimit="10" stroke-width="5"><path style="mix-blend-mode:multiply" d="M43.469 42.612v6.361M81.856 42.612v6.361"/></g><path fill="none" stroke="#0066f5" stroke-miterlimit="10" stroke-width="2.5" d="M85.629 31.971l8.829-9.414-9.191-10.517"/><path d="M101.794 25.137a26.186 26.186 0 0 1 9.406 8.483l-.6-.852a26.155 26.155 0 1 1-16.141-10.215" fill="none" stroke="#0066f5" stroke-miterlimit="10" stroke-width="2.5"/><path d="M85.723 72.85a24.852 24.852 0 0 1-21.086-23.877H62.12a27.394 27.394 0 0 0 23.222 26.348 27.683 27.683 0 0 0 4.225.324 27.1 27.1 0 0 0 10.462-2.094v-2.734a24.709 24.709 0 0 1-14.306 2.033z" fill="#003783"/></g></svg>