<svg id="Layer_1" data-name="Layer 1" xmlns="http://www.w3.org/2000/svg" viewBox="0 0 800 802.47"><defs><style>.cls-1{fill:none}.cls-2{fill:#f3f6ff}.cls-3{fill:#dce4f7}.cls-4{fill:#f7f7f7}.cls-5{fill:#b0bee8}.cls-6{fill:url(#a)}.cls-7{fill:#fff}.cls-9{fill:url(#c)}</style><pattern id="a" data-name="a" width="22.24" height="24.72" patternTransform="matrix(8.63 0 0 -8.63 -1010.22 675.88)" patternUnits="userSpaceOnUse"><path class="cls-1" d="M0 0h22.24v24.72H0z"/><path class="cls-1" d="M0 24.72h22.24V0H0z"/><path class="cls-1" d="M0 24.72h22.24V0H0z"/><path class="cls-1" d="M0 24.72h22.24V0H0z"/><path class="cls-2" d="M16.68 24.72H27.8V0H16.68z"/><path class="cls-3" d="M16.68 24.37v-.31.31zm0-23.7V.36v.31zM27.8 2.51V2a7.31 7.31 0 0 0-1.11-1A2.3 2.3 0 0 1 27.8.65V.34a2.62 2.62 0 0 0-1.39.43 2.44 2.44 0 0 0-2.78 0 2.44 2.44 0 0 0-2.78 0 2.67 2.67 0 0 0-1.39-.43h-.05A3.38 3.38 0 0 0 18 .72a2.59 2.59 0 0 0-1.3-.38v.31a2.24 2.24 0 0 1 1 .26 3.7 3.7 0 0 0-1 1.06v.54a14.1 14.1 0 0 1 1.21 1.86l-.35.7-.86 1.65v.67l1.21 2.32L16.68 12v.66L17.89 15l-1.21 2.32V18l.86 1.65.35.69a15.19 15.19 0 0 1-1.21 1.86v.5a4.43 4.43 0 0 0 .75.81l.34.23a2.23 2.23 0 0 1-1.09.32v.31a2.78 2.78 0 0 0 1.4-.44 2.48 2.48 0 0 0 2.79 0 2.46 2.46 0 0 0 2.76 0 2.47 2.47 0 0 0 2.78 0 2.62 2.62 0 0 0 1.39.43v-.31a2.3 2.3 0 0 1-1.11-.32 6.9 6.9 0 0 0 1.11-1v-.5a13.54 13.54 0 0 1-1.22-1.86l.35-.7.87-1.67v-.67L26.58 15l1.22-2.32V12l-1.22-2.31 1.22-2.32v-.65l-.87-1.65-.34-.7a14.1 14.1 0 0 1 1.21-1.86zm-1.4 6.87l-1.22-2.32 1-1.85.25-.5.24.49 1 1.86zm-5.56 5.3l-1.22-2.32L20.84 10l1.21 2.32zm1.4-2L23.45 15l-1.21 2.32L21 15zM21 9.71l1.22-2.32 1.21 2.32L22.24 12zm2.6.33l1.22 2.32-1.22 2.32-1.21-2.32zm.18-.33L25 7.39l1.22 2.32L25 12zm1.21 3L26.23 15 25 17.33 23.8 15zm.87 7l.35.7a14.18 14.18 0 0 1-1.21 1.8 15 15 0 0 1-1.2-1.85l.34-.72L25 18zm-2.23.29l-.25-.51-1-1.85 1.22-2.32 1.21 2.32-1 1.84-.25.52zm-.17.33a13.62 13.62 0 0 1-1.2 1.88A14.64 14.64 0 0 1 21 20.35l.35-.7.89-1.65.86 1.65.36.71zM20.85 20l-.25-.49-1-1.85 1.22-2.32 1.21 2.32-1 1.84-.25.5zm-.18.33a15.31 15.31 0 0 1-1.21 1.87 13.64 13.64 0 0 1-1.22-1.87l.35-.7.87-1.63.86 1.65.35.69zm-1.21-3L18.24 15l1.22-2.32L20.67 15zm0-5.3l-1.22-2.32 1.22-2.32 1.21 2.32zm0-5.31l-.87-1.65-.34-.69a12.71 12.71 0 0 1 1.21-1.87 14.58 14.58 0 0 1 1.21 1.87l-.35.7zm1.4-2l.24.49 1 1.85-1.24 2.31-1.22-2.32 1-1.84.25-.5zm.14-.34a13.54 13.54 0 0 1 1.22-1.86 12.9 12.9 0 0 1 1.21 1.86l-.35.7-.86 1.64-.87-1.65-.35-.69zm2.61.33l.24.49 1 1.86-1.21 2.32-1.22-2.32 1-1.85zm.17-.33A13.54 13.54 0 0 1 25 2.52a14.47 14.47 0 0 1 1.21 1.86l-.35.7L25 6.72l-.87-1.65zm2.61 10.3l-1.19-2.32L26.42 10l1.21 2.32zm0 5.34l-.25-.5-1-1.85 1.22-2.32 1.21 2.32-1 1.84zm-1.2 2.43a14.15 14.15 0 0 0 1.19-1.78 13.07 13.07 0 0 0 1.18 1.78 5.91 5.91 0 0 1-1.18 1.11 5.71 5.71 0 0 1-1.16-1.11zm-1.31 1.29a6.9 6.9 0 0 0 1.11-1 6.45 6.45 0 0 0 1.1 1 2.05 2.05 0 0 1-2.18 0zm-1.44-1.26a12.52 12.52 0 0 0 1.17-1.79 13.12 13.12 0 0 0 1.17 1.76 5.91 5.91 0 0 1-1.18 1.11 5.42 5.42 0 0 1-1.16-1.08zm-1.3 1.28a6.65 6.65 0 0 0 1.09-1 6.91 6.91 0 0 0 1.08 1 2 2 0 0 1-2.17 0zm-.3-.18a6.17 6.17 0 0 1-1.21-1.13 14.15 14.15 0 0 0 1.19-1.78 12.68 12.68 0 0 0 1.21 1.81 6.2 6.2 0 0 1-1.19 1.1zm-2.51.16a6.84 6.84 0 0 0 1.1-1 6.25 6.25 0 0 0 1.12 1.06 2.48 2.48 0 0 1-1.12.31 2.34 2.34 0 0 1-1.1-.32zm-.29-3.07a14.08 14.08 0 0 0 1.18 1.78 6.27 6.27 0 0 1-1.18 1.12 5.09 5.09 0 0 1-.45-.31 4 4 0 0 1-.74-.8 14.26 14.26 0 0 0 1.19-1.79zm0-5.33l1.21 2.32-1 1.85-.25.5-.25-.49-1-1.86zm0-5.3l1.21 2.32-1.21 2.32-1.22-2.32zm0-5.33l.24.49 1 1.85-1.21 2.32-1.22-2.32 1-1.84.25-.5zm1.18-2.44a14.08 14.08 0 0 0-1.18 1.78 13.41 13.41 0 0 0-1.2-1.8A3.33 3.33 0 0 1 18 1.09a5.94 5.94 0 0 1 1.25 1.18zM20.56 1a6.8 6.8 0 0 0-1.1 1A7.1 7.1 0 0 0 18.29.93a2.9 2.9 0 0 1 1.16-.27 2.3 2.3 0 0 1 1.11.34zM22 2.27a14.08 14.08 0 0 0-1.18 1.78 14.15 14.15 0 0 0-1.19-1.78 6 6 0 0 1 1.19-1.11A5.64 5.64 0 0 1 22 2.27zM23.34 1a6 6 0 0 0-1.1 1 6.75 6.75 0 0 0-1.1-1 2 2 0 0 1 2.2 0zm1.47 1.29a12.48 12.48 0 0 0-1.18 1.78 13.46 13.46 0 0 0-1.19-1.78 5.75 5.75 0 0 1 1.19-1.12 6 6 0 0 1 1.18 1.1zM26.12 1A6 6 0 0 0 25 2a6.75 6.75 0 0 0-1.1-1 2 2 0 0 1 2.22 0zm1.47 1.29a12.48 12.48 0 0 0-1.18 1.78 13.46 13.46 0 0 0-1.19-1.78 5.75 5.75 0 0 1 1.19-1.12 6 6 0 0 1 1.18 1.1z"/><path class="cls-2" d="M5.56 24.72h11.12V0H5.56z"/><path class="cls-3" d="M5.56 24.37zm0-23.7zm11.12 1.84V2a7.31 7.31 0 0 0-1.11-1 2.3 2.3 0 0 1 1.11-.35V.34a2.62 2.62 0 0 0-1.39.43A2.67 2.67 0 0 0 13.9.34a2.62 2.62 0 0 0-1.39.43 2.67 2.67 0 0 0-1.39-.43 2.62 2.62 0 0 0-1.39.43A2.67 2.67 0 0 0 8.34.34h-.06a3.38 3.38 0 0 0-1.42.38 2.59 2.59 0 0 0-1.3-.38v.31a2.24 2.24 0 0 1 1 .26 3.7 3.7 0 0 0-1 1.09v.54a14.1 14.1 0 0 1 1.21 1.83l-.35.7-.86 1.65v.67l1.22 2.32L5.56 12v.66L6.78 15l-1.22 2.33V18l.87 1.65.34.69a14.1 14.1 0 0 1-1.21 1.86v.5a4.43 4.43 0 0 0 .75.81l.34.23a2.2 2.2 0 0 1-1.09.32v.31A2.78 2.78 0 0 0 7 23.93a2.78 2.78 0 0 0 1.39.44A2.76 2.76 0 0 0 9.75 24a2.66 2.66 0 0 0 1.37.42 2.67 2.67 0 0 0 1.39-.43 2.62 2.62 0 0 0 1.39.43 2.67 2.67 0 0 0 1.39-.43 2.62 2.62 0 0 0 1.39.43v-.31a2.23 2.23 0 0 1-1.1-.32 7.28 7.28 0 0 0 1.1-1v-.5a13.48 13.48 0 0 1-1.21-1.86l.35-.7.86-1.73v-.67L15.46 15l1.22-2.32V12l-1.21-2.31 1.21-2.32v-.65l-.87-1.65-.34-.7a14.1 14.1 0 0 1 1.21-1.86zm-1.4 6.87l-1.22-2.32 1-1.85.25-.5.24.49 1 1.86zm-5.55 5.3l-1.22-2.32L9.73 10 11 12.36zm1.4-2L12.34 15l-1.21 2.32L9.91 15zm-1.22-3l1.22-2.32 1.21 2.32L11.13 12zm2.61.33l1.21 2.32-1.21 2.32-1.22-2.29zm.17-.33l1.22-2.32 1.21 2.32L13.91 12zm1.22 3L15.12 15l-1.21 2.32L12.69 15zm.87 7l.34.69a12.9 12.9 0 0 1-1.21 1.86 13.21 13.21 0 0 1-1.2-1.84l.34-.72.86-1.67zm-2.25.32l-.25-.5-1-1.85 1.21-2.32 1.22 2.32-1 1.84-.24.51zm-.18.34a11.44 11.44 0 0 1-1.2 1.87 13.32 13.32 0 0 1-1.23-1.89l.35-.7.86-1.62.87 1.65.35.71zM9.74 20l-.24-.49-1-1.86 1.21-2.32L11 17.66l-1 1.85-.25.5zm-.18.33a13.48 13.48 0 0 1-1.21 1.87 13.48 13.48 0 0 1-1.21-1.86l.35-.7.86-1.64.87 1.65.34.69zm-1.22-3L7.12 15l1.22-2.32L9.55 15zm0-5.3L7.12 9.71l1.22-2.32 1.22 2.32zm0-5.31l-.87-1.65-.34-.69a13.58 13.58 0 0 1 1.21-1.87 13.58 13.58 0 0 1 1.21 1.87l-.35.7zm1.4-2l.26.48 1 1.85-1.26 2.32-1.22-2.32 1-1.84.25-.5zm.18-.33a13.48 13.48 0 0 1 1.21-1.86 12.9 12.9 0 0 1 1.21 1.86l-.35.7-.86 1.64-.87-1.65-.34-.69zm2.6.33l.25.49 1 1.86-1.25 2.31-1.22-2.32 1-1.85zm.18-.33a13.48 13.48 0 0 1 1.21-1.86 13.48 13.48 0 0 1 1.21 1.86l-.35.7-.86 1.64L13 5.07zm2.6 10.3l-1.21-2.32L15.3 10l1.21 2.32zm0 5.34l-.24-.5-1-1.85 1.21-2.32 1.22 2.32-1 1.84zm-1.19 2.43a13.14 13.14 0 0 0 1.19-1.78 13.14 13.14 0 0 0 1.19 1.78 6.3 6.3 0 0 1-1.19 1.12 6.3 6.3 0 0 1-1.19-1.13zm-1.31 1.28a7.28 7.28 0 0 0 1.1-1 6.45 6.45 0 0 0 1.1 1 2.05 2.05 0 0 1-2.2 0zm-1.45-1.26a12.52 12.52 0 0 0 1.17-1.79 13.12 13.12 0 0 0 1.17 1.76 6.27 6.27 0 0 1-1.18 1.12 6.61 6.61 0 0 1-1.16-1.08zm-1.3 1.28a6.65 6.65 0 0 0 1.09-1 6.91 6.91 0 0 0 1.08 1 2.23 2.23 0 0 1-1.1.32 2.22 2.22 0 0 1-1.07-.31zm-.3-.18a6.17 6.17 0 0 1-1.21-1.13 14.15 14.15 0 0 0 1.19-1.78 12.68 12.68 0 0 0 1.21 1.81 5.92 5.92 0 0 1-1.19 1.1zm-2.51.16a6.84 6.84 0 0 0 1.1-1 6.25 6.25 0 0 0 1.12 1.06 2.44 2.44 0 0 1-1.12.31 2.34 2.34 0 0 1-1.1-.32zM7 20.67a13.14 13.14 0 0 0 1.19 1.78A6.3 6.3 0 0 1 7 23.57c-.16-.1-.3-.2-.45-.31a4 4 0 0 1-.74-.8A14.26 14.26 0 0 0 7 20.67zm0-5.32l1.22 2.32-1 1.84L7 20l-.25-.49-1-1.86zM7 10l1.21 2.32L7 14.68l-1.27-2.32zm0-5.29l.24.49 1 1.86L7 9.38 5.73 7.06l1-1.85.27-.5zm1.14-2.44A13.14 13.14 0 0 0 7 4.05a13.41 13.41 0 0 0-1.2-1.8 3.33 3.33 0 0 1 1.06-1.16 6.24 6.24 0 0 1 1.28 1.18zM9.44 1a6.84 6.84 0 0 0-1.1 1A6.42 6.42 0 0 0 7.17.93 2.9 2.9 0 0 1 8.33.66 2.3 2.3 0 0 1 9.44 1zm1.48 1.29a13.14 13.14 0 0 0-1.19 1.76 13.14 13.14 0 0 0-1.19-1.78 6.25 6.25 0 0 1 1.19-1.11 6.25 6.25 0 0 1 1.19 1.11zM12.22 1a6.75 6.75 0 0 0-1.1 1A6.75 6.75 0 0 0 10 1a2.05 2.05 0 0 1 2.2 0zm1.47 1.29a14.08 14.08 0 0 0-1.18 1.78 14.15 14.15 0 0 0-1.19-1.78 6.3 6.3 0 0 1 1.19-1.12 6 6 0 0 1 1.18 1.1zM15 1a6 6 0 0 0-1.1 1 6.75 6.75 0 0 0-1.1-1A2.05 2.05 0 0 1 15 1zm1.47 1.29a13.07 13.07 0 0 0-1.18 1.78 14.15 14.15 0 0 0-1.19-1.8 5.75 5.75 0 0 1 1.19-1.12 6 6 0 0 1 1.18 1.12z"/><path class="cls-2" d="M-5.56 24.72H5.56V0H-5.56z"/><path class="cls-3" d="M5.56 2.51V2a7.74 7.74 0 0 0-1.1-1 2.23 2.23 0 0 1 1.1-.35V.34a2.65 2.65 0 0 0-1.39.43A2.65 2.65 0 0 0 2.78.34a2.65 2.65 0 0 0-1.39.43A2.76 2.76 0 0 0 0 .35a2.65 2.65 0 0 0-1.39.43A2.65 2.65 0 0 0-2.78.35h-.05a3.3 3.3 0 0 0-1.42.38A2.65 2.65 0 0 0-5.56.35v.31a2.32 2.32 0 0 1 1 .26 3.88 3.88 0 0 0-1 1.08v.54a14.1 14.1 0 0 1 1.21 1.84l-.35.7-.86 1.64v.67l1.22 2.32L-5.56 12v.66L-4.34 15l-1.22 2.32V18l.87 1.65.34.69a14.1 14.1 0 0 1-1.21 1.86v.5a4.48 4.48 0 0 0 .76.81l.34.23a2.26 2.26 0 0 1-1.1.32v.31a2.78 2.78 0 0 0 1.4-.44 2.78 2.78 0 0 0 1.39.44A2.8 2.8 0 0 0-1.36 24a2.62 2.62 0 0 0 1.36.37 2.65 2.65 0 0 0 1.39-.43 2.65 2.65 0 0 0 1.39.43 2.65 2.65 0 0 0 1.39-.43 2.65 2.65 0 0 0 1.39.43v-.31a2.23 2.23 0 0 1-1.1-.32 7.28 7.28 0 0 0 1.1-1v-.5a12.9 12.9 0 0 1-1.21-1.86l.35-.7.86-1.68v-.67L4.34 15l1.22-2.32V12L4.34 9.7l1.22-2.32v-.66l-.87-1.65-.34-.7a14.1 14.1 0 0 1 1.21-1.86zm-1.4 6.87L2.94 7.06l1-1.85.25-.5.25.49 1 1.86zm-5.56 5.3l-1.22-2.32L-1.4 10l1.22 2.32zm1.4-2L1.22 15 0 17.33-1.22 15zm-1.22-3L0 7.39l1.22 2.32L0 12zM1.4 10l1.22 2.32-1.22 2.36-1.23-2.32zm.17-.33l1.22-2.28L4 9.71 2.79 12zm1.22 3L4 15l-1.21 2.33L1.57 15zm.87 7l.34.69a13 13 0 0 1-1.22 1.84 13.21 13.21 0 0 1-1.2-1.84l.34-.72.86-1.64zM1.41 20l-.25-.5-1-1.85 1.24-2.3 1.22 2.31-1 1.85-.22.49zm-.18.34A12.2 12.2 0 0 1 0 22.23a13.32 13.32 0 0 1-1.23-1.89l.35-.7L0 18l.87 1.65.35.71zM-1.38 20l-.24-.49-1-1.86 1.21-2.32 1.22 2.32-1 1.85-.25.5zm-.17.33a13.61 13.61 0 0 1-1.23 1.87A12.9 12.9 0 0 1-4 20.34l.35-.7.87-1.64.87 1.65.34.69zm-1.22-3L-4 15l1.21-2.32L-1.55 15zm0-5.3L-4 9.71l1.21-2.32 1.22 2.32zm0-5.31l-.86-1.66-.37-.69a15.19 15.19 0 0 1 1.23-1.86 14.18 14.18 0 0 1 1.22 1.86l-.35.7zm1.4-2l.25.5 1 1.85-1.25 2.3-1.21-2.32 1-1.84.25-.51zm.18-.32A14.45 14.45 0 0 1 0 2.51a13.58 13.58 0 0 1 1.21 1.87l-.35.7L0 6.72l-.87-1.65-.34-.69zm2.6.32l.25.5 1 1.85-1.25 2.3L.2 7.05l1-1.84zm.18-.32A14.58 14.58 0 0 1 2.8 2.51 13.64 13.64 0 0 1 4 4.38l-.35.7-.85 1.64-.86-1.65zm2.58 10.3L3 12.36 4.17 10l1.22 2.32zm0 5.33l-.24-.49L3 17.66l1.21-2.31 1.22 2.31-1 1.85zM3 22.45a14.15 14.15 0 0 0 1.19-1.78 13.14 13.14 0 0 0 1.19 1.78 6.25 6.25 0 0 1-1.19 1.11A6.25 6.25 0 0 1 3 22.45zm-1.3 1.29a7.28 7.28 0 0 0 1.1-1 7.28 7.28 0 0 0 1.1 1 2.23 2.23 0 0 1-1.1.32 2.23 2.23 0 0 1-1.12-.32zM.23 22.48a12.52 12.52 0 0 0 1.17-1.79 13.12 13.12 0 0 0 1.17 1.76 5.91 5.91 0 0 1-1.18 1.11 5.93 5.93 0 0 1-1.16-1.08zm-1.3 1.28a7.14 7.14 0 0 0 1.1-1 7.31 7.31 0 0 0 1.07 1 2.23 2.23 0 0 1-1.1.32 2.22 2.22 0 0 1-1.07-.31zm-.3-.18a6.17 6.17 0 0 1-1.21-1.13 13.14 13.14 0 0 0 1.19-1.78 13.59 13.59 0 0 0 1.21 1.81 5.66 5.66 0 0 1-1.19 1.1zm-2.51.16a6.45 6.45 0 0 0 1.1-1 6.61 6.61 0 0 0 1.12 1.06 2.44 2.44 0 0 1-1.12.31 2.38 2.38 0 0 1-1.1-.32zm-.29-3.07A13.14 13.14 0 0 0-3 22.45a6.3 6.3 0 0 1-1.19 1.12c-.16-.1-.3-.2-.45-.31a4 4 0 0 1-.74-.8 14.26 14.26 0 0 0 1.19-1.79zm0-5.32l1.22 2.32-1 1.84-.25.5-.24-.49-1-1.86zm0-5.31l1.22 2.32-1.22 2.32-1.22-2.32zm0-5.33l.24.49 1 1.86-1.24 2.32-1.22-2.32 1-1.85.25-.5zM-3 2.27a13.14 13.14 0 0 0-1.17 1.78 13.41 13.41 0 0 0-1.2-1.8 3.33 3.33 0 0 1 1.11-1.16A6.24 6.24 0 0 1-3 2.27zM-1.68 1a6.84 6.84 0 0 0-1.1 1A6.42 6.42 0 0 0-3.95.93 2.9 2.9 0 0 1-2.79.66 2.3 2.3 0 0 1-1.68 1zM-.2 2.27a13.14 13.14 0 0 0-1.19 1.78 13.14 13.14 0 0 0-1.19-1.78 6.25 6.25 0 0 1 1.19-1.11A6.25 6.25 0 0 1-.2 2.27zM1.1 1A6.75 6.75 0 0 0 0 2a7.21 7.21 0 0 0-1.1-1A2.23 2.23 0 0 1 0 .66 2.23 2.23 0 0 1 1.1 1zm1.47 1.27a14.08 14.08 0 0 0-1.18 1.78A14.15 14.15 0 0 0 .2 2.27a6.3 6.3 0 0 1 1.19-1.12 6 6 0 0 1 1.18 1.12zM3.88 1a6 6 0 0 0-1.1 1 6.75 6.75 0 0 0-1.1-1 2.23 2.23 0 0 1 1.1-.34 2.23 2.23 0 0 1 1.1.34zm1.47 1.27a14.08 14.08 0 0 0-1.18 1.78A14.15 14.15 0 0 0 3 2.27a6 6 0 0 1 1.17-1.12 6 6 0 0 1 1.18 1.12z"/></pattern><pattern id="c" data-name="c" width="22.24" height="24.72" patternTransform="matrix(5.06 -.46 -.46 -5.06 -405.61 401.25)" patternUnits="userSpaceOnUse"><path class="cls-1" d="M0 0h22.24v24.72H0z"/><path class="cls-1" d="M0 24.72h22.24V0H0z"/><path class="cls-1" d="M0 24.72h22.24V0H0z"/><path class="cls-1" d="M0 24.72h22.24V0H0z"/><path class="cls-3" d="M16.68 24.37v-.3.3zm0-23.7v-.3.3zM27.8 2.51V2a7.31 7.31 0 0 0-1.11-1A2.3 2.3 0 0 1 27.8.65v-.3a2.62 2.62 0 0 0-1.39.43 2.44 2.44 0 0 0-2.78 0 2.44 2.44 0 0 0-2.78 0 2.67 2.67 0 0 0-1.39-.43h-.05A3.38 3.38 0 0 0 18 .73a2.59 2.59 0 0 0-1.3-.38v.3a2.24 2.24 0 0 1 1 .26 3.7 3.7 0 0 0-1 1.06v.54a14.1 14.1 0 0 1 1.21 1.86l-.35.7-.86 1.65v.67l1.21 2.32L16.68 12v.66L17.89 15l-1.21 2.32V18l.86 1.65.35.69a15.19 15.19 0 0 1-1.21 1.86v.5a4.43 4.43 0 0 0 .75.81l.34.23a2.23 2.23 0 0 1-1.09.32v.31a2.69 2.69 0 0 0 1.4-.44 2.75 2.75 0 0 0 1.39.44 2.67 2.67 0 0 0 1.4-.42 2.46 2.46 0 0 0 2.76 0 2.47 2.47 0 0 0 2.78 0 2.62 2.62 0 0 0 1.39.43v-.3a2.3 2.3 0 0 1-1.11-.32 6.9 6.9 0 0 0 1.11-1.06v-.5a13.54 13.54 0 0 1-1.22-1.86l.35-.7.87-1.64v-.67L26.58 15l1.22-2.32V12l-1.22-2.29 1.22-2.32v-.67l-.87-1.65-.34-.7a14.1 14.1 0 0 1 1.21-1.86zm-1.4 6.87l-1.22-2.32 1-1.85.25-.5.24.49 1 1.86zm-5.56 5.3l-1.22-2.32L20.84 10l1.21 2.32zm1.4-2L23.45 15l-1.21 2.32L21 15zM21 9.71l1.22-2.32 1.21 2.32L22.24 12zm2.6.33l1.22 2.32-1.22 2.32-1.21-2.32zm.18-.33L25 7.39l1.22 2.32L25 12zm1.21 3L26.23 15 25 17.33 23.8 15zm.87 7l.35.7a14.18 14.18 0 0 1-1.21 1.8 14.29 14.29 0 0 1-1.2-1.85l.34-.72L25 18zm-2.23.29l-.25-.51-1-1.85 1.22-2.32 1.21 2.32-1 1.84-.25.52zm-.17.33a13.62 13.62 0 0 1-1.2 1.88A14.64 14.64 0 0 1 21 20.35l.35-.7.89-1.65.86 1.65.36.7zm-2.6-.33l-.25-.49-1-1.85 1.22-2.32 1.21 2.32-1 1.84-.25.5zm-.18.33a14.58 14.58 0 0 1-1.21 1.87 13.64 13.64 0 0 1-1.22-1.87l.35-.7.87-1.63.86 1.65zm-1.21-3L18.25 15l1.22-2.32L20.68 15zm0-5.3l-1.22-2.31 1.22-2.32 1.21 2.32zm0-5.31l-.87-1.64-.34-.69a12.71 12.71 0 0 1 1.21-1.87 14.58 14.58 0 0 1 1.21 1.87l-.35.7zm1.4-2l.24.49 1 1.86-1.24 2.32-1.22-2.32 1-1.85.25-.5zm.18-.33a12.61 12.61 0 0 1 1.21-1.86 13.48 13.48 0 0 1 1.21 1.86l-.35.7-.86 1.64-.87-1.65-.39-.69zm2.6.33l.24.49 1 1.86-1.24 2.32-1.22-2.32 1-1.85zm.17-.33A13.54 13.54 0 0 1 25 2.53a14.47 14.47 0 0 1 1.21 1.86l-.35.7L25 6.73l-.87-1.65zm2.61 10.3l-1.23-2.33L26.42 10l1.21 2.32zm0 5.34l-.25-.5-1-1.85 1.22-2.32 1.21 2.32-1 1.84zm-1.21 2.42a14.15 14.15 0 0 0 1.19-1.78 13.07 13.07 0 0 0 1.18 1.78 5.91 5.91 0 0 1-1.18 1.11 5.71 5.71 0 0 1-1.19-1.11zm-1.31 1.29a6.9 6.9 0 0 0 1.11-1 6.45 6.45 0 0 0 1.1 1 2.05 2.05 0 0 1-2.21 0zm-1.44-1.26a12.52 12.52 0 0 0 1.17-1.79 13.12 13.12 0 0 0 1.17 1.76 5.91 5.91 0 0 1-1.18 1.11 5.42 5.42 0 0 1-1.16-1.08zm-.73.8a6.76 6.76 0 0 0 .52-.55 6.91 6.91 0 0 0 1.08 1 2 2 0 0 1-2.17 0 5.08 5.08 0 0 0 .57-.47m-.87.3a6.17 6.17 0 0 1-1.21-1.13 14.15 14.15 0 0 0 1.19-1.78 12.68 12.68 0 0 0 1.21 1.81 6.2 6.2 0 0 1-1.19 1.1zm-2.51.16a6.84 6.84 0 0 0 1.1-1 6.25 6.25 0 0 0 1.12 1.06 2.48 2.48 0 0 1-1.12.31 2.34 2.34 0 0 1-1.1-.32zm-.29-3.07a14.08 14.08 0 0 0 1.18 1.78 6.27 6.27 0 0 1-1.18 1.12 5.09 5.09 0 0 1-.45-.31 4 4 0 0 1-.74-.8 14.26 14.26 0 0 0 1.19-1.79zm0-5.33l1.21 2.32-1 1.85-.25.5-.25-.49-1-1.86zm0-5.3l1.21 2.32-1.21 2.32-1.22-2.32zm0-5.33l.24.49 1 1.85-1.24 2.34-1.22-2.32 1-1.84.25-.5zm1.18-2.44a14.08 14.08 0 0 0-1.18 1.78 13.41 13.41 0 0 0-1.2-1.8A3.33 3.33 0 0 1 18 1.09a5.94 5.94 0 0 1 1.25 1.18zM20.56 1a6.8 6.8 0 0 0-1.1 1A7.1 7.1 0 0 0 18.29.93a2.9 2.9 0 0 1 1.16-.27 2.3 2.3 0 0 1 1.11.34zM22 2.27a14.08 14.08 0 0 0-1.18 1.78 14.15 14.15 0 0 0-1.19-1.78 6 6 0 0 1 1.19-1.11A5.64 5.64 0 0 1 22 2.27zM23.34 1a6 6 0 0 0-1.1 1 6.75 6.75 0 0 0-1.1-1 2 2 0 0 1 2.2 0zm1.47 1.29A12.48 12.48 0 0 0 23.63 4a13.46 13.46 0 0 0-1.19-1.78 5.75 5.75 0 0 1 1.19-1.12 6 6 0 0 1 1.18 1.16zM26.12 1A6 6 0 0 0 25 2a6.75 6.75 0 0 0-1.1-1 2 2 0 0 1 2.22 0zm1.47 1.29A12.48 12.48 0 0 0 26.41 4a13.46 13.46 0 0 0-1.19-1.78 5.75 5.75 0 0 1 1.19-1.12 6 6 0 0 1 1.18 1.16zm-22 22.11zm0-23.7z"/><path class="cls-3" d="M16.68 2.51V2a7.31 7.31 0 0 0-1.11-1 2.3 2.3 0 0 1 1.11-.35V.34a2.62 2.62 0 0 0-1.39.43A2.67 2.67 0 0 0 13.9.34a2.62 2.62 0 0 0-1.39.43 2.67 2.67 0 0 0-1.39-.43 2.62 2.62 0 0 0-1.39.43A2.67 2.67 0 0 0 8.34.34h-.06a3.38 3.38 0 0 0-1.42.38 2.59 2.59 0 0 0-1.3-.38v.31a2.24 2.24 0 0 1 1 .26 3.7 3.7 0 0 0-1 1.09v.54a14.1 14.1 0 0 1 1.21 1.83l-.35.7-.86 1.65v.67l1.22 2.32L5.56 12v.66L6.78 15l-1.22 2.33V18l.87 1.65.34.69a14.1 14.1 0 0 1-1.21 1.86v.5a4.43 4.43 0 0 0 .75.81l.34.23a2.2 2.2 0 0 1-1.09.32v.31A2.69 2.69 0 0 0 7 23.93a2.78 2.78 0 0 0 1.39.44A2.73 2.73 0 0 0 9.76 24a2.59 2.59 0 0 0 1.36.42 2.67 2.67 0 0 0 1.39-.43 2.62 2.62 0 0 0 1.39.43 2.67 2.67 0 0 0 1.39-.43 2.62 2.62 0 0 0 1.39.43v-.31a2.23 2.23 0 0 1-1.1-.32 7.28 7.28 0 0 0 1.1-1v-.5a13.48 13.48 0 0 1-1.21-1.86l.35-.7.86-1.73v-.67L15.46 15l1.22-2.32V12l-1.22-2.3 1.22-2.32v-.66l-.87-1.65-.34-.7a14.1 14.1 0 0 1 1.21-1.86zm-1.4 6.87l-1.22-2.32 1-1.85.25-.5.24.49 1 1.86zm-5.55 5.3l-1.22-2.32L9.73 10 11 12.36zm1.4-2L12.34 15l-1.21 2.32L9.91 15zm-1.22-3l1.22-2.32 1.21 2.32L11.13 12zm2.61.33l1.21 2.32-1.21 2.32-1.22-2.29zm.17-.33l1.22-2.32 1.21 2.32L13.91 12zm1.22 3L15.12 15l-1.21 2.32L12.69 15zm.87 7l.34.69a12.9 12.9 0 0 1-1.21 1.86 14.24 14.24 0 0 1-1.21-1.84l.35-.72.86-1.67zm-2.25.32l-.25-.5-1-1.85 1.21-2.32 1.22 2.32-1 1.84-.24.51zm-.18.34a11.44 11.44 0 0 1-1.2 1.87 13.32 13.32 0 0 1-1.23-1.89l.35-.7.86-1.62.87 1.65.35.71zM9.74 20l-.24-.49-1-1.86 1.21-2.32L11 17.66l-1 1.86-.25.5zm-.18.33a13.48 13.48 0 0 1-1.21 1.87 13.48 13.48 0 0 1-1.21-1.86l.35-.7.86-1.64.87 1.65zm-1.22-3L7.12 15l1.22-2.32L9.55 15zm0-5.3L7.12 9.71l1.22-2.32 1.22 2.32zm0-5.31l-.87-1.65-.34-.7a14.1 14.1 0 0 1 1.21-1.86 14.1 14.1 0 0 1 1.21 1.86l-.35.7zm1.4-2l.26.48 1 1.85-1.26 2.32-1.22-2.32 1-1.84.25-.5zm.18-.33a12.9 12.9 0 0 1 1.21-1.86 12.9 12.9 0 0 1 1.21 1.86l-.35.7-.86 1.64-.87-1.65-.34-.69zm2.6.33l.25.49 1 1.85-1.25 2.31-1.22-2.32 1-1.84zm.18-.33a12.9 12.9 0 0 1 1.21-1.86 12.9 12.9 0 0 1 1.21 1.86l-.35.7-.86 1.64L13 5.07zm2.6 10.3l-1.21-2.32L15.3 10l1.21 2.32zm0 5.33l-.24-.49-1-1.85 1.21-2.32 1.22 2.32-1 1.84zm-1.19 2.44a13.14 13.14 0 0 0 1.19-1.78 13.14 13.14 0 0 0 1.19 1.78 6.25 6.25 0 0 1-1.19 1.11 6.25 6.25 0 0 1-1.19-1.12zm-1.31 1.28a7.28 7.28 0 0 0 1.1-1 6.45 6.45 0 0 0 1.1 1 2.05 2.05 0 0 1-2.2 0zm-1.45-1.26a12.52 12.52 0 0 0 1.17-1.79 13.78 13.78 0 0 0 1.17 1.76 5.91 5.91 0 0 1-1.18 1.11 5.93 5.93 0 0 1-1.16-1.08zm-.73.8c.18-.18.36-.36.53-.56a6.09 6.09 0 0 0 1.07 1 2.23 2.23 0 0 1-1.1.32 2.22 2.22 0 0 1-1.07-.31 5.08 5.08 0 0 0 .57-.47m-.87.3a6.17 6.17 0 0 1-1.21-1.13 14.15 14.15 0 0 0 1.19-1.78 13.59 13.59 0 0 0 1.21 1.81 5.92 5.92 0 0 1-1.19 1.1zm-2.51.16a6.84 6.84 0 0 0 1.1-1 6.25 6.25 0 0 0 1.12 1.06 2.44 2.44 0 0 1-1.12.31 2.34 2.34 0 0 1-1.1-.32zM7 20.67a13.14 13.14 0 0 0 1.19 1.78A6.3 6.3 0 0 1 7 23.57c-.16-.1-.3-.2-.45-.31a4 4 0 0 1-.74-.8A14.26 14.26 0 0 0 7 20.67zm0-5.32l1.22 2.32-1 1.85L7 20l-.25-.49-1-1.86zM7 10l1.21 2.32L7 14.68l-1.27-2.32zm0-5.29l.24.49 1 1.86L7 9.38 5.73 7.06l1-1.84.27-.5zm1.14-2.44A13.14 13.14 0 0 0 7 4.05a13.41 13.41 0 0 0-1.2-1.8 3.33 3.33 0 0 1 1.06-1.16 6.24 6.24 0 0 1 1.28 1.18zM9.44 1a6.45 6.45 0 0 0-1.1 1A6.42 6.42 0 0 0 7.17.93 2.9 2.9 0 0 1 8.33.66 2.3 2.3 0 0 1 9.44 1zm1.47 1.29a14.08 14.08 0 0 0-1.18 1.76 13.14 13.14 0 0 0-1.19-1.78 6.25 6.25 0 0 1 1.19-1.11 5.91 5.91 0 0 1 1.18 1.11zM12.22 1a6 6 0 0 0-1.1 1A6.75 6.75 0 0 0 10 1a2.05 2.05 0 0 1 2.2 0zm1.47 1.29a14.08 14.08 0 0 0-1.18 1.78 14.15 14.15 0 0 0-1.19-1.78 6 6 0 0 1 1.19-1.12 6 6 0 0 1 1.18 1.1zM15 1a6 6 0 0 0-1.1 1 6.75 6.75 0 0 0-1.1-1A2.05 2.05 0 0 1 15 1zm1.47 1.29a13.07 13.07 0 0 0-1.18 1.78 14.15 14.15 0 0 0-1.19-1.8 5.75 5.75 0 0 1 1.19-1.12 6 6 0 0 1 1.18 1.12zM5.56 2.51V2a7.21 7.21 0 0 0-1.1-1 2.23 2.23 0 0 1 1.1-.35V.34a2.65 2.65 0 0 0-1.39.43A2.65 2.65 0 0 0 2.78.34a2.65 2.65 0 0 0-1.39.43A2.76 2.76 0 0 0 0 .35a2.65 2.65 0 0 0-1.39.43A2.65 2.65 0 0 0-2.78.35h-.05a3.3 3.3 0 0 0-1.42.38A2.65 2.65 0 0 0-5.56.35v.31a2.32 2.32 0 0 1 1 .26 3.88 3.88 0 0 0-1 1.08v.54a14.1 14.1 0 0 1 1.21 1.84l-.35.7-.86 1.64v.67l1.22 2.32L-5.56 12v.66L-4.34 15l-1.22 2.32V18l.87 1.65.34.69a14.1 14.1 0 0 1-1.21 1.86v.5a4.48 4.48 0 0 0 .76.81l.34.23a2.26 2.26 0 0 1-1.1.32v.31a2.69 2.69 0 0 0 1.4-.44 2.78 2.78 0 0 0 1.39.44A2.73 2.73 0 0 0-1.36 24a2.62 2.62 0 0 0 1.36.37 2.65 2.65 0 0 0 1.39-.43 2.65 2.65 0 0 0 1.39.43 2.65 2.65 0 0 0 1.39-.43 2.65 2.65 0 0 0 1.39.43v-.31a2.23 2.23 0 0 1-1.1-.32 7.28 7.28 0 0 0 1.1-1v-.5a12.9 12.9 0 0 1-1.21-1.86l.35-.7.86-1.68v-.67L4.34 15l1.22-2.32V12L4.35 9.7l1.21-2.32v-.66l-.87-1.65-.34-.7a14.1 14.1 0 0 1 1.21-1.86zm-1.4 6.87L2.94 7.06l1-1.85.25-.5.25.49 1 1.86zm-5.56 5.3l-1.22-2.32L-1.4 10l1.22 2.32zm1.4-2L1.22 15 0 17.33-1.22 15zm-1.22-3L0 7.39l1.22 2.32L0 12zM1.4 10l1.22 2.32-1.22 2.36-1.23-2.32zm.17-.33l1.22-2.28L4 9.71 2.79 12zm1.22 3L4 15l-1.21 2.33L1.57 15zm.87 7l.34.69a13 13 0 0 1-1.22 1.84 13.82 13.82 0 0 1-1.2-1.84l.34-.72.86-1.64zM1.41 20l-.25-.5-1-1.85 1.24-2.3 1.22 2.31-1 1.86-.22.48zm-.18.34A12.2 12.2 0 0 1 0 22.23a13.32 13.32 0 0 1-1.23-1.89l.35-.7L0 18l.87 1.65.35.71zM-1.38 20l-.24-.49-1-1.86 1.21-2.32 1.22 2.32-1 1.86-.25.5zm-.17.33a13.61 13.61 0 0 1-1.23 1.87A12.9 12.9 0 0 1-4 20.34l.35-.7.87-1.64.87 1.65.34.69zm-1.22-3L-4 15l1.21-2.32L-1.55 15zm0-5.3L-4 9.71l1.21-2.32 1.22 2.32zm0-5.31l-.86-1.66-.37-.69a15.19 15.19 0 0 1 1.23-1.86 14.18 14.18 0 0 1 1.22 1.86l-.35.7zm1.4-2l.25.5 1 1.85-1.25 2.3-1.21-2.32 1-1.84.25-.51zm.18-.32A14.45 14.45 0 0 1 0 2.51a13.58 13.58 0 0 1 1.21 1.87l-.35.7L0 6.72l-.87-1.65-.34-.69zm2.6.32l.25.5 1 1.85-1.25 2.3L.2 7.05l1-1.84zm.18-.32A14.58 14.58 0 0 1 2.8 2.51 13.64 13.64 0 0 1 4 4.38l-.35.7-.85 1.64-.86-1.65zm2.58 10.3L3 12.36 4.17 10l1.22 2.32zm0 5.33l-.24-.49L3 17.66l1.21-2.31 1.22 2.31-1 1.86-.25.5zM3 22.45a14.15 14.15 0 0 0 1.19-1.78 13.14 13.14 0 0 0 1.19 1.78 6.25 6.25 0 0 1-1.19 1.11A6.25 6.25 0 0 1 3 22.45zm-1.3 1.29a7.28 7.28 0 0 0 1.1-1 7.28 7.28 0 0 0 1.1 1 2.23 2.23 0 0 1-1.1.32 2.23 2.23 0 0 1-1.12-.32zM.23 22.48a12.52 12.52 0 0 0 1.17-1.79 13.78 13.78 0 0 0 1.17 1.76 5.91 5.91 0 0 1-1.18 1.11 5.93 5.93 0 0 1-1.16-1.08zm-.73.8a6.89 6.89 0 0 0 .5-.56 6.94 6.94 0 0 0 1.08 1 2.23 2.23 0 0 1-1.1.32 2.22 2.22 0 0 1-1.07-.31 5.08 5.08 0 0 0 .57-.47m-.87.3a6.17 6.17 0 0 1-1.21-1.13 13.14 13.14 0 0 0 1.19-1.78 13.59 13.59 0 0 0 1.23 1.83 5.66 5.66 0 0 1-1.19 1.1zm-2.51.16a6.45 6.45 0 0 0 1.1-1 6.61 6.61 0 0 0 1.12 1.06 2.44 2.44 0 0 1-1.12.31 2.38 2.38 0 0 1-1.1-.32zm-.29-3.07A13.14 13.14 0 0 0-3 22.45a6.3 6.3 0 0 1-1.19 1.12c-.16-.1-.3-.2-.45-.31a4 4 0 0 1-.74-.8 14.26 14.26 0 0 0 1.19-1.79zm0-5.32l1.22 2.32-1 1.85-.25.5-.24-.49-1-1.86zm0-5.31l1.22 2.32-1.22 2.32-1.22-2.32zm0-5.33l.24.49 1 1.86-1.22 2.34-1.22-2.32 1-1.85.25-.5zM-3 2.27a13.14 13.14 0 0 0-1.17 1.78 13.41 13.41 0 0 0-1.2-1.8 3.33 3.33 0 0 1 1.11-1.16A6.24 6.24 0 0 1-3 2.27zM-1.68 1a6.84 6.84 0 0 0-1.1 1A6.42 6.42 0 0 0-3.95.93 2.9 2.9 0 0 1-2.79.66 2.3 2.3 0 0 1-1.68 1zM-.2 2.27a13.14 13.14 0 0 0-1.19 1.78 13.14 13.14 0 0 0-1.19-1.78 6.25 6.25 0 0 1 1.19-1.11A6.25 6.25 0 0 1-.2 2.27zM1.1 1A6.75 6.75 0 0 0 0 2a7.21 7.21 0 0 0-1.1-1A2.23 2.23 0 0 1 0 .66 2.23 2.23 0 0 1 1.1 1zm1.47 1.27a14.08 14.08 0 0 0-1.18 1.78A14.15 14.15 0 0 0 .2 2.27a6.3 6.3 0 0 1 1.19-1.12 6 6 0 0 1 1.18 1.12zM3.88 1a6 6 0 0 0-1.1 1 6.75 6.75 0 0 0-1.1-1 2.23 2.23 0 0 1 1.1-.34 2.23 2.23 0 0 1 1.1.34zm1.47 1.27a14.08 14.08 0 0 0-1.18 1.78A14.15 14.15 0 0 0 3 2.27a6 6 0 0 1 1.17-1.12 6 6 0 0 1 1.18 1.12z"/></pattern><pattern id="d" data-name="d" width="22.24" height="24.72" patternTransform="matrix(5.06 -.46 -.46 -5.06 -405.61 401.25)" patternUnits="userSpaceOnUse"><path class="cls-1" d="M0 0h22.24v24.72H0z"/><path class="cls-1" d="M0 24.72h22.24V0H0z"/><path class="cls-1" d="M0 24.72h22.24V0H0z"/><path class="cls-1" d="M0 24.72h22.24V0H0z"/><path class="cls-4" d="M16.68 24.37v-.31.31zm0-23.71V.35v.31zM27.8 2.51V2a6.43 6.43 0 0 0-1.11-1A2.3 2.3 0 0 1 27.8.65v-.3a2.62 2.62 0 0 0-1.39.43 2.44 2.44 0 0 0-2.78 0 2.44 2.44 0 0 0-2.78 0 2.67 2.67 0 0 0-1.39-.43h-.05A3.24 3.24 0 0 0 18 .73a2.59 2.59 0 0 0-1.3-.38v.3a2.24 2.24 0 0 1 1 .26 3.7 3.7 0 0 0-1 1.06v.55a13.37 13.37 0 0 1 1.21 1.85l-.35.7-.86 1.65v.67l1.21 2.32L16.68 12v.66L17.89 15l-1.21 2.32V18l.86 1.65.35.69a15.19 15.19 0 0 1-1.21 1.86v.5a4.43 4.43 0 0 0 .75.81l.34.23a2.23 2.23 0 0 1-1.09.32v.31a2.78 2.78 0 0 0 1.4-.44 2.72 2.72 0 0 0 1.39.44 2.76 2.76 0 0 0 1.4-.42 2.46 2.46 0 0 0 2.76 0 2.46 2.46 0 0 0 2.77 0 2.67 2.67 0 0 0 1.39.43v-.3a2.3 2.3 0 0 1-1.1-.32 6.45 6.45 0 0 0 1.1-1.05v-.5a14.47 14.47 0 0 1-1.21-1.86l.35-.7.87-1.65v-.68L26.58 15l1.22-2.32V12l-1.22-2.31 1.22-2.32v-.65l-.87-1.65-.35-.7a14.18 14.18 0 0 1 1.22-1.86zm-1.4 6.86l-1.22-2.32 1-1.84.25-.5.24.49 1 1.86zm-5.56 5.31l-1.22-2.32L20.84 10l1.21 2.32zm1.4-2L23.45 15l-1.21 2.32L21 15zM21 9.71l1.22-2.32 1.21 2.32L22.24 12zm2.6.33l1.22 2.32-1.22 2.32-1.21-2.32zm.18-.33L25 7.39l1.22 2.32L25 12zm1.21 3L26.23 15 25 17.33 23.8 15zm.87 7l.35.7a14.18 14.18 0 0 1-1.21 1.8 15 15 0 0 1-1.2-1.85l.34-.72L25 18zm-2.23.29l-.25-.51-1-1.85 1.22-2.32 1.21 2.32-1 1.84-.25.52zm-.17.33a13.62 13.62 0 0 1-1.2 1.88A14.09 14.09 0 0 1 21 20.34l.35-.7.89-1.64.86 1.65.36.7zm-2.6-.33l-.25-.49-1-1.85 1.22-2.32 1.21 2.32-1 1.84-.25.5zm-.18.33a14.47 14.47 0 0 1-1.21 1.86 13.54 13.54 0 0 1-1.22-1.86l.35-.7.87-1.63.86 1.65zm-1.21-3L18.25 15l1.22-2.32L20.68 15zm0-5.3l-1.22-2.31 1.22-2.32 1.21 2.32zm0-5.31l-.87-1.64-.34-.7a13.16 13.16 0 0 1 1.21-1.86 15.19 15.19 0 0 1 1.21 1.86l-.35.7zm1.4-2l.24.49 1 1.85-1.24 2.32-1.22-2.32 1-1.84.25-.5zm.18-.33a12.11 12.11 0 0 1 1.21-1.86 12.9 12.9 0 0 1 1.21 1.86l-.35.7-.86 1.64-.87-1.65-.39-.7zm2.6.33l.24.49 1 1.85-1.24 2.32-1.22-2.32 1-1.84zm.17-.33A13 13 0 0 1 25 2.53a13.81 13.81 0 0 1 1.21 1.86l-.35.7L25 6.72l-.87-1.65-.35-.7zm2.61 10.3l-1.23-2.33L26.42 10l1.21 2.32zm0 5.33l-.25-.49-1-1.85 1.22-2.32 1.21 2.32-1 1.84zm-1.21 2.43a14.15 14.15 0 0 0 1.19-1.78 13.07 13.07 0 0 0 1.18 1.78 5.91 5.91 0 0 1-1.18 1.11 5.71 5.71 0 0 1-1.19-1.11zm-1.31 1.29a6.9 6.9 0 0 0 1.11-1 6.45 6.45 0 0 0 1.1 1 2.05 2.05 0 0 1-2.21 0zm-1.44-1.26a12.52 12.52 0 0 0 1.17-1.79 13.12 13.12 0 0 0 1.17 1.76 5.91 5.91 0 0 1-1.18 1.11 5.42 5.42 0 0 1-1.16-1.08zm-.73.8a6.76 6.76 0 0 0 .52-.55 6.91 6.91 0 0 0 1.08 1 2 2 0 0 1-2.17 0 5.08 5.08 0 0 0 .57-.47m-.87.3a6.17 6.17 0 0 1-1.21-1.13 14.15 14.15 0 0 0 1.19-1.78 12.68 12.68 0 0 0 1.21 1.81 6.2 6.2 0 0 1-1.19 1.1zm-2.51.15a6.37 6.37 0 0 0 1.1-1 6.25 6.25 0 0 0 1.12 1.06 2.48 2.48 0 0 1-1.12.31 2.35 2.35 0 0 1-1.1-.33zm-.29-3.06a14.08 14.08 0 0 0 1.18 1.78 5.91 5.91 0 0 1-1.18 1.11 3.52 3.52 0 0 1-.45-.3 4 4 0 0 1-.74-.8 15 15 0 0 0 1.19-1.79zm0-5.33l1.21 2.32-1 1.85-.25.5-.25-.5-1-1.85zm0-5.3l1.21 2.32-1.21 2.32-1.22-2.32zm0-5.34l.24.5 1 1.85-1.24 2.34-1.22-2.32 1-1.84.25-.5zm1.18-2.43a14.08 14.08 0 0 0-1.18 1.78 13.41 13.41 0 0 0-1.2-1.8A3.33 3.33 0 0 1 18 1.09a5.7 5.7 0 0 1 1.25 1.18zM20.56 1a6 6 0 0 0-1.1 1A6.7 6.7 0 0 0 18.29.93a2.9 2.9 0 0 1 1.16-.27 2.3 2.3 0 0 1 1.11.34zM22 2.27a14.08 14.08 0 0 0-1.18 1.78 13.46 13.46 0 0 0-1.19-1.78 6 6 0 0 1 1.19-1.12A6 6 0 0 1 22 2.27zM23.34 1a6 6 0 0 0-1.1 1 6.75 6.75 0 0 0-1.1-1 2 2 0 0 1 2.2 0zm1.47 1.29A12.48 12.48 0 0 0 23.63 4a14.26 14.26 0 0 0-1.19-1.79 6 6 0 0 1 1.19-1.11 6 6 0 0 1 1.18 1.16zM26.12 1A6 6 0 0 0 25 2a6.75 6.75 0 0 0-1.1-1 2 2 0 0 1 2.22 0zm1.47 1.29A12.48 12.48 0 0 0 26.41 4a14.26 14.26 0 0 0-1.19-1.79 6 6 0 0 1 1.19-1.11 6 6 0 0 1 1.18 1.16zm-22 22.11zM5.56.66z"/><path class="cls-4" d="M16.68 2.51V2a6.43 6.43 0 0 0-1.11-1 2.3 2.3 0 0 1 1.11-.35V.34a2.62 2.62 0 0 0-1.39.43A2.67 2.67 0 0 0 13.9.34a2.62 2.62 0 0 0-1.39.43 2.67 2.67 0 0 0-1.39-.43 2.62 2.62 0 0 0-1.39.43A2.67 2.67 0 0 0 8.34.34h-.06a3.24 3.24 0 0 0-1.42.38 2.59 2.59 0 0 0-1.3-.38v.31a2.24 2.24 0 0 1 1 .26 3.7 3.7 0 0 0-1 1.09v.55a13.37 13.37 0 0 1 1.21 1.82l-.35.7-.86 1.65v.67l1.22 2.32L5.56 12v.66L6.78 15l-1.22 2.33V18l.87 1.65.34.69a14.1 14.1 0 0 1-1.21 1.86v.5a4.07 4.07 0 0 0 .75.8l.34.24a2.2 2.2 0 0 1-1.09.32v.31A2.78 2.78 0 0 0 7 23.93a2.75 2.75 0 0 0 1.39.44A2.76 2.76 0 0 0 9.75 24a2.66 2.66 0 0 0 1.37.42 2.67 2.67 0 0 0 1.39-.43 2.62 2.62 0 0 0 1.39.43 2.67 2.67 0 0 0 1.39-.43 2.62 2.62 0 0 0 1.39.43v-.31a2.23 2.23 0 0 1-1.1-.32 7.28 7.28 0 0 0 1.1-1v-.5a13.48 13.48 0 0 1-1.21-1.86l.35-.7.86-1.73v-.67L15.46 15l1.22-2.32V12l-1.22-2.31 1.22-2.32v-.65l-.87-1.65-.34-.7a14.1 14.1 0 0 1 1.21-1.86zm-1.4 6.86l-1.22-2.32 1-1.84.25-.5.24.49 1 1.86zm-5.55 5.31l-1.22-2.32L9.73 10 11 12.36zm1.4-2L12.34 15l-1.21 2.32L9.91 15zm-1.22-3l1.22-2.32 1.21 2.32L11.13 12zm2.61.33l1.21 2.32-1.21 2.32-1.22-2.29zm.17-.33l1.22-2.32 1.21 2.32L13.91 12zm1.22 3L15.12 15l-1.21 2.32L12.69 15zm.87 7l.34.69a12.9 12.9 0 0 1-1.21 1.86 13.21 13.21 0 0 1-1.2-1.84l.34-.72.86-1.67zm-2.25.32l-.25-.5-1-1.85 1.21-2.32 1.22 2.32-1 1.84-.24.51zm-.18.34a11.44 11.44 0 0 1-1.2 1.87 13.32 13.32 0 0 1-1.23-1.89l.35-.7.86-1.62.87 1.65.35.71zM9.74 20l-.24-.49-1-1.86 1.21-2.32L11 17.66l-1 1.86-.25.5zm-.18.33a13.48 13.48 0 0 1-1.21 1.87 13.48 13.48 0 0 1-1.21-1.86l.35-.7.86-1.64.87 1.66zm-1.22-3L7.12 15l1.22-2.32L9.55 15zm0-5.3L7.12 9.71l1.22-2.32 1.22 2.32zm0-5.31l-.87-1.65-.34-.7a14.1 14.1 0 0 1 1.21-1.86 14.1 14.1 0 0 1 1.21 1.86l-.35.7zm1.4-2l.26.48 1 1.85-1.26 2.32-1.22-2.32 1-1.84.25-.5zm.18-.33a12.9 12.9 0 0 1 1.21-1.86 12.9 12.9 0 0 1 1.21 1.86l-.35.7-.86 1.64-.87-1.65-.34-.69zm2.6.33l.25.49 1 1.85-1.25 2.31-1.22-2.32 1-1.84zm.18-.33a12.9 12.9 0 0 1 1.21-1.86 12.9 12.9 0 0 1 1.21 1.86l-.35.7-.87 1.63-.9-1.65-.34-.7zm2.6 10.3l-1.21-2.32L15.3 10l1.21 2.32zm0 5.33l-.24-.49-1-1.85 1.21-2.32 1.22 2.32-1 1.84zm-1.2 2.44a14.15 14.15 0 0 0 1.19-1.78 14.08 14.08 0 0 0 1.18 1.78 5.91 5.91 0 0 1-1.18 1.11 6 6 0 0 1-1.19-1.12zm-1.3 1.29a7.28 7.28 0 0 0 1.1-1 6.45 6.45 0 0 0 1.1 1 2.05 2.05 0 0 1-2.2 0zm-1.45-1.26a12.52 12.52 0 0 0 1.17-1.79 13.12 13.12 0 0 0 1.17 1.76 5.91 5.91 0 0 1-1.18 1.11 5.93 5.93 0 0 1-1.16-1.08zm-.73.8c.18-.18.36-.36.53-.56a6.09 6.09 0 0 0 1.07 1 2.23 2.23 0 0 1-1.1.32 2.22 2.22 0 0 1-1.07-.31 5.08 5.08 0 0 0 .57-.47m-.87.3a6.17 6.17 0 0 1-1.21-1.13 14.15 14.15 0 0 0 1.19-1.78 13.59 13.59 0 0 0 1.21 1.81 5.66 5.66 0 0 1-1.19 1.11zm-2.51.15a6.37 6.37 0 0 0 1.1-1 6.25 6.25 0 0 0 1.12 1.06 2.44 2.44 0 0 1-1.12.31 2.35 2.35 0 0 1-1.1-.33zM7 20.67a13.14 13.14 0 0 0 1.19 1.78A6.25 6.25 0 0 1 7 23.56a4.4 4.4 0 0 1-.45-.3 4 4 0 0 1-.74-.8A15 15 0 0 0 7 20.67zm0-5.33l1.22 2.32-1 1.86L7 20l-.25-.49-1-1.86zM7 10l1.21 2.32L7 14.68l-1.27-2.32zm0-5.3l.24.5 1 1.85L7 9.37 5.73 7.05l1-1.83.27-.5zm1.14-2.43A13.14 13.14 0 0 0 7 4.05a13.41 13.41 0 0 0-1.2-1.8 3.33 3.33 0 0 1 1.06-1.16 6 6 0 0 1 1.28 1.18zM9.44 1a6 6 0 0 0-1.1 1A6.36 6.36 0 0 0 7.17.93 2.9 2.9 0 0 1 8.33.66 2.3 2.3 0 0 1 9.44 1zm1.47 1.29a13.39 13.39 0 0 0-1.18 1.76 13.24 13.24 0 0 0-1.19-1.79 6.59 6.59 0 0 1 1.19-1.11 6.22 6.22 0 0 1 1.18 1.11zM12.22 1a6 6 0 0 0-1.1 1A6.75 6.75 0 0 0 10 1a2.35 2.35 0 0 1 1.1-.33 2.35 2.35 0 0 1 1.12.33zm1.47 1.28a14.19 14.19 0 0 0-1.18 1.79 14.26 14.26 0 0 0-1.19-1.79 6.27 6.27 0 0 1 1.19-1.11 6.22 6.22 0 0 1 1.18 1.09zM15 1a6 6 0 0 0-1.1 1 6.75 6.75 0 0 0-1.1-1A2.05 2.05 0 0 1 15 1zm1.47 1.29a13.07 13.07 0 0 0-1.18 1.78 14.15 14.15 0 0 0-1.19-1.8 5.75 5.75 0 0 1 1.19-1.12 6 6 0 0 1 1.18 1.12zM5.56 2.51V2a6.75 6.75 0 0 0-1.1-1 2.23 2.23 0 0 1 1.1-.35V.34a2.65 2.65 0 0 0-1.39.43A2.65 2.65 0 0 0 2.78.34a2.65 2.65 0 0 0-1.39.43A2.65 2.65 0 0 0 0 .34a2.65 2.65 0 0 0-1.39.43A2.65 2.65 0 0 0-2.78.34h-.05a3.17 3.17 0 0 0-1.42.38A2.65 2.65 0 0 0-5.56.34v.31a2.32 2.32 0 0 1 1 .26 3.74 3.74 0 0 0-1 1.09v.55a13.37 13.37 0 0 1 1.21 1.82l-.35.7-.86 1.65v.67l1.22 2.32L-5.56 12v.66L-4.34 15l-1.22 2.32V18l.87 1.65.34.69a14.1 14.1 0 0 1-1.21 1.86v.5a4.48 4.48 0 0 0 .76.81l.34.23a2.26 2.26 0 0 1-1.1.32v.31a2.78 2.78 0 0 0 1.4-.44 2.78 2.78 0 0 0 1.39.44A2.83 2.83 0 0 0-1.36 24a2.62 2.62 0 0 0 1.36.37 2.65 2.65 0 0 0 1.39-.43 2.65 2.65 0 0 0 1.39.43 2.65 2.65 0 0 0 1.39-.43 2.62 2.62 0 0 0 1.39.43v-.31a2.23 2.23 0 0 1-1.1-.32 7.28 7.28 0 0 0 1.1-1v-.5a13.48 13.48 0 0 1-1.21-1.86l.35-.7.86-1.68v-.67L4.34 15l1.22-2.32V12L4.34 9.69l1.22-2.32v-.65l-.87-1.65-.34-.7a14.1 14.1 0 0 1 1.21-1.86zm-1.4 6.86L2.94 7.05l1-1.84.25-.5.25.49 1 1.86zm-5.56 5.31l-1.22-2.32L-1.4 10l1.22 2.32zm1.4-2L1.22 15 0 17.33-1.22 15zm-1.22-3L0 7.39l1.22 2.32L0 12zM1.4 10l1.22 2.32-1.22 2.36-1.23-2.32zm.17-.33l1.22-2.28L4 9.71 2.79 12zm1.22 3L4 15l-1.21 2.33L1.57 15zm.87 7l.34.69a13 13 0 0 1-1.22 1.84 13.82 13.82 0 0 1-1.2-1.84l.34-.72.86-1.64zM1.41 20l-.25-.5-1-1.85 1.24-2.31 1.22 2.32-1 1.86-.22.48zm-.19.34A11.88 11.88 0 0 1 0 22.23a13.32 13.32 0 0 1-1.23-1.89l.35-.7L0 18l.87 1.65.35.71zM-1.39 20l-.24-.5-1-1.85 1.22-2.32 1.22 2.32-1 1.86-.25.5zm-.18.33a13.48 13.48 0 0 1-1.21 1.87A13.48 13.48 0 0 1-4 20.34l.35-.7.87-1.64.87 1.65.34.69zm-1.21-3L-4 15l1.22-2.32L-1.56 15zm0-5.31L-4 9.7l1.21-2.32 1.23 2.32zm0-5.3l-.87-1.66-.35-.69a14.1 14.1 0 0 1 1.22-1.86 14.1 14.1 0 0 1 1.21 1.86l-.35.7zm1.4-2l.25.5 1 1.85-1.25 2.3-1.22-2.32 1-1.84.25-.51zm.18-.33A14 14 0 0 1 0 2.51a14.1 14.1 0 0 1 1.21 1.86l-.35.7L0 6.72l-.87-1.65-.34-.69zm2.6.33l.24.5 1 1.85-1.24 2.3L.18 7.05l1-1.84zm.18-.33a14.1 14.1 0 0 1 1.21-1.88A14.1 14.1 0 0 1 4 4.37l-.35.7-.87 1.65-.87-1.65-.34-.7zm2.59 10.29L3 12.36 4.17 10l1.22 2.32zm0 5.33l-.24-.49L3 17.66l1.21-2.31 1.22 2.31-1 1.86-.25.5zM3 22.45a14.15 14.15 0 0 0 1.19-1.78 13.14 13.14 0 0 0 1.19 1.78 6.25 6.25 0 0 1-1.19 1.11A6.25 6.25 0 0 1 3 22.45zm-1.3 1.29a7.28 7.28 0 0 0 1.1-1 7.28 7.28 0 0 0 1.1 1 2.23 2.23 0 0 1-1.1.32 2.23 2.23 0 0 1-1.1-.32zM.23 22.48a12.52 12.52 0 0 0 1.17-1.79 13.12 13.12 0 0 0 1.17 1.76 5.91 5.91 0 0 1-1.18 1.11 5.93 5.93 0 0 1-1.16-1.08zm-.73.8a6.89 6.89 0 0 0 .5-.56 6.94 6.94 0 0 0 1.08 1 2.23 2.23 0 0 1-1.1.32 2.22 2.22 0 0 1-1.07-.31 5.08 5.08 0 0 0 .57-.47m-.87.3a6.17 6.17 0 0 1-1.21-1.13 13.14 13.14 0 0 0 1.19-1.78 13.59 13.59 0 0 0 1.23 1.83 5.66 5.66 0 0 1-1.19 1.1zm-2.51.16a6.45 6.45 0 0 0 1.1-1 6.61 6.61 0 0 0 1.12 1.06 2.44 2.44 0 0 1-1.12.31 2.39 2.39 0 0 1-1.1-.33zm-.29-3.07A13.14 13.14 0 0 0-3 22.45a6.64 6.64 0 0 1-1.19 1.12c-.16-.1-.3-.2-.45-.31a4 4 0 0 1-.74-.8 14.26 14.26 0 0 0 1.19-1.79zm0-5.33l1.22 2.32-1 1.86-.25.5-.24-.49-1-1.86zm0-5.3l1.22 2.32-1.22 2.32-1.22-2.32zm0-5.33l.24.49 1 1.85-1.22 2.34-1.22-2.32 1-1.84.25-.5zM-3 2.27a13.14 13.14 0 0 0-1.17 1.78 13.41 13.41 0 0 0-1.2-1.8 3.33 3.33 0 0 1 1.11-1.16A6.24 6.24 0 0 1-3 2.27zM-1.68 1a7.24 7.24 0 0 0-1.1 1A6.72 6.72 0 0 0-3.95.93 2.9 2.9 0 0 1-2.79.66 2.3 2.3 0 0 1-1.68 1zM-.2 2.27a13.14 13.14 0 0 0-1.19 1.78 13.14 13.14 0 0 0-1.19-1.78 6.25 6.25 0 0 1 1.19-1.11A6 6 0 0 1-.2 2.27zM1.1 1A6.75 6.75 0 0 0 0 2a6.75 6.75 0 0 0-1.1-1A2.23 2.23 0 0 1 0 .66 2.23 2.23 0 0 1 1.1 1zm1.47 1.27a13.39 13.39 0 0 0-1.18 1.78A13.46 13.46 0 0 0 .2 2.27a6.3 6.3 0 0 1 1.19-1.12 6 6 0 0 1 1.18 1.12zM3.88 1a6 6 0 0 0-1.1 1 6.75 6.75 0 0 0-1.1-1 2.23 2.23 0 0 1 1.1-.34 2.23 2.23 0 0 1 1.1.34zm1.47 1.27a13.39 13.39 0 0 0-1.18 1.78A13.46 13.46 0 0 0 3 2.27a6 6 0 0 1 1.17-1.12 6 6 0 0 1 1.18 1.12z"/></pattern></defs><path class="cls-5" d="M661 495.7c63.25-6.85 116.93-17.74 139-27.36v-72.11c-35.94-67.57-87.07-143.7-115.79-174L519.43 301.7c7.72 36.72 31.1 112 52.92 167-22.47 4.44-40.49 9.18-51.9 13.7-20.05-51.83-41.45-122.56-48.91-157.59l-27.91 13.47c6.57 46.21 40.46 149.83 75 222.77l.7 1.5.26.53 1.23 2.57a162.92 162.92 0 0 0 166.68 87.59 51.06 51.06 0 0 1 52.89 28.29L790.35 785a44.76 44.76 0 0 0 9.65-27.87V734l-31.79-65.9a51.07 51.07 0 0 1 10.77-59 163.17 163.17 0 0 0 21-24.74v-29.15A148.29 148.29 0 0 1 533.86 559l-.71-1.38-.4-.85-.3-.58-.32-.69-.33-.7c-9.64-20.35-17-41.06-24.4-61.21 6.05 9.79 72.91 10.83 153.59 2.1zm30.62-139.83a20.51 20.51 0 1 1-20.5 20.51 20.5 20.5 0 0 1 20.49-20.51zm-60.3-19.14a10.1 10.1 0 1 1-10.1 10.09 10.1 10.1 0 0 1 10.1-10.09z"/><path class="cls-6" d="M532.83 500.5zm19.78 1zm15.75.09zm-8.11 0zm-18.06-.48zm3.28.15zm-9.67-.55zm41.11.73zM530 500.23h.29zm8.88.73zM661 495.7c-27.23 2.94-52.88 4.77-75.15 5.53q4.89 11.22 10.12 22.28l.3.64.34.73.27.55.32.67.8 1.56a147.78 147.78 0 0 0 128.28 80.79 124.65 124.65 0 0 1 26.44 3.55A148.09 148.09 0 0 0 800 555.21v-86.87c-22.07 9.62-75.75 20.51-139 27.36z"/><path class="cls-6" d="M578.66 589.79a147.23 147.23 0 0 1-29-39.22l-.79-1.56-.32-.67-.27-.55-.35-.73-.3-.64c-6.91-14.6-13.74-30.32-20.29-46.48-11.15-1.34-18.22-3.46-20-6.35 7.38 20.15 14.77 40.86 24.4 61.22l.33.7.32.68.3.58.4.85.71 1.38a148.34 148.34 0 0 0 170.59 75.93c-4.49.27-77.06 3.84-125.79-45.15zm-48.4-89.53l2.57.24zm5.77.5l2.83.2zm-3.09-.25c.93.09 1.88.16 2.86.24-.98-.07-1.93-.15-2.86-.24zm-5.54-.57l2.57.29zm41 1.67h-7.92c2.52.03 5.17.03 7.88 0zm.15 0q4.1 0 8.4-.13-4.34.11-8.44.13zm8.47-.13a720.988 720.988 0 0 0-.02 0zm127.43 133.46h.22A149.88 149.88 0 0 0 752.82 612h-.1a148.21 148.21 0 0 1-48.27 23zM545.69 501.31q3.33.13 6.92.21-3.61-.07-6.92-.21zm7.14.22q3.6.08 7.42.1-3.82-.03-7.42-.1zm-10.52-.38c1 .06 2.09.1 3.16.15zm-3.26-.18l3.14.18z"/><path class="cls-6" d="M507.4 493.59c7.38 20.15 14.77 40.86 24.4 61.22l.33.7.32.68.3.59.4.84.71 1.38A148.29 148.29 0 0 0 800 555.2v-86.87c-22.07 9.62-75.75 20.51-139 27.36-80.68 8.72-147.53 7.69-153.59-2.11z"/><path class="cls-7" d="M726.28 608.45A147.77 147.77 0 0 1 598 527.65l-.8-1.55-.32-.67-.27-.55-.34-.73-.3-.64c-3.4-7.18-6.78-14.64-10.12-22.28-24.28.83-44.54.38-58.46-1.29 6.56 16.16 13.39 31.88 20.3 46.48l.3.64.34.73.27.55.32.67.8 1.56a147.23 147.23 0 0 0 29 39.22c50.3 50.57 126 45.13 126 45.13a149.65 149.65 0 0 0 48.1-22.92 124.32 124.32 0 0 0-26.54-3.53z"/><path class="cls-3" d="M572.35 468.72c-21.82-55.05-45.2-130.3-52.92-167l-47.88 23.11c7.46 35 28.86 105.76 48.91 157.61 11.4-4.52 29.43-9.26 51.9-13.7z"/><path class="cls-5" d="M507 492.38a2.91 2.91 0 0 0 .45 1.21l-.45-1.21z"/><circle class="cls-5" cx="662.87" cy="538.91" r="11.53"/><path id="b" class="cls-5" d="M240.76 600c-16.21-3.62-27.88-5.45-36.93-4.27-21.23 2.78-22.47 22.65-22.47 22.65v1.28l.05.84.15 1.75A147.74 147.74 0 0 0 317 757.27l.5.05a145.49 145.49 0 0 0 41.32-2.65c1.64-.34 3.27-.7 4.89-1.1A146.51 146.51 0 0 0 343.79 743a172.76 172.76 0 0 1-103.02-143z"/><path class="cls-6" d="M185.76 606.31l.44-.63zM218 707.64q-3.15-3.6-6.09-7.38 2.91 3.8 6.09 7.38zm-2.83-112l-1.86-.12zm-4-.21l1.79.07zm-29.7 25.11l-.05-.85.05.85.15 1.75a147.21 147.21 0 0 0 30.25 78 147.21 147.21 0 0 1-30.25-78zm24.16-25c.51 0 1-.08 1.56-.1-.5.05-1.02.09-1.53.13zm3.66-.16h1.69c-.55.03-1.11.02-1.66.03zm-5.49.35l1.57-.17-1.57.17c-8.37 1.1-13.62 4.85-16.93 9 3.3-4.15 8.56-7.9 16.93-9zm3.69-.31h1.65zM476.42 604l-.06-1.53-.06-.92v-.68l-.06-.8-.06-.79c-.77-11-1.83-22.55-3.13-34.27 3.07 24.9-59 68.74-131.6 57.42q-2.88-.45-5.74-1c-45-8.78-75.79-17.26-97.83-22l2.91.64a172.78 172.78 0 0 0 103 142.93 145.88 145.88 0 0 1 19.89 10.61A147.76 147.76 0 0 0 476.43 604zm-259.06-8.17l-2-.18zm20.34 3.52q-2.88-.61-5.57-1.16 2.69.54 5.57 1.16zm-8.13-1.66l2.53.5zm129.23 157l-7.85 1.4 7.85-1.4 4.52-1zM217.38 595.84l2.08.24zm4.45.55l-2.1-.28zm7.47 1.26c-.81-.16-1.61-.3-2.4-.44.79.14 1.59.28 2.4.44zm-7.22-1.22z"/><path class="cls-7" d="M240.76 600c-16.21-3.62-27.88-5.45-36.93-4.27-21.23 2.78-22.47 22.65-22.47 22.65v1.28l.05.84.15 1.75A147.74 147.74 0 0 0 317 757.27l.5.05a145.49 145.49 0 0 0 41.32-2.65c1.64-.34 3.27-.7 4.89-1.1A146.51 146.51 0 0 0 343.79 743a172.76 172.76 0 0 1-103.02-143z"/><circle class="cls-5" cx="370.25" cy="681.64" r="22.71"/><circle class="cls-5" cx="370.25" cy="681.64" r="22.71"/><path d="M359.11 216.55v120.17m60.09-60.08H299m168.55-91v79.56m39.78-39.79H427.8" stroke="#ded9f3" stroke-miterlimit="10" stroke-width="10" fill="none"/><path class="cls-5" d="M221.83 596.39h.26zm-6.68-.76h.21zm-2.16-.14h.3zm6.47.59h.26zm-14.06-.49h.26zm21.34 1.59h.16zm-19.5-1.71h.29zm3.78-.05zm-24.82 10.26zm-4.82 13v-.26a27.12 27.12 0 0 1 4.39-12.1 27.12 27.12 0 0 0-4.39 12.1v1.12-.34zm56.32-19.32h.15zm-8.39-1.7h.24z"/><path class="cls-3" d="M240.76 600l-2.91-.64c.95.23 1.92.44 2.91.64zm-33.24-4.58h1.66zm-1.86.12c.51 0 1-.08 1.56-.1-.53.05-1.05.09-1.56.13zm-24.16 25l-.05-.85.05.85.15 1.75zm27.8-25.12h1.7c-.57-.01-1.14-.02-1.7-.01zm8.06.43l2.09.24zm30.26-216.11l-24.21 1.5zm-61.88 226.57l.45-.63zm41.15-9.1c.8.13 1.61.28 2.42.44-.82-.16-1.62-.3-2.42-.44zm-4.8-.78q2.25.33 4.65.75-2.4-.42-4.65-.75zm-6.72-.78l2 .19zm4.36.46c.69.08 1.4.18 2.11.28zm9.84 1.58q3.85.73 8.14 1.66-4.29-.93-8.14-1.66zm-18.36-2.27l1.79.07zm-7.37.34l1.57-.17-1.57.17c-8.37 1.1-13.62 4.85-16.93 9 3.3-4.14 8.56-7.89 16.93-9zm9.46-.25l1.86.12z"/><path class="cls-3" d="M193.16 398.1c-9.3 47.11-16.12 144.36-12 219.59v2.88l.14 1.73h.17l-.14-1.75-.05-.85v-1.27a27.12 27.12 0 0 1 4.39-12.1l.45-.63c.22-.31.46-.62.7-.92 3.3-4.15 8.56-7.9 16.93-9l1.57-.17h.26c.51-.05 1-.08 1.56-.1h3.98l1.79.07h.3l1.86.12h.21l2 .19 2.09.24h.26c.69.08 1.39.18 2.11.28h.25q2.25.33 4.65.75h.16l2.42.44.24.05q3.87.73 8.14 1.66h.15l2.92.64-.12-1.21-.17-2-.06-1v-.56l-.05-.92v-.86c-3.46-63.35-.29-140.07 5.81-198.61l1.54-15.08-51.83 3.21z"/><path class="cls-9" d="M656.72 456.2c-83.89 9.08-150.94 25.27-149.77 36.18l.45 1.21c6.06 9.79 72.91 10.83 153.59 2.11 63.25-6.85 116.93-17.74 139-27.36v-14.8c-22.64-5.06-78.51-4.35-143.28 2.66z"/><path class="cls-5" d="M491.54 603.38c-.05-.94-.11-1.88-.18-2.83v-.61l-.13-1.7c-5.59-80.48-26.76-187.41-43.64-230.9l-200 12.4-1.54 15.09c-6.11 58.54-9.27 135.25-5.81 198.6v.86l.05.93v.55l.06 1 .17 2c0 .41.08.81.12 1.22 21.82 4.87 51.89 13 94.92 21.4q2.88.55 5.73 1C414 633.75 476.08 589.9 473 565c1.3 11.72 2.36 23.22 3.13 34.27l.06.79.06.8v.68l.06.92.06 1.53a147.74 147.74 0 0 1-117.58 150.68 145.47 145.47 0 0 1-41.32 2.65l-.5-.05a147.74 147.74 0 0 1-135.34-135h-.17l-.15-1.73-.05-.89v-1.99c-4.11-75.23 2.7-172.48 12-219.59L195.8 383l27.62-1.71-42.42 2.58c-11.39 45.26-19.19 154-14.78 234.59l.08 1.64v.6c.06.95.12 1.9.17 2.84h.05a162.9 162.9 0 0 0 121.2 144.09 51.1 51.1 0 0 1 36.13 34.49h33.29a51.07 51.07 0 0 1 31.91-40.77 162.9 162.9 0 0 0 102.46-158zM380.35 515a10.1 10.1 0 1 1 10.1-10.1 10.1 10.1 0 0 1-10.1 10.1z"/><path d="M520.46 482.42q3.4 8.81 6.94 17.52c13.91 1.67 34.17 2.12 58.46 1.29-4.61-10.54-9.13-21.45-13.51-32.51-22.46 4.44-40.49 9.18-51.9 13.7z" fill="url(#d)"/><path class="cls-9" d="M473 565c-2.28-18.43-66.89 25.13-131.6 57.42C414 633.75 476.09 589.91 473 565z"/></svg>