<svg xmlns="http://www.w3.org/2000/svg" xmlns:xlink="http://www.w3.org/1999/xlink" viewBox="0 0 140.962 140.962"><defs><clipPath id="a"><polygon points="0 36.876 0 0 36.876 0 36.876 36.876 0 36.876" fill="none"/></clipPath><clipPath id="b"><rect width="36.876" height="36.876" fill="none"/></clipPath><pattern id="c" width="36.876" height="36.876" patternUnits="userSpaceOnUse" viewBox="0 0 36.876 36.876"><rect width="36.876" height="36.876" fill="none"/><rect width="36.876" height="36.876" fill="#ffe8d9"/><g clip-path="url(#b)"><rect x="-0.375" width="0.75" height="36.876" fill="#fce0c0"/><rect x="1.794" width="0.75" height="36.876" fill="#fce0c0"/><rect x="3.963" width="0.75" height="36.876" fill="#fce0c0"/><rect x="6.133" width="0.75" height="36.876" fill="#fce0c0"/><rect x="8.302" width="0.75" height="36.876" fill="#fce0c0"/><rect x="10.471" width="0.75" height="36.876" fill="#fce0c0"/><rect x="12.64" width="0.75" height="36.876" fill="#fce0c0"/><rect x="14.809" width="0.75" height="36.876" fill="#fce0c0"/><rect x="16.978" width="0.75" height="36.876" fill="#fce0c0"/><rect x="19.147" width="0.75" height="36.876" fill="#fce0c0"/><rect x="21.317" width="0.75" height="36.876" fill="#fce0c0"/><rect x="23.486" width="0.75" height="36.876" fill="#fce0c0"/><rect x="25.655" width="0.75" height="36.876" fill="#fce0c0"/><rect x="27.824" width="0.75" height="36.876" fill="#fce0c0"/><rect x="29.994" width="0.75" height="36.876" fill="#fce0c0"/><rect x="32.163" width="0.75" height="36.876" fill="#fce0c0"/><rect x="34.332" width="0.75" height="36.876" fill="#fce0c0"/><rect x="36.501" width="0.75" height="36.876" fill="#fce0c0"/></g></pattern><pattern id="d" width="22.236" height="24.718" patternTransform="translate(-131.24 102.852) scale(1.489)" patternUnits="userSpaceOnUse" viewBox="0 0 22.236 24.718"><rect width="22.236" height="24.718" fill="none"/><rect x="16.678" width="11.118" height="24.718" fill="#0066f5"/><polygon points="16.677 0.349 16.677 0.657 16.678 0.657 16.678 0.349 16.677 0.349" fill="#0029eb"/><polygon points="16.677 24.061 16.677 24.369 16.678 24.369 16.678 24.061 16.677 24.061" fill="#0029eb"/><path d="M27.8,22.2v.49h0a6.518,6.518,0,0,1-1.1,1.044,2.284,2.284,0,0,0,1.1.323v.308a2.674,2.674,0,0,1-1.39-.433,2.446,2.446,0,0,1-2.779,0,2.448,2.448,0,0,1-2.78,0,2.671,2.671,0,0,1-1.39.433H19.4a3.226,3.226,0,0,1-1.422-.387,2.621,2.621,0,0,1-1.3.386v-.308a2.211,2.211,0,0,0,.995-.266,3.58,3.58,0,0,1-.995-1.06V22.2a14.081,14.081,0,0,0,1.211-1.854c-.2-.385-.33-.657-.35-.7L16.678,18v-.667l1.215-2.32-1.215-2.319v-.667l1.215-2.319L16.678,7.387V6.72l.866-1.653c.019-.042.142-.311.345-.692a14.154,14.154,0,0,0-1.211-1.854V2.013a4.15,4.15,0,0,1,.754-.8c.118-.09.228-.164.338-.237A2.3,2.3,0,0,0,16.678.657V.349a2.69,2.69,0,0,1,1.4.439A2.729,2.729,0,0,1,19.47.349h0a2.756,2.756,0,0,1,1.4.416,2.446,2.446,0,0,1,2.754.017,2.446,2.446,0,0,1,2.779,0A2.683,2.683,0,0,1,27.8.349V.657a2.284,2.284,0,0,0-1.1.323,6.6,6.6,0,0,1,1.1,1.044h0v.491h0a13.989,13.989,0,0,0-1.212,1.861c.205.384.33.656.35.7L27.8,6.721h0v.666h0l-1.216,2.32,1.216,2.32h0v.667h0l-1.216,2.321,1.216,2.32h0V18h0l-.867,1.655c-.018.041-.142.31-.345.691A13.9,13.9,0,0,0,27.8,22.2Zm-1.39-6.86L25.19,17.665l.966,1.844c.005.011.1.206.249.5.153-.294.241-.486.245-.5l.97-1.852Zm-5.559-5.306-1.215,2.321,1.215,2.32,1.216-2.32Zm1.39,1.988,1.216-2.32-1.216-2.32-1.215,2.32Zm-1.215,2.986,1.215,2.32,1.215-2.321-1.215-2.32Zm2.605-.333,1.215-2.32-1.215-2.32-1.215,2.32Zm.174.332,1.215,2.321,1.216-2.32-1.215-2.321Zm1.216-2.985,1.215-2.32-1.215-2.32L23.8,9.706Zm.866-6.959c.019-.042.143-.311.346-.692a14.163,14.163,0,0,0-1.212-1.861,13.871,13.871,0,0,0-1.2,1.846c.2.394.323.673.342.717l.861,1.644ZM23.632,4.7c-.156.3-.247.5-.251.506L22.41,7.053l1.216,2.32,1.215-2.32-.966-1.844C23.87,5.2,23.783,5,23.632,4.7Zm-.175-.337a12.931,12.931,0,0,0-1.2-1.875,13.99,13.99,0,0,0-1.236,1.892c.2.384.33.656.349.7l.863,1.647L23.1,5.067C23.122,5.024,23.249,4.748,23.457,4.358Zm-2.611.348c-.152.294-.24.486-.244.495l-.971,1.852,1.215,2.32,1.216-2.32L21.1,5.209C21.091,5.2,21,5,20.846,4.706Zm-.177-.331a13.977,13.977,0,0,0-1.213-1.861,13.9,13.9,0,0,0-1.211,1.86c.2.385.33.657.349.7l.863,1.647.867-1.654C20.342,5.025,20.466,4.756,20.669,4.375ZM19.457,7.386l-1.216,2.32,1.215,2.32,1.216-2.32Zm0,5.305-1.215,2.32,1.216,2.321,1.215-2.32Zm0,5.306-.867,1.655c-.019.041-.143.31-.345.691A13.9,13.9,0,0,0,19.457,22.2a14.09,14.09,0,0,0,1.212-1.861c-.205-.384-.33-.656-.35-.7Zm1.389,2.015c.153-.294.241-.486.245-.5l.971-1.853-1.216-2.32-1.215,2.32.966,1.845C20.6,19.52,20.692,19.715,20.846,20.012Zm.178.331A14.025,14.025,0,0,0,22.236,22.2a13.885,13.885,0,0,0,1.212-1.86c-.2-.385-.33-.657-.349-.7L22.236,18l-.867,1.655C21.351,19.693,21.227,19.962,21.024,20.343Zm2.6-.331c.153-.294.241-.486.245-.5l.97-1.852-1.215-2.321-1.216,2.32.966,1.845C23.381,19.52,23.471,19.715,23.626,20.012Zm.178.331A13.9,13.9,0,0,0,25.016,22.2a13.968,13.968,0,0,0,1.211-1.86c-.2-.385-.329-.657-.349-.7L25.015,18l-.866,1.655C24.13,19.693,24.006,19.962,23.8,20.343Zm2.6-10.3-1.215,2.32,1.215,2.32,1.216-2.32Zm0-5.333c-.152.294-.241.486-.245.495l-.97,1.853,1.215,2.319,1.216-2.32-.966-1.844C26.65,5.2,26.56,5,26.405,4.706ZM25.219,2.268a13.485,13.485,0,0,1,1.186,1.783,13.485,13.485,0,0,1,1.186-1.783,6.069,6.069,0,0,0-1.186-1.113A6.128,6.128,0,0,0,25.219,2.268ZM23.914.98a6.6,6.6,0,0,1,1.1,1.044A6.521,6.521,0,0,1,26.118.98a2.041,2.041,0,0,0-2.2,0ZM22.467,2.235a12.55,12.55,0,0,1,1.17,1.8,13.448,13.448,0,0,1,1.175-1.762,6.1,6.1,0,0,0-1.186-1.113A6.046,6.046,0,0,0,22.467,2.235ZM21.164.963a6.163,6.163,0,0,1,1.1,1.03A6.437,6.437,0,0,1,23.338.98,2.036,2.036,0,0,0,21.164.963Zm-.3.176A6.054,6.054,0,0,0,19.66,2.267a13.556,13.556,0,0,1,1.186,1.784,13.545,13.545,0,0,1,1.21-1.814A5.777,5.777,0,0,0,20.868,1.139ZM18.359.982a6.6,6.6,0,0,1,1.1,1.042A6.538,6.538,0,0,1,20.575.968,2.394,2.394,0,0,0,19.456.657,2.352,2.352,0,0,0,18.359.982Zm-.292,3.069a13.289,13.289,0,0,1,1.186-1.783,6.069,6.069,0,0,0-1.19-1.115c-.14.087-.287.185-.444.3a3.9,3.9,0,0,0-.743.8A13.5,13.5,0,0,1,18.067,4.051Zm0,5.322,1.216-2.32-.967-1.844c0-.011-.095-.206-.249-.5-.153.294-.241.486-.245.495l-.97,1.852Zm0,5.306,1.215-2.32-1.215-2.32-1.215,2.32Zm0,5.333c.152-.294.241-.486.245-.5l.97-1.853-1.215-2.32-1.216,2.321.966,1.844C17.822,19.52,17.912,19.715,18.067,20.012Zm1.186,2.439a13.49,13.49,0,0,1-1.186-1.784,13.439,13.439,0,0,1-1.2,1.8,3.262,3.262,0,0,0,1.111,1.159A5.94,5.94,0,0,0,19.253,22.451Zm1.3,1.286a6.5,6.5,0,0,1-1.1-1.043,6.4,6.4,0,0,1-1.172,1.092,2.957,2.957,0,0,0,1.164.275A2.3,2.3,0,0,0,20.557,23.737Zm1.475-1.287a13.485,13.485,0,0,1-1.186-1.783,13.506,13.506,0,0,1-1.185,1.784,6.08,6.08,0,0,0,1.184,1.111A6.1,6.1,0,0,0,22.032,22.45Zm1.306,1.288a6.556,6.556,0,0,1-1.1-1.044,6.521,6.521,0,0,1-1.1,1.044,2.041,2.041,0,0,0,2.2,0Zm1.474-1.287a13.49,13.49,0,0,1-1.186-1.784,13.456,13.456,0,0,1-1.186,1.784,6.093,6.093,0,0,0,1.186,1.112A6.065,6.065,0,0,0,24.812,22.451Zm1.306,1.287a6.481,6.481,0,0,1-1.1-1.044,6.556,6.556,0,0,1-1.1,1.044,2.041,2.041,0,0,0,2.2,0Zm1.473-1.287a13.49,13.49,0,0,1-1.186-1.784,13.441,13.441,0,0,1-1.185,1.784,6.088,6.088,0,0,0,1.185,1.112A6.065,6.065,0,0,0,27.591,22.451Z" fill="#0029eb"/><rect x="5.56" width="11.118" height="24.718" fill="#0066f5"/><polygon points="5.559 0.349 5.559 0.657 5.56 0.657 5.56 0.349 5.559 0.349" fill="#0029eb"/><polygon points="5.559 24.061 5.559 24.369 5.56 24.369 5.56 24.061 5.559 24.061" fill="#0029eb"/><path d="M16.677,22.2v.49h0a6.518,6.518,0,0,1-1.1,1.044,2.284,2.284,0,0,0,1.1.323v.308a2.674,2.674,0,0,1-1.39-.433,2.671,2.671,0,0,1-1.39.433,2.67,2.67,0,0,1-1.389-.433,2.674,2.674,0,0,1-1.39.433,2.676,2.676,0,0,1-1.39-.433,2.671,2.671,0,0,1-1.39.433H8.286a3.226,3.226,0,0,1-1.422-.387,2.621,2.621,0,0,1-1.3.386v-.308a2.214,2.214,0,0,0,1-.266,3.58,3.58,0,0,1-1-1.06V22.2a14.184,14.184,0,0,0,1.211-1.854c-.205-.385-.33-.657-.35-.7L5.56,18v-.667l1.214-2.32L5.56,12.692v-.667L6.775,9.706,5.56,7.387V6.72l.866-1.653c.018-.042.142-.311.345-.692A14.154,14.154,0,0,0,5.56,2.521V2.013a4.148,4.148,0,0,1,.753-.8c.119-.09.229-.164.339-.237A2.3,2.3,0,0,0,5.56.657V.349a2.69,2.69,0,0,1,1.4.439A2.729,2.729,0,0,1,8.352.349h0a2.756,2.756,0,0,1,1.4.416A2.662,2.662,0,0,1,11.118.349a2.674,2.674,0,0,1,1.39.433A2.679,2.679,0,0,1,13.9.349a2.674,2.674,0,0,1,1.39.433,2.683,2.683,0,0,1,1.39-.433V.657a2.284,2.284,0,0,0-1.1.323,6.6,6.6,0,0,1,1.1,1.044h0v.491h0a13.889,13.889,0,0,0-1.212,1.861c.2.384.33.656.349.7l.863,1.647h0v.666h0l-1.216,2.32,1.216,2.32h0v.667h0l-1.216,2.321,1.216,2.32h0V18h0l-.867,1.655c-.019.041-.142.31-.345.691A13.9,13.9,0,0,0,16.677,22.2Zm-1.39-6.86-1.215,2.321.966,1.844c0,.011.095.206.249.5.153-.294.241-.486.245-.5l.97-1.852ZM9.728,10.038,8.513,12.359l1.215,2.32,1.216-2.32Zm1.39,1.988,1.215-2.32-1.215-2.32L9.9,9.706ZM9.9,15.012l1.216,2.32,1.215-2.321-1.215-2.32Zm2.606-.333,1.215-2.32-1.215-2.32-1.216,2.32Zm.174.332L13.9,17.332l1.216-2.32L13.9,12.691ZM13.9,12.026l1.216-2.32L13.9,7.386l-1.216,2.32Zm.867-6.959c.019-.042.143-.311.345-.692A13.96,13.96,0,0,0,13.9,2.514a13.955,13.955,0,0,0-1.2,1.846c.2.394.323.673.342.717L13.9,6.721ZM12.514,4.7c-.156.3-.247.5-.251.506l-.971,1.852,1.216,2.32,1.215-2.32-.966-1.844C12.752,5.2,12.665,5,12.514,4.7Zm-.175-.337a13.017,13.017,0,0,0-1.2-1.875A13.894,13.894,0,0,0,9.906,4.375c.2.384.33.656.349.7l.863,1.647.867-1.654C12,5.024,12.131,4.748,12.339,4.358Zm-2.611.348c-.152.294-.241.486-.245.495l-.97,1.852,1.215,2.32,1.216-2.32L9.978,5.209C9.973,5.2,9.883,5,9.728,4.706Zm-.177-.331A14.078,14.078,0,0,0,8.338,2.514a14.021,14.021,0,0,0-1.212,1.86c.205.385.33.657.35.7l.863,1.647.867-1.654C9.224,5.025,9.348,4.756,9.551,4.375ZM8.339,7.386,7.123,9.706l1.215,2.32,1.216-2.32Zm0,5.305-1.215,2.32,1.215,2.321,1.216-2.32Zm0,5.306-.866,1.655c-.019.041-.143.31-.346.691A14.1,14.1,0,0,0,8.338,22.2a14.006,14.006,0,0,0,1.213-1.861c-.205-.384-.33-.656-.35-.7Zm1.39,2.015c.153-.294.241-.486.245-.5l.971-1.853-1.216-2.32-1.215,2.32.966,1.845C9.484,19.52,9.574,19.715,9.728,20.012Zm.178.331A14.025,14.025,0,0,0,11.118,22.2a13.985,13.985,0,0,0,1.212-1.86c-.205-.385-.33-.657-.35-.7L11.118,18l-.867,1.655C10.232,19.693,10.109,19.962,9.906,20.343Zm2.6-.331c.152-.294.241-.486.245-.5l.97-1.852-1.215-2.321-1.216,2.32.966,1.845C12.263,19.52,12.353,19.715,12.508,20.012Zm.177.331A14.013,14.013,0,0,0,13.9,22.2a13.968,13.968,0,0,0,1.211-1.86c-.2-.385-.33-.657-.349-.7L13.9,18l-.866,1.655C13.012,19.693,12.888,19.962,12.685,20.343Zm2.6-10.3-1.215,2.32,1.215,2.32,1.215-2.32Zm0-5.333c-.153.294-.241.486-.245.495l-.97,1.853,1.215,2.319L16.5,7.053l-.966-1.844C15.532,5.2,15.442,5,15.287,4.706ZM14.1,2.268a13.485,13.485,0,0,1,1.186,1.783,13.386,13.386,0,0,1,1.186-1.783,6.069,6.069,0,0,0-1.186-1.113A6.1,6.1,0,0,0,14.1,2.268ZM12.8.98a6.521,6.521,0,0,1,1.1,1.044A6.6,6.6,0,0,1,15,.98,2.284,2.284,0,0,0,13.9.657,2.29,2.29,0,0,0,12.8.98ZM11.349,2.235a12.55,12.55,0,0,1,1.17,1.8,13.534,13.534,0,0,1,1.174-1.762,6.064,6.064,0,0,0-1.185-1.113A6.046,6.046,0,0,0,11.349,2.235ZM10.046.963a6.2,6.2,0,0,1,1.1,1.03A6.437,6.437,0,0,1,12.22.98a2.284,2.284,0,0,0-1.1-.323A2.278,2.278,0,0,0,10.046.963Zm-.3.176A6.027,6.027,0,0,0,8.542,2.267,13.556,13.556,0,0,1,9.728,4.051a13.434,13.434,0,0,1,1.209-1.814A5.747,5.747,0,0,0,9.75,1.139ZM7.24.982a6.563,6.563,0,0,1,1.1,1.042A6.538,6.538,0,0,1,9.457.968,2.394,2.394,0,0,0,8.338.657,2.357,2.357,0,0,0,7.24.982ZM6.949,4.051A13.371,13.371,0,0,1,8.134,2.268,6.037,6.037,0,0,0,6.945,1.153c-.14.087-.287.185-.444.3a3.9,3.9,0,0,0-.743.8A13.5,13.5,0,0,1,6.949,4.051Zm0,5.322,1.215-2.32L7.2,5.209c-.005-.011-.1-.206-.249-.5C6.8,5,6.708,5.192,6.7,5.2L5.733,7.053Zm0,5.306,1.215-2.32-1.215-2.32-1.216,2.32Zm0,5.333c.152-.294.241-.486.245-.5l.97-1.853-1.215-2.32L5.733,17.665,6.7,19.509C6.7,19.52,6.794,19.715,6.949,20.012Zm1.186,2.439a13.49,13.49,0,0,1-1.186-1.784,13.439,13.439,0,0,1-1.2,1.8,3.262,3.262,0,0,0,1.111,1.159A5.94,5.94,0,0,0,8.135,22.451Zm1.3,1.286a6.546,6.546,0,0,1-1.1-1.043,6.392,6.392,0,0,1-1.171,1.092,2.957,2.957,0,0,0,1.164.275A2.3,2.3,0,0,0,9.439,23.737Zm1.475-1.287a13.485,13.485,0,0,1-1.186-1.783,13.422,13.422,0,0,1-1.186,1.784,6.113,6.113,0,0,0,1.185,1.111A6.1,6.1,0,0,0,10.914,22.45Zm1.306,1.288a6.556,6.556,0,0,1-1.1-1.044,6.558,6.558,0,0,1-1.1,1.044,2.284,2.284,0,0,0,1.1.323A2.284,2.284,0,0,0,12.22,23.738Zm1.474-1.287a13.49,13.49,0,0,1-1.186-1.784,13.556,13.556,0,0,1-1.186,1.784,6.065,6.065,0,0,0,1.186,1.112A6.122,6.122,0,0,0,13.694,22.451ZM15,23.738a6.481,6.481,0,0,1-1.1-1.044,6.524,6.524,0,0,1-1.1,1.044,2.29,2.29,0,0,0,1.1.323A2.291,2.291,0,0,0,15,23.738Zm1.473-1.287a13.49,13.49,0,0,1-1.186-1.784A13.358,13.358,0,0,1,14.1,22.451a6.122,6.122,0,0,0,1.186,1.112A6.065,6.065,0,0,0,16.473,22.451Z" fill="#0029eb"/><rect x="-5.559" width="11.118" height="24.718" fill="#0066f5"/><path d="M5.559,22.2v.49h0a6.556,6.556,0,0,1-1.1,1.044,2.284,2.284,0,0,0,1.1.323v.308a2.674,2.674,0,0,1-1.39-.433,2.674,2.674,0,0,1-1.39.433,2.67,2.67,0,0,1-1.389-.433A2.674,2.674,0,0,1,0,24.369a2.674,2.674,0,0,1-1.39-.433,2.674,2.674,0,0,1-1.39.433h-.052a3.226,3.226,0,0,1-1.422-.387,2.624,2.624,0,0,1-1.305.386v-.308a2.215,2.215,0,0,0,1-.266,3.6,3.6,0,0,1-1-1.06V22.2a14.1,14.1,0,0,0,1.212-1.854c-.2-.385-.33-.657-.35-.7L-5.559,18v-.667l1.215-2.32-1.215-2.319v-.667l1.215-2.319L-5.559,7.387V6.72l.867-1.653c.018-.042.142-.311.345-.692A14.069,14.069,0,0,0-5.559,2.521V2.013a4.181,4.181,0,0,1,.754-.8c.119-.09.229-.164.339-.237A2.3,2.3,0,0,0-5.559.657V.349a2.691,2.691,0,0,1,1.4.439A2.729,2.729,0,0,1-2.766.349h0a2.757,2.757,0,0,1,1.4.416A2.659,2.659,0,0,1,0,.349,2.676,2.676,0,0,1,1.39.782,2.679,2.679,0,0,1,2.779.349a2.674,2.674,0,0,1,1.39.433A2.683,2.683,0,0,1,5.559.349V.657a2.284,2.284,0,0,0-1.1.323,6.6,6.6,0,0,1,1.1,1.044h0v.491h0A13.889,13.889,0,0,0,4.347,4.375c.2.384.33.656.349.7l.863,1.647h0v.666h0L4.343,9.706l1.216,2.32h0v.667h0L4.343,15.012l1.216,2.32h0V18h0l-.867,1.655c-.019.041-.143.31-.345.691A13.9,13.9,0,0,0,5.559,22.2Zm-1.39-6.86L2.953,17.665l.966,1.844c0,.011.1.206.25.5.153-.294.241-.486.245-.5l.97-1.852ZM-1.39,10.038-2.6,12.359l1.215,2.32,1.216-2.32ZM0,12.026l1.215-2.32L0,7.386l-1.216,2.32Zm-1.216,2.986L0,17.332l1.215-2.321L0,12.691Zm2.606-.333,1.215-2.32L1.39,10.039.174,12.359Zm.174.332,1.215,2.321L4,15.012,2.779,12.691Zm1.215-2.985L4,9.706,2.779,7.386,1.564,9.706Zm.867-6.959c.019-.042.143-.311.345-.692A13.96,13.96,0,0,0,2.779,2.514a13.955,13.955,0,0,0-1.2,1.846c.2.394.323.673.342.717l.861,1.644ZM1.4,4.7c-.157.3-.247.5-.251.506L.174,7.053,1.39,9.373l1.215-2.32L1.639,5.209C1.634,5.2,1.547,5,1.4,4.7Zm-.175-.337a13.017,13.017,0,0,0-1.2-1.875A13.894,13.894,0,0,0-1.212,4.375c.2.384.33.656.349.7L0,6.721.867,5.067C.886,5.024,1.013,4.748,1.221,4.358Zm-2.611.348c-.152.294-.241.486-.245.495L-2.6,7.053l1.215,2.32,1.216-2.32-.967-1.844C-1.145,5.2-1.235,5-1.39,4.706Zm-.178-.331A13.96,13.96,0,0,0-2.78,2.514a14.021,14.021,0,0,0-1.212,1.86c.205.385.33.657.35.7l.863,1.647.866-1.654C-1.894,5.025-1.77,4.756-1.568,4.375ZM-2.779,7.386l-1.216,2.32,1.215,2.32,1.216-2.32Zm0,5.305-1.215,2.32,1.215,2.321,1.216-2.32Zm0,5.306-.866,1.655c-.019.041-.143.31-.346.691A14,14,0,0,0-2.78,22.2a13.889,13.889,0,0,0,1.212-1.861c-.2-.384-.329-.656-.349-.7Zm1.39,2.015c.153-.294.241-.486.245-.5l.97-1.853-1.215-2.32L-2.6,17.664l.966,1.845C-1.634,19.52-1.544,19.715-1.39,20.012Zm.178.331A14.025,14.025,0,0,0,0,22.2a13.985,13.985,0,0,0,1.212-1.86c-.205-.385-.33-.657-.35-.7L0,18l-.867,1.655C-.886,19.693-1.01,19.962-1.212,20.343Zm2.6-.331c.152-.294.241-.486.245-.5l.97-1.852L1.39,15.344.174,17.664l.966,1.845C1.145,19.52,1.235,19.715,1.39,20.012Zm.177.331A14,14,0,0,0,2.779,22.2a13.885,13.885,0,0,0,1.212-1.86c-.2-.385-.33-.657-.349-.7L2.779,18l-.866,1.655C1.894,19.693,1.77,19.962,1.567,20.343Zm2.6-10.3-1.215,2.32,1.215,2.32,1.215-2.32Zm0-5.333c-.153.294-.241.486-.245.495L2.953,7.054,4.169,9.373l1.216-2.32L4.418,5.209C4.414,5.2,4.324,5,4.169,4.706ZM2.983,2.268A13.485,13.485,0,0,1,4.169,4.051,13.386,13.386,0,0,1,5.355,2.268,6.069,6.069,0,0,0,4.169,1.155,6.071,6.071,0,0,0,2.983,2.268ZM1.677.98a6.521,6.521,0,0,1,1.1,1.044A6.6,6.6,0,0,1,3.881.98a2.284,2.284,0,0,0-1.1-.323A2.287,2.287,0,0,0,1.677.98ZM.231,2.235A12.55,12.55,0,0,1,1.4,4.03,13.534,13.534,0,0,1,2.575,2.268,6.064,6.064,0,0,0,1.39,1.155,6.046,6.046,0,0,0,.231,2.235ZM-1.072.963a6.2,6.2,0,0,1,1.1,1.03A6.437,6.437,0,0,1,1.1.98,2.284,2.284,0,0,0,0,.657,2.278,2.278,0,0,0-1.072.963Zm-.3.176A6.027,6.027,0,0,0-2.576,2.267,13.556,13.556,0,0,1-1.39,4.051,13.434,13.434,0,0,1-.181,2.237,5.773,5.773,0,0,0-1.368,1.139ZM-3.878.982a6.563,6.563,0,0,1,1.1,1.042A6.538,6.538,0,0,1-1.661.968,2.394,2.394,0,0,0-2.78.657,2.354,2.354,0,0,0-3.878.982Zm-.291,3.069A13.371,13.371,0,0,1-2.984,2.268,6.037,6.037,0,0,0-4.173,1.153c-.14.087-.287.185-.444.3a3.925,3.925,0,0,0-.744.8A13.415,13.415,0,0,1-4.169,4.051Zm0,5.322,1.215-2.32L-3.92,5.209c0-.011-.095-.206-.249-.5-.153.294-.241.486-.246.495l-.97,1.852Zm0,5.306,1.215-2.32-1.215-2.32-1.216,2.32Zm0,5.333c.152-.294.241-.486.245-.5l.97-1.853-1.215-2.32-1.216,2.321.966,1.844C-4.414,19.52-4.324,19.715-4.169,20.012Zm1.185,2.439a13.575,13.575,0,0,1-1.185-1.784,13.439,13.439,0,0,1-1.2,1.8,3.262,3.262,0,0,0,1.111,1.159A5.912,5.912,0,0,0-2.984,22.451Zm1.305,1.286a6.546,6.546,0,0,1-1.1-1.043,6.392,6.392,0,0,1-1.171,1.092,2.957,2.957,0,0,0,1.164.275A2.3,2.3,0,0,0-1.679,23.737ZM-.2,22.45A13.485,13.485,0,0,1-1.39,20.667a13.422,13.422,0,0,1-1.186,1.784,6.113,6.113,0,0,0,1.185,1.111A6.1,6.1,0,0,0-.2,22.45ZM1.1,23.738A6.518,6.518,0,0,1,0,22.694a6.558,6.558,0,0,1-1.1,1.044,2.284,2.284,0,0,0,1.1.323A2.284,2.284,0,0,0,1.1,23.738Zm1.473-1.287A13.575,13.575,0,0,1,1.39,20.667,13.556,13.556,0,0,1,.2,22.451,6.065,6.065,0,0,0,1.39,23.563,6.088,6.088,0,0,0,2.575,22.451Zm1.306,1.287a6.556,6.556,0,0,1-1.1-1.044,6.481,6.481,0,0,1-1.1,1.044,2.287,2.287,0,0,0,1.1.323A2.284,2.284,0,0,0,3.881,23.738Zm1.474-1.287a13.49,13.49,0,0,1-1.186-1.784,13.456,13.456,0,0,1-1.186,1.784,6.093,6.093,0,0,0,1.186,1.112A6.065,6.065,0,0,0,5.355,22.451Z" fill="#0029eb"/></pattern><pattern id="f" width="36.876" height="36.876" patternTransform="translate(-37.34 23.836) scale(1.407)" patternUnits="userSpaceOnUse" viewBox="0 0 36.876 36.876"><rect width="36.876" height="36.876" fill="none"/><polygon points="0 36.876 0 0 36.876 0 36.876 36.876 0 36.876" fill="#ecfbec"/><g clip-path="url(#a)"><rect y="-0.375" width="36.876" height="0.75" fill="#cdf2ca"/><rect y="1.794" width="36.876" height="0.75" fill="#cdf2ca"/><rect y="3.963" width="36.876" height="0.75" fill="#cdf2ca"/><rect y="6.133" width="36.876" height="0.75" fill="#cdf2ca"/><rect y="8.302" width="36.876" height="0.75" fill="#cdf2ca"/><rect y="10.471" width="36.876" height="0.75" fill="#cdf2ca"/><rect y="12.64" width="36.876" height="0.75" fill="#cdf2ca"/><rect y="14.809" width="36.876" height="0.75" fill="#cdf2ca"/><rect y="16.978" width="36.876" height="0.75" fill="#cdf2ca"/><rect y="19.148" width="36.876" height="0.75" fill="#cdf2ca"/><rect y="21.317" width="36.876" height="0.75" fill="#cdf2ca"/><rect y="23.486" width="36.876" height="0.75" fill="#cdf2ca"/><rect y="25.655" width="36.876" height="0.75" fill="#cdf2ca"/><rect y="27.825" width="36.876" height="0.75" fill="#cdf2ca"/><rect y="29.994" width="36.876" height="0.75" fill="#cdf2ca"/><rect y="32.163" width="36.876" height="0.75" fill="#cdf2ca"/><rect y="34.332" width="36.876" height="0.75" fill="#cdf2ca"/><rect y="36.501" width="36.876" height="0.75" fill="#cdf2ca"/></g></pattern></defs><title>Save As You Earn</title><polygon points="50.84 36.188 16.384 50.473 39.724 107.5 74.18 93.215 50.84 36.188" fill="url(#c)"/><polygon points="95.29 14.554 58.006 13.484 55.959 75.069 93.243 76.139 95.29 14.554" fill="url(#d)"/><polygon points="139.095 73.509 107.765 53.268 74.093 104.873 105.423 125.113 139.095 73.509" fill="url(#c)"/><circle cx="75.624" cy="44.811" r="12.834" fill="none" stroke="#fff" stroke-miterlimit="10" stroke-width="2.5"/><circle cx="106.594" cy="89.191" r="12.834" fill="none" stroke="#fff" stroke-miterlimit="10" stroke-width="2.5"/><polygon points="30.711 56.001 1.866 79.648 40.715 127.477 69.56 103.829 30.711 56.001" fill="url(#f)"/><circle cx="35.107" cy="91.739" r="12.834" fill="none" stroke="#fff" stroke-miterlimit="10" stroke-width="2.5"/></svg>