<svg data-name="Layer 1" xmlns="http://www.w3.org/2000/svg" viewBox="0 0 548.55 548.55"><defs><clipPath id="a"><path fill="none" d="M281.1 350.4L189 175.2h143.6v175.2h-51.5z"/></clipPath><clipPath id="b"><path fill="none" d="M281.1 350.4H73l90.9-90.2v-85H189l92.1 175.2z"/></clipPath><clipPath id="c"><path fill="none" d="M0 350.4V175.2h163.9v85L73 350.4H0z"/></clipPath><clipPath id="d"><path fill="none" d="M51.6 0l92 175.2H0V0h51.6z"/></clipPath><clipPath id="e"><path fill="none" d="M51.6 0h208l-90.8 89.9v85.3h-25.2L51.6 0z"/></clipPath><clipPath id="f"><path fill="none" d="M332.6 0v175.2H168.8V89.9L259.6 0h73z"/></clipPath><pattern id="g" data-name="SVGID 13" width="332.7" height="350.4" patternTransform="matrix(.55 0 0 .55 -3274.9 13821.96)" patternUnits="userSpaceOnUse"><path fill="none" d="M0 0h332.7v350.4H0z"/><path fill="none" d="M0 0h332.7v350.4H0z"/><path fill="none" d="M0 0h332.7v350.4H0z"/><path fill="#e1f6ff" d="M0 0h332.7v350.4H0z"/><g clip-path="url(#a)" fill="#bce5f7"><path d="M247.7 445.9l-.7-.7 217.8-217.9.7.7-217.8 217.9zM246.2 444.4l-.7-.7 217.8-217.9.7.7-217.8 217.9zM244.6 442.9l-.7-.7 217.9-217.9.7.7-217.9 217.9zM243.1 441.4l-.7-.7 217.9-217.9.7.7-217.9 217.9zM241.6 439.8l-.7-.7 217.9-217.8.7.7-217.9 217.8zM240.1 438.3l-.7-.7 217.9-217.8.7.7-217.9 217.8zM238.6 436.8l-.7-.7 217.9-217.8.7.7-217.9 217.8zM237.1 435.3l-.7-.7 217.9-217.9.7.8-217.9 217.8zM235.6 433.8l-.7-.7 217.9-217.9.7.7-217.9 217.9zM234.1 432.3l-.7-.7 217.8-217.9.7.7-217.8 217.9zM232.6 430.8l-.7-.7 217.8-217.9.7.7-217.8 217.9zM231.1 429.3l-.7-.7 217.8-217.9.7.7-217.8 217.9zM229.6 427.8l-.7-.7 217.8-217.9.7.7-217.8 217.9zM228 426.3l-.7-.7 217.9-217.9.7.7L228 426.3zM226.5 424.7l-.7-.7 217.9-217.8.7.7-217.9 217.8zM225 423.2l-.7-.7 217.9-217.8.7.7L225 423.2zM223.5 421.7l-.7-.7 217.9-217.8.7.7-217.9 217.8zM222 420.2l-.7-.7 217.9-217.9.7.8L222 420.2zM220.5 418.7l-.7-.7 217.9-217.9.7.7-217.9 217.9zM219 417.2l-.7-.7 217.8-217.9.8.7L219 417.2zM217.5 415.7l-.7-.7 217.8-217.9.7.7-217.8 217.9zM216 414.2l-.7-.7 217.8-217.9.7.7L216 414.2zM214.5 412.7l-.8-.7 217.9-217.9.7.7-217.8 217.9zM212.9 411.2l-.7-.7 217.9-217.9.7.7-217.9 217.9zM211.4 409.7l-.7-.7 217.9-217.9.7.7-217.9 217.9zM209.9 408.1l-.7-.7 217.9-217.8.7.7-217.9 217.8zM208.4 406.6l-.7-.7 217.9-217.8.7.7-217.9 217.8zM206.9 405.1l-.7-.7 217.9-217.8.7.7-217.9 217.8zM205.4 403.6l-.7-.7L422.6 185l.7.7-217.9 217.9zM203.9 402.1l-.7-.7 217.9-217.9.7.7-217.9 217.9zM202.4 400.6l-.7-.7L419.5 182l.7.7-217.8 217.9zM200.9 399.1l-.7-.7L418 180.5l.7.7-217.8 217.9zM199.3 397.6l-.7-.7L416.5 179l.7.7-217.9 217.9zM197.8 396.1l-.7-.7L415 177.5l.7.7-217.9 217.9zM196.3 394.6l-.7-.7L413.5 176l.7.7-217.9 217.9zM194.8 393l-.7-.7L412 174.5l.7.7L194.8 393zM193.3 391.5l-.7-.7L410.5 173l.7.7-217.9 217.8zM191.8 390l-.7-.7L409 171.5l.7.7L191.8 390zM190.3 388.5l-.7-.7 217.9-217.9.7.7-217.9 217.9zM188.8 387l-.7-.7 217.8-217.9.7.7L188.8 387zM187.3 385.5l-.7-.7 217.8-217.9.7.7-217.8 217.9zM185.8 384l-.7-.7 217.8-217.9.7.7L185.8 384zM184.3 382.5l-.7-.7 217.8-217.9.7.7-217.8 217.9zM182.7 381l-.7-.7 217.9-217.9.7.7L182.7 381zM181.2 379.5l-.7-.8 217.9-217.8.7.7-217.9 217.9zM179.7 377.9l-.7-.7 217.9-217.8.7.7-217.9 217.8zM178.2 376.4l-.7-.7 217.9-217.8.7.7-217.9 217.8zM176.7 374.9l-.7-.7 217.9-217.8.7.7-217.9 217.8zM175.2 373.4l-.7-.7 217.9-217.9.7.8-217.9 217.8zM173.7 371.9l-.7-.7 217.9-217.9.7.7-217.9 217.9zM172.2 370.4l-.7-.7 217.8-217.9.8.7-217.9 217.9zM170.7 368.9l-.7-.7 217.8-217.9.7.7-217.8 217.9zM169.2 367.4l-.7-.7 217.8-217.9.7.7-217.8 217.9zM167.6 365.9l-.7-.7 217.9-217.9.7.7-217.9 217.9zM166.1 364.4l-.7-.7 217.9-217.9.7.7-217.9 217.9zM164.6 362.9l-.7-.8 217.9-217.8.7.7-217.9 217.9zM163.1 361.3l-.7-.7 217.9-217.8.7.7-217.9 217.8zM161.6 359.8l-.7-.7 217.9-217.8.7.7-217.9 217.8zM160.1 358.3l-.7-.7 217.9-217.9.7.8-217.9 217.8zM158.6 356.8l-.7-.7 217.9-217.9.7.7-217.9 217.9zM157.1 355.3l-.7-.7 217.8-217.9.7.7-217.8 217.9zM155.6 353.8l-.7-.7 217.8-217.9.7.7-217.8 217.9zM154.1 352.3l-.8-.7 217.9-217.9.7.7-217.8 217.9zM152.6 350.8l-.8-.7 217.9-217.9.7.7-217.8 217.9zM151 349.3l-.7-.7 217.9-217.9.7.7L151 349.3zM149.5 347.7l-.7-.7 217.9-217.8.7.7-217.9 217.8zM148 346.2l-.7-.7 217.9-217.8.7.7L148 346.2zM146.5 344.7l-.7-.7 217.9-217.9.7.8-217.9 217.8zM145 343.2l-.7-.7 217.9-217.9.7.8L145 343.2zM143.5 341.7l-.7-.7 217.8-217.9.8.7-217.9 217.9zM142 340.2l-.7-.7 217.8-217.9.8.7L142 340.2zM140.5 338.7l-.7-.7 217.8-217.9.7.7-217.8 217.9zM139 337.2l-.8-.7 217.9-217.9.7.7L139 337.2zM137.5 335.7l-.8-.7 217.9-217.9.7.7-217.8 217.9zM135.9 334.2l-.7-.7 217.9-217.9.7.7-217.9 217.9zM134.4 332.7l-.7-.8 217.9-217.8.7.7-217.9 217.9zM132.9 331.1l-.7-.7 217.9-217.8.7.7-217.9 217.8zM131.4 329.6l-.7-.7 217.9-217.8.7.7-217.9 217.8zM129.9 328.1l-.7-.7 217.9-217.8.7.7-217.9 217.8zM128.4 326.6l-.7-.7L345.6 108l.7.7-217.9 217.9zM126.9 325.1l-.7-.7L344 106.5l.8.7-217.9 217.9zM125.4 323.6l-.7-.7L342.5 105l.7.7-217.8 217.9zM123.9 322.1l-.7-.7L341 103.5l.7.7-217.8 217.9zM122.3 320.6l-.6-.7L339.5 102l.7.7-217.9 217.9zM120.8 319.1l-.7-.7L338 100.5l.7.7-217.9 217.9zM119.3 317.6l-.7-.7L336.5 99l.7.7-217.9 217.9zM117.8 316l-.7-.7L335 97.5l.7.7L117.8 316zM116.3 314.5l-.7-.7L333.5 96l.7.7-217.9 217.8zM114.8 313l-.7-.7L332 94.5l.7.6L114.8 313zM113.3 311.5l-.7-.7L330.5 92.9l.7.7-217.9 217.9zM111.8 310l-.7-.7L328.9 91.4l.7.7L111.8 310zM110.3 308.5l-.7-.7L327.4 89.9l.7.7-217.8 217.9zM108.8 307l-.7-.7L325.9 88.4l.7.7L108.8 307zM107.2 305.5l-.7-.7L324.4 86.9l.7.7-217.9 217.9zM105.7 304l-.7-.7L322.9 85.4l.7.7L105.7 304zM104.2 302.5l-.7-.8L321.4 83.9l.7.7-217.9 217.9zM102.7 300.9l-.7-.7L319.9 82.4l.7.7-217.9 217.8zM101.2 299.4l-.7-.7L318.4 80.9l.7.7-217.9 217.8zM99.7 297.9l-.7-.7L316.9 79.4l.7.7L99.7 297.9zM98.2 296.4l-.7-.7L315.4 77.8l.7.8L98.2 296.4zM96.7 294.9l-.7-.7L313.9 76.3l.7.7L96.7 294.9zM95.2 293.4l-.7-.7L312.3 74.8l.7.7L95.2 293.4zM93.7 291.9l-.7-.7L310.8 73.3l.7.7L93.7 291.9zM92.2 290.4l-.7-.7L309.3 71.8l.7.7L92.2 290.4zM90.7 288.9l-.8-.7L307.8 70.3l.7.7L90.7 288.9zM89.1 287.4l-.7-.7L306.3 68.8l.7.7L89.1 287.4zM87.6 285.9l-.7-.8L304.8 67.3l.7.7L87.6 285.9zM86.1 284.3l-.7-.7L303.3 65.8l.7.7L86.1 284.3zM84.6 282.8l-.7-.7L301.8 64.3l.7.7L84.6 282.8zM83.1 281.3l-.7-.7L300.3 62.7l.7.8L83.1 281.3zM81.6 279.8l-.7-.7L298.8 61.2l.6.7L81.6 279.8zM80.1 278.3l-.7-.7L297.2 59.7l.7.7L80.1 278.3zM78.6 276.8l-.7-.7L295.7 58.2l.7.7L78.6 276.8zM77.1 275.3l-.8-.7L294.2 56.7l.7.7L77.1 275.3z"/></g><g clip-path="url(#b)" fill="#bce5f7"><path d="M47.5 371.7h308.1v1H47.5zM47.5 369.6h308.1v1H47.5zM47.5 367.5h308.1v1H47.5zM47.5 365.3h308.1v1H47.5zM47.5 363.2h308.1v1H47.5zM47.5 361.1h308.1v1H47.5zM47.5 358.9h308.1v1H47.5zM47.5 356.8h308.1v1H47.5zM47.5 354.7h308.1v1H47.5zM47.5 352.5h308.1v1H47.5zM47.5 350.4h308.1v1H47.5zM47.5 348.3h308.1v1H47.5zM47.5 346.1h308.1v1H47.5zM47.5 344h308.1v1H47.5zM47.5 341.9h308.1v1H47.5zM47.5 339.7h308.1v1H47.5zM47.5 337.6h308.1v1H47.5zM47.5 335.5h308.1v1H47.5zM47.5 333.3h308.1v1H47.5zM47.5 331.2h308.1v1H47.5zM47.5 329h308.1v1H47.5zM47.5 326.9h308.1v1H47.5zM47.5 324.8h308.1v1H47.5zM47.5 322.6h308.1v1H47.5zM47.5 320.5h308.1v1H47.5zM47.5 318.4h308.1v1H47.5zM47.5 316.2h308.1v1H47.5zM47.5 314.1h308.1v1H47.5zM47.5 312h308.1v1H47.5zM47.5 309.8h308.1v1H47.5zM47.5 307.7h308.1v1H47.5zM47.5 305.6h308.1v1H47.5zM47.5 303.4h308.1v1H47.5zM47.5 301.3h308.1v1H47.5zM47.5 299.2h308.1v1H47.5zM47.5 297h308.1v1H47.5zM47.5 294.9h308.1v1H47.5zM47.5 292.7h308.1v1H47.5zM47.5 290.6h308.1v1H47.5zM47.5 288.5h308.1v1H47.5zM47.5 286.3h308.1v1H47.5zM47.5 284.2h308.1v1H47.5zM47.5 282.1h308.1v1H47.5zM47.5 279.9h308.1v1H47.5zM47.5 277.8h308.1v1H47.5zM47.5 275.7h308.1v1H47.5zM47.5 273.5h308.1v1H47.5zM47.5 271.4h308.1v1H47.5zM47.5 269.3h308.1v1H47.5zM47.5 267.1h308.1v1H47.5zM47.5 265h308.1v1H47.5zM47.5 262.9h308.1v1H47.5zM47.5 260.7h308.1v1H47.5zM47.5 258.6h308.1v1H47.5zM47.5 256.4h308.1v1H47.5zM47.5 254.3h308.1v1H47.5zM47.5 252.2h308.1v1H47.5zM47.5 250h308.1v1H47.5zM47.5 247.9h308.1v1H47.5zM47.5 245.8h308.1v1H47.5zM47.5 243.6h308.1v1H47.5zM47.5 241.5h308.1v1H47.5zM47.5 239.4h308.1v1H47.5zM47.5 237.2h308.1v1H47.5zM47.5 235.1h308.1v1H47.5zM47.5 233h308.1v1H47.5zM47.5 230.8h308.1v1H47.5zM47.5 228.7h308.1v1H47.5zM47.5 226.6h308.1v1H47.5zM47.5 224.4h308.1v1H47.5zM47.5 222.3h308.1v1H47.5zM47.5 220.1h308.1v1H47.5zM47.5 218h308.1v1H47.5zM47.5 215.9h308.1v1H47.5zM47.5 213.7h308.1v1H47.5zM47.5 211.6h308.1v1H47.5zM47.5 209.5h308.1v1H47.5zM47.5 207.3h308.1v1H47.5zM47.5 205.2h308.1v1H47.5zM47.5 203.1h308.1v1H47.5zM47.5 200.9h308.1v1H47.5zM47.5 198.8h308.1v1H47.5zM47.5 196.7h308.1v1H47.5zM47.5 194.5h308.1v1H47.5zM47.5 192.4h308.1v1H47.5zM47.5 190.3h308.1v1H47.5zM47.5 188.1h308.1v1H47.5zM47.5 186h308.1v1H47.5zM47.5 183.8h308.1v1H47.5zM47.5 181.7h308.1v1H47.5zM47.5 179.6h308.1v1H47.5zM47.5 177.4h308.1v1H47.5zM47.5 175.3h308.1v1H47.5zM47.5 173.2h308.1v1H47.5zM47.5 171h308.1v1H47.5zM47.5 168.9h308.1v1H47.5zM47.5 166.8h308.1v1H47.5zM47.5 164.6h308.1v1H47.5zM47.5 162.5h308.1v1H47.5zM47.5 160.4h308.1v1H47.5zM47.5 158.2h308.1v1H47.5zM47.5 156.1h308.1v1H47.5zM47.5 154h308.1v1H47.5zM47.5 151.8h308.1v1H47.5zM47.5 149.7h308.1v1H47.5zM47.5 147.5h308.1v1H47.5zM47.5 145.4h308.1v1H47.5zM47.5 143.3h308.1v1H47.5zM47.5 141.1h308.1v1H47.5zM47.5 139h308.1v1H47.5zM47.5 136.9h308.1v1H47.5zM47.5 134.7h308.1v1H47.5zM47.5 132.6h308.1v1H47.5zM47.5 130.5h308.1v1H47.5z"/></g><g clip-path="url(#c)" fill="#bce5f7"><path d="M195.1 92h1v308.1h-1zM193 92h1v308.1h-1zM190.8 92h1v308.1h-1zM188.7 92h1v308.1h-1zM186.6 92h1v308.1h-1zM184.4 92h1v308.1h-1zM182.3 92h1v308.1h-1zM180.1 92h1v308.1h-1zM178 92h1v308.1h-1zM175.9 92h1v308.1h-1zM173.7 92h1v308.1h-1zM171.6 92h1v308.1h-1zM169.5 92h1v308.1h-1zM167.3 92h1v308.1h-1zM165.2 92h1v308.1h-1zM163.1 92h1v308.1h-1zM160.9 92h1v308.1h-1zM158.8 92h1v308.1h-1zM156.6 92h1v308.1h-1zM154.5 92h1v308.1h-1zM152.4 92h1v308.1h-1zM150.2 92h1v308.1h-1zM148.1 92h1v308.1h-1zM146 92h1v308.1h-1zM143.8 92h1v308.1h-1zM141.7 92h1v308.1h-1zM139.6 92h1v308.1h-1zM137.4 92h1v308.1h-1zM135.3 92h1v308.1h-1zM133.2 92h1v308.1h-1zM131 92h1v308.1h-1zM128.9 92h1v308.1h-1zM126.8 92h1v308.1h-1zM124.6 92h1v308.1h-1zM122.5 92h1v308.1h-1zM120.4 92h1v308.1h-1zM118.2 92h1v308.1h-1zM116.1 92h1v308.1h-1zM114 92h1v308.1h-1zM111.8 92h1v308.1h-1zM109.7 92h1v308.1h-1zM107.5 92h1v308.1h-1zM105.4 92h1v308.1h-1zM103.3 92h1v308.1h-1zM101.1 92h1v308.1h-1zM99 92h1v308.1h-1zM96.9 92h1v308.1h-1zM94.7 92h1v308.1h-1zM92.6 92h1v308.1h-1zM90.5 92h1v308.1h-1zM88.3 92h1v308.1h-1zM86.2 92h1v308.1h-1zM84.1 92h1v308.1h-1zM81.9 92h1v308.1h-1zM79.8 92h1v308.1h-1zM77.7 92h1v308.1h-1zM75.5 92h1v308.1h-1zM73.4 92h1v308.1h-1zM71.2 92h1v308.1h-1zM69.1 92h1v308.1h-1zM67 92h1v308.1h-1zM64.8 92h1v308.1h-1zM62.7 92h1v308.1h-1zM60.6 92h1v308.1h-1zM58.4 92h1v308.1h-1zM56.3 92h1v308.1h-1zM54.2 92h1v308.1h-1zM52 92h1v308.1h-1zM49.9 92h1v308.1h-1zM47.8 92h1v308.1h-1zM45.6 92h1v308.1h-1zM43.5 92h1v308.1h-1zM41.3 92h1v308.1h-1zM39.2 92h1v308.1h-1zM37.1 92h1v308.1h-1zM35 92h1v308.1h-1zM32.8 92h1v308.1h-1zM30.7 92h1v308.1h-1zM28.5 92h1v308.1h-1zM26.4 92h1v308.1h-1zM24.3 92h1v308.1h-1zM22.1 92h1v308.1h-1zM20 92h1v308.1h-1zM17.9 92h1v308.1h-1zM15.7 92h1v308.1h-1zM13.6 92h1v308.1h-1zM11.5 92h1v308.1h-1zM9.3 92h1v308.1h-1zM7.2 92h1v308.1h-1zM5 92h1v308.1H5zM2.9 92h1v308.1h-1zM.8 92h1v308.1h-1zM-1.3 92h1v308.1h-1zM-3.5 92h1v308.1h-1zM-5.6 92h1v308.1h-1zM-7.8 92h1v308.1h-1zM-9.9 92h1v308.1h-1zM-12 92h1v308.1h-1zM-14.2 92h1v308.1h-1zM-16.3 92h1v308.1h-1zM-18.4 92h1v308.1h-1zM-20.6 92h1v308.1h-1zM-22.7 92h1v308.1h-1zM-24.8 92h1v308.1h-1zM-27 92h1v308.1h-1zM-29.1 92h1v308.1h-1zM-31.2 92h1v308.1h-1zM-33.4 92h1v308.1h-1zM-35.5 92h1v308.1h-1zM-37.7 92h1v308.1h-1zM-39.8 92h1v308.1h-1zM-41.9 92h1v308.1h-1zM-44.1 92h1v308.1h-1zM-46.2 92h1v308.1h-1z"/></g><g clip-path="url(#d)" fill="#bce5f7"><path d="M-132.2 123.1l-.7-.7L85-95.5l.7.7-217.9 217.9zM-130.7 124.6l-.7-.7L86.5-94l.7.7-217.9 217.9zM-129.2 126.1l-.7-.7L88-92.5l.7.7-217.9 217.9zM-127.7 127.6l-.7-.7L89.5-91l.7.7-217.9 217.9zM-126.1 129.1l-.8-.7L91-89.5l.7.8-217.8 217.8zM-124.6 130.6l-.7-.7L92.5-87.9l.7.7-217.8 217.8zM-123.1 132.1l-.7-.7L94-86.4l.7.7-217.8 217.8zM-121.6 133.6l-.7-.7L95.5-84.9l.7.7-217.8 217.8zM-120.1 135.1l-.7-.6L97-83.4l.7.7-217.8 217.8zM-118.6 136.7l-.7-.7L98.6-81.9l.7.7-217.9 217.9zM-117.1 138.2l-.7-.7L100.1-80.4l.7.7-217.9 217.9zM-115.6 139.7l-.7-.7L101.6-78.9l.7.7-217.9 217.9zM-114.1 141.2l-.7-.7L103.1-77.4l.7.7-217.9 217.9zM-112.6 142.7l-.7-.7L104.6-75.9l.7.7-217.9 217.9zM-111.1 144.2l-.7-.7L106.1-74.4l.7.7-217.9 217.9zM-109.5 145.7l-.7-.7L107.6-72.8l.7.7-217.8 217.8zM-108 147.2l-.7-.7L109.1-71.3l.7.7L-108 147.2zM-106.5 148.7l-.7-.7L110.6-69.8l.7.7-217.8 217.8zM-105 150.3l-.7-.7L112.2-68.3l.7.7L-105 150.3zM-103.5 151.8l-.7-.7L113.7-66.8l.7.7-217.9 217.9zM-102 153.3l-.7-.7L115.2-65.3l.7.7L-102 153.3zM-100.5 154.8l-.7-.7L116.7-63.8l.7.7-217.9 217.9zM-99 156.3l-.7-.7L118.2-62.3l.7.7L-99 156.3zM-97.5 157.8l-.7-.7L119.7-60.8l.7.7-217.9 217.9zM-96 159.3l-.7-.7L121.2-59.3l.7.7L-96 159.3zM-94.5 160.8l-.6-.7L122.7-57.7l.7.7-217.9 217.8zM-92.9 162.3l-.7-.7L124.2-56.2l.7.7-217.8 217.8zM-91.4 163.8l-.7-.7L125.7-54.7l.7.7-217.8 217.8zM-89.9 165.4l-.7-.8L127.2-53.2l.8.7-217.9 217.9zM-88.4 166.9l-.7-.7L128.8-51.7l.7.7-217.9 217.9zM-86.9 168.4l-.7-.7L130.3-50.2l.7.7-217.9 217.9zM-85.4 169.9l-.7-.7L131.8-48.7l.7.7-217.9 217.9zM-83.9 171.4l-.7-.7L133.3-47.2l.7.7-217.9 217.9zM-82.4 172.9l-.7-.7L134.8-45.7l.7.7-217.9 217.9zM-80.9 174.4l-.7-.7L136.3-44.2l.7.7-217.9 217.9zM-79.3 175.9l-.8-.7L137.8-42.6l.7.7-217.8 217.8zM-77.8 177.4l-.7-.7L139.3-41.1l.7.7-217.8 217.8zM-76.3 178.9l-.7-.7L140.8-39.6l.7.7-217.8 217.8zM-74.8 180.5l-.7-.8L142.3-38.1l.8.7-217.9 217.9zM-73.3 182l-.7-.7L143.9-36.6l.7.7L-73.3 182zM-71.8 183.5l-.7-.7L145.4-35.1l.7.7-217.9 217.9zM-70.3 185l-.7-.7L146.9-33.6l.7.7L-70.3 185zM-68.8 186.5l-.7-.7L148.4-32.1l.7.7-217.9 217.9zM-67.3 188l-.7-.7L149.9-30.6l.7.7L-67.3 188zM-65.8 189.5l-.7-.7L151.4-29.1l.7.7-217.9 217.9zM-64.2 191l-.8-.7L152.9-27.6l.7.8L-64.2 191zM-62.7 192.5l-.7-.7L154.4-26l.7.7-217.8 217.8zM-61.2 194l-.7-.7L155.9-24.5l.7.7L-61.2 194zM-59.7 195.6l-.7-.8L157.4-23l.7.7-217.8 217.9zM-58.2 197.1l-.7-.7L159-21.5l.7.7-217.9 217.9zM-56.7 198.6l-.7-.7L160.5-20l.7.7-217.9 217.9zM-55.2 200.1l-.7-.7L162-18.5l.7.7-217.9 217.9zM-53.7 201.6l-.7-.7L163.5-17l.7.7-217.9 217.9zM-52.2 203.1l-.7-.7L165-15.5l.7.7-217.9 217.9zM-50.7 204.6l-.7-.7L166.5-14l.7.7-217.9 217.9zM-49.1 206.1l-.8-.7L168-12.5l.7.8-217.8 217.8zM-47.6 207.6l-.7-.7L169.5-10.9l.7.7-217.8 217.8zM-46.1 209.1l-.7-.7L171-9.4l.7.7-217.8 217.8zM-44.6 210.6l-.7-.7L172.5-7.9l.7.7-217.8 217.8zM-43.1 212.2l-.7-.7L174.1-6.4l.7.7-217.9 217.9zM-41.6 213.7l-.7-.7L175.6-4.9l.7.7-217.9 217.9zM-40.1 215.2l-.7-.7L177.1-3.4l.7.7-217.9 217.9zM-38.6 216.7l-.7-.7L178.6-1.9l.7.7-217.9 217.9zM-37.1 218.2l-.7-.7L180.1-.4l.7.7-217.9 217.9zM-35.6 219.7l-.7-.7L181.6 1.1l.7.7-217.9 217.9zM-34.1 221.2l-.7-.7L183.1 2.6l.7.8-217.9 217.8zM-32.5 222.7l-.8-.7L184.6 4.2l.7.7-217.8 217.8zM-31 224.2l-.7-.7L186.1 5.7l.7.7L-31 224.2zM-29.5 225.7l-.7-.7L187.6 7.2l.7.7-217.8 217.8zM-28 227.3l-.7-.7L189.1 8.7l.8.7L-28 227.3zM-26.5 228.8l-.7-.7L190.7 10.2l.7.7-217.9 217.9zM-25 230.3l-.7-.7L192.2 11.7l.7.7L-25 230.3zM-23.5 231.8l-.7-.7L193.7 13.2l.7.7-217.9 217.9zM-22 233.3l-.7-.7L195.2 14.7l.7.7L-22 233.3zM-20.5 234.8l-.7-.7L196.7 16.2l.7.7-217.9 217.9zM-19 236.3l-.7-.7L198.2 17.7l.7.8L-19 236.3zM-17.4 237.8l-.7-.7L199.7 19.3l.7.7-217.8 217.8zM-15.9 239.3l-.7-.7L201.2 20.8l.7.7-217.8 217.8zM-14.4 240.8l-.7-.7L202.7 22.3l.7.7-217.8 217.8zM-12.9 242.4l-.7-.8L204.2 23.8l.8.7-217.9 217.9zM-11.4 243.9l-.7-.7L205.8 25.3l.7.7-217.9 217.9zM-9.9 245.4l-.7-.7L207.3 26.8l.7.7L-9.9 245.4zM-8.4 246.9l-.7-.7L208.8 28.3l.7.7L-8.4 246.9zM-6.9 248.4l-.7-.7L210.3 29.8l.7.7L-6.9 248.4zM-5.4 249.9l-.7-.7L211.8 31.3l.7.7L-5.4 249.9zM-3.9 251.4l-.7-.7L213.3 32.8l.7.7L-3.9 251.4zM-2.3 252.9l-.7-.7L214.8 34.4l.7.7L-2.3 252.9zM-.8 254.4l-.7-.7L216.3 35.9l.7.7L-.8 254.4zM.7 255.9l-.7-.7L217.8 37.4l.7.7L.7 255.9zM2.2 257.5l-.7-.8L219.3 38.9l.8.7L2.2 257.5zM3.7 259l-.7-.7L220.9 40.4l.7.7L3.7 259zM5.2 260.5l-.7-.7L222.4 41.9l.7.7L5.2 260.5zM6.7 262l-.7-.7L223.9 43.4l.7.7L6.7 262zM8.2 263.5l-.7-.7L225.4 44.9l.7.7L8.2 263.5zM9.7 265l-.7-.7L226.9 46.4l.7.7L9.7 265zM11.2 266.5l-.7-.7L228.4 47.9l.7.7L11.2 266.5zM12.7 268l-.7-.7L229.9 49.5l.7.6L12.7 268zM14.3 269.5l-.7-.7L231.4 51l.7.7L14.3 269.5zM15.8 271l-.7-.7L232.9 52.5l.7.7L15.8 271zM17.3 272.6l-.7-.8L234.5 54l.6.7L17.3 272.6zM18.8 274.1l-.7-.7L236 55.5l.7.7L18.8 274.1zM20.3 275.6l-.7-.7L237.5 57l.7.7L20.3 275.6zM21.8 277.1l-.7-.7L239 58.5l.7.7L21.8 277.1zM23.3 278.6l-.7-.7L240.5 60l.7.7L23.3 278.6zM24.8 280.1l-.7-.7L242 61.5l.7.7L24.8 280.1zM26.3 281.6l-.7-.7L243.5 63l.7.7L26.3 281.6zM27.9 283.1l-.7-.7L245 64.6l.7.7L27.9 283.1zM29.4 284.6l-.7-.7L246.5 66.1l.7.7L29.4 284.6zM30.9 286.1l-.7-.7L248 67.6l.7.7L30.9 286.1zM32.4 287.7l-.7-.8L249.5 69.1l.7.7L32.4 287.7zM33.9 289.2l-.7-.7L251.1 70.6l.7.7L33.9 289.2zM35.4 290.7l-.7-.7L252.6 72.1l.7.7L35.4 290.7zM36.9 292.2l-.7-.7L254.1 73.6l.7.7L36.9 292.2zM38.4 293.7l-.7-.7L255.6 75.1l.7.7L38.4 293.7z"/></g><g clip-path="url(#e)" fill="#bce5f7"><path d="M-23-22.3h308.1v1H-23zM-23-20.2h308.1v1H-23zM-23-18.1h308.1v1H-23zM-23-15.9h308.1v1H-23zM-23-13.8h308.1v1H-23zM-23-11.7h308.1v1H-23zM-23-9.5h308.1v1H-23zM-23-7.4h308.1v1H-23zM-23-5.3h308.1v1H-23zM-23-3.1h308.1v1H-23zM-23-1h308.1v1H-23zM-23 1.1h308.1v1H-23zM-23 3.3h308.1v1H-23zM-23 5.4h308.1v1H-23zM-23 7.5h308.1v1H-23zM-23 9.7h308.1v1H-23zM-23 11.8h308.1v1H-23zM-23 14h308.1v1H-23zM-23 16.1h308.1v1H-23zM-23 18.2h308.1v1H-23zM-23 20.4h308.1v1H-23zM-23 22.5h308.1v1H-23zM-23 24.6h308.1v1H-23zM-23 26.8h308.1v1H-23zM-23 28.9h308.1v1H-23zM-23 31h308.1v1H-23zM-23 33.2h308.1v1H-23zM-23 35.3h308.1v1H-23zM-23 37.4h308.1v1H-23zM-23 39.6h308.1v1H-23zM-23 41.7h308.1v1H-23zM-23 43.8h308.1v1H-23zM-23 46h308.1v1H-23zM-23 48.1h308.1v1H-23zM-23 50.3h308.1v1H-23zM-23 52.4h308.1v1H-23zM-23 54.5h308.1v1H-23zM-23 56.6h308.1v1H-23zM-23 58.8h308.1v1H-23zM-23 60.9h308.1v1H-23zM-23 63.1h308.1v1H-23zM-23 65.2h308.1v1H-23zM-23 67.3h308.1v1H-23zM-23 69.5h308.1v1H-23zM-23 71.6h308.1v1H-23zM-23 73.7h308.1v1H-23zM-23 75.9h308.1v1H-23zM-23 78h308.1v1H-23zM-23 80.1h308.1v1H-23zM-23 82.3h308.1v1H-23zM-23 84.4h308.1v1H-23zM-23 86.6h308.1v1H-23zM-23 88.7h308.1v1H-23zM-23 90.8h308.1v1H-23zM-23 93h308.1v1H-23zM-23 95.1h308.1v1H-23zM-23 97.2h308.1v1H-23zM-23 99.4h308.1v1H-23zM-23 101.5h308.1v1H-23zM-23 103.6h308.1v1H-23zM-23 105.8h308.1v1H-23zM-23 107.9h308.1v1H-23zM-23 110h308.1v1H-23zM-23 112.2h308.1v1H-23zM-23 114.3h308.1v1H-23zM-23 116.4h308.1v1H-23zM-23 118.6h308.1v1H-23zM-23 120.7h308.1v1H-23zM-23 122.8h308.1v1H-23zM-23 125h308.1v1H-23zM-23 127.1h308.1v1H-23zM-23 129.3h308.1v1H-23zM-23 131.4h308.1v1H-23zM-23 133.5h308.1v1H-23zM-23 135.7h308.1v1H-23zM-23 137.8h308.1v1H-23zM-23 139.9h308.1v1H-23zM-23 142.1h308.1v1H-23zM-23 144.2h308.1v1H-23zM-23 146.3h308.1v1H-23zM-23 148.5h308.1v1H-23zM-23 150.6h308.1v1H-23zM-23 152.7h308.1v1H-23zM-23 154.9h308.1v1H-23zM-23 157h308.1v1H-23zM-23 159.1h308.1v1H-23zM-23 161.3h308.1v1H-23zM-23 163.4h308.1v1H-23zM-23 165.6h308.1v1H-23zM-23 167.7h308.1v1H-23zM-23 169.8h308.1v1H-23zM-23 172h308.1v1H-23zM-23 174.1h308.1v1H-23zM-23 176.2h308.1v1H-23zM-23 178.4h308.1v1H-23zM-23 180.5h308.1v1H-23zM-23 182.6h308.1v1H-23zM-23 184.8h308.1v1H-23zM-23 186.9h308.1v1H-23zM-23 189h308.1v1H-23zM-23 191.2h308.1v1H-23zM-23 193.3h308.1v1H-23zM-23 195.4h308.1v1H-23zM-23 197.6h308.1v1H-23zM-23 199.7h308.1v1H-23zM-23 201.9h308.1v1H-23zM-23 204h308.1v1H-23zM-23 206.1h308.1v1H-23zM-23 208.3h308.1v1H-23zM-23 210.4h308.1v1H-23zM-23 212.5h308.1v1H-23zM-23 214.7h308.1v1H-23zM-23 216.8h308.1v1H-23zM-23 218.9h308.1v1H-23z"/></g><g clip-path="url(#f)" fill="#bce5f7"><path d="M129.6-49.7h1v308.1h-1zM131.7-49.7h1v308.1h-1zM133.9-49.7h1v308.1h-1zM136-49.7h1v308.1h-1zM138.1-49.7h1v308.1h-1zM140.3-49.7h1v308.1h-1zM142.4-49.7h1v308.1h-1zM144.5-49.7h1v308.1h-1zM146.7-49.7h1v308.1h-1zM148.8-49.7h1v308.1h-1zM150.9-49.7h1v308.1h-1zM153.1-49.7h1v308.1h-1zM155.2-49.7h1v308.1h-1zM157.3-49.7h1v308.1h-1zM159.5-49.7h1v308.1h-1zM161.6-49.7h1v308.1h-1zM163.7-49.7h1v308.1h-1zM165.9-49.7h1v308.1h-1zM168-49.7h1v308.1h-1zM170.1-49.7h1v308.1h-1zM172.3-49.7h1v308.1h-1zM174.4-49.7h1v308.1h-1zM176.6-49.7h1v308.1h-1zM178.7-49.7h1v308.1h-1zM180.8-49.7h1v308.1h-1zM183-49.7h1v308.1h-1zM185.1-49.7h1v308.1h-1zM187.2-49.7h1v308.1h-1zM189.4-49.7h1v308.1h-1zM191.5-49.7h1v308.1h-1zM193.6-49.7h1v308.1h-1zM195.8-49.7h1v308.1h-1zM197.9-49.7h1v308.1h-1zM200-49.7h1v308.1h-1zM202.2-49.7h1v308.1h-1zM204.3-49.7h1v308.1h-1zM206.5-49.7h1v308.1h-1zM208.6-49.7h1v308.1h-1zM210.7-49.7h1v308.1h-1zM212.9-49.7h1v308.1h-1zM215-49.7h1v308.1h-1zM217.1-49.7h1v308.1h-1zM219.3-49.7h1v308.1h-1zM221.4-49.7h1v308.1h-1zM223.5-49.7h1v308.1h-1zM225.7-49.7h1v308.1h-1zM227.8-49.7h1v308.1h-1zM229.9-49.7h1v308.1h-1zM232.1-49.7h1v308.1h-1zM234.2-49.7h1v308.1h-1zM236.3-49.7h1v308.1h-1zM238.5-49.7h1v308.1h-1zM240.6-49.7h1v308.1h-1zM242.7-49.7h1v308.1h-1zM244.9-49.7h1v308.1h-1zM247-49.7h1v308.1h-1zM249.1-49.7h1v308.1h-1zM251.3-49.7h1v308.1h-1zM253.4-49.7h1v308.1h-1zM255.6-49.7h1v308.1h-1zM257.7-49.7h1v308.1h-1zM259.8-49.7h1v308.1h-1zM262-49.7h1v308.1h-1zM264.1-49.7h1v308.1h-1zM266.2-49.7h1v308.1h-1zM268.4-49.7h1v308.1h-1zM270.5-49.7h1v308.1h-1zM272.6-49.7h1v308.1h-1zM274.8-49.7h1v308.1h-1zM276.9-49.7h1v308.1h-1zM279.1-49.7h1v308.1h-1zM281.2-49.7h1v308.1h-1zM283.3-49.7h1v308.1h-1zM285.4-49.7h1v308.1h-1zM287.6-49.7h1v308.1h-1zM289.7-49.7h1v308.1h-1zM291.9-49.7h1v308.1h-1zM294-49.7h1v308.1h-1zM296.1-49.7h1v308.1h-1zM298.3-49.7h1v308.1h-1zM300.4-49.7h1v308.1h-1zM302.5-49.7h1v308.1h-1zM304.7-49.7h1v308.1h-1zM306.8-49.7h1v308.1h-1zM308.9-49.7h1v308.1h-1zM311.1-49.7h1v308.1h-1zM313.2-49.7h1v308.1h-1zM315.3-49.7h1v308.1h-1zM317.5-49.7h1v308.1h-1zM319.6-49.7h1v308.1h-1zM321.8-49.7h1v308.1h-1zM323.9-49.7h1v308.1h-1zM326-49.7h1v308.1h-1zM328.2-49.7h1v308.1h-1zM330.3-49.7h1v308.1h-1zM332.4-49.7h1v308.1h-1zM334.6-49.7h1v308.1h-1zM336.7-49.7h1v308.1h-1zM338.8-49.7h1v308.1h-1zM341-49.7h1v308.1h-1zM343.1-49.7h1v308.1h-1zM345.2-49.7h1v308.1h-1zM347.4-49.7h1v308.1h-1zM349.5-49.7h1v308.1h-1zM351.6-49.7h1v308.1h-1zM353.8-49.7h1v308.1h-1zM355.9-49.7h1v308.1h-1zM358.1-49.7h1v308.1h-1zM360.2-49.7h1v308.1h-1zM362.3-49.7h1v308.1h-1zM364.5-49.7h1v308.1h-1zM366.6-49.7h1v308.1h-1zM368.7-49.7h1v308.1h-1zM370.9-49.7h1v308.1h-1z"/></g></pattern><pattern id="h" data-name="SVGID 19" width="36.9" height="21.3" patternTransform="matrix(.55 0 0 .55 -3569.59 13399.42)" patternUnits="userSpaceOnUse"><path fill="none" d="M0 0h36.9v21.3H0z"/><path fill="none" d="M0 0h36.9v21.3H0z"/><path fill="none" d="M0 0h36.9v21.3H0z"/><path fill="none" d="M0 0h36.9v21.3H0z"/><path fill="none" d="M0 0h36.9v21.3H0z"/><path fill="#fffae6" d="M.8 0l36.1 20.9v-1.5L3.3 0H.8zM4.8 0l32.1 18.5V17L7.4 0H4.8zM13 0l23.9 13.8v-1.5L15.6 0H13zM0 1.9l33.5 19.4h2.6L0 .4v1.5zM0 4.3l29.4 17H32L0 2.8v1.5zM8.9 0l28 16.1v-1.5L11.5 0H8.9zM0 9l21.2 12.3h2.6L0 7.5V9zM0 6.7l25.3 14.6h2.6L0 5.2v1.5zM0 20.9l.8.4h2.5L0 19.4v1.5zM0 13.8l13 7.5h2.6L0 12.3v1.5zM0 16.1l8.9 5.2h2.6L0 14.6v1.5zM0 11.4l17.1 9.9h2.6L0 9.9v1.5zM17.1 0l19.8 11.4V9.9L19.7 0h-2.6zM0 18.5l4.8 2.8h2.6L0 17v1.5zM25.3 0l11.6 6.7V5.2l-9-5.2h-2.6zM21.2 0l15.7 9V7.5L23.8 0h-2.6zM29.4 0l7.5 4.3V2.8L32 0h-2.6zM36.1 0h-2.6l3.4 1.9V.4l-.8-.4z"/><path fill="#fff5cc" d="M36.9 0h-.8l.8.4V0zM32 0l4.9 2.8v-.9L33.5 0H32zM27.9 0l9 5.2v-.9L29.4 0h-1.5zM23.8 0l13.1 7.5v-.8L25.3 0h-1.5zM19.7 0l17.2 9.9V9L21.2 0h-1.5zM15.6 0l21.3 12.3v-.9L17.1 0h-1.5zM11.5 0l25.4 14.6v-.8L13 0h-1.5zM7.4 0l29.5 17v-.9L8.9 0H7.4zM3.3 0l33.6 19.4v-.9L4.8 0H3.3zM0 0v.4l36.1 20.9h.8v-.4L.8 0H0zM0 2.8l32 18.5h1.5L0 1.9v.9zM0 5.2l27.9 16.1h1.5L0 4.3v.9zM0 7.5l23.8 13.8h1.5L0 6.7v.8zM0 9.9l19.7 11.4h1.5L0 9v.9zM0 12.3l15.6 9h1.5L0 11.4v.9zM0 14.6l11.5 6.7H13L0 13.8v.8zM0 17l7.4 4.3h1.5L0 16.1v.9zM0 19.4l3.3 1.9h1.5L0 18.5v.9zM0 21.3h.8l-.8-.4v.4z"/></pattern><pattern id="i" data-name="SVGID 20" width="22.2" height="24.7" patternTransform="rotate(-90 74.87 46015.55) scale(4.5)" patternUnits="userSpaceOnUse"><path fill="none" d="M0 0h22.2v24.7H0z"/><path fill="none" d="M0 0h22.2v24.7H0z"/><path fill="#0066f5" d="M16.6 0h11.1v24.7H16.6z"/><path fill="#0066f5" d="M16.6 0h11.1v24.7H16.6z"/><path fill="#0029eb" d="M16.6 24.4v-.3.3zM16.6.7V.3v.4zM27.8 2.5V2a3.46 3.46 0 0 0-1.1-1 2.28 2.28 0 0 1 1.1-.3V.4a3.26 3.26 0 0 0-1.4.4A2.3 2.3 0 0 0 25 .4a3.26 3.26 0 0 0-1.4.4 2.3 2.3 0 0 0-1.4-.4 3.26 3.26 0 0 0-1.4.4 2.39 2.39 0 0 0-1.4-.5h-.1a2.46 2.46 0 0 0-1.4.4 3.26 3.26 0 0 0-1.3-.4v.3a1.93 1.93 0 0 1 1 .3 3.64 3.64 0 0 0-1 1.1v.5a10 10 0 0 1 1.2 1.9 6 6 0 0 0-.3.7l-.9 1.6v.7l1.2 2.3-1.2 2.3v.7l1.2 2.3-1.2 2.3v.7l.9 1.7a6 6 0 0 0 .3.7c-.3.5-.7 1.2-1.2 1.9v.5a3 3 0 0 0 .8.8c.1.1.2.2.3.2a2.28 2.28 0 0 1-1.1.3v.3A3.26 3.26 0 0 0 18 24a2.19 2.19 0 0 0 1.4.4 3.26 3.26 0 0 0 1.4-.4 2.3 2.3 0 0 0 1.4.4 3.26 3.26 0 0 0 1.4-.4 2.3 2.3 0 0 0 1.4.4 3.26 3.26 0 0 0 1.4-.4 2.3 2.3 0 0 0 1.4.4v-.3a2.28 2.28 0 0 1-1.1-.3 11 11 0 0 0 1.1-1v-.5a10 10 0 0 1-1.2-1.9 6 6 0 0 0 .3-.7l.9-1.6v-.7L26.5 15l1.2-2.3V12l-1.2-2.3 1.2-2.3v-.7L26.8 5a6 6 0 0 0-.3-.7c.3-.4.7-1.1 1.3-1.8zm-1.4 6.9l-1.2-2.3 1-1.8a4.2 4.2 0 0 0 .2-.5 1 1 0 0 1 .2.5l1 1.9zm-5.6 5.3l-1.2-2.3 1.2-2.3 1.2 2.3zm1.4-2l1.2 2.3-1.2 2.3L21 15zm-1.2-3l1.2-2.3 1.2 2.3-1.2 2.3zm2.6.3l1.2 2.3-1.2 2.3-1.2-2.2zm.2-.3L25 7.4l1.2 2.3L25 12zm1.2 3l1.2 2.3-1.2 2.3-1.2-2.3zm.8 7a6 6 0 0 0 .3.7c-.3.5-.7 1.2-1.2 1.9a14 14 0 0 1-1.2-1.8 6 6 0 0 0 .3-.7l.9-1.6zm-2.2.3c-.2-.3-.2-.5-.3-.5l-1-1.9 1.2-2.3 1.2 2.3-1 1.8c.1.1 0 .3-.1.6zm-.2.4c-.3.5-.7 1.2-1.2 1.9-.5-.7-.9-1.4-1.2-1.9a6 6 0 0 0 .3-.7l.9-1.6.9 1.7c0-.1.1.2.3.6zm-2.6-.4a1 1 0 0 1-.2-.5l-1-1.9 1.2-2.3 1.2 2.3-1 1.8a1 1 0 0 1-.2.6zm-.2.3c-.3.5-.7 1.2-1.2 1.9a10 10 0 0 1-1.2-1.9 6 6 0 0 0 .3-.7l.9-1.6.9 1.7a2.83 2.83 0 0 0 .3.6zm-1.2-3L18.2 15l1.2-2.3 1.2 2.3zm0-5.3l-1.2-2.3 1.2-2.3 1.2 2.3zm0-5.3L18.5 5a6 6 0 0 0-.3-.7c.3-.5.7-1.2 1.2-1.9a10 10 0 0 1 1.2 1.9 4.42 4.42 0 0 0-.3.8zm1.4-2a1 1 0 0 1 .2.5l1 1.9-1.2 2.3-1.2-2.3 1-1.8a3.93 3.93 0 0 1 .2-.6zm.2-.3c.3-.5.7-1.2 1.2-1.9a10 10 0 0 1 1.2 1.9 6 6 0 0 0-.3.7l-.9 1.6-.9-1.7zm2.6.3a1 1 0 0 1 .2.5l1 1.9-1.2 2.3-1.2-2.3 1-1.8c-.1-.1 0-.3.2-.6zm.2-.3c.3-.5.7-1.2 1.2-1.9a10 10 0 0 1 1.2 1.9 6 6 0 0 0-.3.7L25 6.7 24.1 5zm2.6 10.3l-1.2-2.3 1.2-2.4 1.2 2.3zm0 5.3a1 1 0 0 1-.2-.5l-1-1.9 1.2-2.3 1.2 2.3-1 1.8a3.93 3.93 0 0 1-.2.6zm-1.2 2.5a14 14 0 0 0 1.2-1.8 14 14 0 0 0 1.2 1.8 12 12 0 0 1-1.2 1.1 4.26 4.26 0 0 1-1.2-1.1zm-1.3 1.2a11 11 0 0 0 1.1-1 3.46 3.46 0 0 0 1.1 1 2.28 2.28 0 0 1-1.1.3 1.43 1.43 0 0 1-1.1-.3zm-1.5-1.2a14 14 0 0 0 1.2-1.8 14 14 0 0 0 1.2 1.8 12 12 0 0 1-1.2 1.1 12 12 0 0 1-1.2-1.1zm-1.3 1.3a5.24 5.24 0 0 0 1.1-1 5.24 5.24 0 0 0 1.1 1 2.28 2.28 0 0 1-1.1.3 4.51 4.51 0 0 1-1.1-.3zm-.3-.2a12 12 0 0 1-1.2-1.1 14 14 0 0 0 1.2-1.8 14 14 0 0 0 1.2 1.8 4.26 4.26 0 0 1-1.2 1.1zm-2.5.1a5.24 5.24 0 0 0 1.1-1 5.73 5.73 0 0 0 1.1 1.1 2.28 2.28 0 0 1-1.1.3 2.52 2.52 0 0 1-1.1-.4zm-.3-3a14 14 0 0 0 1.2 1.8 12 12 0 0 1-1.2 1.1c-.1-.1-.3-.2-.4-.3a5.72 5.72 0 0 1-.7-.8c.4-.7.8-1.3 1.1-1.8zm0-5.4l1.2 2.3-1 1.8a4.2 4.2 0 0 0-.2.5 1 1 0 0 1-.2-.5l-1-1.9zm0-5.3l1.2 2.3-1.2 2.3-1.2-2.3zm0-5.3a1 1 0 0 1 .2.5l1 1.9L18 9.4l-1.2-2.3 1-1.8a3.93 3.93 0 0 1 .2-.6zm1.2-2.4A14 14 0 0 0 18 4.1a14 14 0 0 0-1.2-1.8 3.23 3.23 0 0 1 1.1-1.2 4.89 4.89 0 0 1 1.3 1.2zM20.5 1a11 11 0 0 0-1.1 1A6.28 6.28 0 0 0 18.2.9a4.83 4.83 0 0 1 1.2-.2 2 2 0 0 1 1.1.3zM22 2.3a14 14 0 0 0-1.2 1.8 14 14 0 0 0-1.2-1.8 12 12 0 0 1 1.2-1.1A4 4 0 0 1 22 2.3zM23.3 1a11 11 0 0 0-1.1 1 3.46 3.46 0 0 0-1.1-1 2.17 2.17 0 0 1 2.2 0zm1.5 1.3a14 14 0 0 0-1.2 1.8 14 14 0 0 0-1.2-1.8 12 12 0 0 1 1.2-1.1 4 4 0 0 1 1.2 1.1zM26.1 1A11 11 0 0 0 25 2a3.46 3.46 0 0 0-1.1-1 2.17 2.17 0 0 1 2.2 0zm1.4 1.3a14 14 0 0 0-1.2 1.8 14 14 0 0 0-1.2-1.8 12 12 0 0 1 1.2-1.1 2.54 2.54 0 0 1 1.2 1.1z"/><path fill="#0066f5" d="M5.5 0h11.1v24.7H5.5z"/><path fill="#0066f5" d="M5.5 0h11.1v24.7H5.5z"/><path fill="#0029eb" d="M5.5 24.4v-.3.3zM5.5.7V.3v.4zM16.6 2.5V2a3.46 3.46 0 0 0-1.1-1 2.28 2.28 0 0 1 1.1-.3V.4a3.26 3.26 0 0 0-1.4.4 2.3 2.3 0 0 0-1.4-.4 3.26 3.26 0 0 0-1.4.4A2.3 2.3 0 0 0 11 .4a3.26 3.26 0 0 0-1.4.4A2.3 2.3 0 0 0 8.2.4h-.1a2.46 2.46 0 0 0-1.4.4A3.26 3.26 0 0 0 5.4.4v.3a1.93 1.93 0 0 1 1 .3 3.64 3.64 0 0 0-1 1.1v.5a10 10 0 0 1 1.2 1.9 3.93 3.93 0 0 0-.2.6l-.9 1.6v.7l1.2 2.3L5.5 12v.7L6.7 15l-1.2 2.3v.7l.9 1.7a6 6 0 0 0 .3.7c-.3.5-.7 1.2-1.2 1.9v.5a3 3 0 0 0 .8.8c.1.1.2.2.3.2a2.28 2.28 0 0 1-1.1.3v.3a3.26 3.26 0 0 0 1.4-.4 2.19 2.19 0 0 0 1.4.4 3.26 3.26 0 0 0 1.4-.4 2.3 2.3 0 0 0 1.4.4 3.26 3.26 0 0 0 1.4-.4 2.3 2.3 0 0 0 1.4.4 3.26 3.26 0 0 0 1.4-.4 2.3 2.3 0 0 0 1.4.4v-.3a2.28 2.28 0 0 1-1.1-.3 11 11 0 0 0 1.1-1v-.5a10 10 0 0 1-1.2-1.9 6 6 0 0 0 .3-.7l.9-1.6v-.7L15.4 15l1.2-2.3V12l-1.2-2.3 1.2-2.3v-.7L15.7 5a6 6 0 0 0-.3-.7c.3-.4.7-1.1 1.2-1.8zm-1.4 6.9L14 7.1l1-1.8a4.2 4.2 0 0 0 .2-.5 1.73 1.73 0 0 1 .3.4l1 1.9zm-5.5 5.3l-1.2-2.3 1.2-2.3 1.2 2.3zm1.4-2l1.2 2.3-1.2 2.3L9.9 15zm-1.2-3l1.2-2.3 1.2 2.3-1.2 2.3zm2.6.3l1.2 2.3-1.2 2.3-1.2-2.3zm.1-.3l1.2-2.3L15 9.7 13.9 12zm1.3 3l1.2 2.3-1.2 2.3-1.3-2.3zm.8 7a6 6 0 0 0 .3.7c-.3.5-.7 1.2-1.2 1.9a14 14 0 0 1-1.2-1.8 6 6 0 0 0 .3-.7l.9-1.6zm-2.2.3c-.2-.3-.2-.5-.3-.5l-1-1.9 1.2-2.3 1.2 2.3-1 1.8c.1.1 0 .3-.1.6zm-.2.4c-.3.5-.7 1.2-1.2 1.9-.5-.7-.9-1.4-1.2-1.9a6 6 0 0 0 .3-.7l.9-1.6.9 1.7c0-.1.1.2.3.6zM9.7 20a1 1 0 0 1-.2-.5l-1-1.9 1.2-2.3 1.2 2.3-1 1.8a3.93 3.93 0 0 1-.2.6zm-.2.3c-.3.5-.7 1.2-1.2 1.9a10 10 0 0 1-1.2-1.9 6 6 0 0 0 .3-.7l.9-1.6.9 1.7a2.83 2.83 0 0 0 .3.6zm-1.2-3L7.1 15l1.2-2.3L9.5 15zm0-5.3L7.1 9.7l1.2-2.3 1.2 2.3zm0-5.3l-.9-1.6a6 6 0 0 0-.3-.7c.3-.5.7-1.2 1.2-1.9a10 10 0 0 1 1.2 1.9 6 6 0 0 0-.3.7zm1.4-2a1 1 0 0 1 .2.5l1 1.9-1.2 2.3-1.2-2.3 1-1.8c-.1-.1 0-.3.2-.6zm.2-.3c.3-.5.7-1.2 1.2-1.9a10 10 0 0 1 1.2 1.9 6 6 0 0 0-.3.7l-.9 1.6-.9-1.7zm2.6.3a1 1 0 0 1 .2.5l1 1.9-1.2 2.3-1.2-2.3 1-1.8c-.1-.1 0-.3.2-.6zm.1-.3c.3-.5.7-1.2 1.2-1.9A10 10 0 0 1 15 4.4a6 6 0 0 0-.3.7l-.9 1.6-.9-1.7c.1 0-.1-.2-.3-.6zm2.6 10.3L14 12.4l1.2-2.3 1.2 2.3zm0 5.3a1 1 0 0 1-.2-.5l-1-1.9 1.2-2.3 1.2 2.3-1 1.8c.1.1 0 .3-.2.6zm-1.1 2.5a14 14 0 0 0 1.2-1.8 14 14 0 0 0 1.2 1.8 12 12 0 0 1-1.2 1.1 4.26 4.26 0 0 1-1.2-1.1zm-1.3 1.2a11 11 0 0 0 1.1-1 3.46 3.46 0 0 0 1.1 1 2.28 2.28 0 0 1-1.1.3 1.43 1.43 0 0 1-1.1-.3zm-1.5-1.2a14 14 0 0 0 1.2-1.8 14 14 0 0 0 1.2 1.8 12 12 0 0 1-1.2 1.1 12 12 0 0 1-1.2-1.1zM10 23.8a5.24 5.24 0 0 0 1.1-1 5.24 5.24 0 0 0 1.1 1 2.28 2.28 0 0 1-1.1.3 4.51 4.51 0 0 1-1.1-.3zm-.3-.2a12 12 0 0 1-1.2-1.1 14 14 0 0 0 1.2-1.8 14 14 0 0 0 1.2 1.8 12 12 0 0 1-1.2 1.1zm-2.5.1a5.24 5.24 0 0 0 1.1-1 5.73 5.73 0 0 0 1.1 1.1 2.28 2.28 0 0 1-1.1.3 2.52 2.52 0 0 1-1.1-.4zm-.3-3a14 14 0 0 0 1.2 1.8 12 12 0 0 1-1.2 1.1c-.1-.1-.3-.2-.4-.3a5.72 5.72 0 0 1-.7-.8c.4-.7.8-1.3 1.1-1.8zm0-5.4l1.2 2.3-1 1.8a4.2 4.2 0 0 0-.2.5 1 1 0 0 1-.2-.5l-1-1.9zm0-5.3l1.2 2.3-1.2 2.3-1.2-2.3zm0-5.3a1 1 0 0 1 .2.5l1 1.9-1.2 2.3-1.2-2.3 1-1.8a3.93 3.93 0 0 1 .2-.6zm1.2-2.4a14 14 0 0 0-1.2 1.8 14 14 0 0 0-1.2-1.8 3.23 3.23 0 0 1 1.1-1.2 4.89 4.89 0 0 1 1.3 1.2zM9.4 1a11 11 0 0 0-1.1 1A6.28 6.28 0 0 0 7.1.9 2.7 2.7 0 0 1 8.3.6a4.87 4.87 0 0 1 1.1.4zm1.5 1.3a14 14 0 0 0-1.2 1.8 14 14 0 0 0-1.2-1.8 12 12 0 0 1 1.2-1.1 4 4 0 0 1 1.2 1.1zM12.2 1a11 11 0 0 0-1.1 1A3.46 3.46 0 0 0 10 1a2.17 2.17 0 0 1 2.2 0zm1.5 1.3a14 14 0 0 0-1.2 1.8 14 14 0 0 0-1.2-1.8 12 12 0 0 1 1.2-1.1 4 4 0 0 1 1.2 1.1zM15 1a11 11 0 0 0-1.1 1 3.46 3.46 0 0 0-1.1-1 2.28 2.28 0 0 1 1.1-.3A2.61 2.61 0 0 1 15 1zm1.4 1.3a14 14 0 0 0-1.2 1.8A14 14 0 0 0 14 2.3a12 12 0 0 1 1.2-1.1 2.54 2.54 0 0 1 1.2 1.1z"/><path fill="#0066f5" d="M-5.6 0H5.5v24.7H-5.6z"/><path fill="#0066f5" d="M-5.6 0H5.5v24.7H-5.6z"/><path d="M5.5 2.5V2a3.46 3.46 0 0 0-1.1-1A2.28 2.28 0 0 1 5.5.7V.4a3.26 3.26 0 0 0-1.4.4A2.39 2.39 0 0 0 2.7.3a3.26 3.26 0 0 0-1.4.4A3.26 3.26 0 0 0 0 .3a3.26 3.26 0 0 0-1.4.4A3.71 3.71 0 0 0-2.8.3h-.1a2.46 2.46 0 0 0-1.4.4A2.84 2.84 0 0 0-5.6.3v.3a1.93 1.93 0 0 1 1 .3 3.57 3.57 0 0 0-1 1.1v.5a10 10 0 0 1 1.2 1.9 2.6 2.6 0 0 0-.3.7l-.9 1.6v.7l1.2 2.3-1.2 2.3v.7l1.2 2.3-1.2 2.3v.7l.9 1.7a6 6 0 0 0 .3.7c-.3.5-.7 1.2-1.2 1.9v.5a3 3 0 0 0 .8.8c.1.1.2.2.3.2a2.28 2.28 0 0 1-1.1.3v.3a3.26 3.26 0 0 0 1.4-.4 2.19 2.19 0 0 0 1.4.4 3.26 3.26 0 0 0 1.4-.4 2.3 2.3 0 0 0 1.4.4 3.26 3.26 0 0 0 1.4-.4 2.3 2.3 0 0 0 1.4.4 3.26 3.26 0 0 0 1.4-.4 2.3 2.3 0 0 0 1.4.4v-.3a2.28 2.28 0 0 1-1.1-.3 11 11 0 0 0 1.1-1v-.5a10 10 0 0 1-1.2-1.9 6 6 0 0 0 .3-.7l.9-1.6v-.7L4.3 15l1.2-2.3V12L4.3 9.7l1.2-2.3v-.7L4.6 5a6 6 0 0 0-.3-.7c.3-.4.7-1.1 1.2-1.8zM4.1 9.4L2.9 7.1l1-1.8a4.2 4.2 0 0 0 .2-.5 1.73 1.73 0 0 1 .3.4l1 1.9zm-5.5 5.3l-1.2-2.3 1.2-2.4 1.2 2.3zm1.4-2L1.2 15 0 17.3-1.3 15zm-1.3-3l1.2-2.3 1.2 2.3L0 12zm2.6.3l1.2 2.3-1.2 2.3-1.2-2.3zm.2-.3l1.2-2.3 1.2 2.3L2.7 12zm1.2 3L4 15l-1.2 2.3L1.5 15zm.9 7a6 6 0 0 0 .3.7c-.3.5-.7 1.2-1.2 1.9a14 14 0 0 1-1.2-1.8 6 6 0 0 0 .3-.7l.9-1.8zm-2.2.3c-.2-.3-.2-.5-.3-.5l-1-1.9 1.2-2.3 1.2 2.3-1 1.8c.1.1 0 .3-.1.6zm-.2.4c-.3.5-.7 1.2-1.2 1.9-.5-.7-.9-1.4-1.2-1.9a6 6 0 0 0 .3-.7L0 18l.9 1.7c-.1 0 .1.3.3.7zm-2.6-.4a1 1 0 0 1-.2-.5l-1-1.9 1.2-2.3 1.2 2.3-1 1.8a3.93 3.93 0 0 1-.2.6zm-.2.3c-.3.5-.7 1.2-1.2 1.9A10 10 0 0 1-4 20.3a6 6 0 0 0 .3-.7l.9-1.6.9 1.7a2.83 2.83 0 0 0 .3.6zm-1.2-3L-4 15l1.2-2.3 1.2 2.3zm0-5.3L-4 9.7l1.2-2.3 1.2 2.3zm0-5.3l-.9-1.6a6 6 0 0 0-.3-.7c.3-.5.7-1.2 1.2-1.9.5.7.9 1.4 1.2 1.9a3.22 3.22 0 0 1-.4.7zm1.4-2a4.2 4.2 0 0 0 .2.5l1 1.9-1.2 2.3-1.2-2.3 1-1.8c-.1-.1 0-.3.2-.6zm.1-.3A13 13 0 0 1 0 2.5a10 10 0 0 1 1.2 1.9 7.76 7.76 0 0 0-.4.7L0 6.7l-.9-1.6a7.76 7.76 0 0 0-.4-.7zm2.6.3a5.2 5.2 0 0 1 .3.5l1 1.9-1.3 2.3L.1 7.1l1-1.8a3.93 3.93 0 0 1 .2-.6zm.2-.3c.3-.5.7-1.2 1.2-1.9a10 10 0 0 1 1.2 1.9 2.6 2.6 0 0 0-.3.7l-.9 1.6-.8-1.6a7.76 7.76 0 0 0-.4-.7zm2.6 10.3l-1.2-2.3L4.1 10l1.2 2.3zm0 5.3a1 1 0 0 1-.2-.5l-1-1.9 1.2-2.3 1.2 2.3-1 1.8c.1.1 0 .3-.2.6zm-1.2 2.5a14 14 0 0 0 1.2-1.8 14 14 0 0 0 1.2 1.8 12 12 0 0 1-1.2 1.1 12 12 0 0 1-1.2-1.1zm-1.3 1.2a11 11 0 0 0 1.1-1 3.46 3.46 0 0 0 1.1 1 2.28 2.28 0 0 1-1.1.3 1.68 1.68 0 0 1-1.1-.3zM.2 22.5a14 14 0 0 0 1.2-1.8 14 14 0 0 0 1.2 1.8 12 12 0 0 1-1.2 1.1 4.26 4.26 0 0 1-1.2-1.1zm-1.3 1.3a5.24 5.24 0 0 0 1.1-1 5.24 5.24 0 0 0 1.1 1 2.28 2.28 0 0 1-1.1.3 3.54 3.54 0 0 1-1.1-.3zm-.3-.2a12 12 0 0 1-1.2-1.1 14 14 0 0 0 1.2-1.8 14 14 0 0 0 1.2 1.8 12 12 0 0 1-1.2 1.1zm-2.5.1a5.24 5.24 0 0 0 1.1-1 5.73 5.73 0 0 0 1.1 1.1 2.28 2.28 0 0 1-1.1.3 2.52 2.52 0 0 1-1.1-.4zm-.3-3A14 14 0 0 0-3 22.5a12 12 0 0 1-1.2 1.1c-.1-.1-.3-.2-.4-.3a5.72 5.72 0 0 1-.7-.8c.4-.7.8-1.3 1.1-1.8zm0-5.4l1.2 2.3-1 1.8a4.2 4.2 0 0 0-.2.5 1 1 0 0 1-.2-.5l-1-1.9zm0-5.3l1.2 2.3-1.2 2.3-1.2-2.3zm0-5.3a4.2 4.2 0 0 0 .2.5l1 1.9-1.2 2.3-1.2-2.3 1-1.8c-.1-.1 0-.3.2-.6zM-3 2.3a9.39 9.39 0 0 0-1.2 1.8 9.39 9.39 0 0 0-1.2-1.8 3.23 3.23 0 0 1 1.1-1.2A4.89 4.89 0 0 1-3 2.3zM-1.7 1a5.24 5.24 0 0 0-1.1 1A12 12 0 0 0-4 .9 2.7 2.7 0 0 1-2.8.6a4.87 4.87 0 0 1 1.1.4zm1.5 1.3a9.39 9.39 0 0 0-1.2 1.8 9.39 9.39 0 0 0-1.2-1.8 12 12 0 0 1 1.2-1.1A4 4 0 0 1-.2 2.3zM1.1 1A5.24 5.24 0 0 0 0 2a10 10 0 0 0-1.1-1A2.28 2.28 0 0 1 0 .7a2.61 2.61 0 0 1 1.1.3zm1.4 1.3a9.39 9.39 0 0 0-1.2 1.8A5.82 5.82 0 0 0 .2 2.3a12 12 0 0 1 1.2-1.1 2.89 2.89 0 0 1 1.1 1.1zM3.8 1a10 10 0 0 0-1.1 1 5.24 5.24 0 0 0-1.1-1A2.61 2.61 0 0 1 2.7.7a2 2 0 0 1 1.1.3zm1.5 1.3a9.39 9.39 0 0 0-1.2 1.8 9.39 9.39 0 0 0-1.2-1.8 12 12 0 0 1 1.2-1.1 2.54 2.54 0 0 1 1.2 1.1z" fill="#0029eb"/></pattern><clipPath id="j"><path d="M293.21 103.86c55 .41 239 39.22 246.48 246.39 0 0-76.49-44.51-164.49.2.1.1 19-176.82-82-246.59" fill="none"/></clipPath><clipPath id="k"><path d="M375.6 285.47c-4-57.75-21.18-139.24-82.29-181.5-59.59 41.14-77.41 119.57-82 177-3.16 39.92 0 69.66 0 69.66l6.62-3a179 179 0 0 1 150.64-.1l6.72 3.05c0-.41.2-1.63.3-3.66a440.21 440.21 0 0 0 .01-61.45z" fill="none"/></clipPath><clipPath id="l"><path d="M293.21 103.86c-55 .41-239 39.22-246.39 246.39 0 0 76.49-44.51 164.5.2 0 .1-19-176.82 81.89-246.59" fill="none"/></clipPath></defs><path fill="none" stroke-miterlimit="10" stroke-width="10" stroke="url(#g)" d="M4.86 90.11l39.52 45.43M66.58 37.76l38.4 44.1M63.93 96.33l35.86 41.25M125.55 43.87l34.84 40.03"/><path d="M296.16 68.52c-.1-1-1.53-3.46-3.36-3.46-1.84 0-3.26 2.44-3.36 3.46l-4.59 53.27h15.89z" fill="#cdedfb"/><path d="M295.75 118.53a5.25 5.25 0 0 0-5.7 0 7.63 7.63 0 0 0-3.16 6.62v355.67a18.95 18.95 0 0 1-37.89 0V455a6.06 6.06 0 0 0-12.12 0v25.87a31.08 31.08 0 0 0 62.13 0V125.15a8.39 8.39 0 0 0-3.26-6.62z" fill="#81bff2"/><path d="M293.21 103.86c-55 .41-239 39.22-246.39 246.39 0 0 76.49-44.51 164.5.2 0 .1-19-176.82 81.89-246.59" fill="url(#h)"/><path d="M293.21 103.86c55 .41 239 39.22 246.48 246.39 0 0-76.49-44.51-164.49.2.1.1 19-176.82-82-246.59" fill="url(#i)"/><path d="M375.6 285.47c-4-57.75-21.18-139.24-82.29-181.5-59.59 41.14-77.41 119.57-82 177-3.16 39.92 0 69.66 0 69.66l6.62-3a179 179 0 0 1 150.64-.1l6.72 3.05c0-.41.2-1.63.3-3.66a440.21 440.21 0 0 0 .01-61.45z" fill="#c8cfa4"/><path d="M375.6 285.47c-4-57.75-21.18-139.24-82.29-181.5-59.59 41.14-77.41 119.57-82 177-3.16 39.92 0 69.66 0 69.66l6.62-3a179 179 0 0 1 150.64-.1l6.72 3.05c0-.41.2-1.63.3-3.66a440.21 440.21 0 0 0 .01-61.45z" fill="#bce5f7"/><path d="M293.21 103.86c-55 .41-239 39.22-246.39 246.39 0 0 76.49-44.51 164.5.2 0 .1-19-176.82 81.89-246.59" fill="url(#i)"/><g clip-path="url(#j)"><path d="M455.86 330.79S468.8 138.6 293.21 104" fill="none" stroke-miterlimit="10" stroke-width="10" stroke="url(#g)"/></g><g clip-path="url(#k)"><path fill="none" stroke="#81bff2" stroke-miterlimit="10" stroke-width="10" d="M293.21 334.15V97.35"/></g><g clip-path="url(#l)"><path d="M130.55 330.79S117.61 138.6 293.21 104l9.16-1.23" fill="none" stroke-miterlimit="10" stroke-width="10" stroke="url(#g)"/></g></svg>