<svg id="Layer_1" data-name="Layer 1" xmlns="http://www.w3.org/2000/svg" viewBox="0 0 800 799.3"><defs><style>.cls-1,.cls-18{fill:none}.cls-3{fill:#fce0c0}.cls-4{fill:#fff5cc}.cls-6{fill:#ffe65c}.cls-10{fill:#fcfcfc}.cls-11{fill:#f7f7f7}.cls-18{stroke-miterlimit:10}.cls-13{fill:#f48c0f}.cls-18{stroke:#ffe65c;stroke-width:48px}</style><clipPath id="clip-path"><rect class="cls-1" x=".7" width="799.3" height="799.3" rx="45"/></clipPath><pattern id="b" data-name="b" width="22.24" height="24.72" patternTransform="matrix(6.45 0 0 6.45 -184.62 -525.82)" patternUnits="userSpaceOnUse"><path class="cls-1" d="M0 0h22.24v24.72H0z"/><path class="cls-1" d="M0 24.72h22.24V0H0z"/><path class="cls-1" d="M0 24.72h22.24V0H0z"/><path d="M16.68.35zm0 23.71zM27.8 22.2v.52a5.5 5.5 0 0 1-1.1 1 2.23 2.23 0 0 0 1.1.29v.31a2.7 2.7 0 0 1-1.38-.43 2.78 2.78 0 0 1-1.42.43 2.65 2.65 0 0 1-1.39-.43 2.76 2.76 0 0 1-1.36.43 2.65 2.65 0 0 1-1.39-.43 2.87 2.87 0 0 1-1.39.43h-.07A3.26 3.26 0 0 1 18 24a2.6 2.6 0 0 1-1.3.39v-.31a2.32 2.32 0 0 0 1-.26 3.89 3.89 0 0 1-1-1.1v-.56a15.19 15.19 0 0 0 1.21-1.86c-.21-.38-.33-.65-.35-.7l-.88-1.6v-.67L17.89 15l-1.21-2.24V12l1.21-2.32-1.21-2.25v-.71l.86-1.65s.15-.31.35-.69a15.19 15.19 0 0 0-1.21-1.86V2a4.07 4.07 0 0 1 .75-.8l.34-.2a2.22 2.22 0 0 0-1.09-.34V.35a2.78 2.78 0 0 1 1.4.44 2.48 2.48 0 0 1 2.79 0 2.66 2.66 0 0 1 1.37-.44 2.87 2.87 0 0 1 1.39.43 2.44 2.44 0 0 1 2.76 0 2.68 2.68 0 0 1 1.4-.43v.31a2.23 2.23 0 0 0-1.1.32 7 7 0 0 1 1.1 1v.5a15.31 15.31 0 0 0-1.21 1.87c.21.38.33.65.35.7l.86 1.67v.67l-1.21 2.33L27.79 12v.66L26.58 15l1.21 2.32V18l-.86 1.65s-.14.31-.35.69a14.1 14.1 0 0 0 1.21 1.86zm-1.39-6.86l-1.22 2.33 1 1.84a4.66 4.66 0 0 0 .25.5c.15-.29.24-.48.24-.49l1-1.85zM20.85 10l-1.22 2.32 1.22 2.32 1.21-2.32zm1.39 2l1.21-2.28-1.21-2.29L21 9.72zM21 15l1.22 2.32L23.45 15l-1.21-2.28zm2.61-.33l1.21-2.32L23.63 10l-1.22 2.32zm.17.33L25 17.33 26.23 15 25 12.72zM25 12l1.21-2.28L25 7.39l-1.2 2.33zm.86-7s.14-.31.35-.69A14.52 14.52 0 0 0 25 2.51a14.36 14.36 0 0 0-1.21 1.85 5.93 5.93 0 0 1 .34.72L25 6.72zm-2.23-.3l-.25.5-1 1.85 1.22 2.32 1.21-2.32-1-1.84a2.05 2.05 0 0 0-.18-.49zm-.17-.34a12.74 12.74 0 0 0-1.2-1.88A14.22 14.22 0 0 0 21 4.38c.21.38.33.65.35.7l.87 1.64.86-1.65zm-2.61.36c-.16.29-.24.48-.25.49l-1 1.85 1.22 2.32L22 7.05l-1-1.84a2.13 2.13 0 0 0-.15-.49zm-.18-.33a14.21 14.21 0 0 0-1.21-1.87 15.27 15.27 0 0 0-1.22 1.86c.21.39.33.66.35.71l.87 1.63.86-1.65a7 7 0 0 1 .35-.69zm-1.21 3l-1.22 2.33L19.46 12l1.21-2.29zm0 5.3L18.24 15l1.22 2.32L20.67 15zm0 5.31l-.87 1.65s-.14.31-.35.69a12.68 12.68 0 0 0 1.22 1.86 14.1 14.1 0 0 0 1.21-1.86c-.21-.38-.33-.65-.35-.7zm1.39 2c.15-.29.24-.48.24-.49l1-1.86-1.21-2.33-1.22 2.32 1 1.85a5.27 5.27 0 0 0 .19.51zm.15.32a12.68 12.68 0 0 0 1.22 1.86 12.22 12.22 0 0 0 1.23-1.86c-.21-.38-.33-.65-.35-.7L22.24 18l-.87 1.65a4.58 4.58 0 0 1-.37.69zm2.61-.32c.15-.29.24-.48.24-.49l1-1.85-1.19-2.33-1.22 2.32 1 1.85a4.29 4.29 0 0 0 .19.5zm.17.33A12.77 12.77 0 0 0 25 22.2a14.1 14.1 0 0 0 1.21-1.86c-.21-.38-.33-.65-.35-.7L25 18l-.87 1.65a4.37 4.37 0 0 1-.33.69zM26.39 10l-1.2 2.32 1.22 2.32 1.21-2.32zm0-5.33a4.52 4.52 0 0 0-.25.49l-1 1.84 1.22 2.32L27.57 7l-1-1.84a1.83 1.83 0 0 0-.18-.46zm-1.19-2.4a14.15 14.15 0 0 1 1.19 1.78 13.07 13.07 0 0 1 1.18-1.78 6.22 6.22 0 0 0-1.18-1.11 5.86 5.86 0 0 0-1.17 1.11zM23.89 1A6.88 6.88 0 0 1 25 2a7 7 0 0 1 1.1-1 2.05 2.05 0 0 0-2.21 0zm-1.44 1.24A12.22 12.22 0 0 1 23.62 4a12.22 12.22 0 0 1 1.17-1.76 6.22 6.22 0 0 0-1.18-1.11 5.45 5.45 0 0 0-1.14 1.11zm-.73-.8a6.76 6.76 0 0 1 .52.55 6.41 6.41 0 0 1 1.08-1 2.23 2.23 0 0 0-1.1-.32 2.4 2.4 0 0 0-1.08.3 6.71 6.71 0 0 1 .58.48m-.87-.3a6.17 6.17 0 0 0-1.21 1.13 14.15 14.15 0 0 1 1.19 1.78A13 13 0 0 1 22 2.25a5.71 5.71 0 0 0-1.19-1.11zM18.34 1a7 7 0 0 1 1.1 1 6.26 6.26 0 0 1 1.12-1 2.44 2.44 0 0 0-1.12-.34 2.32 2.32 0 0 0-1.08.34zm-.29 3.07a13.07 13.07 0 0 1 1.18-1.78A5.5 5.5 0 0 0 18 1.17l-.44.31a3.51 3.51 0 0 0-.74.8 14 14 0 0 1 1.19 1.77zm0 5.32l1.21-2.32-1-1.84-.26-.51c-.16.29-.24.48-.25.49l-1 1.85zm0 5.31l1.21-2.32L18.05 10l-1.2 2.32zm0 5.33c.15-.29.24-.48.24-.49l1-1.86-1.19-2.32-1.22 2.36 1 1.84a3.85 3.85 0 0 0 .19.47zm1.18 2.44a13.6 13.6 0 0 1-1.16-1.75 14.44 14.44 0 0 1-1.2 1.8A3.25 3.25 0 0 0 18 23.63a6.08 6.08 0 0 0 1.25-1.18zm1.33 1.25a5.5 5.5 0 0 1-1.1-1 6.7 6.7 0 0 1-1.18 1.14 3 3 0 0 0 1.17.27 2.34 2.34 0 0 0 1.11-.41zM22 22.45a13.07 13.07 0 0 1-1.18-1.78 14.15 14.15 0 0 1-1.19 1.78 6.22 6.22 0 0 0 1.18 1.11A5.71 5.71 0 0 0 22 22.45zm1.31 1.27a5.5 5.5 0 0 1-1.1-1 6.2 6.2 0 0 1-1.11 1 2.05 2.05 0 0 0 2.21 0zm1.47-1.29a13.18 13.18 0 0 1-1.18-1.76 14.15 14.15 0 0 1-1.19 1.78 5.71 5.71 0 0 0 1.19 1.11 6.07 6.07 0 0 0 1.21-1.11zm1.31 1.29a6.08 6.08 0 0 1-1.09-1 6.2 6.2 0 0 1-1.11 1 2 2 0 0 0 2.2 0zm1.47-1.29a13.07 13.07 0 0 1-1.18-1.78 14.15 14.15 0 0 1-1.19 1.78 5.71 5.71 0 0 0 1.19 1.11 6.07 6.07 0 0 0 1.21-1.11zM5.56.35zm0 23.71zm11.12-1.86v.52a6.2 6.2 0 0 1-1.11 1 2.27 2.27 0 0 0 1.11.29v.31a2.65 2.65 0 0 1-1.39-.43 2.87 2.87 0 0 1-1.39.43 2.65 2.65 0 0 1-1.39-.43 2.87 2.87 0 0 1-1.39.43 2.65 2.65 0 0 1-1.39-.43 2.87 2.87 0 0 1-1.39.43h-.05A3.39 3.39 0 0 1 6.86 24a2.6 2.6 0 0 1-1.3.39v-.31a2.32 2.32 0 0 0 1-.26 3.89 3.89 0 0 1-1-1.1v-.56a14 14 0 0 0 1.21-1.82c-.2-.38-.33-.65-.35-.7L5.56 18v-.67L6.77 15l-1.21-2.28V12l1.21-2.28-1.21-2.33v-.67l.87-1.65s.14-.31.34-.69a14.1 14.1 0 0 0-1.21-1.86V2a5.16 5.16 0 0 1 .75-.8l.34-.2A2.22 2.22 0 0 0 5.56.66V.35A2.74 2.74 0 0 1 7 .79 2.81 2.81 0 0 1 8.35.35a2.65 2.65 0 0 1 1.4.37A2.66 2.66 0 0 1 11.12.3a2.87 2.87 0 0 1 1.39.43A2.65 2.65 0 0 1 13.9.3a2.87 2.87 0 0 1 1.39.43A2.65 2.65 0 0 1 16.68.3v.31a2.29 2.29 0 0 0-1.11.39 6.61 6.61 0 0 1 1.11 1v.5a15.38 15.38 0 0 0-1.22 1.87c.21.38.33.65.35.7l.87 1.7v.67l-1.22 2.28L16.68 12v.66L15.46 15l1.22 2.32V18l-.87 1.65s-.14.31-.35.69a12.68 12.68 0 0 0 1.22 1.86zm-1.39-6.86l-1.22 2.33 1 1.84a4.66 4.66 0 0 0 .25.5c.15-.29.24-.48.24-.49l1-1.85zM9.73 10l-1.22 2.36 1.22 2.36 1.21-2.32zm1.39 2l1.21-2.28-1.21-2.29L9.9 9.72zM9.9 15l1.22 2.32L12.33 15l-1.21-2.28zm2.61-.33l1.21-2.32L12.51 10l-1.22 2.32zm.17.33l1.22 2.32L15.11 15l-1.21-2.28zm1.22-3l1.21-2.28-1.21-2.33-1.22 2.33zm.86-7s.15-.31.35-.69a14.52 14.52 0 0 0-1.21-1.8 14.36 14.36 0 0 0-1.21 1.85c.21.39.33.67.35.72l.86 1.64zm-2.25-.3l-.25.5-1 1.85 1.22 2.32 1.21-2.32-1-1.84a2.05 2.05 0 0 0-.18-.49zm-.17-.34a12.74 12.74 0 0 0-1.2-1.88 14 14 0 0 0-1.23 1.9c.2.38.33.65.35.7l.86 1.64.88-1.65a3.57 3.57 0 0 1 .34-.71zm-2.61.36l-.25.49-1 1.85 1.25 2.32 1.21-2.32L10 5.21zm-.18-.33a14.21 14.21 0 0 0-1.21-1.87 14.1 14.1 0 0 0-1.21 1.86c.2.39.33.66.35.71l.86 1.63.87-1.65a5.78 5.78 0 0 1 .34-.69zm-1.21 3L7.12 9.72 8.34 12l1.21-2.28zm0 5.3L7.12 15l1.22 2.32L9.55 15zm0 5.31l-.87 1.64s-.14.31-.34.69a12.71 12.71 0 0 0 1.21 1.87 14.1 14.1 0 0 0 1.21-1.86c-.2-.38-.33-.65-.35-.7zm1.39 2c.15-.29.24-.48.24-.49l1-1.86-1.24-2.31-1.22 2.32 1 1.85a4.31 4.31 0 0 0 .22.49zm.18.33a12.11 12.11 0 0 0 1.21 1.86 12.71 12.71 0 0 0 1.21-1.87c-.2-.38-.33-.65-.35-.7L11.12 18l-.87 1.65a5.52 5.52 0 0 1-.34.69zm2.6-.33c.15-.29.24-.48.24-.49l1-1.85-1.21-2.34-1.22 2.32 1 1.85a5.27 5.27 0 0 0 .19.51zm.18.33a12.71 12.71 0 0 0 1.21 1.87 12.61 12.61 0 0 0 1.21-1.86c-.21-.38-.33-.65-.35-.7L13.9 18l-.9 1.65a3.55 3.55 0 0 1-.31.69zM15.29 10l-1.22 2.31 1.22 2.32 1.21-2.32zm0-5.33c-.16.29-.24.48-.25.49L14 7l1.22 2.32 1.28-2.26-1-1.84a3.11 3.11 0 0 0-.21-.5zM14.1 2.28a14.15 14.15 0 0 1 1.19 1.78 13.07 13.07 0 0 1 1.18-1.78 6.22 6.22 0 0 0-1.18-1.11 5.66 5.66 0 0 0-1.19 1.1zM12.8 1a7 7 0 0 1 1.1 1A7 7 0 0 1 15 1a2.26 2.26 0 0 0-1.1-.33 2.14 2.14 0 0 0-1.1.33zm-1.45 1.25A12.22 12.22 0 0 1 12.52 4a12.22 12.22 0 0 1 1.17-1.76 6.22 6.22 0 0 0-1.18-1.11 5.51 5.51 0 0 0-1.16 1.1zm-.73-.8c.18.17.36.36.53.55a5.64 5.64 0 0 1 1.07-1 2.07 2.07 0 0 0-2.17 0 6.57 6.57 0 0 1 .57.48m-.87-.3A6.12 6.12 0 0 0 8.54 2.3a14.15 14.15 0 0 1 1.19 1.78 13.59 13.59 0 0 1 1.21-1.81 5.66 5.66 0 0 0-1.19-1.1zM7.24 1a7 7 0 0 1 1.1 1 6.26 6.26 0 0 1 1.12-1A2.44 2.44 0 0 0 8.34.69a2.22 2.22 0 0 0-1.1.31zM7 4a13.72 13.72 0 0 1 1.13-1.75A6.54 6.54 0 0 0 7 1.15a5.09 5.09 0 0 0-.45.31 3.51 3.51 0 0 0-.74.8A15 15 0 0 1 7 4.05zm0 5.35L8.16 7l-1-1.84L7 4.72l-.3.49-1 1.85zm0 5.37l1.21-2.32L7 10l-1.27 2.36zM7 20c.15-.29.24-.48.24-.49l1-1.86L7 15.34l-1.27 2.33 1 1.84A4.67 4.67 0 0 0 7 20zm1.18 2.44A14 14 0 0 1 7 20.67a13.41 13.41 0 0 1-1.2 1.8 3.33 3.33 0 0 0 1.11 1.16 5.93 5.93 0 0 0 1.22-1.18zm1.31 1.28a5.5 5.5 0 0 1-1.1-1 6.47 6.47 0 0 1-1.17 1.11 2.9 2.9 0 0 0 1.16.27 2.26 2.26 0 0 0 1.06-.38zM11 22.44a14.37 14.37 0 0 1-1.22-1.78 14.15 14.15 0 0 1-1.19 1.78 5.71 5.71 0 0 0 1.19 1.11 6.54 6.54 0 0 0 1.13-1.1zm1.27 1.28a5.5 5.5 0 0 1-1.1-1 7 7 0 0 1-1.1 1 2.23 2.23 0 0 0 1.1.32 2.3 2.3 0 0 0 1.05-.32zm1.47-1.29a13.07 13.07 0 0 1-1.18-1.78 14.15 14.15 0 0 1-1.19 1.78 5.71 5.71 0 0 0 1.19 1.11 6.54 6.54 0 0 0 1.13-1.1zM15 23.72a5.5 5.5 0 0 1-1.1-1 7 7 0 0 1-1.1 1 2 2 0 0 0 2.2 0zm1.47-1.29a13.07 13.07 0 0 1-1.18-1.78 14.37 14.37 0 0 1-1.19 1.8 5.71 5.71 0 0 0 1.19 1.11 6.22 6.22 0 0 0 1.18-1.11zM5.56 22.2v.52a7 7 0 0 1-1.1 1 2.23 2.23 0 0 0 1.1.29v.31a2.65 2.65 0 0 1-1.39-.43 2.87 2.87 0 0 1-1.39.43 2.87 2.87 0 0 1-1.39-.43 2.76 2.76 0 0 1-1.39.48 2.87 2.87 0 0 1-1.39-.43 2.87 2.87 0 0 1-1.39.43h-.05A3.19 3.19 0 0 1-4.25 24a2.67 2.67 0 0 1-1.31.39v-.31a2.32 2.32 0 0 0 1-.26 3.51 3.51 0 0 1-1-1.1v-.56a14 14 0 0 0 1.21-1.82c-.2-.38-.33-.65-.35-.7L-5.56 18v-.67L-4.34 15l-1.22-2.28V12l1.22-2.32-1.22-2.25v-.71l.87-1.65s.14-.31.34-.69a14.1 14.1 0 0 0-1.21-1.86V2a4.12 4.12 0 0 1 .76-.8l.33-.2A2.12 2.12 0 0 0-5.56.66V.35a2.69 2.69 0 0 1 1.4.44A2.78 2.78 0 0 1-2.77.35a2.8 2.8 0 0 1 1.41.37A2.7 2.7 0 0 1 0 .35a2.87 2.87 0 0 1 1.39.43A2.87 2.87 0 0 1 2.78.35a2.87 2.87 0 0 1 1.39.43A2.65 2.65 0 0 1 5.56.35v.31a2.16 2.16 0 0 0-1.1.34 7 7 0 0 1 1.1 1v.5a12.8 12.8 0 0 0-1.21 1.88c.2.38.33.65.35.7l.86 1.64v.67L4.34 9.72 5.56 12v.66L4.34 15l1.22 2.32V18l-.87 1.65s-.14.31-.34.69a12.11 12.11 0 0 0 1.21 1.86zm-1.39-6.86L3 17.67l1 1.84a4.66 4.66 0 0 0 .25.5c.15-.29.24-.48.24-.49l1-1.85zM-1.39 10l-1.22 2.32 1.22 2.32 1.22-2.32zM0 12l1.22-2.28L0 7.39l-1.22 2.33zm-1.22 3L0 17.33 1.22 15 0 12.72zm2.61-.33l1.22-2.32L1.39 10 .17 12.36zm.17.33l1.22 2.32L4 15l-1.22-2.28zm1.22-3L4 9.72 2.78 7.39 1.56 9.72zm.87-7s.14-.31.34-.69a14.52 14.52 0 0 0-1.21-1.8 13.31 13.31 0 0 0-1.2 1.85c.2.39.32.67.34.72l.86 1.64zM1.4 4.72l-.26.5-1 1.85 1.25 2.32 1.22-2.32-1-1.84a3.89 3.89 0 0 0-.21-.51zm-.18-.34A13.06 13.06 0 0 0 0 2.48a14 14 0 0 0-1.23 1.9c.2.38.33.65.35.7L0 6.72l.87-1.65a4.68 4.68 0 0 1 .35-.71zm-2.61.34c-.15.29-.24.48-.24.49l-1 1.85 1.22 2.32 1.24-2.32-1-1.84a4.46 4.46 0 0 0-.22-.5zm-.18-.33a12.71 12.71 0 0 0-1.21-1.87A12.58 12.58 0 0 0-4 4.37c.2.39.33.66.35.71l.86 1.64.87-1.65a7 7 0 0 1 .35-.69zm-1.21 3L-4 9.72-2.78 12l1.22-2.29zm0 5.3L-4 15l1.22 2.32L-1.56 15zm0 5.31l-.87 1.65s-.14.31-.34.69a12.61 12.61 0 0 0 1.21 1.86 12.61 12.61 0 0 0 1.21-1.86c-.2-.38-.33-.65-.35-.7zm1.39 2l.25-.49 1-1.86-1.22-2.33-1.22 2.32 1 1.85a1.84 1.84 0 0 0 .19.51zm.18.33A12.71 12.71 0 0 0 0 22.2a12.11 12.11 0 0 0 1.21-1.86c-.2-.38-.33-.65-.35-.7L0 18l-.87 1.65a4.42 4.42 0 0 1-.34.69zm2.6-.33c.15-.29.24-.48.24-.49l1-1.85-1.24-2.32-1.22 2.32 1 1.85a3.06 3.06 0 0 0 .22.49zm.18.33a12.61 12.61 0 0 0 1.21 1.87A12.68 12.68 0 0 0 4 20.34c-.2-.38-.33-.65-.35-.7L2.78 18l-.87 1.65a5.52 5.52 0 0 1-.34.69zM4.17 10L3 12.36l1.22 2.36 1.21-2.32zm0-5.33l-.25.49L3 7.05l1.17 2.32 1.21-2.32-1-1.84a3.11 3.11 0 0 0-.21-.5zM3 2.27a13 13 0 0 1 1.17 1.78 14.08 14.08 0 0 1 1.18-1.78 6.22 6.22 0 0 0-1.18-1.11A5.86 5.86 0 0 0 3 2.27zM1.68 1a7 7 0 0 1 1.1 1 7 7 0 0 1 1.1-1 2.16 2.16 0 0 0-1.1-.34 2.16 2.16 0 0 0-1.1.34zM.23 2.24A12.22 12.22 0 0 1 1.4 4a12 12 0 0 1 1.18-1.73 6.59 6.59 0 0 0-1.19-1.11A6.25 6.25 0 0 0 .23 2.24zm-.73-.8A6.66 6.66 0 0 1 0 2a7 7 0 0 1 1.1-1A2.16 2.16 0 0 0 0 .66 2.25 2.25 0 0 0-1.07 1a6.57 6.57 0 0 1 .57.48m-.87-.3a6 6 0 0 0-1.21 1.09 14.15 14.15 0 0 1 1.19 1.78A13.59 13.59 0 0 1-.18 2.24a5.66 5.66 0 0 0-1.19-1.1zM-3.88 1a5.5 5.5 0 0 1 1.1 1 6.26 6.26 0 0 1 1.12-1A2.44 2.44 0 0 0-2.78.66a2.26 2.26 0 0 0-1.1.34zm-.29 3.07A13.2 13.2 0 0 1-3 2.27a6.53 6.53 0 0 0-1.17-1.12l-.45.31a4 4 0 0 0-.74.8 13.57 13.57 0 0 1 1.19 1.79zm0 5.32l1.22-2.32-1-1.84a4.66 4.66 0 0 0-.25-.5c-.15.29-.24.48-.24.49l-1 1.85zm0 5.31l1.22-2.32L-4.17 10l-1.21 2.32zm0 5.33l.25-.49 1-1.86-1.22-2.32-1.21 2.36 1 1.84a2.07 2.07 0 0 0 .18.44zM-3 22.45a14.15 14.15 0 0 1-1.19-1.78 13.41 13.41 0 0 1-1.2 1.8 3.33 3.33 0 0 0 1.11 1.16A6.24 6.24 0 0 0-3 22.45zm1.3 1.27a7 7 0 0 1-1.1-1A6.7 6.7 0 0 1-4 23.84a2.87 2.87 0 0 0 1.19.27 2.32 2.32 0 0 0 1.13-.39zm1.5-1.27a14.15 14.15 0 0 1-1.19-1.78 14.15 14.15 0 0 1-1.19 1.78 6.59 6.59 0 0 0 1.19 1.11A6.59 6.59 0 0 0-.2 22.45zm1.3 1.27a7 7 0 0 1-1.1-1 7 7 0 0 1-1.1 1 2.26 2.26 0 0 0 1.1.34 2.26 2.26 0 0 0 1.1-.34zm1.48-1.27a14.15 14.15 0 0 1-1.19-1.78A14.15 14.15 0 0 1 .2 22.45a6.59 6.59 0 0 0 1.19 1.11 6.59 6.59 0 0 0 1.19-1.11zm1.3 1.27a7 7 0 0 1-1.1-1 7 7 0 0 1-1.1 1 2.26 2.26 0 0 0 1.1.34 2.26 2.26 0 0 0 1.1-.34zm1.47-1.27a14.08 14.08 0 0 1-1.18-1.78A13 13 0 0 1 3 22.45a5.71 5.71 0 0 0 1.19 1.11 6.41 6.41 0 0 0 1.16-1.11z" fill="#f7b66d"/></pattern><pattern id="c" data-name="c" width="22.24" height="24.72" patternTransform="matrix(7.73 0 0 7.73 -1019.79 -557.43)" patternUnits="userSpaceOnUse"><path class="cls-1" d="M0 0h22.24v24.72H0z"/><path class="cls-1" d="M0 24.72h22.24V0H0z"/><path class="cls-1" d="M0 24.72h22.24V0H0z"/><path class="cls-3" d="M16.68.35zm0 23.71zM27.8 22.2v.52a5.5 5.5 0 0 1-1.1 1 2.23 2.23 0 0 0 1.1.29v.31a2.7 2.7 0 0 1-1.38-.43 2.78 2.78 0 0 1-1.42.43 2.65 2.65 0 0 1-1.39-.43 2.76 2.76 0 0 1-1.36.43 2.65 2.65 0 0 1-1.39-.43 2.87 2.87 0 0 1-1.39.43h-.07A3.26 3.26 0 0 1 18 24a2.6 2.6 0 0 1-1.3.39v-.31a2.32 2.32 0 0 0 1-.26 3.89 3.89 0 0 1-1-1.1v-.56a15.19 15.19 0 0 0 1.21-1.86c-.21-.38-.33-.65-.35-.7l-.88-1.6v-.67L17.89 15l-1.21-2.24V12l1.21-2.32-1.21-2.25v-.71l.86-1.65s.15-.31.35-.69a15.19 15.19 0 0 0-1.21-1.86V2a4.07 4.07 0 0 1 .75-.8l.34-.2a2.22 2.22 0 0 0-1.09-.34V.35a2.78 2.78 0 0 1 1.4.44 2.48 2.48 0 0 1 2.79 0 2.66 2.66 0 0 1 1.37-.44 2.87 2.87 0 0 1 1.39.43 2.44 2.44 0 0 1 2.76 0 2.68 2.68 0 0 1 1.4-.43v.31a2.23 2.23 0 0 0-1.1.32 7 7 0 0 1 1.1 1v.5a15.31 15.31 0 0 0-1.21 1.87c.21.38.33.65.35.7l.86 1.67v.67l-1.21 2.33L27.79 12v.66L26.58 15l1.21 2.32V18l-.86 1.65s-.14.31-.35.69a14.1 14.1 0 0 0 1.21 1.86zm-1.39-6.86l-1.22 2.33 1 1.84a4.66 4.66 0 0 0 .25.5c.15-.29.24-.48.24-.49l1-1.85zM20.85 10l-1.22 2.32 1.22 2.32 1.21-2.32zm1.39 2l1.21-2.28-1.21-2.29L21 9.72zM21 15l1.22 2.32L23.45 15l-1.21-2.28zm2.61-.33l1.21-2.32L23.63 10l-1.22 2.32zm.17.33L25 17.33 26.23 15 25 12.72zM25 12l1.21-2.28L25 7.39l-1.2 2.33zm.86-7s.14-.31.35-.69A14.52 14.52 0 0 0 25 2.51a14.36 14.36 0 0 0-1.21 1.85 5.93 5.93 0 0 1 .34.72L25 6.72zm-2.23-.3l-.25.5-1 1.85 1.22 2.32 1.21-2.32-1-1.84a2.05 2.05 0 0 0-.18-.49zm-.17-.34a12.74 12.74 0 0 0-1.2-1.88A14.22 14.22 0 0 0 21 4.38c.21.38.33.65.35.7l.87 1.64.86-1.65zm-2.61.36c-.16.29-.24.48-.25.49l-1 1.85 1.22 2.32L22 7.05l-1-1.84a2.13 2.13 0 0 0-.15-.49zm-.18-.33a14.21 14.21 0 0 0-1.21-1.87 15.27 15.27 0 0 0-1.22 1.86c.21.39.33.66.35.71l.87 1.63.86-1.65a7 7 0 0 1 .35-.69zm-1.21 3l-1.22 2.33L19.46 12l1.21-2.29zm0 5.3L18.24 15l1.22 2.32L20.67 15zm0 5.31l-.87 1.65s-.14.31-.35.69a12.68 12.68 0 0 0 1.22 1.86 14.1 14.1 0 0 0 1.21-1.86c-.21-.38-.33-.65-.35-.7zm1.39 2c.15-.29.24-.48.24-.49l1-1.85-1.21-2.33-1.22 2.32 1 1.84a5.27 5.27 0 0 0 .19.51zm.15.32a12.68 12.68 0 0 0 1.22 1.86 12.22 12.22 0 0 0 1.23-1.86c-.21-.38-.33-.65-.35-.7L22.24 18l-.87 1.65a4.58 4.58 0 0 1-.37.69zm2.61-.32c.15-.29.24-.48.24-.49l1-1.85-1.19-2.33-1.22 2.33 1 1.84a4.29 4.29 0 0 0 .19.5zm.17.33A12.77 12.77 0 0 0 25 22.2a14.1 14.1 0 0 0 1.21-1.86c-.21-.38-.33-.65-.35-.7L25 18l-.87 1.65a4.37 4.37 0 0 1-.33.69zM26.39 10l-1.2 2.32 1.22 2.32 1.21-2.32zm0-5.33a4.52 4.52 0 0 0-.25.49l-1 1.84 1.22 2.32L27.57 7l-1-1.84a1.83 1.83 0 0 0-.18-.46zm-1.19-2.4a14.15 14.15 0 0 1 1.19 1.78 13.07 13.07 0 0 1 1.18-1.78 6.22 6.22 0 0 0-1.18-1.11 5.86 5.86 0 0 0-1.17 1.11zM23.89 1A6.88 6.88 0 0 1 25 2a7 7 0 0 1 1.1-1 2.05 2.05 0 0 0-2.21 0zm-1.44 1.24A12.22 12.22 0 0 1 23.62 4a12.22 12.22 0 0 1 1.17-1.76 6.22 6.22 0 0 0-1.18-1.11 5.45 5.45 0 0 0-1.14 1.11zm-.73-.8a6.76 6.76 0 0 1 .52.55 6.41 6.41 0 0 1 1.08-1 2.23 2.23 0 0 0-1.1-.32 2.4 2.4 0 0 0-1.08.3 6.71 6.71 0 0 1 .58.48m-.87-.3a6.17 6.17 0 0 0-1.21 1.13 14.15 14.15 0 0 1 1.19 1.78A13 13 0 0 1 22 2.25a5.71 5.71 0 0 0-1.19-1.11zM18.34 1a7 7 0 0 1 1.1 1 6.26 6.26 0 0 1 1.12-1 2.44 2.44 0 0 0-1.12-.34 2.32 2.32 0 0 0-1.08.34zm-.29 3.07a13.07 13.07 0 0 1 1.18-1.78A5.5 5.5 0 0 0 18 1.17l-.44.31a3.51 3.51 0 0 0-.74.8 14 14 0 0 1 1.19 1.77zm0 5.32l1.21-2.32-1-1.84-.26-.51c-.16.29-.24.48-.25.49l-1 1.85zm0 5.31l1.21-2.32L18.05 10l-1.2 2.32zm0 5.33c.15-.29.24-.48.24-.49l1-1.85-1.19-2.33-1.22 2.36 1 1.84a3.85 3.85 0 0 0 .19.47zm1.18 2.44a13.6 13.6 0 0 1-1.16-1.75 14.44 14.44 0 0 1-1.2 1.8A3.25 3.25 0 0 0 18 23.63a6.08 6.08 0 0 0 1.25-1.18zm1.33 1.25a5.5 5.5 0 0 1-1.1-1 6.7 6.7 0 0 1-1.18 1.14 3 3 0 0 0 1.17.27 2.34 2.34 0 0 0 1.11-.41zM22 22.45a13.07 13.07 0 0 1-1.18-1.78 14.15 14.15 0 0 1-1.19 1.78 6.22 6.22 0 0 0 1.18 1.11A5.71 5.71 0 0 0 22 22.45zm1.31 1.27a5.5 5.5 0 0 1-1.1-1 6.2 6.2 0 0 1-1.11 1 2.05 2.05 0 0 0 2.21 0zm1.47-1.29a13.18 13.18 0 0 1-1.18-1.76 14.15 14.15 0 0 1-1.19 1.78 5.71 5.71 0 0 0 1.19 1.11 6.07 6.07 0 0 0 1.21-1.11zm1.31 1.29a6.08 6.08 0 0 1-1.09-1 6.2 6.2 0 0 1-1.11 1 2 2 0 0 0 2.2 0zm1.47-1.29a13.07 13.07 0 0 1-1.18-1.78 14.15 14.15 0 0 1-1.19 1.78 5.71 5.71 0 0 0 1.19 1.11 6.07 6.07 0 0 0 1.21-1.11zM5.56.35zm0 23.71zm11.12-1.86v.52a6.2 6.2 0 0 1-1.11 1 2.27 2.27 0 0 0 1.11.29v.31a2.65 2.65 0 0 1-1.39-.43 2.87 2.87 0 0 1-1.39.43 2.65 2.65 0 0 1-1.39-.43 2.87 2.87 0 0 1-1.39.43 2.65 2.65 0 0 1-1.39-.43 2.87 2.87 0 0 1-1.39.43h-.05A3.39 3.39 0 0 1 6.86 24a2.6 2.6 0 0 1-1.3.39v-.31a2.32 2.32 0 0 0 1-.26 3.89 3.89 0 0 1-1-1.1v-.56a14 14 0 0 0 1.21-1.82c-.2-.38-.33-.65-.35-.7L5.56 18v-.67L6.77 15l-1.21-2.28V12l1.21-2.28-1.21-2.33v-.67l.87-1.65s.14-.31.34-.69a14.1 14.1 0 0 0-1.21-1.86V2a5.16 5.16 0 0 1 .75-.8l.34-.2A2.22 2.22 0 0 0 5.56.66V.35A2.74 2.74 0 0 1 7 .79 2.81 2.81 0 0 1 8.35.35a2.65 2.65 0 0 1 1.4.37A2.66 2.66 0 0 1 11.12.3a2.87 2.87 0 0 1 1.39.43A2.65 2.65 0 0 1 13.9.3a2.87 2.87 0 0 1 1.39.43A2.65 2.65 0 0 1 16.68.3v.31a2.29 2.29 0 0 0-1.11.39 6.61 6.61 0 0 1 1.11 1v.5a15.38 15.38 0 0 0-1.22 1.87c.21.38.33.65.35.7l.87 1.7v.67l-1.22 2.28L16.68 12v.66L15.46 15l1.22 2.32V18l-.87 1.65s-.14.31-.35.69a12.68 12.68 0 0 0 1.22 1.86zm-1.39-6.86l-1.22 2.33 1 1.84a4.66 4.66 0 0 0 .25.5c.15-.29.24-.48.24-.49l1-1.85zM9.73 10l-1.22 2.36 1.22 2.36 1.21-2.32zm1.39 2l1.21-2.28-1.21-2.29L9.9 9.72zM9.9 15l1.22 2.32L12.33 15l-1.21-2.28zm2.61-.33l1.21-2.32L12.51 10l-1.22 2.32zm.17.33l1.22 2.32L15.11 15l-1.21-2.28zm1.22-3l1.21-2.28-1.21-2.33-1.22 2.33zm.86-7s.15-.31.35-.69a14.52 14.52 0 0 0-1.21-1.8 14.36 14.36 0 0 0-1.21 1.85c.21.39.33.67.35.72l.86 1.64zm-2.25-.3l-.25.5-1 1.85 1.22 2.32 1.21-2.32-1-1.84a2.05 2.05 0 0 0-.18-.49zm-.17-.34a12.74 12.74 0 0 0-1.2-1.88 14 14 0 0 0-1.23 1.9c.2.38.33.65.35.7l.86 1.64.88-1.65a3.57 3.57 0 0 1 .34-.71zm-2.61.36l-.25.49-1 1.85 1.25 2.32 1.21-2.32L10 5.21zm-.18-.33a14.21 14.21 0 0 0-1.21-1.87 14.1 14.1 0 0 0-1.21 1.86c.2.39.33.66.35.71l.86 1.63.87-1.65a5.78 5.78 0 0 1 .34-.69zm-1.21 3L7.12 9.72 8.34 12l1.21-2.28zm0 5.3L7.12 15l1.22 2.32L9.55 15zm0 5.31l-.87 1.64s-.14.31-.34.69a12.71 12.71 0 0 0 1.21 1.87 14.1 14.1 0 0 0 1.21-1.86c-.2-.38-.33-.65-.35-.7zm1.39 2c.15-.29.24-.48.24-.49l1-1.85-1.24-2.31-1.22 2.32 1 1.84a4.31 4.31 0 0 0 .22.49zm.18.33a12.11 12.11 0 0 0 1.21 1.86 12.71 12.71 0 0 0 1.21-1.87c-.2-.38-.33-.65-.35-.7L11.12 18l-.87 1.65a5.52 5.52 0 0 1-.34.69zm2.6-.33c.15-.29.24-.48.24-.49l1-1.85-1.21-2.34-1.22 2.33 1 1.84a5.27 5.27 0 0 0 .19.51zm.18.33a12.71 12.71 0 0 0 1.21 1.87 12.61 12.61 0 0 0 1.21-1.86c-.21-.38-.33-.65-.35-.7L13.9 18l-.9 1.65a3.55 3.55 0 0 1-.31.69zM15.29 10l-1.22 2.31 1.22 2.32 1.21-2.32zm0-5.33c-.16.29-.24.48-.25.49L14 7l1.22 2.32 1.28-2.26-1-1.84a3.11 3.11 0 0 0-.21-.5zM14.1 2.28a14.15 14.15 0 0 1 1.19 1.78 13.07 13.07 0 0 1 1.18-1.78 6.22 6.22 0 0 0-1.18-1.11 5.66 5.66 0 0 0-1.19 1.1zM12.8 1a7 7 0 0 1 1.1 1A7 7 0 0 1 15 1a2.26 2.26 0 0 0-1.1-.33 2.14 2.14 0 0 0-1.1.33zm-1.45 1.25A12.22 12.22 0 0 1 12.52 4a12.22 12.22 0 0 1 1.17-1.76 6.22 6.22 0 0 0-1.18-1.11 5.51 5.51 0 0 0-1.16 1.1zm-.73-.8c.18.17.36.36.53.55a5.64 5.64 0 0 1 1.07-1 2.07 2.07 0 0 0-2.17 0 6.57 6.57 0 0 1 .57.48m-.87-.3A6.12 6.12 0 0 0 8.54 2.3a14.15 14.15 0 0 1 1.19 1.78 13.59 13.59 0 0 1 1.21-1.81 5.66 5.66 0 0 0-1.19-1.1zM7.24 1a7 7 0 0 1 1.1 1 6.26 6.26 0 0 1 1.12-1A2.44 2.44 0 0 0 8.34.69a2.22 2.22 0 0 0-1.1.31zM7 4a13.72 13.72 0 0 1 1.13-1.75A6.54 6.54 0 0 0 7 1.15a5.09 5.09 0 0 0-.45.31 3.51 3.51 0 0 0-.74.8A15 15 0 0 1 7 4.05zm0 5.35L8.16 7l-1-1.84L7 4.72l-.3.49-1 1.85zm0 5.37l1.21-2.32L7 10l-1.27 2.36zM7 20c.15-.29.24-.48.24-.49l1-1.85L7 15.34l-1.27 2.33 1 1.84A4.67 4.67 0 0 0 7 20zm1.18 2.44A14 14 0 0 1 7 20.67a13.41 13.41 0 0 1-1.2 1.8 3.33 3.33 0 0 0 1.11 1.16 5.93 5.93 0 0 0 1.22-1.18zm1.31 1.28a5.5 5.5 0 0 1-1.1-1 6.47 6.47 0 0 1-1.17 1.11 2.9 2.9 0 0 0 1.16.27 2.26 2.26 0 0 0 1.06-.38zM11 22.44a14.37 14.37 0 0 1-1.22-1.78 14.15 14.15 0 0 1-1.19 1.78 5.71 5.71 0 0 0 1.19 1.11 6.54 6.54 0 0 0 1.13-1.1zm1.27 1.28a5.5 5.5 0 0 1-1.1-1 7 7 0 0 1-1.1 1 2.23 2.23 0 0 0 1.1.32 2.3 2.3 0 0 0 1.05-.32zm1.47-1.29a13.07 13.07 0 0 1-1.18-1.78 14.15 14.15 0 0 1-1.19 1.78 5.71 5.71 0 0 0 1.19 1.11 6.54 6.54 0 0 0 1.13-1.1zM15 23.72a5.5 5.5 0 0 1-1.1-1 7 7 0 0 1-1.1 1 2 2 0 0 0 2.2 0zm1.47-1.29a13.07 13.07 0 0 1-1.18-1.78 14.37 14.37 0 0 1-1.19 1.8 5.71 5.71 0 0 0 1.19 1.11 6.22 6.22 0 0 0 1.18-1.11zM5.56 22.2v.52a7 7 0 0 1-1.1 1 2.23 2.23 0 0 0 1.1.29v.31a2.65 2.65 0 0 1-1.39-.43 2.87 2.87 0 0 1-1.39.43 2.87 2.87 0 0 1-1.39-.43 2.76 2.76 0 0 1-1.39.48 2.87 2.87 0 0 1-1.39-.43 2.87 2.87 0 0 1-1.39.43h-.05A3.19 3.19 0 0 1-4.25 24a2.67 2.67 0 0 1-1.31.39v-.31a2.32 2.32 0 0 0 1-.26 3.51 3.51 0 0 1-1-1.1v-.56a14 14 0 0 0 1.21-1.82c-.2-.38-.33-.65-.35-.7L-5.56 18v-.67L-4.34 15l-1.22-2.28V12l1.22-2.32-1.22-2.25v-.71l.87-1.65s.14-.31.34-.69a14.1 14.1 0 0 0-1.21-1.86V2a4.12 4.12 0 0 1 .76-.8l.33-.2A2.12 2.12 0 0 0-5.56.66V.35a2.69 2.69 0 0 1 1.4.44A2.78 2.78 0 0 1-2.77.35a2.8 2.8 0 0 1 1.41.37A2.7 2.7 0 0 1 0 .35a2.87 2.87 0 0 1 1.39.43A2.87 2.87 0 0 1 2.78.35a2.87 2.87 0 0 1 1.39.43A2.65 2.65 0 0 1 5.56.35v.31a2.16 2.16 0 0 0-1.1.34 7 7 0 0 1 1.1 1v.5a12.8 12.8 0 0 0-1.21 1.88c.2.38.33.65.35.7l.86 1.64v.67L4.34 9.72 5.56 12v.66L4.34 15l1.22 2.32V18l-.87 1.65s-.14.31-.34.69a12.11 12.11 0 0 0 1.21 1.86zm-1.39-6.86L3 17.67l1 1.84a4.66 4.66 0 0 0 .25.5c.15-.29.24-.48.24-.49l1-1.85zM-1.39 10l-1.22 2.32 1.22 2.32 1.22-2.32zM0 12l1.22-2.28L0 7.39l-1.22 2.33zm-1.22 3L0 17.33 1.22 15 0 12.72zm2.61-.33l1.22-2.32L1.39 10 .17 12.36zm.17.33l1.22 2.32L4 15l-1.22-2.28zm1.22-3L4 9.72 2.78 7.39 1.56 9.72zm.87-7s.14-.31.34-.69a14.52 14.52 0 0 0-1.21-1.8 13.31 13.31 0 0 0-1.2 1.85c.2.39.32.67.34.72l.86 1.64zM1.4 4.72l-.26.5-1 1.85 1.25 2.32 1.22-2.32-1-1.84a3.89 3.89 0 0 0-.21-.51zm-.18-.34A13.06 13.06 0 0 0 0 2.48a14 14 0 0 0-1.23 1.9c.2.38.33.65.35.7L0 6.72l.87-1.65a4.68 4.68 0 0 1 .35-.71zm-2.61.34c-.15.29-.24.48-.24.49l-1 1.85 1.22 2.32 1.24-2.32-1-1.84a4.46 4.46 0 0 0-.22-.5zm-.18-.33a12.71 12.71 0 0 0-1.21-1.87A12.58 12.58 0 0 0-4 4.37c.2.39.33.66.35.71l.86 1.64.87-1.65a7 7 0 0 1 .35-.69zm-1.21 3L-4 9.72-2.78 12l1.22-2.29zm0 5.3L-4 15l1.22 2.32L-1.56 15zm0 5.31l-.87 1.65s-.14.31-.34.69a12.61 12.61 0 0 0 1.21 1.86 12.61 12.61 0 0 0 1.21-1.86c-.2-.38-.33-.65-.35-.7zm1.39 2l.25-.49 1-1.85-1.22-2.33-1.22 2.32 1 1.84a1.84 1.84 0 0 0 .19.51zm.18.33A12.71 12.71 0 0 0 0 22.2a12.11 12.11 0 0 0 1.21-1.86c-.2-.38-.33-.65-.35-.7L0 18l-.87 1.65a4.42 4.42 0 0 1-.34.69zm2.6-.33c.15-.29.24-.48.24-.49l1-1.85-1.24-2.32-1.22 2.33 1 1.84a3.06 3.06 0 0 0 .22.49zm.18.33a12.61 12.61 0 0 0 1.21 1.87A12.68 12.68 0 0 0 4 20.34c-.2-.38-.33-.65-.35-.7L2.78 18l-.87 1.65a5.52 5.52 0 0 1-.34.69zM4.17 10L3 12.36l1.22 2.36 1.21-2.32zm0-5.33l-.25.49L3 7.05l1.17 2.32 1.21-2.32-1-1.84a3.11 3.11 0 0 0-.21-.5zM3 2.27a14 14 0 0 1 1.17 1.78 14.08 14.08 0 0 1 1.18-1.78 6.22 6.22 0 0 0-1.18-1.11A5.86 5.86 0 0 0 3 2.27zM1.68 1a7 7 0 0 1 1.1 1 7 7 0 0 1 1.1-1 2.16 2.16 0 0 0-1.1-.34 2.16 2.16 0 0 0-1.1.34zM.23 2.24A12.22 12.22 0 0 1 1.4 4a12 12 0 0 1 1.18-1.73 6.59 6.59 0 0 0-1.19-1.11A6.25 6.25 0 0 0 .23 2.24zm-.73-.8A6.66 6.66 0 0 1 0 2a7 7 0 0 1 1.1-1A2.16 2.16 0 0 0 0 .66 2.25 2.25 0 0 0-1.07 1a6.57 6.57 0 0 1 .57.48m-.87-.3a6 6 0 0 0-1.21 1.09 14.15 14.15 0 0 1 1.19 1.78A13.59 13.59 0 0 1-.18 2.24a5.66 5.66 0 0 0-1.19-1.1zM-3.88 1a7 7 0 0 1 1.1 1 6.26 6.26 0 0 1 1.12-1A2.44 2.44 0 0 0-2.78.66a2.26 2.26 0 0 0-1.1.34zm-.29 3.07A13.2 13.2 0 0 1-3 2.27a6.53 6.53 0 0 0-1.17-1.12l-.45.31a4 4 0 0 0-.74.8 13.57 13.57 0 0 1 1.19 1.79zm0 5.32l1.22-2.32-1-1.84a4.66 4.66 0 0 0-.25-.5c-.15.29-.24.48-.24.49l-1 1.85zm0 5.31l1.22-2.32L-4.17 10l-1.21 2.32zm0 5.33l.25-.49 1-1.85-1.22-2.33-1.21 2.36 1 1.84a2.07 2.07 0 0 0 .18.44zM-3 22.45a14.15 14.15 0 0 1-1.19-1.78 13.41 13.41 0 0 1-1.2 1.8 3.33 3.33 0 0 0 1.11 1.16A6.24 6.24 0 0 0-3 22.45zm1.3 1.27a7 7 0 0 1-1.1-1A6.7 6.7 0 0 1-4 23.84a2.87 2.87 0 0 0 1.19.27 2.32 2.32 0 0 0 1.13-.39zm1.5-1.27a14.15 14.15 0 0 1-1.19-1.78 14.15 14.15 0 0 1-1.19 1.78 6.59 6.59 0 0 0 1.19 1.11A6.59 6.59 0 0 0-.2 22.45zm1.3 1.27a7 7 0 0 1-1.1-1 7 7 0 0 1-1.1 1 2.26 2.26 0 0 0 1.1.34 2.26 2.26 0 0 0 1.1-.34zm1.48-1.27a14.15 14.15 0 0 1-1.19-1.78A14.15 14.15 0 0 1 .2 22.45a6.59 6.59 0 0 0 1.19 1.11 6.59 6.59 0 0 0 1.19-1.11zm1.3 1.27a7 7 0 0 1-1.1-1 7 7 0 0 1-1.1 1 2.26 2.26 0 0 0 1.1.34 2.26 2.26 0 0 0 1.1-.34zm1.47-1.27a14.08 14.08 0 0 1-1.18-1.78A13 13 0 0 1 3 22.45a5.71 5.71 0 0 0 1.19 1.11 6.41 6.41 0 0 0 1.16-1.11z"/></pattern><pattern id="d" data-name="d" width="22.24" height="24.72" patternTransform="matrix(7.73 0 0 7.73 -1020.16 -557.01)" patternUnits="userSpaceOnUse"><path class="cls-1" d="M0 0h22.24v24.72H0z"/><path class="cls-1" d="M0 24.72h22.24V0H0z"/><path class="cls-1" d="M0 24.72h22.24V0H0z"/><path class="cls-3" d="M16.68.35zm0 23.71zM27.8 22.2v.52a5.5 5.5 0 0 1-1.1 1 2.23 2.23 0 0 0 1.1.29v.31a2.7 2.7 0 0 1-1.38-.43 2.78 2.78 0 0 1-1.42.43 2.65 2.65 0 0 1-1.39-.43 2.76 2.76 0 0 1-1.36.43 2.65 2.65 0 0 1-1.39-.43 2.87 2.87 0 0 1-1.39.43h-.07A3.26 3.26 0 0 1 18 24a2.6 2.6 0 0 1-1.3.39v-.31a2.32 2.32 0 0 0 1-.26 3.89 3.89 0 0 1-1-1.1v-.56a15.19 15.19 0 0 0 1.21-1.86c-.21-.38-.33-.65-.35-.7l-.88-1.6v-.67L17.89 15l-1.21-2.24V12l1.21-2.32-1.21-2.25v-.71l.86-1.65s.15-.31.35-.69a15.19 15.19 0 0 0-1.21-1.86V2a4.07 4.07 0 0 1 .75-.8l.34-.2a2.22 2.22 0 0 0-1.09-.34V.35a2.78 2.78 0 0 1 1.4.44 2.48 2.48 0 0 1 2.79 0 2.66 2.66 0 0 1 1.37-.44 2.87 2.87 0 0 1 1.39.43 2.44 2.44 0 0 1 2.76 0 2.68 2.68 0 0 1 1.4-.43v.31a2.23 2.23 0 0 0-1.1.32 7 7 0 0 1 1.1 1v.5a15.31 15.31 0 0 0-1.21 1.87c.21.38.33.65.35.7l.86 1.67v.67l-1.21 2.33L27.79 12v.66L26.58 15l1.21 2.32V18l-.86 1.65s-.14.31-.35.69a14.1 14.1 0 0 0 1.21 1.86zm-1.39-6.86l-1.22 2.33 1 1.84a4.66 4.66 0 0 0 .25.5c.15-.29.24-.48.24-.49l1-1.85zM20.85 10l-1.22 2.32 1.22 2.32 1.21-2.32zm1.39 2l1.21-2.28-1.21-2.29L21 9.72zM21 15l1.22 2.32L23.45 15l-1.21-2.28zm2.61-.33l1.21-2.32L23.63 10l-1.22 2.32zm.17.33L25 17.33 26.23 15 25 12.72zM25 12l1.21-2.28L25 7.39l-1.2 2.33zm.86-7s.14-.31.35-.69A14.52 14.52 0 0 0 25 2.51a14.36 14.36 0 0 0-1.21 1.85 5.93 5.93 0 0 1 .34.72L25 6.72zm-2.23-.3l-.25.5-1 1.85 1.22 2.32 1.21-2.32-1-1.84a2.05 2.05 0 0 0-.18-.49zm-.17-.34a12.74 12.74 0 0 0-1.2-1.88A14.22 14.22 0 0 0 21 4.38c.21.38.33.65.35.7l.87 1.64.86-1.65zm-2.61.36c-.16.29-.24.48-.25.49l-1 1.85 1.22 2.32L22 7.05l-1-1.84a2.13 2.13 0 0 0-.15-.49zm-.18-.33a14.21 14.21 0 0 0-1.21-1.87 15.27 15.27 0 0 0-1.22 1.86c.21.39.33.66.35.71l.87 1.63.86-1.65a7 7 0 0 1 .35-.69zm-1.21 3l-1.22 2.33L19.46 12l1.21-2.29zm0 5.3L18.24 15l1.22 2.32L20.67 15zm0 5.31l-.87 1.65s-.14.31-.35.69a12.68 12.68 0 0 0 1.22 1.86 14.1 14.1 0 0 0 1.21-1.86c-.21-.38-.33-.65-.35-.7zm1.39 2c.15-.29.24-.48.24-.49l1-1.85-1.21-2.33-1.22 2.32 1 1.84a5.27 5.27 0 0 0 .19.51zm.15.32a12.68 12.68 0 0 0 1.22 1.86 12.22 12.22 0 0 0 1.23-1.86c-.21-.38-.33-.65-.35-.7L22.24 18l-.87 1.65a4.58 4.58 0 0 1-.37.69zm2.61-.32c.15-.29.24-.48.24-.49l1-1.85-1.19-2.33-1.22 2.33 1 1.84a4.29 4.29 0 0 0 .19.5zm.17.33A12.77 12.77 0 0 0 25 22.2a14.1 14.1 0 0 0 1.21-1.86c-.21-.38-.33-.65-.35-.7L25 18l-.87 1.65a4.37 4.37 0 0 1-.33.69zM26.39 10l-1.2 2.32 1.22 2.32 1.21-2.32zm0-5.33a4.52 4.52 0 0 0-.25.49l-1 1.84 1.22 2.32L27.57 7l-1-1.84a1.83 1.83 0 0 0-.18-.46zm-1.19-2.4a14.15 14.15 0 0 1 1.19 1.78 13.07 13.07 0 0 1 1.18-1.78 6.22 6.22 0 0 0-1.18-1.11 5.86 5.86 0 0 0-1.17 1.11zM23.89 1A6.88 6.88 0 0 1 25 2a7 7 0 0 1 1.1-1 2.05 2.05 0 0 0-2.21 0zm-1.44 1.24A12.22 12.22 0 0 1 23.62 4a12.22 12.22 0 0 1 1.17-1.76 6.22 6.22 0 0 0-1.18-1.11 5.45 5.45 0 0 0-1.14 1.11zm-.73-.8a6.76 6.76 0 0 1 .52.55 6.41 6.41 0 0 1 1.08-1 2.23 2.23 0 0 0-1.1-.32 2.4 2.4 0 0 0-1.08.3 6.71 6.71 0 0 1 .58.48m-.87-.3a6.17 6.17 0 0 0-1.21 1.13 14.15 14.15 0 0 1 1.19 1.78A13 13 0 0 1 22 2.25a5.71 5.71 0 0 0-1.19-1.11zM18.34 1a7 7 0 0 1 1.1 1 6.26 6.26 0 0 1 1.12-1 2.44 2.44 0 0 0-1.12-.34 2.32 2.32 0 0 0-1.08.34zm-.29 3.07a13.07 13.07 0 0 1 1.18-1.78A5.5 5.5 0 0 0 18 1.17l-.44.31a3.51 3.51 0 0 0-.74.8 14 14 0 0 1 1.19 1.77zm0 5.32l1.21-2.32-1-1.84-.26-.51c-.16.29-.24.48-.25.49l-1 1.85zm0 5.31l1.21-2.32L18.05 10l-1.2 2.32zm0 5.33c.15-.29.24-.48.24-.49l1-1.85-1.19-2.33-1.22 2.36 1 1.84a3.85 3.85 0 0 0 .19.47zm1.18 2.44a13.6 13.6 0 0 1-1.16-1.75 14.44 14.44 0 0 1-1.2 1.8A3.25 3.25 0 0 0 18 23.63a6.08 6.08 0 0 0 1.25-1.18zm1.33 1.25a5.5 5.5 0 0 1-1.1-1 6.7 6.7 0 0 1-1.18 1.14 3 3 0 0 0 1.17.27 2.34 2.34 0 0 0 1.11-.41zM22 22.45a13.07 13.07 0 0 1-1.18-1.78 14.15 14.15 0 0 1-1.19 1.78 6.22 6.22 0 0 0 1.18 1.11A5.71 5.71 0 0 0 22 22.45zm1.31 1.27a5.5 5.5 0 0 1-1.1-1 6.2 6.2 0 0 1-1.11 1 2.05 2.05 0 0 0 2.21 0zm1.47-1.29a13.18 13.18 0 0 1-1.18-1.76 14.15 14.15 0 0 1-1.19 1.78 5.71 5.71 0 0 0 1.19 1.11 6.07 6.07 0 0 0 1.21-1.11zm1.31 1.29a6.08 6.08 0 0 1-1.09-1 6.2 6.2 0 0 1-1.11 1 2 2 0 0 0 2.2 0zm1.47-1.29a13.07 13.07 0 0 1-1.18-1.78 14.15 14.15 0 0 1-1.19 1.78 5.71 5.71 0 0 0 1.19 1.11 6.07 6.07 0 0 0 1.21-1.11zM5.56.35zm0 23.71zm11.12-1.86v.52a6.2 6.2 0 0 1-1.11 1 2.27 2.27 0 0 0 1.11.29v.31a2.65 2.65 0 0 1-1.39-.43 2.87 2.87 0 0 1-1.39.43 2.65 2.65 0 0 1-1.39-.43 2.87 2.87 0 0 1-1.39.43 2.65 2.65 0 0 1-1.39-.43 2.87 2.87 0 0 1-1.39.43h-.05A3.39 3.39 0 0 1 6.86 24a2.6 2.6 0 0 1-1.3.39v-.31a2.32 2.32 0 0 0 1-.26 3.89 3.89 0 0 1-1-1.1v-.56a14 14 0 0 0 1.21-1.82c-.2-.38-.33-.65-.35-.7L5.56 18v-.67L6.77 15l-1.21-2.28V12l1.21-2.28-1.21-2.33v-.67l.87-1.65s.14-.31.34-.69a14.1 14.1 0 0 0-1.21-1.86V2a5.16 5.16 0 0 1 .75-.8l.34-.2A2.22 2.22 0 0 0 5.56.66V.35A2.74 2.74 0 0 1 7 .79 2.81 2.81 0 0 1 8.35.35a2.65 2.65 0 0 1 1.4.37A2.66 2.66 0 0 1 11.12.3a2.87 2.87 0 0 1 1.39.43A2.65 2.65 0 0 1 13.9.3a2.87 2.87 0 0 1 1.39.43A2.65 2.65 0 0 1 16.68.3v.31a2.29 2.29 0 0 0-1.11.39 6.61 6.61 0 0 1 1.11 1v.5a15.38 15.38 0 0 0-1.22 1.87c.21.38.33.65.35.7l.87 1.7v.67l-1.22 2.28L16.68 12v.66L15.46 15l1.22 2.32V18l-.87 1.65s-.14.31-.35.69a12.68 12.68 0 0 0 1.22 1.86zm-1.39-6.86l-1.22 2.33 1 1.84a4.66 4.66 0 0 0 .25.5c.15-.29.24-.48.24-.49l1-1.85zM9.73 10l-1.22 2.36 1.22 2.36 1.21-2.32zm1.39 2l1.21-2.28-1.21-2.29L9.9 9.72zM9.9 15l1.22 2.32L12.33 15l-1.21-2.28zm2.61-.33l1.21-2.32L12.51 10l-1.22 2.32zm.17.33l1.22 2.32L15.11 15l-1.21-2.28zm1.22-3l1.21-2.28-1.21-2.33-1.22 2.33zm.86-7s.15-.31.35-.69a14.52 14.52 0 0 0-1.21-1.8 14.36 14.36 0 0 0-1.21 1.85c.21.39.33.67.35.72l.86 1.64zm-2.25-.3l-.25.5-1 1.85 1.22 2.32 1.21-2.32-1-1.84a2.05 2.05 0 0 0-.18-.49zm-.17-.34a12.74 12.74 0 0 0-1.2-1.88 14 14 0 0 0-1.23 1.9c.2.38.33.65.35.7l.86 1.64.88-1.65a3.57 3.57 0 0 1 .34-.71zm-2.61.36l-.25.49-1 1.85 1.25 2.32 1.21-2.32L10 5.21zm-.18-.33a14.21 14.21 0 0 0-1.21-1.87 14.1 14.1 0 0 0-1.21 1.86c.2.39.33.66.35.71l.86 1.63.87-1.65a5.78 5.78 0 0 1 .34-.69zm-1.21 3L7.12 9.72 8.34 12l1.21-2.28zm0 5.3L7.12 15l1.22 2.32L9.55 15zm0 5.31l-.87 1.64s-.14.31-.34.69a12.71 12.71 0 0 0 1.21 1.87 14.1 14.1 0 0 0 1.21-1.86c-.2-.38-.33-.65-.35-.7zm1.39 2c.15-.29.24-.48.24-.49l1-1.85-1.24-2.31-1.22 2.32 1 1.84a4.31 4.31 0 0 0 .22.49zm.18.33a12.11 12.11 0 0 0 1.21 1.86 12.71 12.71 0 0 0 1.21-1.87c-.2-.38-.33-.65-.35-.7L11.12 18l-.87 1.65a5.52 5.52 0 0 1-.34.69zm2.6-.33c.15-.29.24-.48.24-.49l1-1.85-1.21-2.34-1.22 2.33 1 1.84a5.27 5.27 0 0 0 .19.51zm.18.33a12.71 12.71 0 0 0 1.21 1.87 12.61 12.61 0 0 0 1.21-1.86c-.21-.38-.33-.65-.35-.7L13.9 18l-.9 1.65a3.55 3.55 0 0 1-.31.69zM15.29 10l-1.22 2.31 1.22 2.32 1.21-2.32zm0-5.33c-.16.29-.24.48-.25.49L14 7l1.22 2.32 1.28-2.26-1-1.84a3.11 3.11 0 0 0-.21-.5zM14.1 2.28a14.15 14.15 0 0 1 1.19 1.78 13.07 13.07 0 0 1 1.18-1.78 6.22 6.22 0 0 0-1.18-1.11 5.66 5.66 0 0 0-1.19 1.1zM12.8 1a7 7 0 0 1 1.1 1A7 7 0 0 1 15 1a2.26 2.26 0 0 0-1.1-.33 2.14 2.14 0 0 0-1.1.33zm-1.45 1.25A12.22 12.22 0 0 1 12.52 4a12.22 12.22 0 0 1 1.17-1.76 6.22 6.22 0 0 0-1.18-1.11 5.51 5.51 0 0 0-1.16 1.1zm-.73-.8c.18.17.36.36.53.55a5.64 5.64 0 0 1 1.07-1 2.07 2.07 0 0 0-2.17 0 6.57 6.57 0 0 1 .57.48m-.87-.3A6.12 6.12 0 0 0 8.54 2.3a14.15 14.15 0 0 1 1.19 1.78 13.59 13.59 0 0 1 1.21-1.81 5.66 5.66 0 0 0-1.19-1.1zM7.24 1a7 7 0 0 1 1.1 1 6.26 6.26 0 0 1 1.12-1A2.44 2.44 0 0 0 8.34.69a2.22 2.22 0 0 0-1.1.31zM7 4a13.72 13.72 0 0 1 1.13-1.75A6.54 6.54 0 0 0 7 1.15a5.09 5.09 0 0 0-.45.31 3.51 3.51 0 0 0-.74.8A15 15 0 0 1 7 4.05zm0 5.35L8.16 7l-1-1.84L7 4.72l-.3.49-1 1.85zm0 5.37l1.21-2.32L7 10l-1.27 2.36zM7 20c.15-.29.24-.48.24-.49l1-1.85L7 15.34l-1.27 2.33 1 1.84A4.67 4.67 0 0 0 7 20zm1.18 2.44A14 14 0 0 1 7 20.67a13.41 13.41 0 0 1-1.2 1.8 3.33 3.33 0 0 0 1.11 1.16 5.93 5.93 0 0 0 1.22-1.18zm1.31 1.28a5.5 5.5 0 0 1-1.1-1 6.47 6.47 0 0 1-1.17 1.11 2.9 2.9 0 0 0 1.16.27 2.26 2.26 0 0 0 1.06-.38zM11 22.44a14.37 14.37 0 0 1-1.22-1.78 14.15 14.15 0 0 1-1.19 1.78 5.71 5.71 0 0 0 1.19 1.11 6.54 6.54 0 0 0 1.13-1.1zm1.27 1.28a5.5 5.5 0 0 1-1.1-1 7 7 0 0 1-1.1 1 2.23 2.23 0 0 0 1.1.32 2.3 2.3 0 0 0 1.05-.32zm1.47-1.29a13.07 13.07 0 0 1-1.18-1.78 14.15 14.15 0 0 1-1.19 1.78 5.71 5.71 0 0 0 1.19 1.11 6.54 6.54 0 0 0 1.13-1.1zM15 23.72a5.5 5.5 0 0 1-1.1-1 7 7 0 0 1-1.1 1 2 2 0 0 0 2.2 0zm1.47-1.29a13.07 13.07 0 0 1-1.18-1.78 14.37 14.37 0 0 1-1.19 1.8 5.71 5.71 0 0 0 1.19 1.11 6.22 6.22 0 0 0 1.18-1.11zM5.56 22.2v.52a7 7 0 0 1-1.1 1 2.23 2.23 0 0 0 1.1.29v.31a2.65 2.65 0 0 1-1.39-.43 2.87 2.87 0 0 1-1.39.43 2.87 2.87 0 0 1-1.39-.43 2.76 2.76 0 0 1-1.39.48 2.87 2.87 0 0 1-1.39-.43 2.87 2.87 0 0 1-1.39.43h-.05A3.19 3.19 0 0 1-4.25 24a2.67 2.67 0 0 1-1.31.39v-.31a2.32 2.32 0 0 0 1-.26 3.51 3.51 0 0 1-1-1.1v-.56a14 14 0 0 0 1.21-1.82c-.2-.38-.33-.65-.35-.7L-5.56 18v-.67L-4.34 15l-1.22-2.28V12l1.22-2.32-1.22-2.25v-.71l.87-1.65s.14-.31.34-.69a14.1 14.1 0 0 0-1.21-1.86V2a4.12 4.12 0 0 1 .76-.8l.33-.2A2.12 2.12 0 0 0-5.56.66V.35a2.69 2.69 0 0 1 1.4.44A2.78 2.78 0 0 1-2.77.35a2.8 2.8 0 0 1 1.41.37A2.7 2.7 0 0 1 0 .35a2.87 2.87 0 0 1 1.39.43A2.87 2.87 0 0 1 2.78.35a2.87 2.87 0 0 1 1.39.43A2.65 2.65 0 0 1 5.56.35v.31a2.16 2.16 0 0 0-1.1.34 7 7 0 0 1 1.1 1v.5a12.8 12.8 0 0 0-1.21 1.88c.2.38.33.65.35.7l.86 1.64v.67L4.34 9.72 5.56 12v.66L4.34 15l1.22 2.32V18l-.87 1.65s-.14.31-.34.69a12.11 12.11 0 0 0 1.21 1.86zm-1.39-6.86L3 17.67l1 1.84a4.66 4.66 0 0 0 .25.5c.15-.29.24-.48.24-.49l1-1.85zM-1.39 10l-1.22 2.32 1.22 2.32 1.22-2.32zM0 12l1.22-2.28L0 7.39l-1.22 2.33zm-1.22 3L0 17.33 1.22 15 0 12.72zm2.61-.33l1.22-2.32L1.39 10 .17 12.36zm.17.33l1.22 2.32L4 15l-1.22-2.28zm1.22-3L4 9.72 2.78 7.39 1.56 9.72zm.87-7s.14-.31.34-.69a14.52 14.52 0 0 0-1.21-1.8 13.31 13.31 0 0 0-1.2 1.85c.2.39.32.67.34.72l.86 1.64zM1.4 4.72l-.26.5-1 1.85 1.25 2.32 1.22-2.32-1-1.84a3.89 3.89 0 0 0-.21-.51zm-.18-.34A13.06 13.06 0 0 0 0 2.48a14 14 0 0 0-1.23 1.9c.2.38.33.65.35.7L0 6.72l.87-1.65a4.68 4.68 0 0 1 .35-.71zm-2.61.34c-.15.29-.24.48-.24.49l-1 1.85 1.22 2.32 1.24-2.32-1-1.84a4.46 4.46 0 0 0-.22-.5zm-.18-.33a12.71 12.71 0 0 0-1.21-1.87A12.58 12.58 0 0 0-4 4.37c.2.39.33.66.35.71l.86 1.64.87-1.65a7 7 0 0 1 .35-.69zm-1.21 3L-4 9.72-2.78 12l1.22-2.29zm0 5.3L-4 15l1.22 2.32L-1.56 15zm0 5.31l-.87 1.65s-.14.31-.34.69a12.61 12.61 0 0 0 1.21 1.86 12.61 12.61 0 0 0 1.21-1.86c-.2-.38-.33-.65-.35-.7zm1.39 2l.25-.49 1-1.85-1.22-2.33-1.22 2.32 1 1.84a1.84 1.84 0 0 0 .19.51zm.18.33A12.71 12.71 0 0 0 0 22.2a12.11 12.11 0 0 0 1.21-1.86c-.2-.38-.33-.65-.35-.7L0 18l-.87 1.65a4.42 4.42 0 0 1-.34.69zm2.6-.33c.15-.29.24-.48.24-.49l1-1.85-1.24-2.32-1.22 2.33 1 1.84a3.06 3.06 0 0 0 .22.49zm.18.33a12.61 12.61 0 0 0 1.21 1.87A12.68 12.68 0 0 0 4 20.34c-.2-.38-.33-.65-.35-.7L2.78 18l-.87 1.65a5.52 5.52 0 0 1-.34.69zM4.17 10L3 12.36l1.22 2.36 1.21-2.32zm0-5.33l-.25.49L3 7.05l1.17 2.32 1.21-2.32-1-1.84a3.11 3.11 0 0 0-.21-.5zM3 2.27a14 14 0 0 1 1.17 1.78 14.08 14.08 0 0 1 1.18-1.78 6.22 6.22 0 0 0-1.18-1.11A5.86 5.86 0 0 0 3 2.27zM1.68 1a7 7 0 0 1 1.1 1 7 7 0 0 1 1.1-1 2.16 2.16 0 0 0-1.1-.34 2.16 2.16 0 0 0-1.1.34zM.23 2.24A12.22 12.22 0 0 1 1.4 4a12 12 0 0 1 1.18-1.73 6.59 6.59 0 0 0-1.19-1.11A6.25 6.25 0 0 0 .23 2.24zm-.73-.8A6.66 6.66 0 0 1 0 2a7 7 0 0 1 1.1-1A2.16 2.16 0 0 0 0 .66 2.25 2.25 0 0 0-1.07 1a6.57 6.57 0 0 1 .57.48m-.87-.3a6 6 0 0 0-1.21 1.09 14.15 14.15 0 0 1 1.19 1.78A13.59 13.59 0 0 1-.18 2.24a5.66 5.66 0 0 0-1.19-1.1zM-3.88 1a7 7 0 0 1 1.1 1 6.26 6.26 0 0 1 1.12-1A2.44 2.44 0 0 0-2.78.66a2.26 2.26 0 0 0-1.1.34zm-.29 3.07A13.2 13.2 0 0 1-3 2.27a6.53 6.53 0 0 0-1.17-1.12l-.45.31a4 4 0 0 0-.74.8 13.57 13.57 0 0 1 1.19 1.79zm0 5.32l1.22-2.32-1-1.84a4.66 4.66 0 0 0-.25-.5c-.15.29-.24.48-.24.49l-1 1.85zm0 5.31l1.22-2.32L-4.17 10l-1.21 2.32zm0 5.33l.25-.49 1-1.85-1.22-2.33-1.21 2.36 1 1.84a2.07 2.07 0 0 0 .18.44zM-3 22.45a14.15 14.15 0 0 1-1.19-1.78 13.41 13.41 0 0 1-1.2 1.8 3.33 3.33 0 0 0 1.11 1.16A6.24 6.24 0 0 0-3 22.45zm1.3 1.27a7 7 0 0 1-1.1-1A6.7 6.7 0 0 1-4 23.84a2.87 2.87 0 0 0 1.19.27 2.32 2.32 0 0 0 1.13-.39zm1.5-1.27a14.15 14.15 0 0 1-1.19-1.78 14.15 14.15 0 0 1-1.19 1.78 6.59 6.59 0 0 0 1.19 1.11A6.59 6.59 0 0 0-.2 22.45zm1.3 1.27a7 7 0 0 1-1.1-1 7 7 0 0 1-1.1 1 2.26 2.26 0 0 0 1.1.34 2.26 2.26 0 0 0 1.1-.34zm1.48-1.27a14.15 14.15 0 0 1-1.19-1.78A14.15 14.15 0 0 1 .2 22.45a6.59 6.59 0 0 0 1.19 1.11 6.59 6.59 0 0 0 1.19-1.11zm1.3 1.27a7 7 0 0 1-1.1-1 7 7 0 0 1-1.1 1 2.26 2.26 0 0 0 1.1.34 2.26 2.26 0 0 0 1.1-.34zm1.47-1.27a14.08 14.08 0 0 1-1.18-1.78A13 13 0 0 1 3 22.45a5.71 5.71 0 0 0 1.19 1.11 6.41 6.41 0 0 0 1.16-1.11z"/></pattern><pattern id="e" data-name="e" width="36.88" height="21.29" patternTransform="scale(-8.03 8.03) rotate(-62 -433.453 350.24)" patternUnits="userSpaceOnUse"><path class="cls-1" d="M0 0h36.88v21.29H0z"/><path class="cls-1" d="M0 21.29h36.88V0H0z"/><path class="cls-1" d="M0 21.29h36.88V0H0z"/><path class="cls-4" d="M0 0h.75L0 .43zm4.85 0L0 2.8v-.87L3.35 0zM9 0L0 5.16V4.3L7.45 0zm4 0L0 7.53v-.87L11.54 0zm4.1 0L0 9.89V9l15.64-9zm4.1 0L0 12.26v-.87L19.74 0zm4.09 0L0 14.63v-.87L23.83 0zm4.1 0L0 17v-.86L27.93 0zm4.1 0L0 19.36v-.87L32 0zm3.35 0v.43L.75 21.29H0v-.43L36.13 0zm0 2.8l-32 18.49H3.35L36.88 1.93zm0 2.36L8.94 21.29H7.45l29.43-17zm0 2.37L13 21.29h-1.5L36.88 6.66zm0 2.36l-19.7 11.4h-1.5L36.88 9zm0 2.37l-15.64 9h-1.5l17.14-9.9zm0 2.37l-11.51 6.66h-1.5l13.05-7.53zm0 2.36l-7.45 4.3h-1.5l9-5.16zm0 2.37l-3.35 1.93H32l4.85-2.8zm0 1.93h-.75l.75-.43z"/></pattern><pattern id="f" data-name="f" width="36.88" height="21.29" patternTransform="rotate(-118 -1410.652 3051.99) scale(8.03)" patternUnits="userSpaceOnUse"><path class="cls-1" d="M0 0h36.88v21.29H0z"/><path class="cls-1" d="M0 21.29h36.88V0H0z"/><path class="cls-1" d="M0 21.29h36.88V0H0z"/><path class="cls-4" d="M0 0h.75L0 .43zm4.85 0L0 2.8v-.87L3.35 0zM9 0L0 5.16V4.3L7.45 0zm4 0L0 7.53v-.87L11.54 0zm4.1 0L0 9.89V9l15.64-9zm4.1 0L0 12.26v-.87L19.74 0zm4.09 0L0 14.63v-.87L23.83 0zm4.1 0L0 17v-.86L27.93 0zm4.1 0L0 19.36v-.87L32 0zm3.35 0v.43L.75 21.29H0v-.43L36.13 0zm0 2.8l-32 18.49H3.35L36.88 1.93zm0 2.36L8.94 21.29H7.45l29.43-17zm0 2.37L13 21.29h-1.5L36.88 6.66zm0 2.36l-19.7 11.4h-1.5L36.88 9zm0 2.37l-15.64 9h-1.5l17.14-9.9zm0 2.37l-11.51 6.66h-1.5l13.05-7.53zm0 2.36l-7.45 4.3h-1.5l9-5.16zm0 2.37l-3.35 1.93H32l4.85-2.8zm0 1.93h-.75l.75-.43z"/></pattern><clipPath id="clip-path-2"><path class="cls-1" d="M432.25 774.25c-10.79-13.47-11.9-15.28-25.46-37.39-8-14.53-8.59-16-18.36-40.4-3.18-9.73-6.79-22.89-9.34-32.8a31.31 31.31 0 0 1-.55-3.47l-1.07-6.77c-.49-2.61-.87-5-1.22-7.7-.7-5.35-1.31-12-2.45-24.5-.7-13.73-.65-14.69.83-39.24 1.25-12.71 1.34-13.17 6.23-36.79 2.87-11.82 3-12.24 10.9-34.38 4.34-11 4.34-11 15.15-32 5.75-10.3 5.75-10.3 19.24-29.65 3.94-5.18 9.53-11.78 13.73-16.84C358.61 334.94 247.1 235 111.5 195.89 38 421.13 144.62 686.55 199.06 799.3h256.45c-6.51-6.04-10.66-10.78-23.26-25.05z"/></clipPath></defs><g clip-path="url(#clip-path)"><path class="cls-6" d="M432.25 774.25c-10.79-13.47-11.9-15.28-25.46-37.39-8-14.53-8.59-16-18.36-40.4-3.18-9.73-6.79-22.89-9.34-32.8a31.31 31.31 0 0 1-.55-3.47l-1.07-6.77c-.49-2.61-.87-5-1.22-7.7-.7-5.35-1.31-12-2.45-24.5-.7-13.73-.65-14.69.83-39.24 1.25-12.71 1.34-13.17 6.23-36.79 2.87-11.82 3-12.24 10.9-34.38 4.34-11 4.34-11 15.15-32 5.75-10.3 5.75-10.3 19.24-29.65 3.94-5.18 9.53-11.78 13.73-16.84C358.61 334.94 247.1 235 111.5 195.89 38 421.13 144.62 686.55 199.06 799.3h256.45c-6.51-6.04-10.66-10.78-23.26-25.05zm88.65 25h.1c-1-2.51-1.86-5.11-2.74-7.78.81 2.68 1.74 5.28 2.64 7.83z"/><path d="M689.64 349.25l-13.1-2.35c-26.15-3-27.71-3.16-44.68-3-26 1.49-27.55 1.58-43.6 4.5-25.73 5.88-26.74 6.11-41.5 11.39-24.42 9.93-24.88 10.12-37.53 17C487.38 390 487.38 390 476.82 398c-18.93 15.53-18.93 15.53-27.69 24.41l-9 9.63c-4.8 5.27 9.43 27.31 40.57 62.17a85.47 85.47 0 0 1 34.41-23.65 70 70 0 0 1 38-3.17c37.89-80.78 90.74-127.58 136.53-118.14" fill="url(#b)"/><path d="M440.1 432c-4.23 5.1-9.94 11.84-14 17.11-13.49 19.35-13.49 19.35-19.24 29.65-10.81 21-10.81 21-15.15 32-7.87 22.14-8 22.56-10.9 34.38-4.89 23.62-5 24.08-6.23 36.79-1.48 24.55-1.53 25.51-.83 39.24 2.3 25.24 2.44 26.75 5.55 41.54-6-27.69 23.42-61.75 80.1-92.27-5.82-27.11 3.18-56 21.46-76.56-31.24-34.74-45.55-56.68-40.81-61.9" fill="url(#c)"/><path d="M690.39 349.61l-13.85-2.71c-26.15-3-27.71-3.16-44.68-3-26 1.49-27.55 1.58-43.6 4.5-25.73 5.88-26.74 6.11-41.5 11.39-24.42 9.93-24.88 10.12-37.53 17C487.38 390 487.38 390 476.82 398c-18.93 15.53-18.93 15.53-27.69 24.41l-9 9.63c-4.8 5.27 9.43 27.31 40.57 62.17a85.47 85.47 0 0 1 34.41-23.65 70.58 70.58 0 0 1 38.27-2.92c37.88-80.77 90.5-127.82 136.29-118.38" fill="#ffdb00"/><path class="cls-10" d="M604.53 544.82l-11.29 4.39-58.87 73.28a76.28 76.28 0 0 0 12.78-3.43 82.17 82.17 0 0 0 16.2-8l35.92-44.71a89.64 89.64 0 0 0 5.26-21.53zM502.6 584.41l-20.32 25.3a62.37 62.37 0 0 0 13.22 8.14l35.83-44.6zm45.32-17.6l-43.6 54.28c1.4.4 2.82.76 4.26 1.06h.16a65.75 65.75 0 0 0 13.35 1.37l54.56-67.91zM470.29 597a67 67 0 0 0 5.45 6.68L486 590.85z"/><path class="cls-11" d="M581.49 595.55l.13-.15a93.76 93.76 0 0 0 17.65-29.09L563.35 611a88.17 88.17 0 0 0 18.14-15.45zm-4.84-39.9l-54.56 67.91a69.2 69.2 0 0 0 12.28-1.07l58.87-73.28zm-45.32 17.6l-35.83 44.6a61.27 61.27 0 0 0 8.82 3.24l43.6-54.28zM486 590.85l-10.27 12.79a64.75 64.75 0 0 0 6.54 6.07l20.32-25.3z"/><path class="cls-10" d="M459 571a75 75 0 0 0 3.17 10.69l92-114.5c-.23-.05-.45-.11-.68-.15h-.16a66.76 66.76 0 0 0-17.84-1.17l-77.79 96.84A77.63 77.63 0 0 0 459 571zm-1.58-22.19L522.37 468c-2.4.61-4.81 1.36-7.21 2.23a84.34 84.34 0 0 0-28.4 17.49l-16.85 21a91 91 0 0 0-12.49 40.09zM470.29 597l15.71-6.15 91.15-113.47a62.31 62.31 0 0 0-13.8-7.38l-97 120.75a67.63 67.63 0 0 0 3.94 6.25zm106.36-41.35l27.3-34c-.19-1.1-.39-2.19-.62-3.28a.37.37 0 0 0-.05-.23V518a73.8 73.8 0 0 0-4.67-14.2l-50.61 63zm-45.32 17.6l62.67-78a64.32 64.32 0 0 0-10-12.19l-81.4 101.35zm61.91-24l11.29-4.38a83.44 83.44 0 0 0 .56-10.36z"/><path class="cls-11" d="M593.24 549.2l11.85-14.74a80.77 80.77 0 0 0-1.14-12.8l-27.3 34zm-61.91 24l16.59-6.44 50.65-63a69.06 69.06 0 0 0-4.57-8.52zm-28.73 11.21L584 483.05a63.14 63.14 0 0 0-6.86-5.67L486 590.85zm-36.24 6.3l97-120.75a63.92 63.92 0 0 0-9.19-2.76l-92 114.5a69.49 69.49 0 0 0 4.19 9.01zm-8.67-28l77.79-96.84a72.61 72.61 0 0 0-13.11 2.13l-64.95 80.85a81.89 81.89 0 0 0 .27 13.83zm22.94-68.77l-.13.15a92.57 92.57 0 0 0-10.59 14.6l16.85-21q-3.21 2.96-6.13 6.22z"/><path d="M597.62 267.46s-25.9 1-37.33 22.6c-16.95-17.65-42.12-11.45-42.12-11.45M699.2 202s-47.54-10.47-78.52 23.46c-22.47-40.08-71.14-40.69-71.14-40.69" stroke-miterlimit="10" stroke="#ffed94" stroke-width="10" fill="none"/><path class="cls-13" d="M602.92 518.36a1.74 1.74 0 0 1 .05.22c5.85 27.21-3.24 56.17-21.64 76.78C661.26 669.84 750.51 742.42 800 771.9V502c-54.79-6.32-126.27-.53-197.08 16.36z"/><path d="M721 357.92c-9.12-2.69-21.31-6.18-30.57-8.31-45.85-9.59-98.93 37.2-137 118 24.09 5 43.59 23.55 49.59 50.75 70.8-17.06 142.27-23 197.06-16.75V400.9c-12.13-9.6-15.55-11.9-28.17-19.58-21.47-11.63-26.55-14.39-50.91-23.4zM581.16 595.54A85.2 85.2 0 0 1 546.93 619a69.83 69.83 0 0 1-38.29 3.12c-9.43 82.22-2 139.11 12.32 177.2H800v-26.64l-.36-.21C750.17 743 661 670.27 581.16 595.54z" fill="url(#d)"/><path class="cls-13" d="M508.52 622c-24.06-5.11-43.5-23.72-49.41-51-56.69 30.67-86 64.86-80 92.61 2.55 9.91 6.16 23.07 9.34 32.8 9.77 24.41 10.35 25.87 18.36 40.4 13.56 22.11 14.67 23.92 25.46 37.39 12.6 14.27 16.78 19 23.26 25h65.37c-20.13-54-19-127.64-12.38-177.2z"/><path d="M409.45 758.08L111.5 195.89C38 421.13 144.62 686.55 199.06 799.3H431.3l-21.85-41.22z" fill="url(#e)"/><path d="M432.25 774.25c-10.79-13.47-11.9-15.28-25.46-37.39-8-14.53-8.59-16-18.36-40.4-3.18-9.73-6.79-22.89-9.34-32.8a31.31 31.31 0 0 1-.55-3.47l-1.07-6.77c-.49-2.61-.87-5-1.22-7.7-.7-5.35-1.31-12-2.45-24.5-.7-13.73-.65-14.69.83-39.24 1.25-12.71 1.34-13.17 6.23-36.79 2.87-11.82 3-12.24 10.9-34.38 4.34-11 4.34-11 15.15-32 5.75-10.3 5.75-10.3 19.24-29.65 3.94-5.18 9.53-11.78 13.73-16.84C358.61 334.94 247.1 235 111.5 195.89l298 562.19 21.8 41.22h24.21c-6.51-6-10.66-10.78-23.26-25zm88.65 25h.1c-1-2.51-1.86-5.11-2.74-7.78.81 2.68 1.74 5.28 2.64 7.83z" fill="url(#f)"/><g clip-path="url(#clip-path-2)"><path class="cls-18" d="M313.48 278.76l-40.23 222-199.78-86.5"/><path class="cls-18" d="M225.39 224.6l-25.28 139.53L73.47 309.3"/></g><path class="cls-6" d="M520.9 799.3h.1c-1-2.51-1.86-5.11-2.74-7.78.81 2.63 1.74 5.23 2.64 7.78z"/></g></svg>